<svg width="377" height="143" viewBox="0 0 377 143" fill="none" xmlns="http://www.w3.org/2000/svg">
<rect opacity="0.05" x="0.5" width="35.6426" height="142.38" rx="2.75934" fill="url(#paint0_linear_2032_2557)"/>
<rect opacity="0.05" x="46.1426" width="35.6426" height="142.38" rx="2.75934" fill="url(#paint1_linear_2032_2557)"/>
<rect opacity="0.05" x="91.7853" width="35.6426" height="142.38" rx="2.75934" fill="url(#paint2_linear_2032_2557)"/>
<rect opacity="0.05" x="137.428" width="35.6426" height="142.38" rx="2.75934" fill="url(#paint3_linear_2032_2557)"/>
<rect opacity="0.05" x="183.071" width="35.6426" height="142.38" rx="2.75934" fill="url(#paint4_linear_2032_2557)"/>
<rect opacity="0.1" x="228.713" width="35.6426" height="142.38" rx="2.75934" fill="#5A9850"/>
<rect opacity="0.05" x="274.356" width="35.6426" height="142.38" rx="2.75934" fill="url(#paint5_linear_2032_2557)"/>
<rect opacity="0.05" x="319.998" width="35.6426" height="142.38" rx="2.75934" fill="url(#paint6_linear_2032_2557)"/>
<rect opacity="0.05" x="365.641" width="35.6426" height="142.38" rx="2.75934" fill="url(#paint7_linear_2032_2557)"/>
<path d="M107.428 70.8583C113.617 40.224 131.379 -6.3774 152.916 52.292C174.452 110.961 188.501 76.7376 192.833 52.292C202.735 50.126 223.282 52.4777 226.252 79.2131C229.223 105.949 252.245 78.5943 263.385 61.5752C269.08 52.874 296.618 67.1451 303.302 85.7113C309.986 104.278 331.461 115.108 341.363 118.202" stroke="#5A9850" stroke-width="2"/>
<g filter="url(#filter0_d_2032_2557)">
<rect x="122.08" y="30.094" width="129.765" height="18.4342" rx="5" fill="white"/>
</g>
<path d="M130.624 41.0326V39.8217L133.66 35.0383H134.704V36.7144H134.087L132.172 39.7436V39.8004H136.487V41.0326H130.624ZM134.115 42.311V40.6633L134.143 40.1271V35.0383H135.585V42.311H134.115ZM140.168 42.4105C139.666 42.4105 139.219 42.3181 138.826 42.1335C138.435 41.9488 138.125 41.6943 137.895 41.37C137.665 41.0456 137.546 40.674 137.536 40.2549H139.028C139.045 40.5367 139.163 40.7651 139.383 40.9403C139.603 41.1155 139.865 41.2031 140.168 41.2031C140.409 41.2031 140.622 41.1498 140.807 41.0433C140.994 40.9344 141.14 40.784 141.244 40.5923C141.35 40.3982 141.404 40.1756 141.404 39.9247C141.404 39.669 141.349 39.4441 141.24 39.25C141.134 39.0558 140.986 38.9043 140.796 38.7954C140.607 38.6865 140.39 38.6309 140.147 38.6285C139.933 38.6285 139.726 38.6723 139.525 38.7599C139.326 38.8475 139.171 38.967 139.06 39.1186L137.693 38.8735L138.037 35.0383H142.483V36.2954H139.305L139.117 38.1171H139.159C139.287 37.9372 139.48 37.7881 139.738 37.6697C139.996 37.5513 140.285 37.4921 140.605 37.4921C141.043 37.4921 141.433 37.5951 141.777 37.8011C142.12 38.0071 142.391 38.29 142.59 38.6498C142.789 39.0073 142.887 39.4192 142.884 39.8856C142.887 40.3757 142.773 40.8113 142.544 41.1924C142.316 41.5712 141.998 41.8695 141.588 42.0873C141.181 42.3027 140.708 42.4105 140.168 42.4105ZM146.808 42.4708C146.198 42.4685 145.672 42.3181 145.232 42.0198C144.794 41.7215 144.456 41.2895 144.22 40.7237C143.985 40.1579 143.869 39.4772 143.872 38.6818C143.872 37.8887 143.989 37.2128 144.223 36.6541C144.46 36.0954 144.797 35.6704 145.235 35.3792C145.676 35.0857 146.2 34.9389 146.808 34.9389C147.417 34.9389 147.94 35.0857 148.378 35.3792C148.818 35.6728 149.157 36.0989 149.394 36.6576C149.63 37.214 149.748 37.8887 149.745 38.6818C149.745 39.4796 149.627 40.1614 149.39 40.7272C149.156 41.293 148.82 41.7251 148.382 42.0234C147.944 42.3217 147.419 42.4708 146.808 42.4708ZM146.808 41.196C147.225 41.196 147.558 40.9865 147.806 40.5674C148.055 40.1484 148.178 39.5198 148.176 38.6818C148.176 38.1302 148.119 37.6709 148.005 37.3039C147.894 36.937 147.735 36.6612 147.529 36.4765C147.326 36.2919 147.085 36.1995 146.808 36.1995C146.394 36.1995 146.063 36.4067 145.814 36.821C145.566 37.2353 145.44 37.8555 145.438 38.6818C145.438 39.2405 145.493 39.7069 145.605 40.0809C145.718 40.4526 145.878 40.732 146.084 40.919C146.29 41.1036 146.531 41.196 146.808 41.196ZM153.693 42.4708C153.082 42.4685 152.557 42.3181 152.117 42.0198C151.679 41.7215 151.341 41.2895 151.104 40.7237C150.87 40.1579 150.754 39.4772 150.756 38.6818C150.756 37.8887 150.874 37.2128 151.108 36.6541C151.345 36.0954 151.682 35.6704 152.12 35.3792C152.56 35.0857 153.085 34.9389 153.693 34.9389C154.302 34.9389 154.825 35.0857 155.263 35.3792C155.703 35.6728 156.042 36.0989 156.278 36.6576C156.515 37.214 156.632 37.8887 156.63 38.6818C156.63 39.4796 156.512 40.1614 156.275 40.7272C156.041 41.293 155.704 41.7251 155.266 42.0234C154.828 42.3217 154.304 42.4708 153.693 42.4708ZM153.693 41.196C154.11 41.196 154.443 40.9865 154.691 40.5674C154.94 40.1484 155.063 39.5198 155.06 38.6818C155.06 38.1302 155.004 37.6709 154.89 37.3039C154.779 36.937 154.62 36.6612 154.414 36.4765C154.211 36.2919 153.97 36.1995 153.693 36.1995C153.279 36.1995 152.948 36.4067 152.699 36.821C152.45 37.2353 152.325 37.8555 152.323 38.6818C152.323 39.2405 152.378 39.7069 152.489 40.0809C152.603 40.4526 152.763 40.732 152.969 40.919C153.175 41.1036 153.416 41.196 153.693 41.196ZM158.625 41.4659C158.391 41.4659 158.189 41.383 158.021 41.2173C157.855 41.0516 157.773 40.8503 157.773 40.6136C157.773 40.3816 157.855 40.1827 158.021 40.017C158.189 39.8513 158.391 39.7684 158.625 39.7684C158.852 39.7684 159.051 39.8513 159.221 40.017C159.392 40.1827 159.477 40.3816 159.477 40.6136C159.477 40.7698 159.437 40.9131 159.356 41.0433C159.278 41.1711 159.175 41.2741 159.047 41.3522C158.92 41.428 158.779 41.4659 158.625 41.4659ZM158.625 37.897C158.391 37.897 158.189 37.8141 158.021 37.6484C157.855 37.4827 157.773 37.2814 157.773 37.0447C157.773 36.8127 157.855 36.615 158.021 36.4517C158.189 36.2859 158.391 36.2031 158.625 36.2031C158.852 36.2031 159.051 36.2859 159.221 36.4517C159.392 36.615 159.477 36.8127 159.477 37.0447C159.477 37.2033 159.437 37.3477 159.356 37.4779C159.278 37.6058 159.175 37.7076 159.047 37.7833C158.92 37.8591 158.779 37.897 158.625 37.897Z" fill="#5A9850"/>
<path d="M163.062 42.311V35.0383H164.6V41.0433H167.718V42.311H163.062ZM171.172 42.4176C170.62 42.4176 170.143 42.3004 169.741 42.066C169.341 41.8293 169.032 41.5002 168.814 41.0788C168.596 40.655 168.487 40.1638 168.487 39.6051C168.487 39.0416 168.596 38.5492 168.814 38.1278C169.032 37.704 169.341 37.375 169.741 37.1406C170.143 36.9038 170.62 36.7855 171.172 36.7855C171.724 36.7855 172.199 36.9038 172.599 37.1406C173.002 37.375 173.312 37.704 173.53 38.1278C173.748 38.5492 173.857 39.0416 173.857 39.6051C173.857 40.1638 173.748 40.655 173.53 41.0788C173.312 41.5002 173.002 41.8293 172.599 42.066C172.199 42.3004 171.724 42.4176 171.172 42.4176ZM171.179 41.2457C171.43 41.2457 171.64 41.1747 171.808 41.0326C171.976 40.8882 172.102 40.6917 172.188 40.4431C172.275 40.1946 172.319 39.9117 172.319 39.5944C172.319 39.2772 172.275 38.9943 172.188 38.7457C172.102 38.4971 171.976 38.3006 171.808 38.1562C171.64 38.0118 171.43 37.9396 171.179 37.9396C170.926 37.9396 170.713 38.0118 170.54 38.1562C170.369 38.3006 170.24 38.4971 170.153 38.7457C170.068 38.9943 170.025 39.2772 170.025 39.5944C170.025 39.9117 170.068 40.1946 170.153 40.4431C170.24 40.6917 170.369 40.8882 170.54 41.0326C170.713 41.1747 170.926 41.2457 171.179 41.2457ZM175.78 42.311L174.295 36.8565H175.826L176.671 40.5213H176.721L177.601 36.8565H179.103L179.998 40.5H180.044L180.875 36.8565H182.402L180.922 42.311H179.32L178.383 38.8806H178.315L177.378 42.311H175.78ZM185.126 35.0383H186.848L188.507 38.1704H188.578L190.236 35.0383H191.959L189.306 39.74V42.311H187.779V39.74L185.126 35.0383ZM194.113 42.4176C193.552 42.4176 193.069 42.3039 192.664 42.0767C192.262 41.847 191.952 41.5227 191.734 41.1036C191.516 40.6822 191.407 40.1839 191.407 39.6086C191.407 39.0475 191.516 38.5551 191.734 38.1313C191.952 37.7076 192.258 37.3773 192.654 37.1406C193.051 36.9038 193.518 36.7855 194.053 36.7855C194.413 36.7855 194.748 36.8435 195.058 36.9595C195.37 37.0731 195.643 37.2447 195.875 37.4744C196.109 37.704 196.291 37.9929 196.421 38.3409C196.552 38.6865 196.617 39.0913 196.617 39.5554V39.9708H192.011V39.0333H195.193C195.193 38.8155 195.145 38.6226 195.051 38.4545C194.956 38.2864 194.825 38.155 194.656 38.0603C194.491 37.9633 194.298 37.9147 194.078 37.9147C193.848 37.9147 193.644 37.968 193.467 38.0745C193.292 38.1787 193.154 38.3196 193.055 38.4971C192.955 38.6723 192.905 38.8676 192.902 39.0831V39.9744C192.902 40.2443 192.952 40.4775 193.051 40.674C193.153 40.8705 193.296 41.022 193.481 41.1285C193.666 41.235 193.885 41.2883 194.138 41.2883C194.306 41.2883 194.46 41.2646 194.6 41.2173C194.739 41.1699 194.859 41.0989 194.958 41.0042C195.058 40.9095 195.134 40.7935 195.186 40.6562L196.585 40.7485C196.514 41.0847 196.368 41.3783 196.148 41.6292C195.93 41.8778 195.648 42.0719 195.303 42.2116C194.96 42.3489 194.563 42.4176 194.113 42.4176ZM197.604 42.311V36.8565H199.117V42.311H197.604ZM198.364 36.1534C198.139 36.1534 197.946 36.0788 197.785 35.9296C197.626 35.7781 197.547 35.597 197.547 35.3863C197.547 35.178 197.626 34.9992 197.785 34.8501C197.946 34.6986 198.139 34.6228 198.364 34.6228C198.589 34.6228 198.781 34.6986 198.939 34.8501C199.1 34.9992 199.181 35.178 199.181 35.3863C199.181 35.597 199.1 35.7781 198.939 35.9296C198.781 36.0788 198.589 36.1534 198.364 36.1534ZM201.841 35.0383V42.311H200.329V35.0383H201.841ZM205.063 42.3998C204.649 42.3998 204.274 42.2933 203.937 42.0802C203.604 41.8648 203.338 41.5487 203.142 41.1321C202.948 40.713 202.851 40.1993 202.851 39.5909C202.851 38.9659 202.951 38.4462 203.153 38.0319C203.354 37.6152 203.621 37.3039 203.955 37.098C204.291 36.8896 204.659 36.7855 205.06 36.7855C205.365 36.7855 205.619 36.8376 205.823 36.9417C206.029 37.0435 206.195 37.1714 206.32 37.3252C206.448 37.4768 206.545 37.6259 206.611 37.7727H206.658V35.0383H208.167V42.311H206.675V41.4375H206.611C206.54 41.589 206.44 41.7393 206.31 41.8884C206.182 42.0352 206.015 42.1572 205.809 42.2542C205.605 42.3513 205.357 42.3998 205.063 42.3998ZM205.543 41.196C205.786 41.196 205.992 41.1297 206.16 40.9971C206.331 40.8622 206.461 40.674 206.551 40.4325C206.643 40.191 206.69 39.9081 206.69 39.5838C206.69 39.2594 206.645 38.9777 206.555 38.7386C206.465 38.4995 206.334 38.3148 206.164 38.1846C205.993 38.0544 205.786 37.9893 205.543 37.9893C205.294 37.9893 205.084 38.0568 204.914 38.1917C204.743 38.3267 204.614 38.5137 204.527 38.7528C204.439 38.9919 204.395 39.2689 204.395 39.5838C204.395 39.901 204.439 40.1815 204.527 40.4254C204.617 40.6669 204.746 40.8563 204.914 40.9936C205.084 41.1285 205.294 41.196 205.543 41.196ZM211.725 42.311V36.8565H213.238V42.311H211.725ZM212.485 36.1534C212.26 36.1534 212.067 36.0788 211.906 35.9296C211.748 35.7781 211.668 35.597 211.668 35.3863C211.668 35.178 211.748 34.9992 211.906 34.8501C212.067 34.6986 212.26 34.6228 212.485 34.6228C212.71 34.6228 212.902 34.6986 213.06 34.8501C213.221 34.9992 213.302 35.178 213.302 35.3863C213.302 35.597 213.221 35.7781 213.06 35.9296C212.902 36.0788 212.71 36.1534 212.485 36.1534ZM215.962 39.1576V42.311H214.45V36.8565H215.891V37.8188H215.955C216.076 37.5016 216.278 37.2507 216.563 37.066C216.847 36.879 217.191 36.7855 217.596 36.7855C217.975 36.7855 218.305 36.8683 218.587 37.034C218.868 37.1998 219.087 37.4365 219.244 37.7443C219.4 38.0497 219.478 38.4143 219.478 38.838V42.311H217.965V39.1079C217.968 38.7741 217.882 38.5137 217.71 38.3267C217.537 38.1373 217.299 38.0426 216.996 38.0426C216.792 38.0426 216.612 38.0864 216.456 38.174C216.302 38.2616 216.181 38.3894 216.094 38.5575C216.009 38.7232 215.965 38.9233 215.962 39.1576ZM223.013 35.0383H224.91L226.912 39.9247H226.998L229 35.0383H230.897V42.311H229.405V37.5774H229.345L227.463 42.2755H226.447L224.565 37.5596H224.505V42.311H223.013V35.0383ZM233.691 42.414C233.343 42.414 233.032 42.3536 232.76 42.2329C232.488 42.1098 232.272 41.9287 232.114 41.6896C231.958 41.4481 231.88 41.1474 231.88 40.7876C231.88 40.4846 231.935 40.2301 232.046 40.0241C232.158 39.8181 232.309 39.6524 232.501 39.5269C232.693 39.4015 232.911 39.3068 233.154 39.2429C233.401 39.1789 233.659 39.134 233.929 39.1079C234.246 39.0748 234.501 39.044 234.696 39.0156C234.89 38.9848 235.031 38.9398 235.118 38.8806C235.206 38.8215 235.25 38.7339 235.25 38.6179V38.5965C235.25 38.3716 235.179 38.1976 235.036 38.0745C234.897 37.9514 234.698 37.8899 234.44 37.8899C234.168 37.8899 233.951 37.9502 233.79 38.071C233.629 38.1893 233.522 38.3385 233.47 38.5184L232.071 38.4048C232.142 38.0733 232.282 37.7869 232.49 37.5454C232.699 37.3016 232.967 37.1145 233.296 36.9843C233.628 36.8518 234.011 36.7855 234.447 36.7855C234.75 36.7855 235.04 36.821 235.317 36.892C235.596 36.963 235.844 37.0731 236.059 37.2223C236.277 37.3714 236.449 37.5632 236.574 37.7975C236.7 38.0295 236.762 38.3077 236.762 38.6321V42.311H235.328V41.5546H235.285C235.197 41.7251 235.08 41.8754 234.933 42.0056C234.787 42.1335 234.61 42.2341 234.404 42.3075C234.198 42.3785 233.96 42.414 233.691 42.414ZM234.124 41.37C234.346 41.37 234.543 41.3262 234.713 41.2386C234.884 41.1486 235.018 41.0279 235.115 40.8764C235.212 40.7249 235.26 40.5532 235.26 40.3615V39.7826C235.213 39.8134 235.148 39.8418 235.065 39.8679C234.984 39.8915 234.893 39.914 234.791 39.9353C234.69 39.9543 234.588 39.972 234.486 39.9886C234.384 40.0028 234.292 40.0158 234.209 40.0277C234.031 40.0537 233.876 40.0951 233.744 40.1519C233.611 40.2088 233.508 40.2857 233.435 40.3828C233.362 40.4775 233.325 40.5958 233.325 40.7379C233.325 40.9438 233.399 41.1013 233.549 41.2102C233.7 41.3167 233.892 41.37 234.124 41.37ZM238.675 44.3565C238.483 44.3565 238.303 44.3411 238.135 44.3103C237.969 44.2819 237.832 44.2452 237.723 44.2002L238.064 43.071C238.241 43.1254 238.401 43.155 238.543 43.1598C238.688 43.1645 238.812 43.1313 238.916 43.0603C239.023 42.9893 239.109 42.8686 239.175 42.6981L239.264 42.4673L237.307 36.8565H238.898L240.028 40.8622H240.084L241.224 36.8565H242.826L240.706 42.9005C240.604 43.1941 240.466 43.4498 240.29 43.6676C240.118 43.8877 239.899 44.057 239.633 44.1754C239.368 44.2961 239.049 44.3565 238.675 44.3565Z" fill="#848484"/>
<defs>
<filter id="filter0_d_2032_2557" x="120.08" y="28.094" width="133.765" height="22.4342" filterUnits="userSpaceOnUse" color-interpolation-filters="sRGB">
<feFlood flood-opacity="0" result="BackgroundImageFix"/>
<feColorMatrix in="SourceAlpha" type="matrix" values="0 0 0 0 0 0 0 0 0 0 0 0 0 0 0 0 0 0 127 0" result="hardAlpha"/>
<feOffset/>
<feGaussianBlur stdDeviation="1"/>
<feComposite in2="hardAlpha" operator="out"/>
<feColorMatrix type="matrix" values="0 0 0 0 0 0 0 0 0 0 0 0 0 0 0 0 0 0 0.25 0"/>
<feBlend mode="normal" in2="BackgroundImageFix" result="effect1_dropShadow_2032_2557"/>
<feBlend mode="normal" in="SourceGraphic" in2="effect1_dropShadow_2032_2557" result="shape"/>
</filter>
<linearGradient id="paint0_linear_2032_2557" x1="18.3213" y1="0" x2="18.3213" y2="142.38" gradientUnits="userSpaceOnUse">
<stop stop-color="#4A6E44" stop-opacity="0"/>
<stop offset="1" stop-color="#4A6E44"/>
</linearGradient>
<linearGradient id="paint1_linear_2032_2557" x1="63.964" y1="0" x2="63.964" y2="142.38" gradientUnits="userSpaceOnUse">
<stop stop-color="#4A6E44" stop-opacity="0"/>
<stop offset="1" stop-color="#4A6E44"/>
</linearGradient>
<linearGradient id="paint2_linear_2032_2557" x1="109.607" y1="0" x2="109.607" y2="142.38" gradientUnits="userSpaceOnUse">
<stop stop-color="#4A6E44" stop-opacity="0"/>
<stop offset="1" stop-color="#4A6E44"/>
</linearGradient>
<linearGradient id="paint3_linear_2032_2557" x1="155.249" y1="0" x2="155.249" y2="142.38" gradientUnits="userSpaceOnUse">
<stop stop-color="#4A6E44" stop-opacity="0"/>
<stop offset="1" stop-color="#4A6E44"/>
</linearGradient>
<linearGradient id="paint4_linear_2032_2557" x1="200.892" y1="0" x2="200.892" y2="142.38" gradientUnits="userSpaceOnUse">
<stop stop-color="#4A6E44" stop-opacity="0"/>
<stop offset="1" stop-color="#4A6E44"/>
</linearGradient>
<linearGradient id="paint5_linear_2032_2557" x1="292.177" y1="0" x2="292.177" y2="142.38" gradientUnits="userSpaceOnUse">
<stop stop-color="#4A6E44" stop-opacity="0"/>
<stop offset="1" stop-color="#4A6E44"/>
</linearGradient>
<linearGradient id="paint6_linear_2032_2557" x1="337.82" y1="0" x2="337.82" y2="142.38" gradientUnits="userSpaceOnUse">
<stop stop-color="#4A6E44" stop-opacity="0"/>
<stop offset="1" stop-color="#4A6E44"/>
</linearGradient>
<linearGradient id="paint7_linear_2032_2557" x1="383.462" y1="0" x2="383.462" y2="142.38" gradientUnits="userSpaceOnUse">
<stop stop-color="#4A6E44" stop-opacity="0"/>
<stop offset="1" stop-color="#4A6E44"/>
</linearGradient>
</defs>
</svg>
