<svg width="113" height="113" viewBox="0 0 113 113" fill="none" xmlns="http://www.w3.org/2000/svg">
<path d="M29.6775 76.8966H64.1231V84.2643C64.1231 84.2643 29.7959 84.3827 29.6775 83.7668C29.559 83.1508 29.6775 76.8966 29.6775 76.8966Z" fill="#196F3A"/>
<path d="M29.7013 77.2516H62.7492C63.1993 77.2516 63.6494 77.2753 64.0995 77.2516H64.1469L63.531 76.9437V84.335L64.0995 83.9323H59.5036C55.9975 83.9323 52.4913 83.9323 49.0088 83.9086H48.3692H47.6111H46.1423L43.2047 83.8849C41.3806 83.8612 39.5801 83.8612 37.756 83.8138C35.3396 83.7665 32.8758 83.7902 30.4594 83.5532C30.3409 83.5532 30.1988 83.5296 30.0804 83.5059C29.9619 83.4822 30.2462 83.5532 30.0804 83.5059C30.0567 83.5059 30.0093 83.4822 29.9856 83.4822C29.9856 83.4348 30.1988 83.6243 30.2225 83.648C30.2462 83.6717 30.2225 83.7665 30.2462 83.6954C30.2462 83.648 30.2462 83.6006 30.2225 83.5532C30.1988 83.2453 30.1988 82.9373 30.1988 82.6293C30.1751 80.8289 30.1988 79.0284 30.2462 77.228V76.8489C30.2462 76.3751 29.0854 76.4462 29.0617 76.9437C29.038 78.4599 29.0143 79.976 29.0143 81.4685C28.9906 82.2029 28.9906 82.961 29.0617 83.6954C29.0854 84.0271 29.3223 84.1218 29.6065 84.1929C30.3646 84.3113 31.1464 84.3824 31.9282 84.3824C33.2785 84.4298 34.6526 84.4772 36.0029 84.5009C37.7797 84.5245 39.5328 84.5719 41.3095 84.5719C43.2758 84.5956 45.2421 84.5956 47.2084 84.6193C49.1747 84.6193 51.1647 84.643 53.1546 84.643C54.884 84.643 56.6134 84.643 58.3191 84.643H62.1569C62.7729 84.643 63.4125 84.6667 64.0285 84.643H64.0995C64.3127 84.643 64.6681 84.5009 64.6681 84.2403V76.8489C64.6681 76.5646 64.2417 76.5409 64.0521 76.5409H33.8708C32.4968 76.5409 31.099 76.4936 29.7013 76.5409H29.6539C29.4407 76.5409 29.0854 76.6831 29.0854 76.9437C29.0854 77.2043 29.5118 77.2516 29.7013 77.2516Z" fill="#000005"/>
<path d="M83.6912 67.1835L64.1231 76.8965V84.2641C64.1231 84.2641 83.8097 74.788 83.6912 74.0536C83.5728 73.3192 83.6912 67.1835 83.6912 67.1835Z" fill="white"/>
<path d="M83.4781 66.8517L81.5355 67.823L76.8685 70.1446L71.2066 72.9637L66.3501 75.3565C65.5683 75.7355 64.7391 76.1145 63.9811 76.541L63.9574 76.5647C63.7442 76.6594 63.6257 76.8726 63.602 77.1095V84.4772C63.602 84.8562 64.1706 84.6904 64.3364 84.6193C65.3788 84.1218 66.4212 83.6007 67.4635 83.1032C69.7378 81.9897 72.0121 80.8763 74.2626 79.7392C76.5369 78.602 78.7875 77.4649 81.0143 76.233C81.725 75.8303 82.4594 75.4512 83.1465 75.0011C83.5255 74.7642 84.2362 74.3852 84.2125 73.864C84.1414 71.6371 84.1651 69.4102 84.2125 67.1833C84.2125 67.1123 84.2125 67.0412 84.2125 66.9701C84.2125 66.6858 83.7861 66.7095 83.6203 66.7569C83.336 66.828 83.1465 67.0649 83.1228 67.3492C83.0754 69.4813 83.0043 71.6371 83.0991 73.7929C83.0991 73.8877 83.0754 74.1483 83.1228 74.243C83.1228 74.1956 83.1465 74.1246 83.1701 74.0772C83.1465 74.1009 83.2886 73.935 83.1938 74.0298C83.1701 74.0772 83.336 73.9114 83.2175 74.0061C83.1938 74.0298 83.1465 74.0535 83.1228 74.0772C83.0991 74.1009 83.0517 74.1246 83.0043 74.1719C82.9096 74.243 83.1465 74.0772 83.0517 74.1483L82.9806 74.1956C82.3647 74.6221 81.7014 74.9774 81.0617 75.3328C78.9296 76.5173 76.7501 77.607 74.5706 78.7205C72.2963 79.8813 69.9984 81.0184 67.6767 82.1319L65.213 83.3401C64.8102 83.5296 64.3838 83.7191 64.0048 83.9323L63.9574 83.956L64.6918 84.0982V76.7305L64.3364 77.2517L66.279 76.2804L70.946 73.9587L76.608 71.1396L81.4881 68.7232C82.2699 68.3205 83.0991 67.9651 83.8572 67.5387L83.8809 67.515C84.0941 67.4202 84.331 67.1123 84.1888 66.8754C84.0467 66.6385 83.6913 66.7332 83.4781 66.8517Z" fill="#000005"/>
<path d="M29.6775 76.8965L48.7482 67.1835H83.6912L64.1231 76.8965H29.6775Z" fill="#000005"/>
<path d="M30.1041 77.2518L31.9993 76.2805L36.5478 73.9588L42.044 71.1397L46.8057 68.6996L48.3693 67.8941C48.6062 67.7757 48.8904 67.6572 49.1273 67.5151L49.151 67.4914L48.9141 67.5625H82.4121C82.8622 67.5625 83.336 67.5862 83.7861 67.5625H83.8335L83.2413 66.8044L81.2987 67.752L76.6317 70.0736L70.9697 72.8928L66.0895 75.3092L64.4786 76.1147C64.218 76.2331 63.9574 76.3516 63.7205 76.4937L63.6968 76.5174L63.9337 76.4463H33.7287C32.3547 76.4463 30.9569 76.3989 29.5592 76.4463H29.5118C29.3223 76.4226 29.1328 76.5648 29.1328 76.7543C29.1328 76.8017 29.1328 76.8491 29.1565 76.8964C29.2512 77.1807 29.6066 77.2992 29.8672 77.2992H64.1469C64.3602 77.2992 64.5734 77.2518 64.7629 77.1333L66.3028 76.3752L72.4622 73.3192L79.593 69.7894L83.952 67.6336L84.1652 67.5388C84.3073 67.444 84.3547 67.2545 84.2599 67.0887C84.2599 67.065 84.2363 67.065 84.2126 67.0413C84.0467 66.8518 83.8098 66.7333 83.5492 66.757H48.8667C48.6535 66.7333 48.4403 66.7807 48.2508 66.8755C47.8007 67.0887 47.3743 67.3256 46.9241 67.5388L40.9542 70.5711L33.8471 74.1957L29.4645 76.4226L29.2512 76.5411C28.9906 76.6595 29.1091 76.9912 29.2749 77.1333C29.5118 77.3229 29.8198 77.3702 30.1041 77.2518Z" fill="#000005"/>
<path d="M53.0124 80.1897C53.3914 80.0949 53.7942 80.0475 54.1969 80.0001C54.5996 79.9765 54.9787 79.9528 55.3814 79.9528C55.7841 79.9528 56.1632 79.9765 56.5659 80.0001C56.9687 80.0238 57.3714 80.0949 57.7504 80.1897C57.3714 80.2844 56.9687 80.3555 56.5659 80.3792C56.1632 80.4029 55.7841 80.4266 55.3814 80.4266C54.9787 80.4266 54.5996 80.4029 54.1969 80.3792C53.7942 80.3555 53.4151 80.2844 53.0124 80.1897Z" fill="white"/>
<path d="M53.4862 80.5445C54.2443 80.3787 55.0023 80.3076 55.7841 80.3076C56.5422 80.2839 57.324 80.3787 58.0584 80.5208L57.324 79.8575C56.5659 80.0233 55.8078 80.0944 55.026 80.0944C54.2679 80.1181 53.4862 80.0233 52.7518 79.8812C52.5386 79.8338 52.4675 79.9522 52.6096 80.1181C52.7991 80.3313 53.036 80.4734 53.3203 80.5445C54.1258 80.734 54.955 80.8051 55.8078 80.8051C56.637 80.8288 57.4661 80.734 58.2716 80.5682C58.4374 80.5208 58.2005 80.2602 58.1531 80.2365C57.9636 80.0707 57.7504 79.9522 57.5135 79.8812C56.708 79.6917 55.8789 79.5969 55.026 79.6206C54.1969 79.6206 53.3914 79.6917 52.5859 79.8812C52.3727 79.9286 52.7755 80.2602 52.8228 80.3076C52.965 80.4024 53.2493 80.5919 53.4862 80.5445Z" fill="white"/>
<path d="M34.5813 79.3604C34.5813 79.3604 32.8993 79.0051 32.8993 80.3791C32.8993 81.7531 34.1549 81.7531 35.0077 81.3504C35.8606 80.9476 35.5526 79.4789 34.5813 79.3604Z" fill="#000005"/>
<path d="M34.9841 79.171C34.4866 79.0762 33.9891 79.0762 33.4916 79.1946C33.1362 79.2657 32.8046 79.4552 32.544 79.7158C32.3545 80.0001 32.2834 80.3318 32.3308 80.6871C32.3545 81.0425 32.544 81.3505 32.8283 81.5637C33.1599 81.7769 33.5627 81.8716 33.9654 81.8479C34.4392 81.8479 34.913 81.7295 35.3394 81.5637C35.6711 81.4452 35.9317 81.1846 36.0501 80.8766C36.1449 80.5213 36.0975 80.1423 35.9317 79.8343C35.6948 79.4789 35.3157 79.242 34.8656 79.1946C34.7235 79.171 34.5577 79.1946 34.4155 79.2183C34.2971 79.242 34.1786 79.2894 34.0839 79.3605C33.8943 79.5263 34.2023 79.6211 34.3208 79.6448C34.2023 79.6211 34.4392 79.6685 34.3208 79.6448H34.3681C34.4392 79.6685 34.3444 79.6448 34.3444 79.6448C34.3918 79.6921 34.4629 79.7158 34.534 79.7395C34.4629 79.6921 34.534 79.7395 34.5577 79.7632C34.5813 79.7869 34.605 79.8106 34.6287 79.8343C34.6761 79.8817 34.7235 79.929 34.7709 80.0001C34.7946 80.0238 34.7946 80.0475 34.8182 80.0712L34.8419 80.1186C34.8182 80.0712 34.8656 80.1423 34.8419 80.1186C34.8656 80.1896 34.8893 80.237 34.913 80.3081C34.9367 80.4265 34.9604 80.5687 34.9604 80.6871C34.9604 80.7108 34.9604 80.7582 34.9604 80.7819C34.9604 80.8056 34.9367 80.8767 34.9604 80.8293C34.9367 80.9003 34.913 80.9477 34.8893 81.0188C34.8656 81.0662 34.8182 81.1136 34.7946 81.1609C34.7709 81.2083 34.7946 81.1609 34.8182 81.1609L34.7709 81.1846C34.7472 81.2083 34.7235 81.232 34.6761 81.2557C34.6287 81.2794 34.6287 81.2557 34.6998 81.232C34.6761 81.232 34.6761 81.2557 34.6524 81.2557L34.5577 81.3031L34.5103 81.3268C34.4392 81.3505 34.5577 81.3031 34.5577 81.3031L34.4392 81.3505L34.3444 81.3741L34.4155 81.3505C34.3918 81.3505 34.3918 81.3505 34.3681 81.3505L34.2734 81.3741C34.1312 81.3978 34.4392 81.3505 34.2971 81.3741C34.2497 81.3741 34.226 81.3741 34.1786 81.3741C34.1312 81.3741 34.3444 81.3741 34.2734 81.3741H34.226C34.1786 81.3741 34.0602 81.3505 34.2497 81.3741H34.1549C34.0365 81.3741 34.2734 81.3978 34.1549 81.3741L34.0602 81.3505C33.9654 81.3268 34.1312 81.3741 34.0602 81.3505C34.0365 81.3268 33.9891 81.3268 33.9654 81.3031C33.9417 81.2794 33.918 81.2794 33.8943 81.2557C33.8469 81.2083 33.8706 81.2557 33.8943 81.2557L33.8706 81.232C33.8233 81.1846 33.7759 81.1372 33.7285 81.0899C33.6811 81.0425 33.6574 80.9951 33.6337 80.924C33.6574 80.9714 33.61 80.9003 33.61 80.8766C33.5864 80.8293 33.5864 80.7819 33.5627 80.7582C33.5153 80.5924 33.5153 80.4265 33.5153 80.2607C33.5153 80.1896 33.539 80.1186 33.539 80.0475C33.539 80.0712 33.5627 79.9764 33.539 80.0475C33.539 80.0238 33.539 80.0238 33.5627 80.0001C33.5627 79.9764 33.5864 79.929 33.61 79.9054C33.6337 79.858 33.6574 79.8106 33.7048 79.7632C33.7048 79.7632 33.7759 79.6921 33.7285 79.7158C33.6811 79.7395 33.7759 79.6921 33.7759 79.6685L33.8233 79.6211L33.8706 79.5974C33.918 79.5737 33.7759 79.6448 33.8233 79.6211L33.8706 79.5974C33.9891 79.55 33.7759 79.6211 33.8469 79.5974L33.9417 79.5737C33.9891 79.5737 34.0365 79.55 33.8469 79.5974H33.8943L33.9654 79.5737C33.7285 79.6211 33.8469 79.5974 33.918 79.5737H34.0128C34.0602 79.5737 34.1312 79.5737 33.8943 79.5737H34.0839C34.1786 79.5737 33.8943 79.55 34.0365 79.5737H34.0839H34.1786H34.2497L34.1549 79.55C34.4392 79.6211 34.7235 79.5974 34.9841 79.4552C35.0551 79.4315 35.1499 79.3605 35.1499 79.2894C35.1499 79.2183 35.0315 79.171 34.9841 79.171Z" fill="#000005"/>
<path d="M39.3194 79.3601C38.9878 79.2891 38.6561 79.3128 38.3481 79.4312C38.206 79.4786 38.0638 79.5733 37.9691 79.6918C37.8743 79.8102 37.8269 79.9524 37.8032 80.0945C37.7796 80.3788 37.8269 80.6868 37.9454 80.9237C38.0875 81.1369 38.3007 81.3027 38.5613 81.3264C38.8456 81.3738 39.1299 81.3501 39.4142 81.279C39.4852 81.2553 39.5563 81.2317 39.6274 81.208C39.6985 81.1843 39.7458 81.1606 39.8169 81.1132C39.9354 81.0421 40.0064 80.9237 40.0775 80.8052C40.196 80.5209 40.196 80.1893 40.0538 79.905C39.9827 79.7629 39.888 79.6207 39.7695 79.526C39.6274 79.4312 39.4852 79.3838 39.3194 79.3601ZM39.3194 79.3601C39.6511 79.4075 39.9354 79.597 40.1249 79.8813C40.3144 80.1656 40.3855 80.5446 40.3144 80.8763C40.267 81.0658 40.1723 81.2317 40.0301 81.3738C39.9591 81.4449 39.888 81.4923 39.7932 81.5396C39.7221 81.587 39.6274 81.6344 39.5563 81.6581C39.2247 81.8002 38.8456 81.8476 38.4903 81.8002C38.3007 81.7528 38.1112 81.6818 37.9454 81.5633C37.7796 81.4449 37.6611 81.279 37.59 81.0895C37.4716 80.7342 37.4716 80.3551 37.59 80.0235C37.6374 79.8576 37.7559 79.6918 37.898 79.5733C38.0401 79.4549 38.206 79.3838 38.3718 79.3601C38.6798 79.2891 39.0114 79.2891 39.3194 79.3601Z" fill="white"/>
<path d="M39.0588 78.8156C38.5613 78.7208 37.8743 78.7919 37.6137 79.2894C37.5189 79.55 37.4952 79.8106 37.5663 80.0949C37.6137 80.2844 37.6611 80.4739 37.7558 80.6397C37.8743 80.924 38.0164 81.1846 38.1823 81.4452C38.4902 81.8953 39.0588 81.9427 39.5563 81.8243C39.8169 81.8006 40.0538 81.6821 40.2433 81.4926C40.3855 81.2794 40.4565 81.0425 40.4328 80.7819C40.4091 80.5924 40.3618 80.3792 40.267 80.2133C40.1486 79.8817 39.9827 79.5737 39.7932 79.2894C39.6274 79.0525 39.3668 78.8867 39.0588 78.8156C39.0351 78.8156 39.1062 79.0288 39.0825 79.0051C39.1299 79.1473 39.1773 79.2657 39.2483 79.3842C39.2957 79.5026 39.3668 79.6448 39.4378 79.7395C39.4615 79.7869 39.5089 79.858 39.5563 79.8817C39.7695 79.9054 39.959 80.0001 40.1012 80.1659C40.3144 80.4028 39.959 79.8817 39.888 79.6921C39.8406 79.5737 39.888 79.7158 39.888 79.7395C39.9116 79.8343 39.9116 79.9527 39.888 80.0475C39.8643 80.237 39.7458 80.4028 39.6037 80.5213C39.4378 80.6397 39.2483 80.7108 39.0351 80.7345C38.6561 80.8293 38.1823 80.8293 37.8743 80.5687C37.8506 80.545 37.8269 80.5213 37.8032 80.4976C37.898 80.6634 37.9927 80.8293 38.0638 80.9951C38.0638 80.9951 38.0875 81.0425 38.0875 81.0662C38.0875 81.0188 38.0638 80.9951 38.0638 80.9477C38.0638 80.9003 38.0401 80.8293 38.0401 80.7819C38.0164 80.5687 38.0875 80.3555 38.206 80.1896C38.5139 79.8106 39.1062 79.8106 39.5563 79.8817C39.58 79.8817 39.5089 79.6684 39.5326 79.6921C39.4852 79.55 39.4378 79.4315 39.3668 79.3131C39.3194 79.1946 39.2483 79.0525 39.1773 78.9341C39.1536 78.9104 39.1299 78.8393 39.0588 78.8156Z" fill="white"/>
<path d="M39.5801 79.905C39.7696 79.9287 39.9355 79.9998 40.0776 80.0945C40.1487 80.1419 40.196 80.213 40.2671 80.2604C40.196 80.1182 40.125 79.9761 40.0539 79.8103C40.0539 79.7629 40.0776 79.9287 40.0776 79.905C40.1487 80.3078 39.9828 80.6868 39.6512 80.9237C39.3195 81.1606 38.9168 81.2791 38.4904 81.2791C38.2771 81.2791 38.0639 81.2317 37.8744 81.1369C37.7796 81.0895 37.7086 81.0421 37.6375 80.9948C37.6138 80.9711 37.5901 80.9474 37.5664 80.9237C37.4717 80.8289 37.6138 81.0422 37.6375 81.0658L37.8033 81.4449C37.6375 80.9711 37.7796 80.4499 38.135 80.1182C38.514 79.7866 39.1063 79.8103 39.5801 79.905C39.6038 79.905 39.5327 79.6918 39.5327 79.7155C39.4853 79.5734 39.438 79.4549 39.3669 79.3365C39.3195 79.218 39.2484 79.0759 39.1774 78.9574C39.1537 78.91 39.1063 78.839 39.0589 78.8153C38.4667 78.7205 37.6375 78.7205 37.3532 79.3838C37.2348 79.6918 37.1874 80.0472 37.2585 80.3788C37.3058 80.6394 37.4006 80.8763 37.5191 81.1132C37.6375 81.3738 37.756 81.6107 37.9218 81.8239C38.3245 82.3688 39.0589 82.4399 39.6749 82.2504C39.9828 82.1793 40.2434 81.9898 40.433 81.7529C40.5988 81.4686 40.6462 81.1606 40.5751 80.8289C40.504 80.5683 40.4093 80.3078 40.2908 80.0472C40.1724 79.7866 40.0302 79.526 39.8644 79.3128C39.6749 79.0522 39.3906 78.8863 39.0589 78.839C39.0352 78.839 39.1063 79.0522 39.0826 79.0285C39.13 79.1706 39.1774 79.2891 39.2484 79.4075C39.2958 79.526 39.3669 79.6681 39.438 79.7629C39.4853 79.8103 39.5327 79.8813 39.5801 79.905Z" fill="white"/>
<path d="M29.7013 64.1749H64.1469V71.5663C64.1469 71.5663 29.8197 71.6847 29.7013 71.0688C29.5828 70.4528 29.7013 64.1749 29.7013 64.1749Z" fill="#196F3A"/>
<path d="M29.8908 64.6014H62.9387C63.3888 64.6014 63.8389 64.6251 64.289 64.6014H64.3364L63.5783 64.1039V71.4953L63.981 71.1399H59.3614C55.879 71.1399 52.3965 71.1399 48.914 71.1162C45.1236 71.0925 41.3095 71.0688 37.519 71.0215C36.7136 71.0215 35.9081 70.9978 35.1026 70.9741H34.9368H34.6762L34.1313 70.9504L33.1837 70.9267C32.2361 70.903 31.2885 70.8793 30.3409 70.7845C30.2224 70.7845 30.0803 70.7609 29.9619 70.7372C29.9145 70.7135 29.8671 70.7135 29.8434 70.7135C30.0092 70.6898 29.9855 70.7609 29.8908 70.7135C30.0092 70.7609 30.1277 70.8319 30.1988 70.9267C30.1751 70.8793 30.2698 71.0688 30.2461 71.0215C30.3409 71.211 30.2461 71.1399 30.2698 71.0925C30.2698 71.0451 30.2698 70.9978 30.2461 70.9504C30.2224 70.6424 30.2224 70.3344 30.2224 70.0265C30.1988 68.226 30.2224 66.4255 30.2698 64.6251V64.246C30.2698 63.7249 29.1327 63.5116 29.109 64.1039C29.0853 65.6201 29.0616 67.1363 29.0616 68.6287C29.0379 69.3631 29.0379 70.1212 29.109 70.8556C29.1564 71.3294 29.5354 71.4716 29.9382 71.5426C30.6726 71.6374 31.3833 71.7085 32.1177 71.7085C33.5154 71.7558 34.8894 71.8032 36.2871 71.8269C38.0402 71.8506 39.817 71.898 41.5938 71.898C43.56 71.9217 45.5263 71.9217 47.4926 71.9454C49.4589 71.9691 51.4252 71.9691 53.3678 71.9691C55.0972 71.9691 56.8266 71.9691 58.5323 71.9691H62.3701C62.986 71.9691 63.6257 71.9928 64.2416 71.9691H64.3364C64.5496 71.9691 64.7154 71.8269 64.7391 71.6137V64.2224C64.7391 63.867 64.2416 63.7249 63.981 63.7249H33.7523C32.3783 63.7249 30.9568 63.6538 29.5828 63.7249H29.5354C29.3459 63.7012 29.1564 63.8433 29.1564 64.0565C29.1564 64.1039 29.1564 64.1513 29.1801 64.1987C29.2748 64.5066 29.6065 64.6014 29.8908 64.6014Z" fill="#000005"/>
<path d="M83.715 54.4618L64.1469 64.1748V71.5661C64.1469 71.5661 83.8334 62.09 83.715 61.3556C83.5965 60.6212 83.715 54.4618 83.715 54.4618Z" fill="white"/>
<path d="M83.3596 54.2488L81.417 55.2201L76.75 57.5417L71.088 60.3608L66.2078 62.7772C65.4261 63.1563 64.5969 63.5353 63.8388 63.9618L63.8151 63.9854C63.673 64.0328 63.5782 64.175 63.5782 64.3171V71.6848C63.5782 71.8269 63.8151 71.898 63.9099 71.898C64.1231 71.9217 64.3126 71.8743 64.5021 71.7795C65.5445 71.282 66.5869 70.7845 67.6056 70.2634C69.8798 69.1499 72.1541 68.0365 74.4283 66.8993C76.6789 65.7622 78.9295 64.6251 81.1564 63.4169C81.8908 63.0141 82.6252 62.6114 83.3359 62.1613C83.6202 61.9718 84.3072 61.6401 84.3072 61.2374C84.2835 60.195 84.2598 59.129 84.2598 58.0866C84.2598 56.9021 84.2835 55.7412 84.3072 54.5567C84.3072 54.4857 84.3072 54.4146 84.3072 54.3435C84.3072 53.9408 83.1463 54.1066 83.1463 54.5804C83.099 56.7125 83.0279 58.8684 83.1227 61.0242C83.1227 61.1663 83.1463 61.3084 83.1463 61.4743C83.1463 61.5454 83.1463 61.3795 83.17 61.4032C83.17 61.4032 83.1937 61.3558 83.1463 61.4269C83.1463 61.4269 83.2411 61.3558 83.1463 61.4032L83.0516 61.498C83.0042 61.5217 82.9805 61.5454 82.9331 61.5927L82.8621 61.6401C82.7673 61.7112 82.8858 61.6164 82.8621 61.6401C82.2224 62.0428 81.5828 62.4219 80.9195 62.7772C78.7873 63.9381 76.6315 65.0515 74.452 66.1413C72.1541 67.3021 69.8561 68.4392 67.5582 69.5527C66.3263 70.1449 65.047 70.7135 63.8625 71.3531L63.8151 71.3768L64.739 71.4716V64.0802L64.5021 64.4119L66.4447 63.4406L71.1354 61.1189L76.7974 58.3235L81.6776 55.9071C82.4593 55.5043 83.2885 55.149 84.0466 54.7226L84.0703 54.6989C84.2598 54.6041 84.4019 54.3672 84.1887 54.2251C83.9755 54.0829 83.5728 54.1303 83.3596 54.2488Z" fill="#000005"/>
<path d="M29.7013 64.1748L48.772 54.4618H83.715L64.1469 64.1748H29.7013Z" fill="#000005"/>
<path d="M29.9144 64.5539L31.8096 63.5826L36.3581 61.261L41.8779 58.4419L46.6397 56.0255L48.2032 55.22C48.4401 55.1015 48.7244 54.9831 48.9613 54.8409L48.985 54.8173L48.7007 54.912H82.2224C82.6725 54.912 83.1463 54.9594 83.5964 54.912H83.6438L83.5254 54.0592L81.5828 55.0305L76.9158 57.3521L71.2538 60.1712L66.3736 62.5877C65.5919 62.9667 64.7627 63.3221 64.0046 63.7722L63.9809 63.7959L64.2652 63.7011H34.0128C32.6388 63.7011 31.241 63.6537 29.8433 63.7011H29.7959C29.18 63.7011 28.8483 64.6487 29.6064 64.6487H63.8862C64.1231 64.6487 64.3363 64.5776 64.5495 64.4592L66.0894 63.7011L72.2488 60.6451L79.3796 57.1152L83.7149 54.9594L83.9281 54.8646C84.3782 54.6277 84.4019 54.0118 83.8097 54.0118H49.1508C48.9139 53.9881 48.7007 54.0355 48.4875 54.1302C48.0374 54.3435 47.611 54.5804 47.1609 54.7936L41.2146 57.8259L34.1076 61.4505L29.7249 63.6774L29.5116 63.7959C29.2747 63.9143 29.0615 64.1986 29.18 64.4592C29.2984 64.7198 29.7012 64.6724 29.9144 64.5539Z" fill="#000005"/>
<path d="M53.0597 67.468C53.4388 67.3732 53.8415 67.3258 54.2442 67.2785C54.647 67.2548 55.026 67.2311 55.4288 67.2311C55.8315 67.2311 56.2342 67.2548 56.6133 67.2785C57.016 67.3021 57.4187 67.3732 57.7978 67.468C57.4187 67.5627 57.016 67.6338 56.6133 67.6575C56.2105 67.6812 55.8315 67.7049 55.4288 67.7049C55.026 67.7049 54.647 67.6812 54.2442 67.6575C53.8415 67.6338 53.4388 67.5627 53.0597 67.468Z" fill="white"/>
<path d="M53.4861 67.8467C54.2442 67.6808 55.026 67.6098 55.8078 67.6098C56.5895 67.5861 57.395 67.6808 58.1531 67.8467L57.3476 67.1123C56.5895 67.2781 55.8078 67.3492 55.026 67.3492C54.2442 67.3729 53.4387 67.2781 52.6807 67.1123C52.4438 67.0649 52.6807 67.3255 52.728 67.3966C52.9176 67.6098 53.1545 67.7519 53.4151 67.8467C54.1968 68.0125 55.0023 68.0836 55.8078 68.0836C56.6132 68.1073 57.4424 68.0125 58.2242 67.8467C58.3663 67.7993 58.082 67.5387 58.0347 67.515C57.8688 67.3255 57.6556 67.207 57.4187 67.1123C56.6369 66.9464 55.8315 66.8517 55.026 66.8754C54.2205 66.8517 53.3914 66.9464 52.6096 67.1123C52.4438 67.1597 52.7991 67.4676 52.8465 67.4913C52.9649 67.5861 53.2966 67.894 53.4861 67.8467Z" fill="white"/>
<path d="M34.6051 66.6387C34.6051 66.6387 32.9231 66.2834 32.9231 67.6574C32.9231 69.0314 34.1786 69.0551 35.0315 68.6287C35.8843 68.2023 35.5764 66.7572 34.6051 66.6387Z" fill="#000005"/>
<path d="M34.392 66.3543C34.0129 66.2832 33.6102 66.2832 33.2312 66.378C32.9469 66.4491 32.71 66.5912 32.5441 66.8281C32.3783 67.1361 32.3072 67.4914 32.402 67.8231C32.5678 68.7233 33.6102 69.1734 34.4394 69.1497C34.7947 69.1497 35.1501 69.055 35.4817 68.9128C35.766 68.7944 35.9792 68.5338 36.0503 68.2258C36.1214 67.8705 36.0503 67.4914 35.8371 67.1835C35.5054 66.7333 34.9842 66.4254 34.392 66.3543C34.2972 66.3306 34.1788 66.3306 34.084 66.378C34.0366 66.4254 34.0366 66.4964 34.084 66.5438C34.2735 66.757 34.5341 66.8755 34.8184 66.9229H34.8658C34.9369 66.9229 34.7236 66.8755 34.7947 66.8992C34.9132 66.9466 34.6763 66.8518 34.7473 66.8755C34.8184 66.8992 34.6052 66.8044 34.6763 66.8518C34.7 66.8518 34.7 66.8755 34.7236 66.8755C34.7236 66.8755 34.6052 66.7807 34.6526 66.8281L34.7 66.8755C34.5815 66.7807 34.6526 66.8281 34.7 66.8755C34.7473 66.9229 34.7236 66.8992 34.7473 66.9229C34.771 66.9465 34.6763 66.8518 34.7236 66.8992C34.771 66.9466 34.8184 67.0176 34.8421 67.065L34.8658 67.0887C34.8421 67.0413 34.9132 67.1598 34.8658 67.0887C34.8895 67.1361 34.8895 67.1361 34.9132 67.1835C34.9369 67.2545 34.9605 67.3256 34.9605 67.3967C34.9605 67.4677 34.9842 67.5151 34.9842 67.5862C34.9842 67.6099 34.9842 67.6809 34.9842 67.6336C34.9842 67.6809 34.9842 67.7046 34.9842 67.752C34.9605 67.8705 34.9132 67.9889 34.8658 68.1074L34.8184 68.2021L34.7947 68.2258C34.7473 68.2732 34.6763 68.3206 34.6289 68.3443C34.5815 68.368 34.5104 68.4153 34.4394 68.439H34.4157C34.4631 68.4153 34.392 68.439 34.392 68.439L34.2972 68.4627C34.1551 68.5101 34.0366 68.5338 33.8945 68.5575C33.8234 68.5575 33.9892 68.5575 33.8945 68.5575H33.776H33.6576C33.5865 68.5575 33.776 68.5812 33.705 68.5575H33.6339C33.5628 68.5575 33.5154 68.5101 33.6576 68.5575L33.5628 68.5338C33.4918 68.5101 33.7287 68.5812 33.6339 68.5575L33.5865 68.5338C33.7523 68.5812 33.7287 68.6049 33.6813 68.5812L33.6339 68.5575C33.776 68.6286 33.7523 68.6286 33.705 68.6049C33.6813 68.6049 33.6813 68.5812 33.6576 68.5812C33.776 68.6522 33.705 68.6286 33.6813 68.5812C33.6576 68.5338 33.6576 68.5575 33.6339 68.5575C33.6102 68.5575 33.705 68.6286 33.6576 68.5812C33.6102 68.5338 33.6102 68.5338 33.5865 68.4864C33.5628 68.4627 33.5391 68.439 33.5391 68.3917C33.5628 68.439 33.5391 68.3917 33.5391 68.368C33.5154 68.2969 33.4918 68.2021 33.4681 68.1311C33.4444 68.06 33.4444 67.9652 33.4444 67.8942C33.4444 67.8231 33.4444 67.7283 33.4444 67.6573C33.4681 67.5388 33.4918 67.3967 33.5628 67.3019C33.5865 67.2782 33.5865 67.2545 33.6102 67.2308L33.6339 67.2071C33.5865 67.2545 33.6576 67.1835 33.6339 67.2071C33.6813 67.1598 33.705 67.1361 33.7523 67.0887C33.7997 67.065 33.8471 67.0413 33.8945 67.0176L33.9656 66.9939C34.0129 66.9702 33.9419 67.0176 33.9419 66.9939C33.9419 66.9702 33.9892 66.9939 33.9892 66.9702C34.1077 66.9466 34.2261 66.9229 34.3446 66.8992C34.2025 66.9229 34.2972 66.8992 34.3446 66.8992H34.4394H34.5815H34.6526C34.7 66.8992 34.7473 66.9229 34.5578 66.8992H34.6289L34.7236 66.9229L34.8184 66.9465C34.9369 66.9702 35.2922 66.9466 35.1264 66.7333C34.9132 66.4964 34.6763 66.378 34.392 66.3543Z" fill="#000005"/>
<path d="M39.3432 66.6384C39.0116 66.5674 38.6799 66.5911 38.3719 66.7095C38.2298 66.7569 38.0876 66.8517 37.9929 66.9701C37.8981 67.0886 37.827 67.2307 37.827 67.3728C37.8034 67.6571 37.8507 67.9651 37.9692 68.2257C38.1113 68.4389 38.3245 68.6047 38.5851 68.6284C38.8694 68.6758 39.1537 68.6521 39.438 68.581C39.5091 68.5574 39.5801 68.5337 39.6512 68.51C39.7223 68.4863 39.7696 68.4626 39.8407 68.4152C39.9592 68.3441 40.0539 68.2257 40.1013 68.1072C40.2198 67.823 40.2198 67.4913 40.0776 67.207C40.0065 67.0649 39.9118 66.9464 39.7696 66.828C39.6749 66.7332 39.5091 66.6621 39.3432 66.6384ZM39.3432 66.6384C39.6749 66.6858 39.9592 66.8753 40.1487 67.1596C40.3382 67.4439 40.4093 67.823 40.3382 68.1546C40.2908 68.3441 40.1961 68.51 40.0539 68.6521C39.9829 68.7232 39.9118 68.7706 39.817 68.8179C39.746 68.8653 39.6512 68.9127 39.5801 68.9364C39.2485 69.0785 38.8694 69.1259 38.5141 69.0785C38.3245 69.0312 38.135 68.9601 37.9692 68.8416C37.8034 68.7232 37.6849 68.5574 37.6138 68.3678C37.4954 68.0125 37.4954 67.6334 37.6138 67.3018C37.6612 67.1359 37.7797 66.9701 37.9218 66.8517C38.0639 66.7569 38.2298 66.6621 38.3956 66.6384C38.7036 66.5674 39.0352 66.5674 39.3432 66.6384Z" fill="white"/>
<path d="M39.1536 66.2125C38.6088 66.1177 37.8507 66.1414 37.4953 66.6389C37.3295 66.8995 37.2821 67.1838 37.3295 67.4917C37.3532 67.7997 37.4953 68.084 37.6848 68.3446C37.9454 68.6762 38.3008 68.8895 38.7035 69.0079C38.9878 69.079 39.2958 69.079 39.6037 69.0316C39.888 69.0079 40.1723 68.8895 40.4092 68.6999C40.5987 68.5104 40.6935 68.2498 40.6935 67.9892C40.6935 67.1127 39.9591 66.3783 39.1536 66.2125C39.0589 66.1888 38.9404 66.1888 38.893 66.2598C38.8457 66.3546 38.8457 66.4494 38.893 66.5204C39.0352 66.781 39.2721 66.9705 39.5564 67.0416C39.6037 67.0416 39.6511 67.0653 39.6985 67.0653C39.6037 67.0179 39.6511 67.0653 39.6748 67.0653C39.7459 67.089 39.6748 67.0653 39.6511 67.0416C39.6748 67.0653 39.7222 67.1127 39.6037 67.0179C39.6037 67.0179 39.509 66.9232 39.5564 66.9942C39.5801 67.0179 39.5801 67.0416 39.6037 67.0416C39.5564 67.0179 39.5327 66.9705 39.5801 67.0416C39.6274 67.1127 39.5327 66.9705 39.5801 67.0179L39.6037 67.089C39.6037 67.089 39.6274 67.1838 39.6274 67.1364C39.6274 67.089 39.6274 67.1601 39.6274 67.1838C39.6511 67.2785 39.6511 67.3496 39.6511 67.4444C39.6511 67.6102 39.5801 67.7997 39.4616 67.9182C39.4142 67.9655 39.3432 68.0129 39.2721 68.0366C39.1773 68.084 39.0826 68.1077 38.9641 68.1314C38.7509 68.1787 38.5377 68.2024 38.3245 68.1787C38.3955 68.1787 38.2771 68.1551 38.2534 68.1551C38.1823 68.1314 38.2771 68.1551 38.2771 68.1551L38.206 68.1314C38.1113 68.1077 38.3245 68.2024 38.206 68.1314C38.135 68.1077 38.3245 68.2261 38.2534 68.1551C38.1823 68.084 38.3482 68.2735 38.3008 68.1787L38.3482 68.2498L38.3245 68.2261C38.3008 68.1314 38.3245 68.2498 38.3245 68.2498C38.3245 68.2498 38.2771 68.1551 38.2771 68.1314C38.3008 68.2024 38.2771 68.084 38.2534 68.0603C38.2297 68.0129 38.2297 67.9418 38.2297 67.8945C38.2297 67.8708 38.2297 67.8471 38.2297 67.8234C38.2297 67.7997 38.2297 67.8708 38.2297 67.7997C38.2297 67.7286 38.2297 67.7049 38.2297 67.6576C38.2297 67.5628 38.2534 67.4917 38.3008 67.397C38.4192 67.2074 38.6088 67.089 38.7983 67.0653C38.9167 67.0416 39.0115 67.0179 39.1299 67.0179H39.3195C39.3668 67.0179 39.3905 67.0179 39.4379 67.0416C39.509 67.0653 39.6274 67.0653 39.6985 66.9942C39.7459 66.9232 39.7459 66.8047 39.6985 66.7336C39.6511 66.4731 39.4142 66.2835 39.1536 66.2125Z" fill="white"/>
<path d="M39.5565 67.0653C39.6039 67.0653 39.6749 67.089 39.7223 67.089C39.6275 67.0653 39.6986 67.089 39.7223 67.089C39.8171 67.1127 39.6986 67.0653 39.6986 67.0653L39.746 67.089C39.8171 67.1364 39.6512 67.0179 39.7223 67.0653C39.7934 67.1127 39.6512 66.9705 39.6986 67.0416C39.746 67.1127 39.7934 67.089 39.6986 67.0416C39.7223 67.0653 39.7697 67.1601 39.7697 67.1364C39.7697 67.1127 39.7934 67.1601 39.7934 67.1838L39.8408 67.2548C39.8645 67.3259 39.8171 67.2074 39.8408 67.2785C39.8408 67.3022 39.8408 67.3259 39.8645 67.3496C39.8881 67.4207 39.8881 67.4917 39.9118 67.5628C39.9355 67.776 39.8645 67.9892 39.746 68.1787C39.6039 68.3446 39.3906 68.4867 39.1774 68.5341C38.9405 68.6289 38.7036 68.6762 38.443 68.6525C38.3957 68.6525 38.3483 68.6525 38.3009 68.6289L38.2298 68.6052C38.1588 68.6052 38.2772 68.6289 38.2298 68.6052C38.1824 68.5815 38.0877 68.5341 38.1824 68.5815C38.0877 68.5341 38.1824 68.5815 38.1824 68.6052C38.064 68.5104 38.2535 68.6762 38.1824 68.6052C38.1114 68.5341 38.2298 68.6762 38.1824 68.6289C38.1588 68.6052 38.1588 68.5815 38.1351 68.5578C38.0877 68.5104 38.1588 68.6289 38.1351 68.5578L38.1114 68.5104C38.1351 68.5578 38.1114 68.4867 38.1114 68.4867C38.1114 68.4867 38.0877 68.4156 38.0877 68.392C38.064 68.3209 38.064 68.2498 38.064 68.1787C38.0403 67.9418 38.0877 67.7049 38.1824 67.4917C38.4193 66.9942 39.0353 66.9705 39.5565 67.0653C39.6275 67.0653 39.746 67.089 39.8171 67.0179C39.8645 66.9468 39.8645 66.8284 39.8171 66.7573C39.6749 66.4967 39.438 66.3072 39.1537 66.2361C38.4904 66.1414 37.6376 66.1177 37.2348 66.7336C37.0453 67.0416 36.9742 67.4207 37.0453 67.776C37.0927 68.1787 37.2585 68.5341 37.5428 68.8184C38.1114 69.4343 38.9642 69.6712 39.7697 69.4343C40.0777 69.3633 40.3619 69.1974 40.5988 68.9605C40.8121 68.6999 40.9068 68.3446 40.8594 67.9892C40.7173 67.089 40.0303 66.3783 39.1537 66.2124C39.0827 66.1888 38.9642 66.1888 38.8932 66.2598C38.8458 66.3546 38.8458 66.4494 38.8932 66.5204C39.0116 66.8047 39.2722 66.9942 39.5565 67.0653Z" fill="white"/>
<path d="M29.7013 51.9507H64.1469V59.3421C64.1469 59.3421 29.8197 59.4605 29.7013 58.8446C29.5828 58.2286 29.7013 51.9507 29.7013 51.9507Z" fill="#196F3A"/>
<path d="M29.4643 52.3058H62.5121C62.9622 52.3294 63.4123 52.3294 63.8625 52.3058H63.9098L63.5545 52.0215V59.4128L64.3363 59.0101C62.7964 59.0101 61.2565 59.0101 59.7404 59.0101C56.2342 59.0101 52.7517 59.0101 49.2456 58.9864C45.4552 58.9627 41.6647 58.939 37.8506 58.8916C35.4342 58.8443 32.9704 58.8679 30.554 58.6547L30.3645 58.631L30.2697 58.6074C30.1513 58.6074 30.4119 58.631 30.2934 58.6074L30.175 58.5837C30.0328 58.5126 30.1039 58.56 30.175 58.5837C30.1039 58.5363 30.1986 58.6074 30.1986 58.6074C30.2934 58.7021 30.2223 58.7021 30.2223 58.6547C30.2223 58.6074 30.2223 58.56 30.1986 58.5126C30.175 58.2283 30.175 57.944 30.175 57.6597C30.1513 55.8593 30.175 54.0588 30.2223 52.2584V51.8793C30.2223 51.3818 29.0852 51.595 29.0615 51.9978C29.0378 53.514 29.0141 55.0301 29.0141 56.5226C29.0141 57.2807 28.9904 58.0625 29.0615 58.8206C29.0852 59.1048 29.2747 59.1759 29.5353 59.2233C30.2934 59.3417 31.0752 59.3891 31.857 59.4128C33.2073 59.4602 34.5576 59.5076 35.908 59.5313C37.6848 59.555 39.4378 59.5787 41.2146 59.6023C43.1809 59.626 45.1472 59.6497 47.1135 59.6497C49.0798 59.6497 51.0224 59.6734 52.965 59.6734C54.6943 59.6734 56.4 59.6734 58.1294 59.6734C59.4087 59.6734 60.688 59.6734 61.9672 59.6734C62.5832 59.6734 63.1991 59.6734 63.8151 59.6734H63.8862C64.0757 59.6734 64.6679 59.5787 64.6679 59.2707V51.903C64.6679 51.7135 64.5021 51.6187 64.3126 51.6187H34.1312C32.7335 51.6187 31.3595 51.6187 29.9617 51.6187H29.9144C29.6538 51.6187 29.2984 51.6898 29.1563 51.9504C29.0141 52.211 29.251 52.3058 29.4643 52.3058Z" fill="#000005"/>
<path d="M83.6912 42.2376L64.1231 51.9506V59.342C64.1231 59.342 83.8097 49.8659 83.6912 49.1315C83.5728 48.3971 83.6912 42.2376 83.6912 42.2376Z" fill="white"/>
<path d="M83.2885 41.8587L81.3459 42.83L76.6789 45.1517L71.017 47.9708L66.1368 50.3872L64.5258 51.1927C64.2652 51.3111 64.0046 51.4296 63.7677 51.5717L63.744 51.5954C63.6493 51.6665 63.5782 51.7612 63.5782 51.8797V59.2711C63.5782 59.7449 64.2415 59.8633 64.5732 59.6975C65.6156 59.2 66.6343 58.7025 67.6766 58.205C69.9509 57.0916 72.2252 55.9781 74.4994 54.841C76.75 53.7038 79.0006 52.5667 81.2274 51.3585C81.9618 50.9558 82.6962 50.553 83.4069 50.1266C83.7149 49.9371 84.3309 49.6291 84.3309 49.2027C84.3309 48.8237 84.2835 48.4209 84.2835 48.0419C84.2835 47.3786 84.2835 46.7152 84.2835 46.0519C84.2835 44.8674 84.3072 43.7066 84.3309 42.5221C84.3309 42.451 84.3309 42.3799 84.3309 42.3088C84.3309 41.764 83.1937 41.5508 83.17 42.1667C83.1227 44.2988 83.0516 46.4546 83.1463 48.6104C83.1463 48.6815 83.1227 48.9895 83.17 49.0606C83.2174 49.1316 83.1937 48.9184 83.17 48.9895C83.2174 48.8473 83.2411 48.9421 83.1937 48.9421C83.17 48.9658 83.1463 48.9895 83.1227 49.0132C83.2174 48.8947 83.17 48.9658 83.099 49.0369C83.0279 49.1079 82.9331 49.1553 82.8384 49.2264C82.2224 49.6528 81.5591 50.0082 80.9195 50.3635C78.7873 51.548 76.6315 52.6378 74.452 53.7275C72.1541 54.8884 69.8561 56.0255 67.5345 57.1626L65.047 58.3708C64.6443 58.5603 64.2179 58.7499 63.8151 58.9631L63.7677 58.9868L64.7627 59.4132V52.0218L64.5969 52.3298L66.5395 51.3585L71.2065 49.0369L76.8921 46.2177L81.7723 43.8013L83.3832 42.9959C83.6438 42.8774 83.9044 42.759 84.1413 42.6168L84.165 42.5931C84.4256 42.451 84.3072 42.1193 84.1413 41.9772C83.8807 41.764 83.5491 41.7166 83.2885 41.8587Z" fill="#000005"/>
<path d="M29.7013 51.9506L48.772 42.2376H83.6914L64.1469 51.9506H29.7013Z" fill="#000005"/>
<path d="M29.938 52.3297L31.8332 51.3584L36.3818 49.0368L41.9016 46.2177L46.6633 43.8013L48.2269 42.9958C48.4638 42.8773 48.7481 42.7589 48.9613 42.6167L48.985 42.5931L48.677 42.6641H82.1987C82.6488 42.6641 83.1226 42.7115 83.5727 42.6641H83.6201L83.4543 41.835L81.5117 42.8063L76.8447 45.1279L71.1827 47.947L66.3025 50.3635L64.6916 51.1689C64.431 51.2874 64.1704 51.4058 63.9335 51.548L63.9098 51.5717L64.2178 51.5006H33.9891C32.615 51.5006 31.2173 51.4769 29.8196 51.5006H29.7722C29.5116 51.5006 29.1562 51.6664 29.1089 51.9507C29.0615 52.235 29.3695 52.4008 29.6301 52.4008H63.9098C64.1467 52.4008 64.3599 52.3534 64.5731 52.235L66.113 51.4769L72.2725 48.4209L79.4032 44.891L83.7385 42.7352L83.9518 42.6404C84.1413 42.5457 84.3308 42.3798 84.2834 42.1429C84.2123 41.9297 83.9991 41.7876 83.7859 41.8113H49.1271C48.8902 41.7876 48.677 41.835 48.4638 41.906C48.0137 42.1193 47.5872 42.3562 47.1371 42.5694L41.1672 45.6017L34.0601 49.2263L29.6774 51.4532L29.4642 51.5717C29.251 51.6901 29.0141 51.927 29.1562 52.1876C29.2984 52.4482 29.7011 52.4482 29.938 52.3297Z" fill="#000005"/>
<path d="M53.0362 55.2438C53.4152 55.149 53.818 55.078 54.2207 55.0543C54.6234 55.0306 55.0262 55.0069 55.4052 55.0069C55.7843 55.0069 56.187 55.0306 56.5897 55.0543C56.9925 55.078 57.3952 55.149 57.7742 55.2438C57.3952 55.3386 56.9925 55.3859 56.5897 55.4333C56.187 55.457 55.808 55.4807 55.4052 55.4807C55.0025 55.4807 54.5997 55.457 54.2207 55.4333C53.818 55.4096 53.4152 55.3386 53.0362 55.2438Z" fill="white"/>
<path d="M53.0361 55.6699C53.7705 55.5041 54.5049 55.433 55.263 55.4567C56.0211 55.4567 56.7792 55.5278 57.5136 55.6936L57.7979 54.8645C57.0635 55.0303 56.3291 55.1014 55.571 55.0777C54.8129 55.1014 54.0548 55.0066 53.3204 54.8645C53.0125 54.8171 52.7282 54.9355 52.5386 55.1724C52.4202 55.3146 52.4439 55.5041 52.586 55.6225C52.6334 55.6699 52.6808 55.6936 52.7519 55.6936C53.581 55.8594 54.4102 55.9542 55.263 55.9305C56.1159 55.9542 56.945 55.8594 57.7742 55.6699C58.0111 55.6225 58.2243 55.4804 58.3191 55.2435C58.3664 55.0777 58.2717 54.8881 58.1059 54.8408C58.0822 54.8408 58.0585 54.8408 58.0348 54.8171C57.2056 54.6276 56.3765 54.5565 55.5236 54.5565C54.6708 54.5328 53.8179 54.6276 52.9888 54.8171C52.7519 54.8645 52.4202 55.054 52.4202 55.3383C52.4202 55.6225 52.8229 55.7173 53.0361 55.6699Z" fill="white"/>
<path d="M34.5813 54.4145C34.5813 54.4145 32.8993 54.0592 32.8993 55.4332C32.8993 56.8073 34.1549 56.8309 35.0314 56.4045C35.908 55.9781 35.5526 54.533 34.5813 54.4145Z" fill="#000005"/>
<path d="M34.8656 54.154C34.4155 54.0592 33.9417 54.0592 33.4916 54.1776C33.1362 54.2487 32.8046 54.4382 32.5677 54.7225C32.3545 55.0305 32.2834 55.3858 32.3545 55.7412C32.4019 56.0966 32.5677 56.4282 32.8757 56.6177C33.2547 56.8546 33.7048 56.9494 34.1549 56.9257C34.5577 56.902 34.9367 56.831 35.2921 56.6651C35.6711 56.5467 35.9554 56.2624 36.0738 55.8833C36.1686 55.528 36.1212 55.1253 35.9317 54.8173C35.6711 54.4146 35.221 54.154 34.7472 54.1303C34.5814 54.1303 34.4392 54.1303 34.2971 54.2013C34.2023 54.225 34.1075 54.2961 34.0365 54.3909C33.9417 54.6278 34.3444 54.6751 34.4629 54.6988C34.2497 54.6751 34.4155 54.6988 34.4629 54.6988C34.4629 54.6988 34.3444 54.6515 34.4155 54.6751L34.4629 54.6988L34.5103 54.7225C34.5577 54.7462 34.5577 54.7699 34.4866 54.6988C34.5103 54.7225 34.5577 54.7225 34.5814 54.7462C34.605 54.7699 34.6287 54.7936 34.6524 54.7936C34.7235 54.841 34.605 54.7462 34.6761 54.8173C34.7235 54.8647 34.7709 54.9357 34.7946 54.9831C34.8183 55.0305 34.8656 55.1016 34.8893 55.1489C34.8893 55.1726 34.913 55.2437 34.8893 55.1726C34.8893 55.22 34.913 55.2437 34.913 55.2911C34.9367 55.4095 34.9604 55.5517 34.9367 55.6701C34.9367 55.6938 34.9367 55.7412 34.913 55.7649C34.913 55.6938 34.913 55.7649 34.913 55.7886C34.8893 55.8597 34.8656 55.907 34.8419 55.9781C34.8183 56.0018 34.8183 56.0255 34.7946 56.0492C34.7472 56.1202 34.8419 56.0018 34.7709 56.0729L34.6998 56.1439L34.6524 56.1676C34.6761 56.1439 34.7472 56.1202 34.6761 56.1439L34.605 56.1913C34.4866 56.2387 34.7235 56.1439 34.605 56.1913C34.534 56.215 34.4866 56.2387 34.4155 56.2624C34.3681 56.2861 34.2497 56.3098 34.4392 56.2624L34.3444 56.2861L34.2497 56.3098C34.1075 56.3335 34.4155 56.2861 34.2734 56.3098H34.1549H34.1075C34.0365 56.3098 34.2023 56.3098 34.2023 56.3098H34.0839H34.0365C33.9417 56.3098 34.1786 56.3335 34.1075 56.3098L34.0128 56.2861C33.9891 56.2861 33.9654 56.2861 33.9654 56.2861C33.9654 56.2861 34.1075 56.3335 34.0365 56.3098L33.9654 56.2861L33.918 56.2624C33.847 56.2387 34.0128 56.3098 33.9417 56.2861C33.8706 56.2624 33.847 56.215 33.7996 56.1913C33.7522 56.1676 33.847 56.2387 33.7759 56.1676C33.7522 56.1439 33.7285 56.1202 33.7048 56.0729C33.6574 56.0255 33.6337 55.9544 33.6101 55.907C33.6101 55.8833 33.5627 55.8123 33.5864 55.8833C33.5627 55.836 33.5627 55.7886 33.539 55.7649C33.4916 55.5991 33.4916 55.4332 33.4916 55.2674C33.4916 55.22 33.4916 55.1963 33.5153 55.1489C33.5153 55.1016 33.539 55.1016 33.5153 55.1489C33.5153 55.1253 33.5153 55.1253 33.5153 55.1016C33.539 55.0305 33.5627 54.9831 33.5864 54.912L33.6337 54.841C33.6337 54.841 33.6574 54.8173 33.6574 54.7936C33.6574 54.7699 33.6101 54.8647 33.6337 54.8173C33.6811 54.7699 33.7048 54.7225 33.7522 54.6988C33.8233 54.6515 33.6811 54.7462 33.7285 54.7225C33.7522 54.6988 33.7759 54.6988 33.7996 54.6751L33.8233 54.6515C33.8706 54.6278 33.7522 54.6751 33.7522 54.6751C33.7759 54.6751 33.8233 54.6515 33.847 54.6515C33.8943 54.6278 34.0128 54.6278 33.7996 54.6515L33.8706 54.6278L33.9417 54.6041C34.0128 54.5804 33.7759 54.6278 33.847 54.6278H33.8943C33.9417 54.6278 34.0128 54.6278 34.0602 54.6278C34.1075 54.6278 33.918 54.6278 33.9417 54.6278H34.0602H34.1786H34.226C34.2971 54.6278 34.0365 54.6041 34.1312 54.6278L34.226 54.6515C34.3681 54.6751 34.534 54.6751 34.6761 54.6515C34.7946 54.6278 34.913 54.5804 35.0078 54.4856C35.2921 54.3198 35.0552 54.1776 34.8656 54.154Z" fill="#000005"/>
<path d="M39.3432 54.4143C39.0116 54.3432 38.7036 54.3669 38.3719 54.4853C38.2298 54.5327 38.0876 54.6275 37.9929 54.7459C37.8981 54.8644 37.827 55.0065 37.827 55.1487C37.8034 55.4329 37.8507 55.7409 37.9692 56.0015C38.1113 56.2147 38.3245 56.3806 38.5851 56.4042C38.8694 56.4516 39.1537 56.4279 39.438 56.3569C39.5091 56.3332 39.5801 56.3095 39.6512 56.2858C39.7223 56.2621 39.7696 56.2384 39.8407 56.191C39.9592 56.12 40.0539 56.0015 40.1013 55.8831C40.2198 55.5988 40.2198 55.2908 40.0776 55.0065C40.0065 54.8644 39.9118 54.7222 39.7933 54.6275C39.6512 54.509 39.4854 54.438 39.3432 54.4143ZM39.3432 54.4143C39.6749 54.4616 39.9829 54.6512 40.1487 54.9354C40.3382 55.2197 40.4093 55.5988 40.3382 55.9304C40.2908 56.12 40.1961 56.2858 40.0539 56.4279C39.9829 56.499 39.9118 56.5464 39.817 56.5938C39.746 56.6411 39.6512 56.6648 39.5801 56.7122C39.2485 56.8544 38.8694 56.9017 38.5141 56.8544C38.3245 56.807 38.135 56.7359 37.9692 56.6175C37.8034 56.499 37.6849 56.3332 37.6138 56.1436C37.4954 55.7883 37.4954 55.4093 37.6138 55.0776C37.6612 54.9118 37.7797 54.7459 37.9218 54.6275C38.0639 54.509 38.2298 54.438 38.3956 54.4143C38.7036 54.3432 39.0116 54.3432 39.3432 54.4143Z" fill="white"/>
<path d="M39.2722 53.8696C38.7036 53.7748 37.9218 53.8222 37.5665 54.3671C37.1638 54.9593 37.3296 55.8596 37.756 56.4044C38.1824 56.9493 38.8458 57.0441 39.4617 56.9256C39.7697 56.8782 40.0777 56.7598 40.3146 56.5466C40.5278 56.3334 40.6462 56.0254 40.6462 55.7174C40.6699 55.2673 40.5278 54.8409 40.2435 54.4855C40.0303 54.1539 39.6749 53.9406 39.2722 53.8696C38.9879 53.8222 38.8221 54.1065 38.8695 54.3434C38.8931 54.6514 39.1064 54.8883 39.4143 54.9593C39.4617 54.9593 39.5091 54.983 39.5565 54.983C39.4143 54.9356 39.6038 55.0067 39.6038 55.0067C39.6038 55.0067 39.5091 54.9356 39.5802 54.983C39.6038 55.0067 39.6275 55.0067 39.6275 55.0304C39.6038 55.0304 39.5328 54.9356 39.6038 55.0067L39.6749 55.0778C39.7223 55.1252 39.6038 54.9593 39.6512 55.0304C39.6512 55.0541 39.6749 55.0778 39.6986 55.1015C39.746 55.1725 39.6512 54.983 39.6749 55.0541C39.6749 55.0778 39.6986 55.1015 39.6986 55.1252C39.6986 55.1489 39.6986 55.1725 39.7223 55.1725C39.6749 55.1252 39.6986 55.0778 39.7223 55.1488C39.7223 55.1725 39.7223 55.1962 39.7223 55.2199C39.7223 55.2436 39.7223 55.2673 39.7223 55.2673C39.7223 55.3147 39.7223 55.291 39.7223 55.2199C39.746 55.2436 39.7223 55.3384 39.7223 55.3621C39.7223 55.3858 39.746 55.3858 39.7223 55.3384C39.7223 55.3621 39.7223 55.3858 39.6986 55.4094C39.6986 55.4331 39.6986 55.4331 39.6749 55.4568C39.6749 55.4805 39.6275 55.5279 39.6749 55.4805C39.7223 55.4331 39.6749 55.4805 39.6512 55.5042C39.6275 55.5279 39.6038 55.5516 39.6038 55.5753C39.5328 55.6463 39.6038 55.5516 39.6275 55.5753L39.5802 55.6227L39.4617 55.67L39.3906 55.6937L39.2248 55.7411C39.1064 55.7648 39.0116 55.7885 38.8931 55.7885C38.8458 55.7885 38.7984 55.7885 38.751 55.7885C38.7747 55.7885 38.8221 55.7885 38.751 55.7885H38.6325C38.5852 55.7885 38.5378 55.7648 38.4904 55.7648C38.443 55.7648 38.5141 55.7648 38.5141 55.7648C38.5141 55.7648 38.443 55.7411 38.4667 55.7411C38.4904 55.7411 38.3483 55.67 38.4193 55.7174C38.4904 55.7648 38.372 55.67 38.3483 55.67C38.443 55.7174 38.4193 55.7411 38.3956 55.6937C38.372 55.67 38.372 55.67 38.3483 55.6463C38.4193 55.7174 38.4193 55.7411 38.3956 55.6937C38.3483 55.599 38.4193 55.7174 38.4193 55.7411C38.4193 55.6937 38.372 55.6463 38.372 55.599C38.372 55.5753 38.372 55.5516 38.3483 55.5279C38.372 55.5753 38.372 55.6227 38.3483 55.5279C38.3246 55.4331 38.3483 55.4331 38.3246 55.3621C38.3009 55.291 38.3246 55.4568 38.3246 55.3858C38.3246 55.3621 38.3246 55.3384 38.3246 55.3147C38.3246 55.291 38.3246 55.2673 38.3246 55.2436C38.3246 55.1962 38.3246 55.291 38.3246 55.2673C38.3246 55.2436 38.4193 55.0541 38.3483 55.1725C38.372 55.1252 38.4193 55.0778 38.443 55.0304C38.372 55.0778 38.4667 54.983 38.443 55.0304C38.5141 54.983 38.4904 55.0067 38.5141 54.983C38.5378 54.9593 38.6089 54.9356 38.6562 54.9119C38.5852 54.9356 38.7036 54.8883 38.6562 54.9119L38.751 54.8883C38.8695 54.8646 39.0116 54.8409 39.13 54.8409C39.1774 54.8409 39.13 54.8409 39.1064 54.8409H39.2248C39.2959 54.8409 39.3669 54.8646 39.4143 54.8646C39.6275 54.8883 39.8171 54.7224 39.8171 54.5092C39.8171 54.4618 39.8171 54.4145 39.8171 54.3908C39.7697 54.1776 39.5565 53.9406 39.2722 53.8696Z" fill="white"/>
<path d="M39.4142 54.9594C39.4379 54.9594 39.6037 55.0067 39.4853 54.9594C39.5327 54.983 39.58 55.0067 39.6274 55.0304C39.6274 55.0304 39.6985 55.0778 39.6511 55.0304C39.6037 54.983 39.6511 55.0304 39.6748 55.0541L39.7459 55.1015C39.6748 55.0067 39.7932 55.1489 39.7459 55.1015C39.7696 55.1252 39.7696 55.1489 39.7932 55.1726C39.7932 55.1726 39.7222 55.0778 39.7696 55.1252C39.8169 55.1726 39.8169 55.22 39.8643 55.2673C39.9117 55.3147 39.8169 55.1726 39.8643 55.2436L39.888 55.3147C39.9117 55.3384 39.9117 55.3621 39.9117 55.4095C39.9117 55.291 39.9117 55.3858 39.9117 55.4095C39.9117 55.4332 39.9117 55.4805 39.9117 55.5042C39.9117 55.4332 39.9117 55.5753 39.9117 55.5042C39.9117 55.5753 39.9117 55.6227 39.888 55.6701C39.888 55.6464 39.9117 55.599 39.888 55.6701C39.888 55.6938 39.8643 55.7174 39.8643 55.7411C39.8643 55.7648 39.8406 55.7885 39.8169 55.8122C39.8406 55.7648 39.8169 55.8122 39.7932 55.8359C39.7459 55.907 39.6748 55.978 39.58 56.0254C39.4853 56.0965 39.3668 56.1439 39.2484 56.1676C39.201 56.1913 39.1773 56.1913 39.1299 56.1913L38.9404 56.2386L38.7746 56.2623H38.6561C38.5614 56.2623 38.7509 56.2623 38.6087 56.2623C38.5377 56.2623 38.4666 56.2386 38.4192 56.2386L38.3481 56.2149C38.2771 56.1912 38.3955 56.2386 38.3481 56.2149C38.3008 56.1912 38.2534 56.1676 38.206 56.1439C38.1112 56.0965 38.1823 56.1439 38.206 56.1439C38.2297 56.1439 38.0876 56.0491 38.1586 56.1202C38.2297 56.1676 38.1586 56.1202 38.1349 56.0965L38.0876 56.0254C38.0402 55.9543 38.1349 56.1202 38.1112 56.0491C38.1112 56.0254 38.0876 56.0017 38.0876 56.0017C38.0876 55.978 38.0639 55.9543 38.0402 55.9307C38.0402 55.8833 38.0402 55.8596 38.0165 55.8122C37.9928 55.7648 38.0165 55.7411 38.0165 55.7174C38.0165 55.6938 38.0165 55.7174 38.0165 55.7411C38.0165 55.6701 38.0165 55.599 38.0402 55.5516C38.0639 55.5042 38.0402 55.4805 38.0639 55.4569C38.0639 55.4805 38.0402 55.5279 38.0639 55.4332C38.0876 55.3621 38.1112 55.3147 38.1349 55.2673C38.1112 55.3384 38.1349 55.2673 38.1586 55.2436C38.1823 55.22 38.206 55.1726 38.2297 55.1489L38.3008 55.0778C38.3245 55.0541 38.3245 55.0541 38.3008 55.0778L38.3481 55.0541C38.3955 55.0304 38.4666 54.983 38.514 54.9594C38.4666 54.983 38.585 54.9357 38.514 54.9594C38.5377 54.9594 38.585 54.9357 38.6087 54.9357C38.8456 54.8883 39.1299 54.8883 39.4142 54.9594C39.6511 54.9594 39.8406 54.7935 39.8406 54.5803C39.8406 54.5329 39.8406 54.4856 39.8406 54.4619C39.8169 54.1539 39.6037 53.917 39.2958 53.8459C38.6087 53.7275 37.7559 53.7512 37.3295 54.4145C37.1163 54.7698 37.0215 55.1963 37.0689 55.6227C37.0926 56.0491 37.2584 56.4518 37.519 56.7835C38.0402 57.3758 38.8693 57.589 39.6037 57.3284C39.9591 57.2336 40.2671 57.0678 40.5276 56.8072C40.7645 56.4992 40.883 56.0965 40.8356 55.7174C40.7882 54.8646 40.1486 54.0117 39.2721 53.8933C39.0589 53.8696 38.8693 54.0354 38.8693 54.2487C38.8693 54.296 38.8693 54.3434 38.8693 54.3671C38.893 54.6514 39.1062 54.8883 39.4142 54.9594Z" fill="white"/>
<path d="M29.7251 39.229H64.1707V46.6204C64.1707 46.6204 29.8435 46.7389 29.7251 46.1229C29.6066 45.507 29.7251 39.229 29.7251 39.229Z" fill="#196F3A"/>
<path d="M29.8434 39.6078H62.8912C63.3413 39.6078 63.7915 39.6315 64.2416 39.6078H64.289L63.5782 39.1814V46.5727L64.052 46.2647C62.5122 46.2647 60.9723 46.2647 59.4325 46.2647C55.95 46.2647 52.4675 46.2647 48.9851 46.241C45.1946 46.2174 41.3805 46.1937 37.5901 46.1463H37.2821H37.0926L36.4529 46.1226L35.2921 46.0989C34.6288 46.0752 33.9418 46.0752 33.2548 46.0515C32.3071 46.0278 31.3595 46.0041 30.4119 45.9094C30.2935 45.9094 30.1513 45.8857 30.0329 45.862C29.8434 45.8383 30.104 45.8857 30.0566 45.862C30.0329 45.862 29.9855 45.8383 29.9618 45.8383C30.0329 45.8146 30.1987 45.9568 30.2461 46.0278C30.2461 46.0278 30.3409 46.1463 30.2935 46.0752C30.2935 46.0515 30.2935 46.0515 30.2935 46.0278C30.2698 46.0752 30.2935 46.1226 30.2935 46.0278C30.2698 45.7199 30.2698 45.4119 30.2698 45.1039C30.2461 43.3035 30.2698 41.503 30.3172 39.7025V39.3235C30.3172 38.8023 29.1563 38.7076 29.1327 39.205C29.109 40.7212 29.0853 42.2374 29.0853 43.7299C29.0853 44.4643 29.0616 45.2224 29.1327 45.9568C29.18 46.4069 29.488 46.5253 29.8907 46.5964C30.6251 46.6912 31.3358 46.7622 32.0702 46.7622C33.4206 46.8096 34.7709 46.857 36.145 46.8807C37.9454 46.9281 39.7459 46.9518 41.5463 46.9518C43.5126 46.9754 45.4789 46.9754 47.4452 46.9991C49.4115 46.9991 51.3778 47.0228 53.3204 47.0228C55.0498 47.0228 56.7791 47.0228 58.4848 47.0228C59.7641 47.0228 61.0434 47.0228 62.3227 47.0228C62.9386 47.0228 63.5782 47.0465 64.1942 47.0228H64.289C64.4548 47.0228 64.7628 46.9044 64.7628 46.7149V39.3235C64.7628 38.9681 64.3126 38.8734 64.052 38.8734H33.8233C32.4493 38.8734 31.0516 38.826 29.6538 38.8734H29.6065C29.3932 38.8734 29.0853 39.0392 29.1563 39.2998C29.2274 39.5604 29.6065 39.6078 29.8434 39.6078Z" fill="#000005"/>
<path d="M83.715 29.5159L64.1469 39.2289V46.6203C64.1469 46.6203 83.8334 37.1442 83.715 36.4098C83.5965 35.6754 83.715 29.5159 83.715 29.5159Z" fill="white"/>
<path d="M83.4306 29.0661L81.488 30.0374L76.8211 32.359L71.1591 35.1782L66.2789 37.5946C65.4971 37.9973 64.668 38.3526 63.9099 38.7791L63.8862 38.8028C63.7204 38.8738 63.6019 39.0633 63.5782 39.2529V46.6442C63.5782 47.0943 64.1231 47.2602 64.4784 47.0943C65.5208 46.5968 66.5632 46.0993 67.5819 45.5782C69.8561 44.4647 72.1304 43.3513 74.4046 42.2141C76.6552 41.077 78.9058 39.9399 81.1327 38.7317C81.8671 38.329 82.6015 37.9262 83.3122 37.4761C83.6438 37.2629 84.3545 36.9075 84.3545 36.4337C84.3545 36.41 84.3309 36.1968 84.3545 36.339C84.3545 36.4574 84.3545 36.3864 84.3545 36.3627C84.3545 36.339 84.3545 36.2916 84.3545 36.2679C84.3545 36.1731 84.3545 36.0784 84.3309 36.0073C84.3309 35.7704 84.3072 35.5335 84.3072 35.2966C84.3072 34.6333 84.3072 33.9463 84.3072 33.2829C84.3072 32.0984 84.3309 30.9376 84.3545 29.7531C84.3545 29.682 84.3545 29.6109 84.3545 29.5399C84.3782 28.8765 83.1937 28.8529 83.17 29.5399C83.1227 31.672 83.0516 33.8278 83.1463 35.9836C83.1463 36.1258 83.1463 36.2679 83.17 36.41C83.2174 36.7654 83.17 36.4337 83.17 36.4337C83.17 36.2916 83.1937 36.2679 83.1937 36.3153C83.1937 36.3627 83.2174 36.2916 83.2174 36.2679C83.2174 36.2205 83.2648 36.1968 83.2411 36.2205C83.2174 36.2442 83.2648 36.1968 83.2648 36.1968C83.2648 36.1731 83.3122 36.1495 83.2411 36.2205L83.1463 36.2916C83.0516 36.3627 82.9568 36.4337 82.8858 36.4811C82.7436 36.5759 83.0042 36.41 82.8384 36.5285L82.6488 36.6469L82.1987 36.9075C81.8197 37.1207 81.4406 37.334 81.0616 37.5472C78.9295 38.7317 76.7737 39.8214 74.5942 40.9112C72.2962 42.072 69.9983 43.2091 67.7003 44.3226C66.8712 44.7253 66.042 45.128 65.2128 45.5308C64.8101 45.7203 64.3837 45.9098 64.0046 46.123L63.9573 46.1467L64.8338 46.5968V39.1818L64.5495 39.6319L66.4921 38.6606L71.1591 36.339L76.8211 33.5198L81.7012 31.1034C82.483 30.7007 83.3122 30.3453 84.0703 29.9189L84.094 29.8952C84.7099 29.6109 84.0466 28.7581 83.4306 29.0661Z" fill="#000005"/>
<path d="M29.7249 39.2289L48.7955 29.5159H83.7149L64.1705 39.2289H29.7249Z" fill="#000005"/>
<path d="M30.1275 39.5844L32.0228 38.6368L36.5713 36.3151L42.0911 33.496L46.8528 31.0796L48.4164 30.2741C48.677 30.1557 48.9139 30.0372 49.1745 29.8951L49.1982 29.8714L48.9613 29.9188H82.4593C82.9094 29.9188 83.3832 29.9424 83.8333 29.9188C83.857 29.9188 83.8807 29.9188 83.8807 29.9188L83.3121 29.1607L81.3695 30.1083L76.7025 32.4299L71.0406 35.2491L66.1604 37.6655L64.5494 38.4709C64.2888 38.5894 64.0283 38.7078 63.7914 38.85L63.7677 38.8737L64.0046 38.8263H33.7758C32.3781 38.8263 31.0041 38.7789 29.6064 38.8263H29.559C29.3221 38.8263 29.0852 38.9921 29.1799 39.2527C29.3221 39.5133 29.6064 39.6791 29.8906 39.6554H64.1704C64.3836 39.6554 64.5968 39.6081 64.7863 39.5133L66.3262 38.7552L72.4857 35.6992L79.6164 32.1693L83.9517 30.0135L84.1413 29.8714C84.2834 29.8003 84.3545 29.6108 84.2597 29.4686C84.236 29.445 84.236 29.4213 84.2123 29.3976C84.0465 29.208 83.8096 29.0896 83.549 29.0896H48.9139C48.7007 29.0659 48.4875 29.1133 48.2979 29.1844C47.8478 29.3976 47.4214 29.6345 46.9713 29.8714L41.025 32.9037L33.918 36.5283L29.5353 38.7552L29.3221 38.8737C29.0615 38.9921 29.1562 39.3001 29.3458 39.4422C29.559 39.6318 29.8669 39.6791 30.1275 39.5844Z" fill="#000005"/>
<path d="M53.0597 42.5221C53.4388 42.4274 53.8415 42.38 54.2442 42.3326C54.647 42.3089 55.026 42.2852 55.4288 42.2852C55.8315 42.2852 56.2105 42.3089 56.6133 42.3326C57.016 42.3563 57.4187 42.4274 57.7978 42.5221C57.4187 42.6169 57.016 42.688 56.6133 42.7116C56.2105 42.7353 55.8315 42.759 55.4288 42.759C55.026 42.759 54.647 42.7353 54.2442 42.7116C53.8415 42.688 53.4388 42.6169 53.0597 42.5221Z" fill="white"/>
<path d="M52.6571 42.8298C53.4389 42.664 54.2206 42.5692 55.0261 42.5929C55.8079 42.5929 56.5897 42.664 57.3478 42.8298L58.2243 42.2139C57.4425 42.3797 56.6607 42.4745 55.8553 42.4508C55.0735 42.4508 54.2917 42.3797 53.5336 42.2139C53.4626 42.1902 53.3204 42.2849 53.273 42.3086C53.1309 42.3797 53.0124 42.4508 52.8703 42.5218C52.8229 42.5455 52.4676 42.8061 52.586 42.8535C53.3915 43.0193 54.197 43.1141 55.0024 43.0904C55.8079 43.1141 56.6134 43.0193 57.3951 42.8535C57.632 42.7824 57.8452 42.664 58.0585 42.5218C58.1058 42.4982 58.4138 42.2612 58.2954 42.2376C57.4899 42.0717 56.6844 41.977 55.879 42.0007C55.0735 41.977 54.268 42.0717 53.4862 42.2376C53.2257 42.3086 52.9888 42.4508 52.7755 42.6166C52.7045 42.6403 52.4202 42.9009 52.6571 42.8298Z" fill="white"/>
<path d="M34.6289 41.6929C34.6289 41.6929 32.9469 41.3375 32.9469 42.7115C32.9469 44.0856 34.2025 44.1093 35.0553 43.6828C35.9081 43.2564 35.5765 41.8113 34.6289 41.6929Z" fill="#000005"/>
<path d="M35.0314 41.5746C34.4865 41.4798 33.9417 41.4798 33.4205 41.5982C33.0888 41.6456 32.8045 41.8115 32.5913 42.0484C32.4018 42.3326 32.3307 42.6643 32.3781 42.996C32.4018 43.3276 32.5676 43.6119 32.8282 43.8014C33.1836 44.0146 33.61 44.1094 34.0127 44.0857C34.5102 44.0857 35.0077 43.991 35.4578 43.8014C35.7658 43.683 36.0027 43.4461 36.0975 43.1381C36.1922 42.8064 36.1449 42.4748 35.979 42.1668C35.8843 42.001 35.7658 41.8825 35.6237 41.7641C35.4105 41.6219 35.1736 41.5509 34.913 41.5272C34.7708 41.5035 34.605 41.5035 34.4628 41.5272C34.3444 41.5272 34.2259 41.5746 34.1075 41.6219C33.8943 41.7404 34.2496 41.8115 34.3207 41.8115C34.1786 41.7878 34.2496 41.8115 34.2733 41.8115C34.297 41.8115 34.297 41.8351 34.2496 41.8115C34.2733 41.8351 34.297 41.8351 34.3444 41.8351L34.3918 41.8588C34.3444 41.8351 34.4392 41.8825 34.3918 41.8588C34.4155 41.8825 34.4628 41.9062 34.4865 41.9062C34.605 41.9773 34.6997 42.072 34.7708 42.1905C34.913 42.4037 34.9603 42.6643 34.9603 42.9249C34.9603 43.1855 34.8419 43.4224 34.6524 43.5882L34.605 43.6119L34.5102 43.6593L34.4392 43.683H34.4628C34.4392 43.683 34.4155 43.7067 34.3918 43.7067L34.297 43.7304H34.2496C34.1786 43.7541 34.3444 43.7067 34.297 43.7304L34.2023 43.7541C34.0838 43.7777 34.3444 43.7304 34.2023 43.7541H34.1549C34.0838 43.7541 34.3207 43.7304 34.2259 43.7541C34.1312 43.7777 34.3681 43.7541 34.2733 43.7541H34.2259C34.1549 43.7541 34.3918 43.7777 34.297 43.7541H34.2496C34.1786 43.7541 34.2023 43.7304 34.297 43.7541C34.2733 43.7541 34.2259 43.7304 34.2023 43.7304C34.1312 43.7067 34.2733 43.7541 34.1786 43.7304L34.1075 43.7067L34.0601 43.683C34.0127 43.6593 34.1075 43.7067 34.0601 43.683C33.8469 43.5408 33.6811 43.3276 33.61 43.0907C33.5152 42.7828 33.5389 42.4748 33.6574 42.1668C33.7048 42.072 33.7758 42.001 33.8469 41.9062L33.8943 41.8588C33.9417 41.8115 33.8469 41.8825 33.918 41.8351L33.9654 41.8115C33.989 41.8115 34.0838 41.7641 34.0127 41.7878C33.9417 41.8115 34.0364 41.7878 34.0601 41.7641H34.0838C34.1549 41.7404 33.9654 41.7878 34.0364 41.7878L34.1075 41.7641C33.8943 41.8115 34.0127 41.7878 34.0601 41.7641C34.1075 41.7404 34.1786 41.7641 33.9654 41.7641H34.0127C34.0601 41.7641 34.1786 41.7641 33.9417 41.7641H34.0127C34.0364 41.7641 34.1549 41.7641 34.0127 41.7641C33.8706 41.7641 34.0364 41.7641 34.0838 41.7641H34.1312C34.2259 41.7641 34.0127 41.7404 34.0601 41.7641C34.1075 41.7878 34.1312 41.7641 34.1549 41.7878C34.4392 41.8351 34.7234 41.8351 34.984 41.7404C35.0314 41.7167 35.1499 41.693 35.1499 41.6219C35.1499 41.5509 35.0551 41.5746 35.0314 41.5746Z" fill="#000005"/>
<path d="M39.3668 41.6926C39.0351 41.6215 38.7271 41.6452 38.3955 41.7637C38.2533 41.811 38.1112 41.9058 38.0164 42.0243C37.9217 42.1427 37.8743 42.2848 37.8506 42.427C37.8269 42.7113 37.8743 43.0192 37.9927 43.2798C38.1349 43.493 38.3481 43.6589 38.6087 43.6826C38.893 43.7299 39.1773 43.7063 39.4615 43.6352L39.6748 43.5641C39.7458 43.5404 39.7932 43.5167 39.8643 43.4694C39.9827 43.3983 40.0775 43.2798 40.1249 43.1614C40.3144 42.7113 40.1722 42.1901 39.8169 41.8821C39.6748 41.7873 39.5326 41.7163 39.3668 41.6926ZM39.3668 41.6926C39.6984 41.74 39.9827 41.9295 40.1722 42.2138C40.3618 42.4981 40.4328 42.8771 40.3618 43.2088C40.3144 43.3983 40.2196 43.5641 40.0775 43.7063C40.0064 43.7773 39.9353 43.8247 39.8406 43.8721C39.7695 43.9195 39.6748 43.9432 39.6037 43.9905C39.272 44.1327 38.893 44.1801 38.5376 44.1327C38.3481 44.0853 38.1586 44.0142 37.9927 43.8958C37.8269 43.7773 37.7085 43.6115 37.6374 43.422C37.5189 43.0666 37.5189 42.6876 37.6374 42.3559C37.6848 42.1901 37.8032 42.0243 37.9454 41.9058C38.0875 41.811 38.2533 41.7163 38.4192 41.6926C38.7271 41.6215 39.0588 41.6215 39.3668 41.6926Z" fill="white"/>
<path d="M39.2484 41.4561C38.9167 41.385 38.5614 41.385 38.206 41.4561C37.9217 41.5035 37.6374 41.622 37.4479 41.8589C37.2821 42.0721 37.211 42.3564 37.2584 42.6169C37.2821 42.9012 37.3768 43.1618 37.5664 43.375C37.827 43.6119 38.1349 43.7778 38.4903 43.8488C38.8693 43.9436 39.2484 43.9436 39.6274 43.8962C39.9354 43.8725 40.2197 43.7541 40.4566 43.6119C40.6461 43.4461 40.7646 43.2092 40.7882 42.9486C40.8119 42.6406 40.7172 42.3327 40.504 42.0958C40.2197 41.7641 39.8406 41.5509 39.3905 41.5035C39.2484 41.4798 39.1062 41.4561 38.9641 41.4798C38.9167 41.4798 38.7746 41.5035 38.7509 41.5746C38.7035 41.7641 39.1773 41.9062 39.2721 41.9062L39.3431 41.9299C39.4379 41.9536 39.3194 41.9299 39.2958 41.9062C39.3905 41.9299 39.2721 41.9062 39.2721 41.8825H39.2484C39.2721 41.9062 39.2958 41.9062 39.2484 41.8825C39.2721 41.9062 39.2958 41.9062 39.2958 41.9299C39.3194 41.9536 39.3668 42.001 39.3905 42.0484C39.4853 42.2142 39.5564 42.4037 39.5564 42.5933C39.5564 42.7828 39.509 42.9723 39.3905 43.1144C39.2721 43.2566 39.1062 43.3276 38.9404 43.3513L38.8693 43.375C38.8693 43.375 38.7983 43.3987 38.8456 43.375C38.7983 43.3987 38.7272 43.3987 38.6798 43.3987C38.6324 43.3987 38.4903 43.3987 38.6087 43.3987H38.5377C38.514 43.3987 38.3955 43.375 38.4903 43.3987C38.5851 43.4224 38.3955 43.375 38.514 43.3987C38.6798 43.4461 38.6087 43.4224 38.5614 43.4224C38.4666 43.3987 38.6087 43.4461 38.6087 43.4461C38.5377 43.4224 38.6324 43.4461 38.6324 43.4698C38.6087 43.4461 38.6087 43.4461 38.585 43.4461C38.6087 43.4698 38.6324 43.4698 38.585 43.4461L38.514 43.375C38.514 43.375 38.4666 43.3276 38.514 43.3513L38.4666 43.304C38.4429 43.2566 38.4192 43.2092 38.4192 43.1855C38.3955 43.1144 38.3718 43.0197 38.3481 42.9249C38.3008 42.7117 38.3245 42.4985 38.4192 42.309C38.514 42.1431 38.6798 42.001 38.8693 41.9773L38.9404 41.9536C38.8693 41.9773 38.9878 41.9536 38.9878 41.9536C39.0352 41.9536 39.1062 41.9299 39.1536 41.9299C39.0115 41.9299 39.2721 41.9299 39.2721 41.9299C39.2721 41.9299 39.1299 41.9062 39.2484 41.9299L39.3668 41.9536C39.4616 41.9773 39.9117 42.001 39.8169 41.7878C39.7933 41.693 39.6511 41.6456 39.58 41.5983C39.5564 41.5272 39.4142 41.4798 39.2484 41.4561Z" fill="white"/>
<path d="M39.4616 41.9296C39.3195 41.9059 39.3905 41.9059 39.4142 41.9296C39.3905 41.9296 39.2721 41.8822 39.3905 41.9296H39.3669C39.3195 41.9059 39.3195 41.9059 39.3669 41.9296C39.2721 41.8822 39.4379 41.9532 39.3669 41.9296L39.3905 41.9532C39.3669 41.9296 39.4142 41.9769 39.4379 41.9769C39.4853 42.0243 39.5327 42.0717 39.5564 42.1191C39.6748 42.2849 39.7696 42.4981 39.7933 42.7113C39.817 42.9482 39.7696 43.1851 39.6511 43.3984C39.509 43.5642 39.3432 43.7063 39.13 43.7774C39.0352 43.8248 38.9167 43.8485 38.822 43.8722C38.7746 43.8722 38.7035 43.8958 38.6562 43.8958C38.6562 43.8958 38.5377 43.8958 38.5851 43.8958C38.5614 43.8958 38.5377 43.8958 38.4903 43.8958C38.514 43.8958 38.5614 43.9195 38.4903 43.8958C38.514 43.8958 38.6088 43.9195 38.514 43.8958C38.514 43.8958 38.6325 43.9195 38.5614 43.8958C38.4903 43.8722 38.6325 43.9432 38.5614 43.8958C38.5614 43.8958 38.4666 43.8485 38.514 43.8722C38.5614 43.8958 38.4903 43.8485 38.4903 43.8485C38.4429 43.8248 38.4193 43.7774 38.3956 43.7537C38.0876 43.3984 38.0639 42.8061 38.2534 42.3797C38.3482 42.1428 38.5614 41.9769 38.7983 41.9059C38.8457 41.8822 38.8931 41.8822 38.9404 41.8822H39.0352C39.201 41.8585 38.9878 41.8822 39.0826 41.8822H39.1773C39.2247 41.8822 39.2958 41.8822 39.2247 41.8822C39.3195 41.8822 39.3906 41.9059 39.4616 41.9296C39.5801 41.9296 40.0065 41.9532 39.9354 41.7637C39.8644 41.5742 39.4379 41.4794 39.2721 41.4558C38.6088 41.3373 37.6612 41.3136 37.211 41.9296C36.832 42.4981 36.9031 43.2562 37.3532 43.7774C37.6612 44.0617 38.0402 44.2512 38.4666 44.3223C38.9167 44.417 39.3669 44.417 39.817 44.2986C40.1249 44.2275 40.4329 44.0854 40.6698 43.8485C40.9067 43.6116 41.0015 43.2799 40.9778 42.9719C40.9541 42.6166 40.7883 42.2849 40.5514 42.0243C40.196 41.6927 39.7459 41.5031 39.2721 41.4558C39.1773 41.4321 38.7272 41.4084 38.7983 41.6216C38.8694 41.8348 39.2958 41.9059 39.4616 41.9296Z" fill="white"/>
<path d="M64.2292 26.4746H46.0136V42.046H64.2292V26.4746Z" fill="white"/>
<path d="M64.0032 41.5714H45.7876L46.443 42.2946V26.7232L46.217 26.9266H64.4326L63.7772 26.2034V41.7748C63.7998 42.046 63.958 42.2946 64.2066 42.4302C64.3648 42.5206 64.6586 42.5658 64.6586 42.2946V26.7232C64.6586 26.4294 64.3196 26 64.0032 26H45.7876C45.652 26 45.5616 26.0678 45.5616 26.2034V41.7748C45.5616 42.0686 45.9006 42.498 46.217 42.498H64.4326C64.975 42.5206 64.3874 41.5714 64.0032 41.5714Z" fill="#000005"/>
<path d="M50.6693 36.509C50.6693 36.509 58.3307 36.5768 59.0991 36.396C59.8675 36.2152 60.7715 34.8366 59.9353 33.2094C59.0991 31.5822 57.7883 32.0568 57.7883 32.0568C57.7883 32.0568 57.9013 29.7968 55.2345 29.9098C52.5677 30.0228 52.6581 32.6218 52.6581 32.6218C52.6581 32.6218 50.6467 32.7122 50.8953 34.3846C50.8953 34.3846 49.9687 34.023 49.4489 35.266C48.9291 36.509 50.6693 36.509 50.6693 36.509Z" fill="#196F3A"/>
<path d="M50.7597 36.961C52.5451 36.9836 54.3305 36.9836 56.1385 36.961C57.0651 36.961 58.0143 36.961 58.9409 36.8706C59.4155 36.848 59.8675 36.6446 60.1839 36.3056C60.7489 35.6276 60.9523 34.7236 60.7263 33.8648C60.3647 32.4636 58.9861 31.085 57.4267 31.6274L58.3081 32.1698C58.3533 31.0624 57.6979 30.068 56.6809 29.6612C55.0763 29.0284 52.9293 29.5482 52.3191 31.2884C52.1609 31.6952 52.0931 32.1472 52.1157 32.5766L52.5677 32.1246C52.1383 32.1472 51.7089 32.2602 51.3021 32.441C50.6015 32.8026 50.2173 33.571 50.3529 34.3394L51.0761 33.9552C50.6919 33.797 50.2625 33.797 49.8783 33.9552C49.2681 34.249 48.8387 34.8592 48.8161 35.5372C48.7935 36.5542 49.9235 36.961 50.7597 36.961C50.9857 36.9836 51.1891 36.8254 51.2117 36.5994C51.2117 36.5768 51.2117 36.5316 51.2117 36.509C51.1439 36.2152 50.8727 36.0344 50.5789 36.0344C50.5337 36.0344 50.4659 36.0344 50.4207 36.0344H50.3529C50.2851 36.0344 50.4885 36.057 50.3755 36.0344C50.3077 36.0118 50.2399 36.0118 50.1947 35.9892L50.0817 35.9666C49.9687 35.944 50.1495 35.9892 50.0817 35.9666L49.9913 35.9214C49.8557 35.8536 50.1043 35.9892 49.9687 35.9214C49.9235 35.8988 49.8783 35.8988 49.9235 35.8988C49.9687 35.8988 49.9235 35.8762 49.9461 35.944C49.9461 35.944 49.8783 35.8084 49.9235 35.8988C49.9235 35.8988 49.9009 35.7858 49.9009 35.831C49.9235 35.4468 50.1495 35.0852 50.4885 34.8818C50.5337 34.8592 50.4433 34.8818 50.5337 34.8592C50.5789 34.8592 50.6241 34.8366 50.6693 34.8366C50.5563 34.8592 50.7145 34.8366 50.7597 34.8366C50.8049 34.8366 50.6467 34.814 50.7823 34.8366C50.8501 34.8592 50.9631 34.9044 50.7145 34.814C51.0309 34.927 51.5055 34.8818 51.4377 34.4298C51.3925 34.1586 51.4377 33.8874 51.5959 33.6614C51.7315 33.5032 51.8897 33.3676 52.0705 33.2998L52.2287 33.232C52.1383 33.2772 52.2965 33.2094 52.3191 33.2094C52.4095 33.1868 52.4999 33.1642 52.5903 33.1416C52.6807 33.119 52.7259 33.119 52.7937 33.119C52.8615 33.119 52.6355 33.119 52.7485 33.119C52.9745 33.1416 53.1779 32.9608 53.2005 32.7348C53.2005 32.7122 53.2005 32.6896 53.2005 32.667C53.2005 32.9382 53.2005 32.5992 53.2231 32.5314C53.2457 32.3506 53.2683 32.1698 53.3135 31.989C53.3361 31.8534 53.3135 31.989 53.3361 31.8986C53.3587 31.8534 53.3813 31.7856 53.3813 31.7404C53.4265 31.6048 53.4943 31.4918 53.5621 31.3562C53.6977 31.1302 53.8785 30.9494 54.0819 30.7912C54.6243 30.407 55.4605 30.3166 56.1385 30.4522C56.2741 30.4748 56.4097 30.52 56.5453 30.5878C56.5679 30.6104 56.6131 30.633 56.6357 30.633C56.5453 30.5652 56.6131 30.6104 56.6357 30.633C56.7261 30.7008 56.7713 30.7234 56.8165 30.7912C56.7261 30.7234 56.8391 30.8364 56.8617 30.859L56.9747 30.9946C56.9973 31.0172 56.9973 31.0624 57.0199 31.085C57.0425 31.1076 57.0651 31.198 57.1103 31.2432C57.1555 31.2884 57.1781 31.4466 57.1555 31.3336C57.1781 31.3788 57.1781 31.4466 57.2007 31.4918C57.2233 31.5822 57.2459 31.65 57.2459 31.7404C57.2459 31.8082 57.2459 31.989 57.2685 31.8308V31.8986C57.2459 32.3506 57.7657 32.5766 58.1499 32.441C58.0595 32.4636 57.9917 32.4862 58.1047 32.4636C58.1499 32.4636 58.3081 32.4184 58.2403 32.441C58.1725 32.4636 58.2855 32.441 58.3081 32.441H58.4437C58.5567 32.441 58.3985 32.4184 58.4889 32.441C58.5567 32.4636 58.6245 32.4636 58.6697 32.4862C58.5793 32.441 58.7149 32.5088 58.7601 32.5314C58.8505 32.5766 58.7827 32.5314 58.8731 32.5992C59.0087 32.6896 59.1217 32.8026 59.2121 32.9156C59.4833 33.2546 59.6641 33.6614 59.7319 34.1134C59.8223 34.7236 59.6189 35.4694 59.0991 35.8084C59.0087 35.8762 58.8957 35.9214 58.7601 35.9214C58.6019 35.944 58.8279 35.9214 58.7149 35.9214L58.4889 35.944C56.4775 36.057 54.4435 36.0118 52.4321 36.0118C51.8219 36.0118 51.1891 36.0118 50.5789 36.0118C50.3529 35.9892 50.1495 36.1474 50.1269 36.3734C50.1269 36.396 50.1269 36.4412 50.1269 36.4638C50.1947 36.7576 50.4433 36.961 50.7597 36.961Z" fill="#196F3A"/>
<path d="M54.4209 39.3114C54.4209 39.3114 54.4661 35.944 54.4661 35.6502L53.3361 35.8084C53.3361 35.8084 54.4887 32.9156 55.1215 32.893C55.5057 32.8704 56.9069 35.4242 56.9069 35.4242L55.7317 35.4694C55.7317 35.4694 56.1385 39.3566 55.9577 39.56C55.7769 39.7634 54.4209 39.3114 54.4209 39.3114Z" fill="#000005"/>
<path d="M54.6921 39.3114C54.7147 38.091 54.7825 36.8706 54.7373 35.6502C54.7373 35.5824 54.3079 35.605 54.2627 35.6276L53.1327 35.7858L53.6073 35.8084C53.9237 34.9948 54.3079 34.2038 54.7599 33.458C54.8729 33.2546 55.0085 33.0964 55.1893 32.9608C55.2119 32.9382 55.2571 32.9382 55.2797 32.9156C55.4153 32.8026 54.8051 32.8026 54.9181 32.9156C54.9633 32.9608 55.0537 33.006 55.0989 33.0738C55.4379 33.458 55.7543 33.91 56.0029 34.362C56.2063 34.701 56.4097 35.0626 56.6131 35.4016L56.8165 35.3564L55.6413 35.4016C55.6187 35.4016 55.4379 35.4016 55.4379 35.4468C55.5057 36.1022 55.5735 36.7576 55.6187 37.413C55.6639 37.8876 55.6865 38.3396 55.7091 38.8142C55.7091 38.995 55.7317 39.1532 55.7091 39.3114C55.7091 39.3792 55.6413 39.4922 55.6413 39.5374L55.5961 39.56C55.5961 39.56 55.7769 39.5826 55.6865 39.56C55.6187 39.5374 55.5509 39.5374 55.5057 39.5374C55.3701 39.5148 55.2345 39.4696 55.0763 39.447C54.9181 39.4244 54.7599 39.3566 54.6017 39.3114C54.4661 39.2888 54.3531 39.2662 54.2175 39.2888C54.1949 39.2888 54.0141 39.3114 54.1271 39.334C54.5339 39.4696 54.9633 39.5826 55.3927 39.6278C55.6639 39.6504 56.2063 39.7634 56.2289 39.3792C56.2515 38.9498 56.2515 38.4978 56.2063 38.0684C56.1611 37.526 56.1159 36.9836 56.0707 36.4186C56.0481 36.1022 56.0029 35.7632 55.9803 35.4468L55.7769 35.492L56.9521 35.4468C56.9747 35.4468 57.1781 35.4242 57.1555 35.4016C56.9521 35.0626 56.7713 34.7236 56.5679 34.3846C56.2967 33.8874 55.9803 33.4354 55.5735 33.006C55.2571 32.7574 54.7825 32.7574 54.4887 33.0512C54.0819 33.458 53.8107 34.023 53.5621 34.5202C53.3587 34.927 53.1779 35.3564 52.9971 35.7858C53.1553 35.8084 53.3135 35.831 53.4717 35.8084L54.5791 35.6502L54.1045 35.6276C54.1497 36.848 54.0819 38.0684 54.0593 39.2888C54.1271 39.3566 54.6921 39.3792 54.6921 39.3114Z" fill="#000005"/>
<path d="M64.0032 71.5842H45.7876V87.1556H64.0032V71.5842Z" fill="white"/>
<path d="M64.1163 86.681H45.9007L46.3527 87.0652V71.4938L45.6973 72.0588H63.9129L63.4609 71.6746V87.246C63.4609 87.8788 64.5683 87.6302 64.5683 87.0426V71.4712C64.5457 71.2452 64.3423 71.087 64.1163 71.087H45.9007C45.5617 71.0644 45.2679 71.313 45.2453 71.652V87.2234C45.2679 87.4494 45.4713 87.6076 45.6747 87.6076H63.8903C64.1841 87.6302 64.4553 87.4268 64.5457 87.1556C64.5909 86.9296 64.4327 86.7036 64.2067 86.6584C64.1615 86.681 64.1389 86.681 64.1163 86.681Z" fill="#000005"/>
<path d="M50.4433 81.6186C50.4433 81.6186 58.1047 81.6864 58.8731 81.5056C59.6415 81.3248 60.5455 79.9462 59.7093 78.319C58.8731 76.6918 57.5623 77.1664 57.5623 77.1664C57.5623 77.1664 57.6753 74.9064 55.0085 75.0194C52.3417 75.1324 52.4321 77.7314 52.4321 77.7314C52.4321 77.7314 50.4207 77.8218 50.6693 79.4942C50.6693 79.4942 49.7427 79.1326 49.2455 80.3756C48.7483 81.6186 50.4433 81.6186 50.4433 81.6186Z" fill="#196F3A"/>
<path d="M50.7371 82.0254C52.5225 82.048 54.3079 82.048 56.0707 82.0254C56.9973 82.0254 57.9465 82.0254 58.8957 81.935C60.2743 81.822 60.7489 80.1948 60.4325 79.0422C60.0709 77.754 58.6697 76.2172 57.1781 76.7596L58.0595 77.415C58.1047 76.285 57.3589 75.268 56.3193 74.8386C55.4153 74.477 54.3983 74.477 53.4943 74.8612C52.8615 75.155 52.3643 75.6974 52.1383 76.3754C52.0027 76.7596 51.9349 77.1664 51.9575 77.5506L52.1383 77.302C51.7541 77.3246 51.3699 77.4376 51.0309 77.5958C50.3981 77.9122 50.0591 78.6128 50.1721 79.3134L50.6015 79.0874C50.2625 78.9744 49.9009 78.9744 49.5845 79.11C48.9969 79.4038 48.6579 80.014 48.6805 80.6694C48.7709 81.6412 49.9461 82.048 50.7371 82.0254C51.0083 82.0254 50.9405 81.709 50.8501 81.5734C50.6919 81.3474 50.4433 81.2118 50.1721 81.1892C50.1269 81.1892 50.3077 81.2118 50.2173 81.1892C50.1721 81.1892 50.1269 81.1892 50.0817 81.1892L49.9235 81.1666C49.9009 81.1666 49.7201 81.1214 49.8105 81.144L49.6297 81.0988C49.6975 81.1214 49.6071 81.0762 49.5845 81.0762C49.5845 81.0762 49.6975 81.1892 49.6523 81.144C49.6071 81.0988 49.6749 81.2118 49.6523 81.1214C49.6523 81.144 49.6297 81.0084 49.6523 80.9858C49.6975 80.5338 49.9687 80.127 50.3755 79.9462C50.4433 79.9236 50.4885 79.901 50.5563 79.901C50.6693 79.8784 50.5563 79.8784 50.6467 79.901C50.6919 79.901 50.7371 79.9236 50.7823 79.9236C50.6467 79.901 50.6919 79.901 50.7371 79.9236C50.9179 79.9914 51.1891 79.9688 51.1665 79.6976C51.0309 78.7258 51.9123 78.2286 52.7485 78.1834C52.8841 78.1834 52.9519 78.0704 52.9293 77.9348C52.9293 77.867 52.9293 78.0478 52.9293 77.9574C52.9293 77.867 52.9293 77.8444 52.9293 77.7766C52.9519 77.5958 52.9745 77.415 53.0197 77.2342C53.1327 76.737 53.4039 76.285 53.8107 75.946C54.4209 75.4714 55.2797 75.381 56.0255 75.494C56.0933 75.5166 56.1837 75.5166 56.2515 75.5392L56.3645 75.5844L56.4097 75.607C56.4323 75.6296 56.6131 75.72 56.5001 75.6522C56.5453 75.6748 56.7035 75.8104 56.6131 75.7426C56.6583 75.7878 56.7035 75.833 56.7487 75.8782C56.6583 75.7878 56.7713 75.9008 56.7939 75.946C56.8165 75.9912 56.8165 75.9912 56.8391 76.0138C56.9069 76.1268 56.8165 75.9686 56.8617 76.0364C56.9069 76.1042 56.9069 76.1494 56.9295 76.1946C56.9747 76.285 56.9973 76.3754 57.0199 76.4658C57.0425 76.5562 57.0651 76.6466 57.0651 76.7596C57.0651 76.8726 57.0651 76.8952 57.0877 76.963C57.0877 76.8726 57.1103 77.0308 57.0877 76.963C57.0651 77.3472 57.5849 77.754 57.9691 77.6184C58.0369 77.5958 57.9013 77.641 57.9465 77.6184C57.9917 77.5958 58.0595 77.5958 58.1273 77.5958C58.2855 77.5732 58.4437 77.5958 58.5793 77.641C58.6471 77.6636 58.7149 77.6862 58.7827 77.7314C58.8957 77.7992 58.9861 77.9122 59.0765 78.0026C59.3477 78.3642 59.5285 78.7936 59.5737 79.2456C59.6415 79.8784 59.4155 80.6694 58.8505 81.031C58.6245 81.144 58.3759 81.2118 58.1047 81.2118C56.0933 81.3248 54.0819 81.3022 52.0705 81.2796H50.1721C49.9009 81.2796 49.9913 81.6186 50.0817 81.7316C50.2625 81.8898 50.4885 82.0254 50.7371 82.0254Z" fill="#196F3A"/>
<path d="M55.6413 78.2738C55.6413 78.2738 55.5961 81.6412 55.5961 81.935L56.7261 81.7994C56.7261 81.7994 55.5735 84.6922 54.9407 84.7148C54.5565 84.7374 53.1553 82.1836 53.1553 82.1836L54.3305 82.1384C54.3305 82.1384 53.9237 78.2738 54.1045 78.0478C54.2853 77.8218 55.6413 78.2738 55.6413 78.2738Z" fill="#000005"/>
<path d="M55.3474 78.2738C55.3248 79.4942 55.257 80.7146 55.3022 81.935C55.3022 82.0028 55.7316 81.9802 55.7768 81.9576L56.9068 81.822L56.4322 81.7994C56.1158 82.613 55.7316 83.404 55.2796 84.1498C55.1666 84.3306 55.031 84.5114 54.8502 84.647C54.8276 84.6696 54.7824 84.6696 54.7598 84.6922C54.6242 84.8052 55.2344 84.8052 55.1214 84.6922C55.0762 84.6244 54.9858 84.5792 54.9406 84.534C54.6016 84.1272 54.2852 83.6978 54.0366 83.2458C53.8332 82.9068 53.6298 82.5452 53.4264 82.2062L53.223 82.2514L54.3982 82.2062C54.4208 82.2062 54.6016 82.2062 54.6016 82.161C54.5338 81.5056 54.466 80.8502 54.4208 80.1948C54.3756 79.7202 54.353 79.2682 54.3304 78.7936C54.3304 78.6354 54.3304 78.4546 54.3304 78.2964C54.3304 78.2286 54.3982 78.1156 54.3982 78.0704L54.4434 78.0478C54.4434 78.0478 54.2626 78.0252 54.353 78.0478C54.4208 78.0704 54.4886 78.0704 54.5338 78.0704C54.6694 78.093 54.805 78.1382 54.9632 78.1608C55.1214 78.1834 55.2796 78.2512 55.4152 78.2964C55.5508 78.319 55.6638 78.3416 55.7994 78.319C55.822 78.319 56.0028 78.2964 55.8898 78.2738C55.483 78.1382 55.0536 78.0252 54.6242 77.98C54.353 77.9574 53.8106 77.867 53.788 78.2286C53.7654 78.658 53.7654 79.11 53.8106 79.5394C53.8558 80.0818 53.901 80.6242 53.9462 81.1892C53.9688 81.5056 54.014 81.8446 54.0366 82.161L54.24 82.1158L53.0648 82.161C53.0422 82.161 52.8388 82.1836 52.8614 82.2062C53.0648 82.5452 53.2456 82.8842 53.449 83.2232C53.7202 83.7204 54.0366 84.195 54.4434 84.6018C54.7598 84.8504 55.2344 84.8278 55.5282 84.5566C55.935 84.1498 56.2062 83.5848 56.4548 83.0876C56.6582 82.6808 56.8616 82.2514 57.0198 81.822C56.8616 81.7994 56.7034 81.7768 56.5452 81.7994L55.4152 81.935L55.8898 81.9576C55.8446 80.7372 55.9124 79.5168 55.935 78.2964C55.9124 78.2286 55.3474 78.206 55.3474 78.2738Z" fill="#000005"/>
</svg>
