<svg width="364" height="155" viewBox="0 0 364 155" fill="none" xmlns="http://www.w3.org/2000/svg">
<g clip-path="url(#clip0_2032_14400)">
<path d="M0 12C0 5.37258 5.37258 0 12 0H352C358.627 0 364 5.37258 364 12V143C364 149.627 358.627 155 352 155H12C5.37258 155 0 149.627 0 143V12Z" fill="white"/>
<circle cx="339" cy="102" r="133" fill="#196F3A"/>
<path d="M280.25 5.25977H164.594V134.425H280.25V5.25977Z" fill="white"/>
<path d="M279.966 133.382H169.002C167.533 133.382 166.016 133.288 164.499 133.382H164.31L165.542 134.804V10.8533C165.542 9.19432 165.637 7.48792 165.542 5.82892C165.542 5.73412 165.542 5.68672 165.542 5.59192L164.878 6.30292H275.842C277.311 6.30292 278.875 6.39772 280.345 6.30292H280.534L279.302 4.88092V128.832C279.302 130.491 279.255 132.197 279.302 133.856V134.093C279.349 134.71 279.729 135.231 280.297 135.468C280.629 135.61 281.008 135.468 281.151 135.136C281.198 135.041 281.198 134.899 281.198 134.804V10.8533C281.198 9.19432 281.245 7.48792 281.198 5.82892V5.59192C281.198 5.02312 280.582 4.16992 279.966 4.16992H169.002C167.485 4.16992 166.016 4.16992 164.499 4.16992H164.31C163.978 4.16992 163.646 4.40692 163.646 4.78612C163.646 4.83352 163.646 4.88092 163.646 4.88092V128.832C163.646 130.491 163.599 132.197 163.646 133.856C163.646 133.951 163.646 133.999 163.646 134.093C163.646 134.662 164.262 135.515 164.878 135.515H275.842C277.359 135.515 278.828 135.515 280.345 135.515H280.534C281.814 135.515 280.914 133.382 279.966 133.382Z" fill="#196F3A"/>
<path d="M260.532 14.836C262.807 16.1632 264.703 17.9644 266.172 20.1448C266.409 20.4766 267.168 20.05 267.405 19.8604C267.642 19.7182 267.879 19.5286 268.068 19.2916C268.163 19.1968 268.305 18.9598 268.211 18.865C266.694 16.6372 264.703 14.7412 262.333 13.3666C262.191 13.2718 261.859 13.414 261.717 13.414C261.432 13.5088 261.148 13.6984 260.911 13.888C260.769 14.125 260.153 14.6464 260.532 14.836Z" fill="#000005"/>
<path d="M262.334 19.9065L267.785 14.3133C267.88 14.2185 268.07 14.0763 268.022 13.8867C267.975 13.6971 267.738 13.6971 267.596 13.6971C267.027 13.6971 266.458 13.9341 266.031 14.2659L260.58 19.8591C260.486 19.9539 260.296 20.0961 260.343 20.2857C260.391 20.4753 260.675 20.4753 260.77 20.4753C261.339 20.4753 261.908 20.2857 262.334 19.9065Z" fill="#000005"/>
<path d="M221.948 88.4477C235.691 88.4477 246.833 77.3063 246.833 63.5627C246.833 49.8191 235.691 38.6777 221.948 38.6777C208.204 38.6777 197.062 49.8191 197.062 63.5627C197.062 77.3063 208.204 88.4477 221.948 88.4477Z" fill="#196F3A"/>
<path d="M245.884 62.9936C245.837 73.1846 239.533 82.2854 230.005 85.8878C220.668 89.3954 209.718 86.8358 203.319 79.157C196.92 71.4782 196.351 60.1496 201.423 51.6176C206.732 42.8486 216.923 38.2508 226.972 40.0994C236.641 41.8058 244.131 49.4846 245.6 59.2016C245.79 60.4814 245.884 61.7138 245.884 62.9936C245.979 63.5624 246.311 64.0838 246.832 64.3682C247.117 64.5578 247.686 64.7 247.686 64.1786C247.638 53.3714 240.623 43.3226 230.527 39.4832C225.502 37.5398 219.957 37.2554 214.743 38.6774C204.457 41.474 197.062 50.4326 196.257 61.0502C195.877 66.5012 197.157 71.9048 200.001 76.55C202.75 81.1004 206.779 84.7028 211.567 86.978C216.402 89.2532 221.853 89.9642 227.161 88.9688C237.589 86.9306 245.695 78.6356 247.401 68.1128C247.591 66.7856 247.686 65.5058 247.686 64.1786C247.591 63.6098 247.259 63.1358 246.738 62.8514C246.453 62.6144 245.884 62.4722 245.884 62.9936Z" fill="#196F3A"/>
<path d="M212.184 61.4298C212.99 63.468 214.08 65.4114 215.407 67.2126C216.687 68.919 218.156 71.0046 220.384 71.3364C220.905 71.4786 221.474 71.4312 222.043 71.2416C222.564 70.9572 222.991 70.578 223.323 70.1514C224.129 69.3456 224.934 68.4924 225.74 67.6392C227.352 65.9328 228.869 64.179 230.338 62.3304C232.044 60.2448 233.656 58.1118 235.173 55.9314C235.315 55.7418 234.177 55.4574 234.035 55.4574C233.751 55.41 233.04 55.2204 232.803 55.5048C230.385 58.965 227.731 62.283 224.934 65.4588C223.512 67.023 222.09 68.5398 220.621 70.0092C220.479 70.1514 220.289 70.341 220.1 70.4358C220.005 70.4832 219.91 70.5306 219.863 70.578C220.289 70.0566 221.095 71.0994 220.621 70.7202C220.242 70.3884 219.863 70.0566 219.531 69.6774C217.35 67.3548 215.644 64.6056 214.459 61.6668C214.317 61.335 213.369 61.2402 213.037 61.1928C212.895 61.2402 212.042 61.098 212.184 61.4298Z" fill="white"/>
<path d="M205.168 98.6387H235.362C239.865 98.6387 243.467 102.288 243.467 106.744C243.467 111.247 239.817 114.849 235.362 114.849H205.168C200.665 114.849 197.062 111.2 197.062 106.744C197.063 102.288 200.712 98.6387 205.168 98.6387Z" fill="#000005"/>
<path d="M234.887 114.09H204.883C203.224 114.138 201.659 113.522 200.427 112.431C198.484 110.583 197.725 107.786 198.389 105.227C199.052 102.572 201.091 100.534 203.698 99.7756C204.646 99.5386 205.641 99.4438 206.589 99.4912H232.232C234.318 99.4912 236.83 99.2069 238.726 100.155C241.001 101.387 242.423 103.805 242.376 106.412C242.376 109.113 240.907 111.673 238.584 113.048C237.494 113.711 236.167 114.09 234.887 114.09C234.602 114.043 234.365 114.28 234.318 114.564C234.318 114.707 234.365 114.849 234.413 114.944C234.745 115.418 235.313 115.749 235.882 115.702C238.821 115.702 241.618 114.185 243.229 111.72C244.793 109.256 245.03 106.175 243.798 103.473C242.471 100.629 239.864 98.5907 236.783 97.9745C235.787 97.7849 234.792 97.7375 233.749 97.7849H211.85C209.48 97.7849 207.11 97.7849 204.74 97.7849C202.465 97.7375 200.285 98.5907 198.626 100.155C196.493 102.146 195.545 105.084 196.066 107.976C196.635 110.962 198.626 113.474 201.422 114.754C202.892 115.418 204.551 115.749 206.162 115.702H235.835C236.356 115.702 236.546 115.275 236.309 114.849C235.977 114.375 235.456 114.09 234.887 114.09Z" fill="#000005"/>
<path d="M209.765 110.203C211.187 108.449 212.703 106.837 214.362 105.321C215.168 104.562 216.021 103.851 216.875 103.188C217.017 103.093 217.491 102.808 217.538 102.714H216.922C216.306 102.619 216.164 102.666 216.448 102.808C216.495 102.856 216.59 102.903 216.638 102.998C217.017 103.472 217.301 103.946 217.538 104.515C218.06 105.51 218.439 106.553 218.676 107.643C218.771 108.165 218.771 108.686 218.628 109.207C218.439 109.729 218.107 109.918 217.775 110.345L217.633 110.44L218.628 110.345C218.628 110.392 218.344 109.918 218.391 110.061C218.297 109.871 218.297 109.681 218.297 109.492C218.344 108.97 218.628 108.449 219.102 108.165C219.908 107.691 220.809 107.454 221.757 107.406C223.511 107.311 225.359 109.729 223.842 111.151L226.165 111.056C225.501 109.539 226.212 107.88 227.492 106.885C229.009 105.652 230.952 106.221 232.659 106.743C233.18 106.885 233.749 106.885 234.27 106.743C234.413 106.695 235.171 106.506 234.65 106.316C231.995 105.51 228.914 105.036 226.26 106.221C224.411 107.027 222.894 109.207 223.795 111.246C224.032 111.72 225.833 111.435 226.118 111.151C226.923 110.44 226.829 109.255 226.307 108.402C225.596 107.264 224.316 106.98 223.084 106.885C221.472 106.837 219.861 107.027 218.344 107.501C217.254 107.833 215.642 108.686 215.974 110.108C216.164 110.819 216.827 110.961 217.443 110.961C218.249 111.009 219.055 110.866 219.813 110.535C221.141 109.824 221.235 108.307 220.951 106.98C220.619 105.51 219.956 104.136 219.102 102.951C218.202 101.766 216.116 102.192 215.073 102.903C212.229 105.036 209.67 107.501 207.489 110.298C207.252 110.582 208.248 110.582 208.343 110.582C208.674 110.487 209.528 110.487 209.765 110.203Z" fill="white"/>
<path d="M194.693 46.688C195.593 46.6406 196.494 46.688 197.394 46.8776C197.537 46.925 197.394 46.688 197.394 46.688C197.252 46.4984 197.063 46.3562 196.873 46.214C196.636 46.0244 196.352 45.8822 196.115 45.74C195.972 45.6452 195.783 45.5978 195.593 45.5504C194.693 45.3608 193.792 45.3134 192.891 45.3608C192.749 45.3608 192.891 45.503 192.891 45.5504C193.034 45.74 193.223 45.8822 193.413 46.0244C193.65 46.214 193.934 46.3562 194.171 46.4984L194.408 46.5932C194.503 46.6406 194.598 46.688 194.693 46.688Z" fill="#000005"/>
<path d="M196.399 40.5738C196.493 40.6686 196.636 40.7634 196.73 40.8108L196.588 40.716L196.683 40.7634L196.73 40.8108C196.541 40.6212 196.73 40.8108 196.778 40.8582L196.92 41.0004C196.636 40.716 196.825 40.9056 196.92 41.0004C197.015 41.0952 197.015 41.0952 197.062 41.1426L197.11 41.19L197.015 41.0952L197.062 41.1426L197.204 41.2848L197.489 41.6166C197.584 41.7114 197.394 41.5218 197.489 41.5692L197.536 41.664L197.678 41.8536L197.915 42.2328C198.058 42.4224 198.2 42.612 198.389 42.7542C198.626 42.9438 198.863 43.1334 199.1 43.323L199.29 43.4652C199.385 43.5126 199.48 43.56 199.574 43.56C199.717 43.56 199.622 43.4178 199.574 43.3704C198.674 41.9958 197.489 40.8582 196.114 39.9102C195.925 39.768 195.735 39.6258 195.498 39.531C195.451 39.531 195.261 39.4362 195.308 39.5784C195.403 39.768 195.498 39.9102 195.64 40.005C195.925 40.1946 196.162 40.4316 196.399 40.5738Z" fill="#000005"/>
<path d="M175.923 19.6224L186.209 19.7172H187.678L187.204 19.1958L185.735 25.1682L187.299 24.1728L178.814 24.078L179.288 24.2676L177.44 18.2952C177.25 17.6316 175.117 18.627 175.354 19.4328L177.203 25.4052C177.25 25.5948 177.582 25.5948 177.677 25.5948L186.161 25.6896C186.635 25.6896 187.583 25.2156 187.726 24.6942L189.195 18.7218C189.29 18.3426 189.053 18.2004 188.721 18.2004L178.435 18.1056H176.966C176.397 18.153 175.828 18.4374 175.496 18.9114C175.259 19.338 175.449 19.6224 175.923 19.6224Z" fill="#000005"/>
<path d="M179.619 20.0021C179.667 20.2865 179.762 20.5709 179.856 20.8079C180.141 21.5189 180.567 22.1825 181.184 22.7039C181.752 23.2253 182.463 23.4623 183.222 23.4149C183.838 23.4149 184.407 23.1305 184.739 22.6565C185.023 22.2299 185.118 21.7559 185.118 21.2345C185.07 20.6657 184.786 20.1443 184.312 19.8125C184.17 19.6703 183.933 19.5755 183.743 19.5755C183.601 19.6229 183.459 19.7651 183.459 19.9073C183.459 20.0021 183.459 20.0969 183.459 20.1917C183.459 20.2865 183.459 20.2865 183.459 20.3339C183.411 20.5235 183.506 20.1917 183.459 20.3813C183.411 20.6183 183.317 20.8079 183.174 20.9975L183.269 20.9027C183.127 21.1397 182.89 21.2819 182.653 21.3767L182.795 21.3293C182.558 21.4241 182.321 21.4241 182.132 21.4241H181.847C181.752 21.4241 181.8 21.4241 181.847 21.4241C181.752 21.4241 181.61 21.3767 181.515 21.3293C181.468 21.3293 181.421 21.2819 181.373 21.2819C181.231 21.2345 181.563 21.3767 181.421 21.2819L181.278 21.2345C181.136 21.1397 181.468 21.3767 181.373 21.2819L181.278 21.1871C181.278 21.1871 181.515 21.4241 181.373 21.2819C181.231 21.0923 181.326 21.2345 181.373 21.2819C181.421 21.3293 181.515 21.4715 181.373 21.2819L181.326 21.1871C181.563 21.5663 181.468 21.4241 181.421 21.3293C181.421 21.2819 181.373 21.2819 181.373 21.2345C181.278 21.0923 181.515 21.5663 181.421 21.3767L181.373 21.1871C181.326 21.0923 181.278 20.8553 181.373 21.2345C181.326 21.1397 181.326 20.9975 181.278 20.8553C181.231 20.5709 181.089 20.2865 180.899 20.0969C180.757 19.8599 180.52 19.6703 180.283 19.5281C180.141 19.4333 179.904 19.3385 179.762 19.4807C179.619 19.6229 179.572 19.8125 179.619 20.0021Z" fill="#000005"/>
<path d="M187.82 20.5704C189.967 20.5704 191.707 18.8302 191.707 16.6836C191.707 14.5369 189.967 12.7968 187.82 12.7968C185.674 12.7968 183.934 14.5369 183.934 16.6836C183.934 18.8302 185.674 20.5704 187.82 20.5704Z" fill="#196F3A"/>
<path d="M190.569 16.9209C190.569 17.2527 190.522 17.5845 190.427 17.8689C190.332 18.2007 190.19 18.4851 190 18.7695C189.953 18.8169 189.905 18.9117 189.858 18.9591C189.763 19.1013 190.048 18.8169 189.811 19.0065C189.668 19.1013 189.574 19.2435 189.431 19.3383C189.479 19.3383 189.574 19.1961 189.431 19.3383L189.194 19.4805C189.005 19.5753 189.147 19.4805 189.194 19.4805C189.1 19.5279 188.957 19.5753 188.863 19.6227C188.768 19.6701 188.578 19.7175 188.815 19.6227L188.578 19.6701C188.483 19.6701 188.389 19.7175 188.294 19.7175C188.483 19.7175 188.246 19.7175 188.199 19.7175C187.867 19.7175 187.535 19.6701 187.251 19.5753C186.967 19.4805 186.73 19.3383 186.493 19.1961C186.208 19.0065 185.971 18.7695 185.782 18.5325C185.402 18.0111 185.165 17.4423 185.118 16.7787C185.071 16.1625 185.213 15.4989 185.497 14.9301C185.592 14.7879 185.687 14.6457 185.782 14.5035C185.971 14.2665 185.687 14.5509 185.829 14.4561C185.876 14.4087 185.924 14.3613 186.019 14.2665C186.113 14.1717 186.161 14.1717 186.208 14.1243C186.35 13.9821 185.971 14.2665 186.256 14.0769L186.445 13.9821L186.635 13.8873C186.493 13.9347 186.493 13.9347 186.635 13.8873C186.777 13.8399 187.156 13.6977 186.919 13.7925C187.061 13.7451 187.251 13.7451 187.393 13.6977C187.583 13.6977 187.156 13.6977 187.488 13.6977H187.772C187.82 13.6977 188.057 13.6977 187.867 13.6977C187.962 13.6977 188.057 13.7451 188.199 13.7451C188.863 13.8873 189.479 14.2665 189.953 14.8353C190.285 15.4041 190.569 16.1151 190.569 16.9209C190.569 18.0585 192.892 17.4897 192.844 16.4943C192.797 14.5509 191.564 12.8445 189.716 12.2283C187.583 11.5647 185.308 12.2757 183.886 13.9821C182.606 15.4515 182.416 17.5371 183.412 19.2435C184.502 20.9499 186.587 21.8031 188.578 21.3765C190.901 20.9025 192.797 18.9591 192.844 16.5417C192.844 15.3567 190.569 15.9255 190.569 16.9209Z" fill="#196F3A"/>
<path d="M186.398 14.7868V19.1002C186.398 19.3372 186.683 19.5742 186.825 19.7164C187.062 19.906 187.394 20.0008 187.726 20.0008C188.01 20.0008 188.294 19.906 188.484 19.7638C188.674 19.6216 188.768 19.3846 188.721 19.1476V14.8342C188.721 14.5972 188.437 14.3602 188.294 14.218C188.057 14.0284 187.726 13.9336 187.394 13.9336C187.109 13.9336 186.825 14.0284 186.635 14.1706C186.493 14.3602 186.398 14.5498 186.398 14.7868Z" fill="white"/>
<path d="M175.97 99.2094C175.97 99.2094 175.354 82.2876 182.559 75.936C190.996 68.4942 213.132 57.9714 210.051 66.9774C208.818 70.5324 199.765 75.0354 199.765 75.0354C199.765 75.0354 207.254 74.1822 207.776 78.2112C208.297 82.2402 205.311 83.0934 205.311 83.0934C205.311 83.0934 208.534 84.7524 205.974 89.3502C203.415 93.948 197.727 91.3884 197.727 91.3884C197.727 91.3884 195.736 99.7308 184.976 98.1666L175.97 99.2094Z" fill="white"/>
<path d="M177.108 98.8774C177.014 95.275 177.298 91.6252 177.962 88.0702C178.436 85.1788 179.336 82.3348 180.663 79.7278C181.28 78.4954 182.085 77.3104 183.081 76.315C183.981 75.4144 184.977 74.6086 185.972 73.8976C190.712 70.3426 195.879 67.4512 201.377 65.2708C201.993 65.0338 202.562 64.7968 203.178 64.6072L203.842 64.4176L204.269 64.2754C204.032 64.3228 204.506 64.228 204.553 64.228L204.695 64.1806L205.074 64.0858L205.264 64.0384C205.074 64.0858 205.217 64.0384 205.264 64.0384L205.691 63.991C205.548 63.991 205.833 63.9436 205.691 63.991H205.833L206.165 63.9436C206.307 63.9436 206.544 63.9436 206.733 63.9436C208.061 63.9436 209.198 64.5124 209.151 65.9818C209.056 68.3518 206.97 70.0108 205.217 71.338C203.273 72.7126 201.235 73.9924 199.102 75.0352C198.96 75.0826 198.865 75.1774 198.723 75.2248C198.391 75.4144 198.818 75.4144 198.96 75.367C199.102 75.3196 199.244 75.3196 199.386 75.3196C199.197 75.3196 199.481 75.3196 199.481 75.3196H199.766H200.429C201.519 75.3196 202.657 75.4618 203.7 75.7462C204.743 76.0306 205.785 76.5994 206.307 77.6422C206.876 79.0168 206.781 80.5336 206.07 81.8134C205.785 82.24 205.454 82.6665 205.027 82.951C204.932 82.9984 204.885 83.0458 204.79 83.0932L204.695 83.1406C204.6 83.188 204.743 83.0932 204.695 83.1406C204.648 83.188 204.6 83.188 204.743 83.1406C204.79 83.1406 204.885 83.0932 204.932 83.0932C204.885 83.0932 203.984 83.425 204.174 83.5198C205.691 84.3256 205.975 86.3164 205.596 87.7858C205.217 89.2552 204.269 90.9615 202.799 91.7199C202.752 91.7199 202.515 91.8148 202.515 91.8622C202.61 91.8148 202.704 91.7674 202.847 91.7674C202.704 91.72 202.325 91.8148 202.136 91.8148C201.614 91.8148 201.093 91.7673 200.571 91.6725C199.955 91.5777 199.339 91.3882 198.77 91.1512C198.438 91.009 197.775 91.2934 197.49 91.3408C197.301 91.3882 196.59 91.5304 196.542 91.7674C195.926 93.9952 194.409 95.9385 192.419 97.1235C192.039 97.3605 191.613 97.5502 191.139 97.7398L190.902 97.8345C190.997 97.8345 190.57 97.9294 190.712 97.882C190.57 97.9294 190.38 97.9768 190.096 98.0242C189.48 98.119 188.816 98.1664 188.2 98.1189C187.394 98.1189 186.636 97.9294 185.83 97.9294C185.356 97.9294 184.882 98.0241 184.408 98.0715L181.611 98.4034L176.634 98.9722C176.066 99.0196 175.544 99.1618 175.023 99.3988C174.691 99.541 174.644 99.6832 175.07 99.6358L179.621 99.1144L182.702 98.7352L183.697 98.6404C183.792 98.6404 183.839 98.5929 183.934 98.5929C184.124 98.5929 183.744 98.593 184.076 98.6404C187.015 99.2092 190.475 98.5929 193.224 97.3605C194.978 96.6021 196.448 95.3698 197.49 93.7582C198.059 92.9524 198.438 92.0992 198.723 91.1512L196.495 91.7674C198.581 92.6206 200.903 92.7154 203.036 92.0044C204.695 91.5304 206.117 90.6772 206.97 89.1129C207.729 87.7383 208.345 85.9846 207.729 84.4204C207.444 83.7094 206.97 83.1406 206.307 82.7614L205.548 83.188C206.354 82.951 207.065 82.5718 207.681 82.003C208.772 80.9128 209.056 79.2538 208.819 77.8318C208.392 75.2248 205.074 74.7508 202.894 74.656C202.088 74.6086 201.282 74.656 200.477 74.7508L200.714 74.893C202.42 74.0398 204.126 73.0444 205.738 71.9542C207.018 71.1484 208.203 70.2478 209.293 69.205C210.194 68.4466 210.857 67.4512 211.236 66.361C211.663 64.9864 211.331 63.6592 209.767 63.3274C208.866 63.1852 207.918 63.1852 206.97 63.3274C205.643 63.5644 204.269 63.8488 202.989 64.2754C197.064 66.0766 191.423 69.0628 186.304 72.523C184.076 74.0398 181.611 75.604 179.952 77.737C178.104 80.0596 177.014 82.951 176.255 85.795C175.118 90.2031 174.644 94.7535 174.738 99.304C174.738 99.3988 174.738 99.4462 174.738 99.541C174.738 99.6357 177.156 99.304 177.108 98.8774Z" fill="#000005"/>
<path d="M182.227 81.9554C182.227 81.9554 186.587 79.3957 190.427 79.6327C194.266 79.8697 196.352 82.5241 195.119 84.4201C193.887 86.3161 190.853 84.2306 188.673 86.1266C188.673 86.1266 192.038 85.6526 192.133 88.9706" fill="white"/>
<path d="M183.034 82.4763C185.262 81.1965 188.106 80.0589 190.666 80.2959C191.946 80.4381 193.415 81.0543 194.031 82.2393C194.316 82.7133 194.363 83.2821 194.221 83.7561C194.079 84.1827 193.747 84.5619 193.273 84.6567C192.514 84.7515 191.566 84.6093 190.666 84.6567C189.576 84.7041 188.533 85.0833 187.68 85.7469C186.921 86.4105 188.533 86.7897 188.959 86.7423C189.007 86.7423 189.054 86.7423 189.102 86.7423C189.007 86.7423 189.386 86.7423 189.102 86.7423C189.196 86.7423 189.718 86.7897 189.339 86.7423L189.576 86.7897L189.765 86.8371C189.623 86.7897 189.623 86.7897 189.718 86.8371C190.002 86.9319 189.955 86.8845 190.097 87.0267C190.239 87.1215 190.381 87.2637 190.476 87.4059C190.808 87.8799 190.95 88.4013 190.95 88.9701C190.998 89.8707 193.368 89.9181 193.32 89.1123C193.32 87.6429 192.42 86.3631 191.045 85.8891C190.192 85.5573 189.291 85.4625 188.391 85.5573L189.67 86.5527C191.092 85.3677 193.036 86.2683 194.695 85.7469C196.069 85.3677 196.875 83.9931 196.496 82.6185C196.449 82.4763 196.401 82.3341 196.354 82.1919C195.643 80.5329 193.747 79.6323 192.088 79.2531C189.86 78.8265 187.537 78.9687 185.404 79.7271C184.03 80.1537 182.655 80.7225 181.423 81.4335C180.996 81.6705 180.949 82.0497 181.375 82.3341C181.849 82.6659 182.466 82.6659 183.034 82.4763Z" fill="#000005"/>
<path d="M197.158 78.211C195.784 79.9648 194.836 82.3822 196.21 84.373C198.059 87.1222 201.661 85.795 204.031 84.5152C205.595 83.7094 207.017 82.5718 208.155 81.2446C208.582 80.7232 207.207 78.8272 206.686 79.4908C205.785 80.4862 204.79 81.3394 203.605 82.0504C202.467 82.7614 201.235 83.3302 199.907 83.7094C199.339 83.8516 198.77 83.9464 198.201 83.9464C198.011 83.9464 197.775 83.9464 197.585 83.899C197.49 83.899 197.395 83.8516 197.3 83.8042C197.206 83.7568 197.158 83.7568 197.063 83.7094C196.921 83.6146 197.016 83.7094 196.921 83.6146C196.969 83.7094 197.064 83.8042 197.111 83.899C197.158 83.9938 197.064 83.7568 197.111 83.8516C197.158 83.9464 197.111 83.8042 197.111 83.8042C197.111 83.7094 197.111 83.6146 197.111 83.5198C197.158 82.9984 197.253 82.5244 197.49 82.0504C197.774 81.3394 198.201 80.6284 198.675 80.0122C199.102 79.4908 197.727 77.5948 197.206 78.2584L197.158 78.211Z" fill="#000005"/>
<path d="M195.071 84.4662C194.265 84.9876 193.554 85.6512 193.033 86.457C192.274 87.6894 192.511 89.2536 193.649 90.2016C195.734 92.0976 199.147 92.619 201.896 92.2872C203.65 92.145 205.262 91.3866 206.494 90.2016C206.731 89.9646 206.731 89.5854 206.494 89.3484C206.399 89.2536 206.305 89.2062 206.162 89.1588C205.594 89.0166 204.977 89.2536 204.551 89.6802C204.266 89.9646 203.935 90.1542 203.603 90.2964C203.176 90.486 202.75 90.5808 202.276 90.6282C201.138 90.7704 200 90.723 198.91 90.486C197.441 90.1542 194.123 89.0166 194.976 86.931C195.071 86.7414 195.166 86.5518 195.308 86.3622C195.403 86.2674 195.497 86.1726 195.592 86.0778L195.687 85.983C195.592 86.0778 195.782 85.8882 195.687 85.983C195.782 85.8882 195.971 85.746 196.114 85.6512C196.256 85.5564 196.588 85.3668 196.114 85.6512C196.493 85.4142 196.967 84.9876 196.635 84.5136C196.303 84.0396 195.403 84.2292 195.071 84.4662Z" fill="#000005"/>
<path d="M196.495 77.5939C197.253 77.3095 198.011 77.0251 198.77 76.6459C199.907 76.1719 201.045 75.6505 202.183 75.1765C202.467 75.0343 202.799 74.8921 203.131 74.7973C203.32 74.7499 202.562 73.8493 202.467 73.7545C202.23 73.5649 201.756 72.9961 201.424 73.0909C200.666 73.3753 199.907 73.7071 199.149 74.0863C198.011 74.5603 196.874 75.0817 195.736 75.5557C195.452 75.6979 195.12 75.8401 194.788 75.9349C194.599 75.9823 195.357 76.8829 195.452 76.9777C195.689 77.1673 196.163 77.6887 196.495 77.5939Z" fill="#000005"/>
<path d="M145.304 163.104C144.64 158.269 138.004 121.771 138.004 121.771C157.723 124.995 189.812 106.888 187.869 102.053C185.926 97.2183 175.924 83.3301 175.924 83.3301C149.38 103.143 124.969 92.7153 124.969 92.7153C124.969 92.7153 100.985 95.0379 91.0781 109.258L94.3961 169.74" fill="white"/>
<path d="M146.393 162.725C145.682 157.322 144.592 151.918 143.644 146.562C142.412 139.689 141.179 132.816 139.947 125.943C139.662 124.426 139.425 122.909 139.141 121.392L137.672 122.814C144.118 123.857 150.849 122.767 157.106 121.108C163.599 119.354 169.904 116.842 175.876 113.666C178.341 112.386 180.663 110.964 182.939 109.4C184.645 108.263 186.209 106.935 187.631 105.371C188.437 104.423 189.432 103.049 189.053 101.721C188.674 100.726 188.2 99.7781 187.679 98.8775C187.015 97.6451 186.257 96.4601 185.546 95.2751C182.891 91.0565 180.095 86.9801 177.203 82.9511C177.156 82.8563 177.108 82.7615 177.014 82.7141C176.634 82.2401 175.971 82.1927 175.497 82.5245C167.676 88.3073 158.67 92.4785 149 93.8531C142.838 94.7537 136.534 94.5167 130.419 93.1421L129.708 92.9525C129.519 92.9051 129.708 92.9525 129.756 92.9525L129.566 92.9051L129.187 92.8103C128.808 92.7155 128.381 92.5733 128.002 92.4785C127.433 92.2889 126.864 92.1467 126.343 91.9097C126.153 91.8149 125.916 91.7201 125.727 91.6727C125.348 91.5779 124.921 91.5779 124.494 91.6727C119.754 92.2889 115.157 93.3791 110.654 94.9433C103.875 97.2659 97.0972 100.773 92.2624 106.272C91.5988 106.983 90.9826 107.789 90.4138 108.594C90.2242 108.831 90.082 109.116 90.082 109.4C90.082 109.637 90.1294 109.922 90.1294 110.159L90.319 113.808L91.0774 127.46L92.0254 144.95L92.8786 160.734L93.3526 169.409V169.835C93.4474 171.257 95.6752 170.783 95.5804 169.551L95.2486 163.531L94.348 149.121L93.4 131.631L92.5942 116.51L92.3098 111.581C92.3098 110.775 92.2624 110.016 92.1676 109.211C92.1676 109.163 92.1676 109.163 92.1676 109.116L91.978 109.637C95.6752 104.376 101.363 100.821 107.193 98.3561C109.895 97.2185 112.692 96.2705 115.536 95.5121C116.816 95.1803 117.621 94.9907 118.949 94.7063C119.897 94.5167 120.845 94.3271 121.84 94.1375C122.835 93.9479 123.831 93.8057 124.874 93.7109L124.352 93.6635C125.205 94.0427 126.106 94.3271 127.054 94.5641C129.519 95.2751 132.031 95.7965 134.591 96.0809C142.933 97.0763 151.37 96.1283 159.286 93.3791C165.448 91.1987 171.231 88.0703 176.492 84.1361L174.975 83.9465C177.393 87.3119 179.763 90.7247 182.038 94.1849C183.555 96.4601 184.977 98.8301 186.257 101.247C186.351 101.437 186.446 101.674 186.541 101.864C186.588 101.958 186.636 102.053 186.683 102.148C186.731 102.243 186.825 102.527 186.731 102.29C186.778 102.385 186.778 102.527 186.825 102.622C186.873 102.717 186.825 102.669 186.825 102.527C186.825 102.575 186.825 102.622 186.825 102.717C186.825 102.764 186.825 102.812 186.825 102.859C186.825 103.001 186.92 102.622 186.825 102.812C186.731 103.001 186.731 103.049 186.731 103.143C186.636 103.475 186.825 103.001 186.683 103.286L186.446 103.665C186.351 103.807 186.257 103.902 186.162 104.044L185.972 104.281C185.688 104.565 185.403 104.85 185.119 105.134C184.835 105.419 184.455 105.75 184.076 106.082L183.507 106.556C183.744 106.367 183.46 106.604 183.365 106.651L183.033 106.935C180.995 108.452 178.862 109.827 176.634 111.012C171.089 114.14 165.164 116.652 159.049 118.454C153.077 120.255 146.63 121.535 140.373 120.966C139.662 120.918 138.999 120.824 138.288 120.729C137.577 120.681 136.913 121.203 136.866 121.914C136.866 122.009 136.866 122.103 136.866 122.151C137.624 126.369 138.383 130.588 139.141 134.854C140.421 142.059 141.748 149.264 142.98 156.468C143.407 158.791 143.834 161.161 144.118 163.484C144.213 164.1 144.971 164.195 145.445 164.052C146.109 163.91 146.488 163.341 146.393 162.725Z" fill="#000005"/>
<path d="M109.894 60.5305C109.894 60.5305 116.483 63.4693 121.081 61.1941C125.678 58.9189 133.973 53.0887 137.102 57.2599C140.23 61.4311 134.732 65.9815 130.418 67.0243C130.418 67.0243 137.102 78.8269 131.414 85.4629C125.726 92.0989 121.412 91.6723 123.214 96.8863C123.214 96.8863 118.189 109.59 112.928 100.584C112.122 99.1615 100.225 82.6663 108.662 71.7169C108.709 71.7643 113.686 65.9815 109.894 60.5305Z" fill="white"/>
<path d="M108.9 61.0988C110.796 61.952 112.835 62.4734 114.92 62.663C116.627 62.8526 118.333 62.7104 119.945 62.2364C121.367 61.715 122.741 61.0514 124.068 60.2456C126.533 58.871 129.188 57.2594 131.889 56.6432C132.932 56.4062 134.07 56.3114 135.018 56.8328C136.203 57.4964 136.914 58.7288 136.961 60.056C137.056 63.3266 133.311 65.6966 130.515 66.4076C130.278 66.455 129.093 67.0238 129.33 67.4978C131.131 70.5788 132.221 74.039 132.553 77.594C132.743 80.1536 132.411 82.9502 130.799 85.0832C128.951 87.5954 126.391 89.3492 124.021 91.34C123.168 92.051 122.315 92.8568 121.935 93.8996C121.509 95.0372 121.746 96.2696 122.125 97.4072L122.172 97.1228C121.841 97.9286 121.461 98.7344 121.035 99.4928C120.656 100.156 120.229 100.82 119.802 101.436C119.565 101.768 119.281 102.1 118.997 102.384C118.807 102.574 118.57 102.811 118.333 102.953C118.428 102.858 117.906 103.19 118.049 103.095C118.191 103 117.954 103.143 117.906 103.143C117.764 103.19 118.001 103.095 118.001 103.095L117.859 103.143C117.669 103.19 118.049 103.095 117.812 103.143C117.764 103.143 117.575 103.19 117.764 103.143C117.669 103.143 117.575 103.143 117.48 103.143C117.432 103.143 117.385 103.143 117.338 103.143C116.484 102.953 115.773 102.479 115.252 101.768C114.446 100.773 113.735 99.6824 113.119 98.5922C110.939 95.2742 109.232 91.6718 108 87.8798C106.578 83.2346 106.104 77.9732 108.474 73.565C109.232 72.143 110.322 71.0054 111.081 69.5834C112.266 67.3082 112.835 64.6538 112.029 62.1416C111.792 61.3832 111.413 60.6722 110.986 60.0086C110.559 59.345 108.474 60.4352 108.806 60.9566C110.133 62.8526 110.559 65.27 109.943 67.5452C109.706 68.3984 109.374 69.2516 108.948 70.0574C108.806 70.3418 108.616 70.6262 108.474 70.8632C108.379 71.0054 108.332 71.1002 108.237 71.2424L108.142 71.3846C108.095 71.432 108.189 71.2898 108.095 71.432C105.867 74.1338 104.634 77.5466 104.682 81.0542C104.587 87.7376 107.668 94.2788 111.176 99.8246C112.408 101.768 113.735 104.422 116.39 104.47C119.376 104.517 121.604 101.863 122.978 99.5402C123.452 98.7344 123.879 97.8812 124.258 96.9806C124.4 96.6962 124.448 96.3644 124.353 96.08C124.116 95.369 124.021 94.6106 124.068 93.8522C124.258 92.525 125.348 91.7666 126.344 91.0082C128.192 89.6336 129.946 88.0694 131.558 86.4104C133.074 84.7988 134.212 83.045 134.686 80.8646C135.065 78.9686 135.065 77.0252 134.686 75.1292C134.165 72.2852 133.217 69.536 131.889 66.9764C131.795 66.8342 131.747 66.6446 131.652 66.5024L130.467 67.5926C132.221 67.1186 133.928 66.3128 135.397 65.27C136.772 64.3694 137.909 63.0896 138.715 61.6202C139.426 60.2456 139.426 58.634 138.668 57.3068C138.051 56.1692 136.961 55.4108 135.729 55.1738C132.743 54.6524 129.519 56.1692 126.912 57.4964C125.443 58.2548 123.974 59.0606 122.504 59.8664C121.272 60.5774 120.182 61.1462 118.665 61.2884C116.911 61.3832 115.11 61.1936 113.403 60.6722C112.787 60.4826 112.171 60.293 111.602 60.1034L111.033 59.9138L110.986 59.8664C110.465 59.7242 109.943 59.819 109.517 60.1034C109.232 60.2456 108.426 60.9092 108.9 61.0988Z" fill="#000005"/>
<path d="M104.208 92.7624C104.208 92.7624 99.752 98.4978 96.4814 96.1752C93.2108 93.8526 97.4294 91.8144 97.4294 91.8144C97.4294 91.8144 88.5182 88.7808 93.4004 83.2824C93.4004 83.2824 85.058 82.2396 85.4846 74.94C85.9112 67.6404 95.486 64.8438 95.486 64.8438C95.486 64.8438 90.1298 58.2078 96.6236 54.6528C103.117 51.0978 104.776 56.217 104.776 56.217C104.776 56.217 108.9 53.847 110.749 56.1222C112.597 58.3974 110.512 61.431 110.512 61.431C110.512 61.431 114.541 68.9202 108.711 71.8116L110.18 83.8986C110.18 83.8986 114.256 85.605 114.73 90.2028C115.252 94.7532 107.241 97.2654 104.208 92.7624Z" fill="#000005"/>
<path d="M103.209 92.1457C103.114 92.2405 103.019 92.3827 102.925 92.4775C102.83 92.5723 102.593 92.8567 102.735 92.7145C102.593 92.9041 102.403 93.0463 102.261 93.2359C101.55 93.9943 100.697 94.6579 99.7962 95.2267C99.417 95.4637 98.9904 95.6059 98.5638 95.7481C98.3268 95.7955 98.1372 95.7955 97.9002 95.8429C97.7106 95.8429 97.521 95.7955 97.3314 95.7007C97.1418 95.6059 97.3788 95.7481 97.1892 95.6059C97.0944 95.5585 96.9522 95.4637 96.8574 95.3689C96.7626 95.2741 96.6678 95.1793 96.573 95.0845C96.5256 94.9897 96.4782 94.9423 96.4308 94.8475C96.3834 94.7527 96.336 94.6105 96.3834 94.4683C96.4308 94.2787 96.4782 94.1365 96.573 93.9943C96.81 93.6625 97.1418 93.3307 97.521 93.0937C97.6632 92.9989 97.8528 92.9041 97.995 92.8093C97.8054 92.9041 97.9002 92.8567 97.995 92.8093C98.8956 92.3353 98.3742 91.1977 97.6158 90.9607C97.1892 90.8185 96.81 90.6289 96.3834 90.4393C96.1938 90.3445 96.6204 90.5815 96.336 90.3919L96.0516 90.2497C95.862 90.1549 95.6724 90.0601 95.5302 89.9653C95.388 89.8705 95.1036 89.6809 94.914 89.5387L94.5822 89.3017C94.8192 89.4913 94.4874 89.2543 94.44 89.2069C94.2504 89.0173 94.0608 88.8751 93.8712 88.6855C93.8238 88.6381 93.5868 88.3063 93.729 88.5433C93.6342 88.4485 93.5868 88.3537 93.492 88.2589C93.3972 88.1641 93.3498 88.0219 93.3024 87.9271C93.2076 87.7375 93.3498 88.0693 93.255 87.8323C93.1602 87.6427 93.1128 87.4531 93.0654 87.2635C92.8758 86.0785 93.5394 84.9883 94.3452 84.0403C94.914 83.3767 93.8712 82.4761 93.255 82.4287C92.9706 82.3813 92.6862 82.3339 92.4018 82.2391C92.2122 82.1917 92.6388 82.2865 92.4492 82.2391L92.2122 82.1917L91.7382 82.0495C91.359 81.9547 90.9798 81.8125 90.648 81.6229L90.3636 81.4807C90.2688 81.4333 90.1266 81.3859 90.3162 81.4333C90.1266 81.3385 89.8896 81.2437 89.7 81.1015C89.5104 80.9593 89.2734 80.8645 89.0838 80.7223L88.8468 80.5327L88.7046 80.3905C88.7994 80.4379 88.7994 80.4853 88.7046 80.3905C87.9936 79.8217 87.3774 79.0633 87.0456 78.2101C86.1924 75.9823 86.5242 73.5175 87.8514 71.5267C89.0838 69.7729 90.6954 68.3509 92.5914 67.3555C93.729 66.7393 94.914 66.2179 96.099 65.8387C96.5256 65.6491 96.7152 65.1751 96.5256 64.7485C96.4782 64.7011 96.4782 64.6063 96.4308 64.5589C96.2886 64.3693 96.1464 64.1797 96.0042 63.9901C95.862 63.8005 95.7672 63.6109 95.625 63.4213C95.5302 63.2791 95.4828 63.1843 95.4354 63.0421L95.3406 62.8525C95.4354 63.0421 95.2932 62.7577 95.2932 62.7577C94.677 61.4305 94.2978 60.1033 94.677 58.6339C95.1984 56.6431 97.284 55.4581 99.0852 54.7945C99.8436 54.5101 100.649 54.4153 101.455 54.4627C101.55 54.4627 101.645 54.4627 101.787 54.5101C101.597 54.4627 101.74 54.5101 101.787 54.5101C101.977 54.5575 102.071 54.6049 102.261 54.6997C102.119 54.6049 102.545 54.7945 102.261 54.6997L102.451 54.7945C102.545 54.8419 102.972 55.1737 102.688 54.9367C102.782 55.0315 102.925 55.1263 103.019 55.2211C103.114 55.3159 103.351 55.6477 103.162 55.3633C103.304 55.5529 103.446 55.7899 103.588 55.9795C103.636 56.0269 103.683 56.1217 103.683 56.2165C103.493 55.8847 103.636 56.1217 103.683 56.2165C103.73 56.2639 103.73 56.3113 103.778 56.4061C104.015 57.1171 104.773 57.4489 105.484 57.2119C105.532 57.1645 105.626 57.1645 105.674 57.1171C105.247 57.3541 105.863 57.0223 105.958 56.9749C106.337 56.7853 106.717 56.6431 107.143 56.5009C107.617 56.3587 108.044 56.2639 108.518 56.2165C108.755 56.2165 108.944 56.2165 109.181 56.2639C109.513 56.3113 109.087 56.2165 109.418 56.3113C109.418 56.3113 109.75 56.4535 109.608 56.3587C109.798 56.4061 109.94 56.5483 110.035 56.6905C110.224 56.9275 110.366 57.2119 110.414 57.4963C110.556 58.0177 110.509 58.5391 110.366 59.0605C110.224 59.6767 109.94 60.2929 109.608 60.8617C109.418 61.1935 109.466 61.5727 109.655 61.8571L109.703 61.9519C109.513 61.6201 109.655 61.8097 109.703 61.9519C109.845 62.2363 109.94 62.5207 110.082 62.8051C110.414 63.6109 110.651 64.4641 110.746 65.3173C111.077 67.5925 110.366 69.7729 108.186 70.9105C107.854 71.0527 107.665 71.3371 107.665 71.7163L109.039 83.1397C109.134 83.8981 109.229 84.5143 110.082 84.8935C110.272 84.9883 109.798 84.7513 109.94 84.8461C109.987 84.8935 110.035 84.8935 110.129 84.9409C110.319 85.0357 110.461 85.1305 110.603 85.2253L110.888 85.4149C110.935 85.4623 111.22 85.6519 111.125 85.5571C111.03 85.4623 111.314 85.7467 111.362 85.7467C111.504 85.8415 111.599 85.9837 111.741 86.0785C112.784 87.1213 113.447 88.4485 113.637 89.8705C113.779 91.0081 113.353 92.0983 112.452 92.8093C111.362 93.7099 109.987 94.1839 108.565 94.1839C107.854 94.1839 107.191 93.9943 106.574 93.7099C106.717 93.7573 106.29 93.5677 106.243 93.5203L106.053 93.3781C106.006 93.3307 105.816 93.1885 105.958 93.2833C105.674 93.0463 105.389 92.7619 105.152 92.4301C104.821 91.9087 104.204 91.6717 103.588 91.8613C103.162 92.0509 102.972 92.5723 103.162 92.9989C103.209 93.0463 103.209 93.1411 103.256 93.1885C105.532 96.4591 110.129 97.0753 113.447 94.9423C114.917 94.0891 115.817 92.5249 115.865 90.8185C115.865 88.7329 114.822 86.6473 113.4 85.1779C112.547 84.2299 111.504 83.5189 110.366 82.9975L111.267 84.0877L109.987 73.4701L109.798 72.0007L109.324 72.8065C110.746 72.1429 111.883 70.9579 112.499 69.5359C112.926 68.3509 113.116 67.1185 112.926 65.8387C112.736 64.1797 112.215 62.5681 111.457 61.1461L111.504 62.1415C113.021 59.9137 113.116 56.4535 110.603 54.8419C108.565 53.5621 105.863 54.3205 103.92 55.4581L105.816 56.1691C104.915 53.5147 101.977 52.0927 99.2748 52.5667C96.9048 52.9933 94.1556 54.3679 92.9232 56.5957C91.9752 58.3021 92.1174 60.3403 92.781 62.1415C93.2076 63.2791 93.7764 64.3693 94.5348 65.3173L94.8666 63.9901C93.729 64.3219 92.6388 64.7959 91.596 65.3647C89.4156 66.4549 87.5196 68.0191 86.0502 69.9151C84.3912 72.1903 83.9172 75.1291 84.6756 77.8783C85.434 80.1061 87.093 81.9547 89.226 82.9975C90.5532 83.7085 91.9752 84.1825 93.4446 84.4195L92.3544 82.8079C90.7902 84.6091 90.2214 86.8843 91.596 88.9699C92.6388 90.5815 94.3452 91.6243 96.0042 92.4301C96.3834 92.6197 96.7626 92.7619 97.1418 92.9041L96.7626 91.0555C95.9568 91.4347 95.2458 92.0035 94.677 92.7145C93.6816 94.0417 94.1556 95.6533 95.3406 96.6961C96.5256 97.8337 98.232 98.2129 99.7962 97.7389C101.123 97.3123 102.308 96.5539 103.256 95.6059C103.92 94.9897 104.536 94.3261 105.105 93.6151C105.958 92.4301 103.967 91.1503 103.209 92.1457Z" fill="#000005"/>
<path d="M110.512 72.3806C110.512 72.3806 106.246 68.4464 103.686 71.8592C101.126 75.272 107.715 86.4584 113.308 81.7184" fill="white"/>
<path d="M111.174 71.7161C109.942 70.5311 108.378 69.7253 106.719 69.4409C104.491 69.1091 102.405 70.6733 102.073 72.9011C101.836 74.8445 102.547 76.8353 103.448 78.5417C104.396 80.3903 105.818 82.0019 107.619 83.0921C108.615 83.6609 109.752 83.9927 110.937 83.9453C112.122 83.8505 113.26 83.3765 114.113 82.5707C114.587 82.1915 114.255 81.3857 113.923 81.0539C113.544 80.6273 112.881 80.5325 112.407 80.9117C112.122 81.1487 111.79 81.3857 111.411 81.5279L111.127 81.6701L110.985 81.7175C110.985 81.7175 111.127 81.6701 111.032 81.7175C110.842 81.7649 110.653 81.8123 110.416 81.8123C110.321 81.8123 110.226 81.8123 110.179 81.8123C110.084 81.8123 110.226 81.8123 110.226 81.8123H110.084C109.894 81.8123 109.705 81.7649 109.515 81.7649L109.373 81.7175C109.373 81.7175 109.563 81.7649 109.468 81.7175C109.373 81.6701 109.278 81.6701 109.183 81.6227C108.994 81.5753 108.804 81.4805 108.662 81.4331L108.757 81.4805L108.615 81.3857L108.378 81.2435C108.188 81.1487 107.998 81.0065 107.856 80.9117C107.761 80.8643 107.619 80.7221 107.809 80.8643L107.572 80.6747C107.382 80.5325 107.24 80.3903 107.098 80.2007C106.956 80.0111 106.813 79.9163 106.671 79.7267C106.624 79.6793 106.529 79.5845 106.482 79.4897C106.434 79.3949 106.529 79.5371 106.529 79.5371L106.387 79.3949C106.102 79.0157 105.865 78.6839 105.628 78.2573C105.534 78.0677 105.439 77.9255 105.344 77.7359C105.297 77.6885 105.154 77.4041 105.249 77.5937C105.202 77.4989 105.154 77.4041 105.107 77.2619C104.917 76.8827 104.775 76.5035 104.633 76.0769C104.586 75.8873 104.538 75.6977 104.443 75.5081C104.349 75.3185 104.491 75.6503 104.443 75.4133L104.349 75.0815C104.301 74.7023 104.254 74.3705 104.254 73.9913C104.254 73.8017 104.254 74.1335 104.254 73.9439V73.7069C104.254 73.5173 104.301 73.3751 104.349 73.1855C104.349 73.1381 104.396 73.0433 104.396 72.9959C104.301 73.2329 104.396 72.9959 104.443 72.9485C104.491 72.9011 104.586 72.7115 104.633 72.5693C104.728 72.3323 104.586 72.6167 104.68 72.5219C104.775 72.4271 104.87 72.3323 104.965 72.1901C105.107 72.0005 105.297 71.8583 105.534 71.7161C105.865 71.5265 106.245 71.4317 106.624 71.3843C107.05 71.3843 107.477 71.4791 107.856 71.6213L108.188 71.7635L108.33 71.8109C108.188 71.7161 108.472 71.8583 108.33 71.8109C108.472 71.9057 108.757 72.0479 108.946 72.1427C109.136 72.2375 109.278 72.3797 109.468 72.4745L109.657 72.6167L109.752 72.6641C109.894 72.7589 109.752 72.6167 109.657 72.6167C109.752 72.6167 109.942 72.8063 109.989 72.9011C110.368 73.2803 111.079 73.4699 111.506 73.0433C111.933 72.6167 111.696 71.9057 111.316 71.5265L111.174 71.7161Z" fill="#000005"/>
<path d="M124.161 73.9436C124.967 74.7494 125.962 75.3182 127.005 75.7448C129.233 76.598 131.745 76.2662 133.641 74.7968C134.02 74.5124 134.305 73.9436 133.831 73.5644C133.309 73.2326 132.693 73.2326 132.172 73.5644C131.935 73.754 131.698 73.8962 131.461 74.0384C131.413 74.0858 131.413 74.0858 131.461 74.0384L131.224 74.1332L130.892 74.2754C130.845 74.2754 130.513 74.3702 130.75 74.3228L130.418 74.4176L130.086 74.465C130.371 74.4176 130.039 74.465 129.991 74.465C129.328 74.5124 128.617 74.3702 128.001 74.0858C127.669 73.9436 127.384 73.8014 127.1 73.6118C126.863 73.4696 127.29 73.7066 127.053 73.5644L126.863 73.4696C126.768 73.3748 126.626 73.3274 126.531 73.2326C126.294 73.0904 126.105 72.9008 125.915 72.7112C125.251 71.9054 123.213 72.9482 124.161 73.9436Z" fill="#000005"/>
<path d="M117.148 66.1234C117.622 65.9338 118.19 66.1709 118.38 66.6923C118.38 66.7397 118.427 66.787 118.427 66.8344C118.664 67.8298 117.385 68.1142 116.911 67.3084C116.626 66.9766 116.721 66.4553 117.053 66.1709C117.1 66.1235 117.1 66.1234 117.148 66.1234Z" fill="#000005"/>
<path d="M140.04 140.304L130.939 144.428C128.142 145.708 125.061 144.523 124.066 141.774L115.723 119.259C114.728 116.509 116.15 113.286 118.947 112.006L128.047 107.883C130.844 106.603 133.925 107.788 134.92 110.537L143.263 133.099C144.258 135.801 142.836 139.024 140.04 140.304Z" fill="#196F3A"/>
<path d="M139.236 139.403L130.989 143.148C130.61 143.337 130.23 143.527 129.804 143.669C128.524 144.191 127.055 144.143 125.822 143.622C125.538 143.48 125.301 143.243 125.016 143.1C124.827 143.006 125.206 143.243 125.159 143.29C125.111 143.337 124.969 142.911 124.969 142.911C124.922 142.769 124.827 142.626 124.779 142.437C124.685 142.2 124.59 141.915 124.495 141.631L121.177 132.72L117.385 122.387C117.101 121.581 116.816 120.822 116.532 120.017C115.868 117.884 116.437 115.561 118.096 114.044C119.139 113.049 120.561 112.575 121.841 111.959L127.055 109.589C128.429 108.972 129.804 108.167 131.368 108.261C132.032 108.309 132.648 108.451 133.264 108.735C133.548 108.878 133.738 109.115 134.022 109.209C134.212 109.304 133.833 109.067 133.88 109.02C133.928 108.972 134.117 109.446 134.117 109.494C134.212 109.731 134.307 109.968 134.402 110.157L137.388 118.215L141.322 128.88L142.46 131.961C143.076 133.478 142.981 135.232 142.223 136.701C141.606 137.886 140.611 138.834 139.379 139.403C139.284 139.451 140.516 141.394 140.943 141.204C143.502 140.019 145.114 136.986 144.261 134.189C144.024 133.478 143.739 132.767 143.502 132.104L139.71 121.865L136.155 112.243C135.776 111.011 135.113 109.92 134.307 108.925C133.311 107.787 132.126 106.839 130.61 106.555C129.472 106.365 128.334 106.555 127.339 107.029C124.4 108.356 121.509 109.683 118.57 111.011C116.484 111.864 115.015 113.807 114.778 116.082C114.636 117.315 115.062 118.405 115.442 119.495L118.997 129.07L122.789 139.403C123.026 140.067 123.263 140.778 123.547 141.441C124.779 144.191 127.623 146.466 130.704 145.755C132.079 145.47 133.359 144.665 134.639 144.096L139.9 141.726L140.895 141.252C140.895 141.157 139.71 139.214 139.236 139.403Z" fill="#196F3A"/>
<path d="M137.29 141.584L128.189 145.708C125.392 146.988 122.311 145.803 121.316 143.053L112.973 120.491C111.978 117.742 113.4 114.519 116.197 113.239L125.297 109.115C128.094 107.835 131.175 109.02 132.17 111.769L140.513 134.332C141.508 137.081 140.086 140.352 137.29 141.584Z" fill="white"/>
<path d="M137.102 141.157L128.854 144.902C128.523 145.044 128.191 145.234 127.812 145.376C126.627 145.755 125.299 145.613 124.257 144.902C123.119 144.191 122.55 143.101 122.124 141.868L118.948 133.242L115.061 122.766C114.729 121.913 114.445 121.06 114.113 120.159C113.402 118.311 113.781 116.225 115.061 114.708C115.962 113.713 117.241 113.286 118.426 112.765L123.64 110.395C124.873 109.826 126.058 109.115 127.432 109.305C129.281 109.542 130.561 110.821 131.177 112.528L134.021 120.254L138.003 131.014L139.188 134.284C139.756 135.612 139.804 137.128 139.33 138.503C138.951 139.688 138.145 140.589 137.102 141.157C136.818 141.3 136.012 141.679 136.154 142.058C136.296 142.437 137.197 142.105 137.434 142.011C140.136 140.731 142.269 138.029 141.795 134.901C141.605 134.047 141.368 133.194 140.989 132.388L137.292 122.34L133.642 112.48C133.357 111.532 132.931 110.584 132.315 109.779C130.466 107.598 127.432 107.646 124.968 108.736C122.029 110.063 119.137 111.39 116.199 112.717C114.018 113.713 112.122 115.419 111.601 117.884C111.364 119.211 111.553 120.538 112.075 121.771L115.582 131.109L119.469 141.584C119.706 142.248 119.943 142.911 120.228 143.575C121.318 146.419 124.351 147.367 127.148 146.608C128.523 146.134 129.897 145.566 131.224 144.855L136.486 142.485L137.481 142.011C137.718 141.916 138.524 141.489 138.382 141.11C138.24 140.731 137.339 141.063 137.102 141.157Z" fill="#196F3A"/>
<path d="M117.652 118.503C118.061 118.026 118.038 117.335 117.6 116.96C117.163 116.586 116.477 116.669 116.068 117.146C115.659 117.623 115.683 118.314 116.12 118.688C116.557 119.063 117.243 118.98 117.652 118.503Z" fill="#000005"/>
<path d="M116.768 117.837C116.816 117.932 116.816 117.979 116.816 118.074V117.884C116.816 118.026 116.816 118.168 116.768 118.311L116.816 118.121C116.768 118.216 116.721 118.358 116.674 118.453L116.816 118.263C116.768 118.358 116.721 118.405 116.626 118.453L116.816 118.263C116.768 118.311 116.721 118.358 116.626 118.406L116.863 118.263L116.721 118.358L117.005 118.216L116.863 118.263L117.148 118.169C117.1 118.169 117.053 118.216 116.958 118.216L117.242 118.169H117.053H117.337C117.242 118.169 117.195 118.169 117.1 118.121L117.337 118.169C117.242 118.121 117.148 118.121 117.1 118.074L117.29 118.169C117.195 118.121 117.1 118.026 117.005 117.884L117.1 118.026C117.005 117.884 116.958 117.742 116.911 117.552L116.958 117.742C116.958 117.6 116.958 117.457 117.005 117.315L116.958 117.505C117.005 117.41 117.053 117.268 117.1 117.173L116.958 117.363C117.005 117.268 117.053 117.221 117.148 117.173L116.958 117.363C117.005 117.315 117.053 117.268 117.148 117.221L116.911 117.363C116.958 117.315 117.005 117.315 117.053 117.268L116.768 117.41C116.816 117.363 116.863 117.363 116.911 117.363L116.626 117.458C116.674 117.458 116.721 117.41 116.768 117.41L116.484 117.458C116.531 117.458 116.626 117.458 116.674 117.458H116.389C116.484 117.458 116.531 117.457 116.626 117.505L116.389 117.458C116.484 117.505 116.579 117.505 116.674 117.552L116.484 117.458C116.579 117.505 116.674 117.6 116.768 117.742L116.674 117.6C116.721 117.647 116.768 117.742 116.768 117.837C116.911 117.979 117.053 118.121 117.29 118.121C117.859 118.169 118.427 117.931 118.854 117.505C118.996 117.363 119.044 117.173 118.996 116.936C118.664 116.273 117.953 115.846 117.195 115.988C116.579 116.036 115.963 116.273 115.489 116.699C115.346 116.841 115.204 116.984 115.062 117.126C114.967 117.268 114.872 117.41 114.778 117.6C114.635 117.932 114.635 118.263 114.73 118.595C114.778 118.785 114.872 118.927 114.967 119.069C115.015 119.164 115.109 119.259 115.204 119.306C115.346 119.401 115.489 119.496 115.678 119.543C115.915 119.638 116.2 119.638 116.437 119.638C117.053 119.59 117.669 119.401 118.143 119.022C118.854 118.595 119.186 117.742 118.949 116.936C118.854 116.747 118.664 116.652 118.475 116.652C118.19 116.604 117.906 116.652 117.622 116.794C117.337 116.889 117.1 117.031 116.911 117.268C116.768 117.41 116.721 117.6 116.768 117.837Z" fill="#000005"/>
<path d="M119.254 123.186C119.662 122.709 119.639 122.019 119.202 121.644C118.764 121.269 118.079 121.352 117.67 121.829C117.261 122.307 117.284 122.997 117.722 123.372C118.159 123.746 118.845 123.663 119.254 123.186Z" fill="#000005"/>
<path d="M118.286 122.102C118.333 122.196 118.333 122.291 118.333 122.386V122.196C118.333 122.339 118.333 122.528 118.238 122.67L118.286 122.481C118.238 122.623 118.143 122.765 118.049 122.86L118.191 122.718C118.096 122.813 118.001 122.86 117.906 122.955L118.096 122.86C118.001 122.907 117.906 122.955 117.812 122.955L118.049 122.86C118.001 122.86 117.906 122.907 117.859 122.907L118.143 122.86C118.096 122.86 118.049 122.86 118.001 122.86H118.333C118.286 122.86 118.191 122.86 118.143 122.813L118.428 122.86L118.286 122.813L118.57 122.907C118.523 122.907 118.475 122.86 118.428 122.813L118.665 122.955C118.617 122.907 118.57 122.86 118.523 122.813L118.665 123.002C118.617 122.955 118.523 122.86 118.475 122.765L118.57 122.955C118.523 122.813 118.475 122.718 118.475 122.576V122.765C118.475 122.623 118.475 122.433 118.57 122.291V122.576C118.617 122.433 118.712 122.291 118.807 122.196L118.665 122.339C118.76 122.244 118.854 122.196 118.949 122.102L118.76 122.196C118.854 122.149 118.949 122.102 119.044 122.102L118.807 122.196L118.997 122.149L118.712 122.196C118.76 122.196 118.807 122.196 118.854 122.196H118.523C118.57 122.196 118.665 122.196 118.712 122.244L118.428 122.196L118.57 122.244L118.286 122.149C118.333 122.149 118.38 122.196 118.428 122.244L118.191 122.102C118.238 122.054 118.286 122.054 118.286 122.102L118.191 121.959C118.238 122.007 118.333 122.102 118.38 122.196L118.286 122.007C118.286 122.054 118.286 122.054 118.286 122.102C118.38 122.339 118.57 122.528 118.76 122.623C119.044 122.765 119.328 122.813 119.66 122.813C119.945 122.813 120.182 122.765 120.419 122.576C120.608 122.481 120.656 122.244 120.608 122.054C120.419 121.628 120.134 121.296 119.755 121.059C119.518 120.917 119.281 120.822 119.044 120.774C118.807 120.727 118.523 120.68 118.286 120.68C117.812 120.68 117.338 120.869 116.911 121.154C116.769 121.248 116.627 121.391 116.532 121.533C116.437 121.675 116.342 121.817 116.295 122.007C116.105 122.67 116.342 123.381 116.911 123.761C117.812 124.424 118.997 124.472 119.945 123.903C120.134 123.808 120.276 123.666 120.371 123.476C120.466 123.334 120.561 123.144 120.608 122.955C120.703 122.67 120.703 122.291 120.608 122.007C120.513 121.817 120.324 121.628 120.134 121.533C119.85 121.391 119.565 121.343 119.234 121.343C118.949 121.343 118.712 121.391 118.475 121.58C118.333 121.722 118.286 121.912 118.286 122.102Z" fill="#000005"/>
<path d="M122.496 119.229C122.905 118.752 122.881 118.062 122.444 117.687C122.007 117.312 121.321 117.395 120.912 117.872C120.503 118.35 120.526 119.04 120.964 119.415C121.401 119.789 122.087 119.706 122.496 119.229Z" fill="#000005"/>
<path d="M121.555 118.311C121.602 118.5 121.65 118.737 121.602 118.927V118.832C121.555 119.022 121.46 119.259 121.27 119.401C121.223 119.448 121.176 119.448 121.176 119.496C121.176 119.543 121.365 119.401 121.27 119.448L121.223 119.496L121.413 119.401L121.507 119.353L121.602 119.306H121.555C121.507 119.306 121.934 119.211 121.792 119.259L122.029 119.211H122.266H122.218C122.55 119.211 122.455 119.211 122.361 119.211C122.266 119.211 122.455 119.211 122.455 119.211H122.408C122.361 119.211 122.313 119.164 122.266 119.164L122.408 119.211C122.266 119.164 122.124 119.022 122.029 118.879L122.076 118.974C121.887 118.737 121.839 118.405 121.934 118.121V118.216C121.981 118.026 122.076 117.789 122.266 117.647C122.313 117.6 122.361 117.6 122.361 117.552C122.361 117.505 122.171 117.647 122.266 117.6L122.313 117.552L122.124 117.647L122.029 117.694L121.934 117.742H121.981C122.029 117.742 121.602 117.837 121.744 117.789L121.507 117.837H121.27H121.318C120.986 117.837 121.081 117.837 121.176 117.837H121.081H121.128C121.176 117.837 121.223 117.884 121.27 117.884L121.128 117.837C121.27 117.884 121.413 118.026 121.555 118.168L121.507 118.074C121.46 118.168 121.507 118.216 121.555 118.311C121.602 118.453 121.839 118.453 121.934 118.5C122.218 118.5 122.503 118.5 122.787 118.453C123.072 118.405 123.356 118.311 123.593 118.216C123.688 118.168 123.925 118.026 123.877 117.931C123.593 117.173 122.645 117.078 121.934 117.173C121.555 117.22 121.128 117.315 120.749 117.457C120.512 117.552 120.275 117.647 120.085 117.837C119.848 117.979 119.659 118.216 119.564 118.5C119.469 118.737 119.422 119.022 119.517 119.259C119.564 119.496 119.754 119.733 119.943 119.875C120.275 120.064 120.702 120.159 121.081 120.112C121.839 120.112 122.55 119.875 123.214 119.496C123.783 119.164 124.02 118.548 123.877 117.931C123.83 117.789 123.593 117.789 123.498 117.789C123.214 117.789 122.929 117.789 122.645 117.837C122.361 117.884 122.076 117.979 121.839 118.074C121.744 118.074 121.507 118.216 121.555 118.311Z" fill="#000005"/>
<path d="M120.784 116.115C120.955 115.916 120.948 115.631 120.769 115.477C120.59 115.324 120.307 115.361 120.137 115.56C119.966 115.759 119.973 116.044 120.152 116.197C120.331 116.351 120.614 116.314 120.784 116.115Z" fill="#196F3A"/>
<path d="M112.453 145.234C112.453 145.234 138.475 145.898 138.807 142.864C139.139 139.831 128.332 139.309 128.332 139.309C128.332 139.309 142.173 132.389 140.656 129.687C139.139 126.985 126.625 132.057 126.625 132.057C126.625 132.057 136.248 125.658 135.631 123.288C135.015 120.918 125.488 125.468 122.976 128.881C122.976 128.881 126.009 119.591 123.165 120.444C120.321 121.297 116.245 129.403 111.694 132.768C107.144 136.133 112.453 145.234 112.453 145.234Z" fill="white"/>
<path d="M112.975 146.277C118.284 146.419 123.593 146.371 128.854 146.134C131.84 145.992 135.016 145.897 137.86 144.997C138.524 144.807 139.472 144.475 139.567 143.67C139.804 142.011 138.192 140.636 136.865 140.02C135.158 139.214 133.12 138.882 131.272 138.645C130.134 138.503 128.996 138.361 127.811 138.313L128.949 140.352C130.418 139.641 131.84 138.835 133.262 138.029C135.632 136.654 138.05 135.232 140.041 133.336C140.657 132.72 141.415 131.962 141.51 131.061C141.652 129.876 140.704 128.596 139.661 128.17C138.666 127.743 137.481 127.885 136.438 128.028C135.016 128.265 133.594 128.549 132.22 128.976C130.134 129.592 128.048 130.303 126.01 131.109L127.29 133.099C128.38 132.388 129.423 131.63 130.466 130.824C132.267 129.544 133.973 128.028 135.443 126.321C135.964 125.752 136.296 125.089 136.438 124.33C136.438 123.24 135.822 122.197 134.779 121.771C134.021 121.486 133.12 121.676 132.362 121.866C131.177 122.197 130.087 122.624 128.996 123.145C126.579 124.33 123.925 125.847 122.266 128.028L123.735 129.829C124.446 127.838 124.92 125.752 125.157 123.667C125.252 122.34 125.11 120.823 124.067 119.875C123.024 118.927 121.934 119.638 121.081 120.396C119.801 121.629 118.663 122.956 117.668 124.425C116.341 126.132 115.061 127.933 113.591 129.497C112.928 130.208 112.217 130.919 111.458 131.535C110.795 132.009 110.273 132.578 109.847 133.242C109.041 134.616 109.041 136.323 109.278 137.839C109.752 140.589 110.7 143.196 112.169 145.566C112.312 145.803 112.88 146.514 113.212 146.277C113.544 146.04 113.165 145.234 113.023 144.997L112.975 144.902C112.928 144.807 112.833 144.618 113.023 144.997C112.975 144.902 112.928 144.855 112.88 144.76C112.691 144.381 112.501 144.001 112.312 143.575C111.743 142.437 111.316 141.205 110.984 139.972C110.605 138.645 110.558 137.271 110.842 135.943C111.032 135.28 111.364 134.711 111.79 134.237C112.359 133.668 113.07 133.194 113.639 132.625C116.435 130.018 118.426 126.748 120.891 123.856C121.649 123.003 122.597 121.723 123.735 121.439C123.782 121.439 123.83 121.439 123.925 121.392C124.019 121.344 124.209 121.344 124.019 121.392C124.162 121.392 124.067 121.392 123.972 121.344C123.877 121.249 123.782 121.155 123.735 121.06C123.688 120.965 123.593 120.87 123.593 120.775C123.64 120.823 123.64 120.87 123.593 120.775C123.545 120.728 123.593 120.87 123.593 120.728C123.593 120.823 123.64 120.965 123.64 121.06C123.64 121.107 123.64 121.202 123.64 121.249C123.64 121.392 123.64 121.534 123.64 121.723C123.451 123.856 123.024 125.942 122.266 127.933C122.076 128.502 123.166 130.445 123.735 129.734C125.062 128.028 127.1 126.795 128.996 125.752C130.703 124.804 132.836 123.714 134.827 123.667C134.969 123.667 135.158 123.667 135.301 123.667C135.348 123.667 135.443 123.762 135.585 123.762C135.395 123.762 135.064 123.145 134.969 122.956C134.969 122.908 134.921 122.861 134.921 122.814C134.874 122.814 134.969 122.719 134.921 122.814C134.874 122.908 134.921 122.908 134.921 122.908C134.921 122.908 134.969 122.861 134.921 123.003C134.921 123.051 134.874 123.145 134.874 123.193C134.827 123.335 134.732 123.477 134.684 123.619C134.495 123.951 134.258 124.283 134.021 124.567C132.646 126.084 131.177 127.411 129.518 128.596C128.428 129.45 127.29 130.255 126.152 131.014C125.536 131.44 126.721 133.289 127.432 133.005C128.949 132.388 130.513 131.867 132.03 131.346C134.4 130.587 137.007 129.734 139.519 129.876C139.661 129.876 139.946 129.924 140.041 129.924C140.135 129.924 140.23 129.971 140.325 130.018C140.372 130.018 140.657 130.113 140.467 130.066C140.657 130.113 140.609 130.208 140.515 130.066C140.609 130.161 140.372 129.876 140.42 129.971C140.372 129.876 140.278 129.734 140.23 129.639C140.23 129.639 140.135 129.355 140.183 129.497C140.183 129.497 140.088 129.26 140.135 129.402C140.135 129.402 140.183 129.26 140.135 129.45C140.088 129.639 140.135 129.45 140.135 129.544C140.135 129.592 140.088 129.687 140.041 129.734C139.946 129.924 139.851 130.066 139.756 130.208C139.472 130.587 139.187 130.919 138.856 131.203C137.007 132.957 134.732 134.332 132.504 135.612C130.987 136.512 129.376 137.365 127.811 138.171C127.432 138.361 127.811 139.119 127.954 139.309C128.143 139.641 128.522 140.209 128.949 140.209C131.461 140.257 133.926 140.636 136.343 141.347C136.96 141.537 137.576 141.774 138.145 142.105L138.334 142.248C138.145 142.105 138.334 142.248 138.382 142.295C138.476 142.39 138.334 142.295 138.334 142.248C138.334 142.248 138.571 142.627 138.287 142.2C138.192 142.011 138.192 141.916 138.145 141.916C138.192 141.963 138.097 142.105 138.145 141.963C138.145 142.011 138.097 142.058 138.097 142.105C138.002 142.2 138.097 142.153 138.05 142.153C137.955 142.248 137.86 142.342 137.718 142.39C137.386 142.579 136.96 142.769 136.58 142.864C133.926 143.67 130.892 143.764 128.143 143.907C124.73 144.096 121.318 144.144 117.905 144.144C115.961 144.144 113.971 144.144 112.027 144.096C111.269 144.191 112.217 146.277 112.975 146.277Z" fill="#000005"/>
<path d="M93.3032 106.082C93.3032 106.082 66.2378 131.346 68.9396 148.126C71.6414 164.905 97.0478 167.228 115.486 151.681L111.931 129.024L100.224 133.005" fill="white"/>
<path d="M92.3086 105.749C90.934 107.029 89.6542 108.356 88.3744 109.731C85.3408 112.906 82.4494 116.224 79.7476 119.685C76.477 123.761 73.633 128.122 71.263 132.767C69.2248 136.891 67.5184 141.489 67.6606 146.134C67.8028 150.732 69.9358 155.045 73.4908 157.936C77.4724 161.16 82.6864 162.487 87.7108 162.676C93.778 162.819 99.7978 161.586 105.296 159.074C108.33 157.699 111.269 156.04 113.97 154.05C114.681 153.528 115.392 152.959 116.103 152.391C116.34 152.201 116.767 151.964 116.767 151.632C116.767 151.3 116.72 151.016 116.625 150.684L114.918 139.83L113.307 129.591L113.212 129.022C113.07 128.217 111.743 128.359 111.221 128.548L100.888 132.056L99.4186 132.577C98.9446 132.72 99.0394 133.194 99.3712 133.383C99.8926 133.62 100.509 133.668 101.03 133.431L111.316 129.923L112.785 129.449L110.795 128.975L111.98 136.606L113.923 148.788L114.35 151.585L114.539 151.3C107.571 157.178 98.8024 161.254 89.6542 161.539C86.1466 161.728 82.639 161.112 79.3684 159.738C76.3822 158.458 73.8226 156.325 72.1162 153.576C68.4664 147.556 70.078 140.446 72.8272 134.426C75.9082 127.743 80.4112 121.675 85.1986 116.035C88.0426 112.717 91.0288 109.541 94.1572 106.507L94.2994 106.365C95.1052 105.654 92.83 105.228 92.3086 105.749Z" fill="#000005"/>
<path d="M83.5413 139.262C84.7263 139.262 85.9113 138.835 87.0015 138.503C88.9449 137.935 90.8883 137.318 92.7843 136.702C97.0977 135.328 101.364 133.906 105.677 132.436C106.862 132.01 108.095 131.63 109.28 131.204C109.801 131.062 110.133 130.493 109.991 129.971V129.924C109.706 129.403 109.043 129.166 108.474 129.403C105.63 130.493 102.738 131.393 99.8469 132.341C95.6283 133.763 91.3623 135.185 87.0963 136.465C86.2905 136.702 85.4847 136.939 84.7263 137.176L84.2997 137.271C83.9205 137.366 84.5367 137.224 84.2049 137.271C84.0153 137.318 83.4465 137.318 84.0153 137.318C83.4465 137.318 82.7829 137.555 82.6407 138.172C82.5933 138.74 82.9725 139.214 83.4939 139.262H83.5413Z" fill="#000005"/>
</g>
<defs>
<clipPath id="clip0_2032_14400">
<path d="M0 12C0 5.37258 5.37258 0 12 0H352C358.627 0 364 5.37258 364 12V143C364 149.627 358.627 155 352 155H12C5.37258 155 0 149.627 0 143V12Z" fill="white"/>
</clipPath>
</defs>
</svg>
