<svg width="176" height="155" viewBox="0 0 1.76 155" fill="none" xmlns="http://www.w3.org/2000/svg">
<path d="M82.6766 47.5452L60.0541 109.592C60.0541 109.592 57.3017 109.33 57.2467 109.974C57.1916 110.618 56.5579 112.454 56.9112 114.108C57.2645 115.762 74.6353 128.57 93.6588 133.198C112.682 137.826 116.319 135.696 116.688 134.879C117.057 134.063 119.663 130.562 119.389 128.904C119.116 127.247 118.656 126.961 118.656 126.961C118.656 126.961 145.085 79.0216 146.567 73.0463C146.567 73.0463 148.803 72.7985 149.319 71.6558C149.836 70.513 151.976 64.1272 152.338 62.7179C152.699 61.3086 130.452 43.5444 107.85 37.6128C85.2475 31.6811 82.6686 37.9078 82.4325 38.4302C82.1963 38.9526 80.9462 43.8925 80.71 44.4149C80.4739 44.9373 82.6766 47.5452 82.6766 47.5452Z" fill="#59BE4C"/>
<path d="M82.5944 46.6821L80.6954 51.8398L76.0599 64.5293L70.195 80.6344L64.5895 95.9917L60.7502 106.485C60.4729 107.186 60.2282 107.901 59.9835 108.616C59.9688 108.648 59.9719 108.729 59.9245 108.746C59.9867 108.696 59.7465 108.705 59.7139 108.691C59.4084 108.67 59.1029 108.65 58.7827 108.663C58.3497 108.664 57.368 108.574 57.114 109.049C57.0433 109.292 56.9726 109.535 56.9673 109.808C56.8586 110.31 56.7647 110.778 56.6886 111.294C56.5576 112.454 56.6193 113.622 56.8885 114.766C56.9305 115.021 57.0674 115.241 57.2517 115.442C57.7897 116.078 58.4373 116.646 59.0818 117.134C61.6481 119.199 64.3831 121.064 67.2066 122.734C75.6655 127.855 84.8221 131.956 94.4702 134.272C98.7455 135.34 103.091 136.164 107.475 136.731C109.682 136.981 111.951 137.181 114.169 136.886C114.966 136.774 116.018 136.621 116.637 136.036C116.974 135.638 117.213 135.195 117.453 134.753C118.298 133.405 119.363 131.92 119.588 130.292C119.674 129.23 119.536 128.145 119.207 127.131C119.115 126.814 118.965 126.275 118.668 126.062L118.897 127.817C120.05 125.703 121.202 123.589 122.354 121.476C125.033 116.592 127.68 111.694 130.342 106.763C133.361 101.128 136.38 95.494 139.301 89.8152C141.522 85.5108 143.776 81.2213 145.736 76.7988C146.016 76.1785 146.297 75.5582 146.512 74.9083C146.615 74.6798 146.686 74.4364 146.756 74.1931C146.786 74.1278 146.78 73.9677 146.842 73.9172C146.904 73.8666 147.352 73.8331 147.432 73.83C148.211 73.6712 149.145 73.3461 149.549 72.6246C149.771 72.1349 149.992 71.6452 150.148 71.1259C150.741 69.467 151.286 67.8261 151.799 66.1703C152.014 65.5205 152.211 64.8232 152.426 64.1734C152.594 63.5414 152.631 62.8504 152.493 62.1983C152.359 61.6262 152.034 61.1258 151.619 60.7411C149.945 58.9624 147.947 57.469 146.013 56.0051C138.96 50.7324 131.341 46.1874 123.354 42.4586C118.762 40.2647 113.993 38.4627 109.079 37.0673C104.471 35.6919 99.7691 34.7853 94.9732 34.3474C92.3187 34.1305 89.5757 34.1094 86.9852 34.7078C85.6484 34.9686 84.4041 35.5464 83.3946 36.3877C83.0069 36.7236 82.6549 37.1543 82.4482 37.6114C82.2743 38.0832 82.1182 38.6025 82.0095 39.1039C81.8006 39.9138 81.5591 40.7091 81.3502 41.519C81.1825 42.151 81.0295 42.7503 80.8291 43.3675C80.6171 44.0974 80.6811 44.9128 80.9642 45.5913C81.3578 46.6343 82.2286 47.5784 82.9182 48.4014C83.0193 48.5257 82.9911 47.8052 82.9732 47.7578C82.946 47.4702 82.9715 46.8919 82.7545 46.6759C82.4008 46.2407 82.047 45.8055 81.7259 45.3851C81.4879 45.0416 81.25 44.6981 81.0268 44.322C80.9584 44.2124 80.9047 44.0702 80.8363 43.9606C80.7679 43.851 80.9664 45.2384 80.9517 45.271L80.9664 45.2384C80.9812 45.2057 80.996 45.1731 81.0255 45.1078C81.2406 44.4579 81.4231 43.7933 81.5908 43.1613C81.8292 42.2861 82.0676 41.4108 82.306 40.5355C82.5444 39.6603 82.7416 38.963 83.3897 38.3122C84.3781 37.3435 85.7678 36.792 87.0867 36.4839C90.0091 35.7603 93.1407 35.8784 96.1038 36.1955C101.419 36.7895 106.658 37.8996 111.759 39.5764C117.071 41.3091 122.238 43.4483 127.213 46.012C131.713 48.3217 136.11 50.8599 140.324 53.6297C143.45 55.6723 146.489 57.9109 149.388 60.2831C150.249 60.9871 151.063 61.709 151.833 62.5288C152.05 62.7448 152.252 62.9935 152.421 63.2274C152.439 63.2748 152.457 63.3222 152.49 63.337C152.54 63.3992 152.475 63.3696 152.508 63.3844C152.475 63.3696 152.353 61.8991 152.353 61.8991C152.353 61.8991 152.324 61.9644 152.327 62.0444L152.23 62.4331C151.72 64.1689 151.16 65.8425 150.586 67.5488C150.312 68.3292 150.023 69.1423 149.748 69.9228C149.486 70.5905 149.286 71.2077 148.61 71.5709C147.997 71.8835 147.363 72.0687 146.693 72.159L146.678 72.1917C146.381 73.1975 146.018 74.1739 145.572 75.0733C144.849 76.6731 144.093 78.2582 143.337 79.8433C141.17 84.2899 138.886 88.6447 136.603 92.9996C134.007 97.9601 131.378 102.906 128.731 107.804C126.518 111.916 124.273 116.013 122.075 120.091C121.343 121.451 120.592 122.763 119.874 124.09C119.514 124.714 119.121 125.323 118.825 125.976C118.811 126.008 118.796 126.041 118.796 126.041C118.66 126.255 118.809 126.794 118.819 127.034C118.828 127.274 118.844 127.675 119.025 127.796C119.271 127.947 119.421 128.486 119.495 128.756C119.513 128.803 119.591 129.153 119.591 129.153C119.591 129.153 119.566 128.512 119.537 128.578C119.51 128.723 119.484 128.868 119.457 129.014C119.39 129.337 119.242 129.664 119.109 129.957C118.501 131.216 117.795 132.43 117.038 133.582C116.817 134.072 116.414 134.441 115.925 134.652C114.897 135.013 113.797 135.184 112.659 135.181C110.399 135.221 108.148 135.069 105.906 134.723C102.052 134.2 98.2522 133.387 94.4961 132.475C90.1081 131.396 85.7877 129.993 81.6148 128.264C74.7204 125.423 68.1655 121.83 62.0332 117.564C60.4504 116.455 58.8023 115.317 57.4798 113.893C57.3134 113.74 57.2271 113.583 57.0755 113.396L57.0397 113.301C57.105 113.331 57.0943 113.876 57.1144 113.571C57.1609 113.12 57.1748 112.655 57.2539 112.218C57.3362 111.862 57.4038 111.539 57.4861 111.183C57.5272 111.005 57.5178 110.765 57.6569 110.631C57.9973 110.313 58.7862 110.395 59.1865 110.379C59.5868 110.363 59.9576 110.413 60.3431 110.43L60.3579 110.397L60.9505 108.738L62.6018 104.216L65.0345 97.5298L68.0038 89.3956L71.2621 80.4484L74.5352 71.4684L77.59 63.0583L80.1671 55.9658L82.0514 50.8407C82.3404 50.0276 82.6619 49.2292 82.9509 48.4161C82.9656 48.3835 82.9804 48.3508 82.9952 48.3182C83.0448 47.9474 83.047 47.5945 82.9513 47.1974C82.7586 47.1889 82.5913 46.6021 82.5944 46.6821Z" fill="#59BE4C"/>
<path d="M86.1601 39.8393C86.1601 39.8393 97.7444 50.6598 121.909 59.2244C146.074 67.789 148.614 64.258 149.317 61.7449C150.021 59.2318 129.447 44.8981 112.687 40.7425C95.9273 36.587 82.6712 34.6838 86.1601 39.8393Z" fill="#0A0A0F"/>
<path d="M61.0473 111.22C62.7817 112.515 64.6258 113.742 66.4519 114.921C70.894 117.795 75.5016 120.389 80.2125 122.754C85.8376 125.533 91.6756 128.015 97.7519 129.621C101.867 130.695 106.13 131.443 110.388 131.244C111.734 131.224 113.041 131.028 114.36 130.72C115.235 130.525 116.041 130.221 116.808 129.742C116.932 129.641 117.042 129.573 117.166 129.472C117.352 129.32 116.146 127.988 115.959 128.14C115.352 128.613 114.677 128.976 113.93 129.149C112.789 129.499 111.58 129.738 110.364 129.818C106.433 130.164 102.449 129.582 98.6308 128.721C92.6439 127.352 86.9101 125.074 81.3713 122.452C76.3876 120.081 71.5694 117.431 66.9166 114.502C64.7134 113.113 62.5724 111.673 60.461 110.168L60.3778 110.091C60.1134 109.893 60.0692 109.991 60.1913 110.243C60.3997 110.652 60.685 110.977 61.0473 111.22Z" fill="white"/>
<path d="M82.4588 48.1152C84.3838 49.7718 86.43 51.2473 88.4761 52.7228C93.5573 56.3568 98.8515 59.6938 104.355 62.6537C111.056 66.2725 118.072 69.3658 125.357 71.5184C130.16 72.9823 135.135 73.8943 140.15 74.1954C142.129 74.3425 144.115 74.2969 146.093 74.0111L146.173 74.008C147.127 73.8103 146.22 72.3384 145.52 72.4941C143.958 72.7315 142.389 72.8089 140.814 72.7261C136.253 72.5517 131.768 71.8611 127.359 70.6544C120.262 68.783 113.415 65.9237 106.87 62.5715C101.126 59.6209 95.5915 56.2933 90.3143 52.5708C87.8079 50.8086 85.4259 48.9453 83.0438 47.082L82.9606 47.0051C82.7111 46.7743 82.1949 46.6983 81.9999 47.0426C81.8049 47.387 82.224 47.8517 82.4588 48.1152Z" fill="white"/>
<path d="M85.7994 56.467C84.9729 58.2954 84.2769 60.1828 83.5305 62.008C81.9637 65.8218 80.4148 69.6829 78.8481 73.4966C76.9893 78.0434 75.1483 82.6376 73.2895 87.1843C71.6669 91.2087 70.0263 95.1857 68.4036 99.21C67.849 100.611 67.2618 101.997 66.7072 103.398L66.1052 104.816C66.0609 104.914 66.0314 104.98 65.9871 105.078C65.9723 105.11 65.9576 105.143 65.9281 105.208C65.8985 105.273 65.9723 105.11 65.9133 105.241L65.7509 105.6C65.7214 105.665 65.6771 105.763 65.6476 105.828C65.3672 106.449 66.8489 107.433 67.0851 106.911C67.9116 105.082 68.6076 103.195 69.354 101.37C70.9208 97.5561 72.5023 93.7097 74.0691 89.896C75.9279 85.3493 77.7688 80.7551 79.6276 76.2083C81.2503 72.1839 82.8908 68.207 84.5135 64.1826C85.0681 62.7818 85.6554 61.3958 86.21 59.995L86.812 58.5763C86.8563 58.4783 86.9005 58.3804 86.9301 58.3151C86.9448 58.2824 86.9596 58.2498 86.9891 58.1845C87.0186 58.1192 86.9448 58.2824 87.0039 58.1518C87.0629 58.0212 87.1072 57.9233 87.1662 57.7927C87.1957 57.7274 87.24 57.6295 87.2695 57.5642C87.55 56.9438 86.0682 55.9594 85.7994 56.467Z" fill="white"/>
<path d="M97.9554 63.8494C97.1731 65.5798 96.3909 67.3103 95.6413 69.0554C93.9913 72.7922 92.3087 76.5143 90.6588 80.2511C88.6989 84.6735 86.7242 89.1286 84.7317 93.5362C83.0227 97.4036 81.2663 101.289 79.5573 105.156C78.6422 107.181 77.745 109.252 76.8299 111.276L76.7414 111.472C76.3134 112.419 78.0196 112.994 78.4181 112.112C79.2004 110.382 79.95 108.637 80.7323 106.906C82.3822 103.17 84.0648 99.4476 85.7147 95.7108C87.6746 91.2884 89.6819 86.848 91.6418 82.4256C93.3508 78.5582 95.1072 74.6729 96.8162 70.8055C97.7313 68.7813 98.6611 66.7244 99.5436 64.6854L99.6321 64.4895C100.06 63.5426 98.3539 62.9679 97.9554 63.8494Z" fill="white"/>
<path d="M109.119 69.2508L87.4075 117.278C87.2894 117.539 88.8302 118.393 88.845 118.36L110.556 70.3331C110.674 70.0719 109.134 69.2181 109.119 69.2508Z" fill="white"/>
<path d="M121.051 74.1713L100.166 120.37C99.9003 120.958 100.648 122.436 101.076 121.489L121.96 75.2904C122.226 74.7027 121.479 73.2245 121.051 74.1713Z" fill="white"/>
<path d="M132.687 77.3095L111.566 124.031C111.315 124.586 112.628 125.769 112.909 125.149L134.03 78.4277C134.266 77.9053 132.967 76.6892 132.687 77.3095Z" fill="white"/>
<path d="M121.636 121.937C129.011 125.271 137.692 121.995 141.026 114.62C144.36 107.245 141.084 98.564 133.709 95.23C126.334 91.8961 117.653 95.172 114.319 102.547C110.985 109.922 114.261 118.603 121.636 121.937Z" fill="#0A0A0F"/>
<path d="M140.458 114.049C138.005 119.389 132.552 122.665 126.701 122.301C120.912 121.886 115.767 117.869 114.184 112.238C112.637 106.702 114.964 100.598 119.711 97.3171C124.599 93.9829 131.031 94.02 135.878 97.3906C140.528 100.673 142.649 106.507 141.18 112.017C140.983 112.714 140.753 113.396 140.458 114.049C140.266 114.474 140.365 114.951 140.683 115.291C140.9 115.507 141.238 115.542 141.454 115.325C141.516 115.275 141.546 115.21 141.575 115.144C144.244 109.155 142.96 102.165 138.351 97.4863C133.749 92.9677 126.822 91.7631 120.998 94.5567C115.111 97.4007 111.709 103.884 112.457 110.317C113.224 116.798 117.905 122.099 124.222 123.697C131.309 125.328 138.546 121.757 141.543 115.13C141.735 114.705 141.65 114.195 141.318 113.888C141.101 113.672 140.748 113.669 140.532 113.886C140.517 113.919 140.488 113.984 140.458 114.049Z" fill="#0A0A0F"/>
<path d="M121.862 108.473C122.024 109.333 122.233 110.175 122.475 111.031C122.714 111.808 122.993 113.192 123.886 113.478C124.372 113.619 124.84 113.28 125.264 113.039C125.687 112.798 126.067 112.655 126.475 112.446C128.694 111.365 130.898 110.317 133.117 109.236C134.077 108.766 135.022 108.328 135.964 107.81C136.325 107.619 136.075 106.956 135.905 106.722C135.715 106.36 135.261 106.234 134.882 106.377C131.848 107.955 128.714 109.408 125.645 110.891C125.251 111.067 124.875 111.29 124.481 111.466C124.291 111.538 123.823 111.877 123.678 111.85L124.233 112.101C124.42 112.382 124.453 112.397 124.316 112.178L124.227 111.941L124.08 111.482C123.988 111.165 123.863 110.833 123.785 110.483C123.614 109.816 123.444 109.149 123.321 108.464C123.082 107.688 121.64 107.311 121.862 108.473Z" fill="white"/>
<path d="M178.061 16.7788C178.061 16.7788 162.49 12.689 157.36 11.0775C152.229 9.46603 148.803 10.4339 150.272 13.5356C150.272 13.5356 147.489 12.9067 146.362 15.6609C145.235 18.4151 149.74 20.4519 155.726 21.3885C155.726 21.3885 150.543 25.8087 151.814 29.6076C153.085 33.4066 156.206 31.1999 157.056 29.1461C157.906 27.0923 163.028 24.8073 165.672 27.2216C168.317 29.6359 165.795 33.6473 162.065 32.1575C158.334 30.6677 153.621 29.8738 153.864 34.4666C154.108 39.0595 175.432 43.4695 180.137 38.2823" fill="white"/>
<path d="M177.901 15.9989C174.694 15.1781 171.501 14.3247 168.291 13.4239C165.843 12.7499 163.428 12.0906 160.98 11.4166C160.007 11.134 159.033 10.8513 158.06 10.5686C156.728 10.1236 155.351 9.7765 153.948 9.57478C152.708 9.44686 151.054 9.36724 150.044 10.2085C149.02 11.0824 149.204 12.5025 149.728 13.6045L150.112 12.7556C148.204 12.3652 146.305 13.4336 145.672 15.2705C145.283 16.3922 145.715 17.6101 146.455 18.4952C147.329 19.5194 148.606 20.1751 149.843 20.6559C151.781 21.414 153.79 21.9288 155.854 22.233L155.231 20.6537C153.571 22.0657 152.056 23.937 151.272 26.0203C150.646 27.6644 150.846 29.4847 151.786 30.9714C152.2 31.7089 152.927 32.2738 153.737 32.4827C154.431 32.5998 155.146 32.4116 155.708 32.0368C156.333 31.6114 156.842 31.0944 157.25 30.4531C157.581 29.8949 157.722 29.4083 158.169 28.9418C159.267 27.9046 160.701 27.2552 162.201 27.0683C162.966 26.9421 163.755 27.0236 164.47 27.2682C164.811 27.3832 165.076 27.5813 165.34 27.7794C165.539 27.948 165.723 28.1493 165.845 28.4011C165.863 28.4485 165.932 28.5581 165.845 28.4011C165.881 28.4959 165.932 28.5581 165.935 28.6382C166.024 28.8752 165.932 28.5581 165.938 28.7182C165.941 28.7983 165.959 28.8457 165.962 28.9257C165.986 29.1333 165.996 29.3734 165.94 29.5841C165.831 30.0855 165.577 30.5604 165.207 30.9437C164.201 31.8651 162.851 31.8056 161.694 31.3216C160.177 30.6754 158.575 30.305 156.935 30.1927C155.651 30.1628 154.237 30.5067 153.579 31.7031C153.011 32.7837 152.949 34.053 153.411 35.2055C154.215 36.906 156.115 37.9222 157.762 38.6275C160.142 39.6249 162.641 40.3611 165.207 40.7739C167.888 41.2784 170.59 41.4775 173.312 41.3711C175.441 41.2718 177.819 40.9704 179.616 39.7775C179.992 39.5544 180.318 39.269 180.593 38.9215C181.055 38.4224 180.02 36.9715 179.466 37.5864C178.283 38.8996 176.137 39.3844 174.349 39.5986C171.826 39.8737 169.276 39.8611 166.761 39.5104C164.198 39.1777 161.659 38.6195 159.237 37.8001C158.246 37.47 157.299 37.042 156.382 36.5487C156.186 36.4601 156.005 36.3389 155.824 36.2177L155.545 36.0522L155.364 35.931C155.215 35.8246 155.067 35.7181 154.933 35.579L154.734 35.4104C154.9 35.5642 154.734 35.4104 154.683 35.3482L154.564 35.1765C154.413 34.99 154.651 35.3335 154.532 35.1617C154.514 35.1143 154.463 35.0521 154.413 34.99C154.582 35.2239 154.463 35.0521 154.395 34.9426C154.291 34.7382 154.466 35.1322 154.395 34.9426C154.367 34.655 154.377 34.8952 154.395 34.9426C154.364 34.5749 154.396 34.1567 154.478 33.8007C154.749 32.5073 155.818 31.9683 157.051 31.9361C158.54 31.8619 160.098 32.3302 161.481 32.8374C162.199 33.1621 162.944 33.3415 163.733 33.4229C164.358 33.4305 164.963 33.3106 165.529 33.0159C166.565 32.4622 167.26 31.3606 167.326 30.1713C167.397 28.7093 166.537 27.2195 165.367 26.4153C162.875 24.6205 158.936 25.5923 156.936 27.7552C156.537 28.2038 156.366 28.7557 156.064 29.2486C155.719 29.8394 155.177 30.3417 154.597 30.6691C154.126 30.928 153.491 31.1132 153.013 30.7791C152.535 30.445 152.314 29.7159 152.245 29.1734C152.079 27.8008 152.779 26.4264 153.506 25.3396C154.156 24.3359 154.923 23.424 155.805 22.6037L156.053 22.4016C156.101 22.3837 156.13 22.3184 156.178 22.3005C156.675 21.8962 156.103 20.812 155.555 20.7213C153.941 20.4636 152.306 20.0785 150.731 19.5628C149.579 19.239 148.484 18.7045 147.51 17.9889C147.361 17.8825 147.228 17.7434 147.094 17.6043C147.076 17.5569 146.874 17.3082 146.993 17.4799L146.892 17.3556C146.805 17.1986 146.928 17.4504 146.892 17.3556C146.856 17.2608 146.802 17.1186 146.856 17.2608C146.82 17.166 146.817 17.0859 146.781 16.9911C146.802 17.1186 146.793 16.8784 146.808 16.8457C146.805 16.7657 146.834 16.7004 146.864 16.6351C147.114 15.6471 147.853 14.8805 148.787 14.5554C149.199 14.427 149.581 14.3639 149.999 14.3957C150.032 14.4105 150.305 14.4158 150.112 14.4073L150.257 14.4337L150.403 14.4601C150.937 14.5836 150.959 13.9252 150.786 13.6112C150.581 13.2825 150.485 12.8853 150.55 12.4819C150.617 12.1585 150.83 11.8616 151.144 11.6889C152.083 11.091 153.432 11.1505 154.497 11.3173C156.769 11.5973 159.016 12.4556 161.238 13.1063C165.763 14.4048 170.3 15.5905 174.854 16.8236L178.192 17.7033C178.581 17.8004 178.707 17.3464 178.647 17.0441C178.578 16.5016 178.307 16.1433 177.901 15.9989Z" fill="#0A0A0F"/>
<path d="M165.464 16.5491L160.396 15.32L152.303 13.3914L150.458 12.9503C150.102 12.8681 149.559 12.9374 149.447 13.3587C149.335 13.78 149.828 14.0815 150.184 14.1637L155.252 15.3928L163.345 17.3215L165.19 17.7625C165.547 17.8447 166.089 17.7754 166.201 17.3541C166.313 16.9328 165.787 16.6166 165.464 16.5491Z" fill="#0A0A0F"/>
<path d="M164.585 19.1012C164.585 19.1012 158.542 19.1611 155.712 21.4206L164.585 19.1012Z" fill="white"/>
<path d="M164.305 18.503C163.551 18.5164 162.783 18.5625 162.033 18.656C160.468 18.8134 158.909 19.1309 157.407 19.6708C156.568 19.9601 155.75 20.377 155.034 20.9181C154.288 21.5246 155.796 22.3637 156.355 21.9088C157.555 20.996 158.98 20.5393 160.459 20.2249C161.668 19.9852 162.881 19.8256 164.097 19.746C164.337 19.7366 164.624 19.7093 164.864 19.6999C165.217 19.7021 165.576 19.4315 165.4 19.0375C165.177 18.6614 164.752 18.4695 164.305 18.503Z" fill="#0A0A0F"/>
<path d="M97.1608 45.1659C95.6929 43.7159 124.054 26.7312 134.225 10.4096L159.46 30.7831C159.46 30.7831 151.097 50.6742 126.563 59.7157C126.563 59.7157 106.221 54.1768 97.1608 45.1659Z" fill="white"/>
<path d="M97.5245 44.6237C97.6761 44.8102 97.7834 45.0947 97.7928 45.3349C97.7959 45.4149 97.7959 45.4149 97.7928 45.3349C97.7897 45.2548 97.6716 45.516 97.778 45.3675C97.914 45.1537 98.0679 44.9874 98.2365 44.7883C98.2986 44.7378 98.3282 44.6725 98.3903 44.622C98.4051 44.5893 98.4673 44.5388 98.5147 44.5209C98.6538 44.3872 98.7929 44.2534 98.932 44.1197C99.3197 43.7838 99.6927 43.4806 100.066 43.1773C102.351 41.34 104.72 39.5797 107.023 37.7898C110.2 35.3724 113.312 32.9255 116.387 30.3838C119.741 27.5746 123.012 24.6885 126.099 21.6011C129.035 18.7602 131.67 15.6263 133.976 12.2648C134.233 11.8698 134.491 11.4749 134.748 11.08L133.947 11.1113L136.448 13.1463L142.475 17.9941L149.761 23.8832L156.07 28.9765C157.08 29.787 158.078 30.7101 159.118 31.4552L159.15 31.47L158.688 30.3174C158.6 30.5133 158.526 30.6766 158.437 30.8725C158.408 30.9378 158.334 31.101 158.437 30.8725C158.408 30.9378 158.393 30.9704 158.364 31.0357C158.305 31.1663 158.245 31.2969 158.201 31.3949C158.068 31.6887 157.903 31.9678 157.737 32.2469C156.765 34.0488 155.663 35.7918 154.477 37.4578C150.494 43.0498 145.552 47.8935 139.932 51.8016C135.653 54.7431 131.032 57.1368 126.164 58.9468L126.535 58.9964C124.054 58.3076 121.633 57.4883 119.193 56.6215C114.199 54.7962 109.242 52.7128 104.646 50.006C102.117 48.4693 99.7052 46.6713 97.5245 44.6237C97.2896 44.3603 96.8326 44.1537 96.5575 44.5012C96.2824 44.8487 96.5445 45.3997 96.7793 45.6631C99.1117 47.8972 101.737 49.8311 104.557 51.4207C107.461 53.0872 110.471 54.6052 113.584 55.8946C117.677 57.6269 121.841 59.1158 126.122 60.3436L126.496 60.4733C127.063 60.6115 127.753 60.2157 128.274 60.0189C130.28 59.2348 132.203 58.3739 134.105 57.3855C142.766 52.9255 150.258 46.4426 155.912 38.4601C156.991 36.9426 157.972 35.3808 158.856 33.7747C159.322 33.0027 159.739 32.1686 160.075 31.3376C160.09 31.305 160.105 31.2723 160.119 31.2397C160.297 30.8479 159.94 30.3326 159.657 30.0871L157.156 28.0521L151.13 23.2042L143.844 17.3152L137.535 12.2218C136.525 11.4114 135.512 10.5209 134.487 9.74314L134.454 9.72838C134.223 9.54501 133.819 9.4806 133.654 9.75968C131.481 13.2603 128.751 16.43 125.884 19.3805C122.768 22.5332 119.533 25.5141 116.131 28.3412C112.978 30.9661 109.743 33.514 106.489 36.0146C104.076 37.8729 101.645 39.6839 99.2974 41.5717C98.5661 42.1455 97.8527 42.7667 97.1899 43.4501C96.8053 43.8661 96.3911 44.3473 96.4783 44.9373C96.5204 45.1922 96.6751 45.4588 96.8594 45.66C97.0942 45.9235 97.566 46.0974 97.8411 45.7499C98.1162 45.4024 97.7919 44.9019 97.5245 44.6237Z" fill="#0A0A0F"/>
<path d="M131.261 24.4457C132.581 25.7892 134.951 26.1135 136.425 24.8532C137.248 24.1635 137.628 22.8016 136.434 22.2229C135.357 21.7358 134.114 22.7466 133.504 23.5722C132.147 25.3572 133.293 27.6055 135.184 28.3815C137.125 29.2197 139.314 28.204 140.753 26.8488C141.463 26.1476 142.08 25.1292 141.53 24.1725C140.929 23.1536 139.656 23.011 138.667 23.5468C136.937 24.4162 136.257 26.7039 136.616 28.518C137.044 30.4416 138.607 31.8558 140.574 32.1157C141.526 32.2709 142.48 32.0732 143.313 31.6237C143.864 31.3617 144.278 30.8804 144.398 30.2663C144.471 29.6701 144.176 29.1044 143.683 28.8029C142.499 28.0314 141.188 29.3655 140.781 30.4398C140.406 31.5289 140.599 32.7562 141.291 33.6592C142.002 34.6096 143.086 35.2568 144.296 35.45C145.456 35.5811 146.866 35.1571 147.187 33.9258C147.422 32.9705 145.823 32.2472 145.525 33.2531C145.387 33.8198 144.684 33.8953 144.168 33.8193C143.587 33.7138 143.094 33.4123 142.725 33.0098C142.357 32.6072 142.222 32.0352 142.313 31.4864C142.407 31.0177 142.794 30.2489 143.307 30.2449L142.871 30.1657C143.081 30.2216 142.636 29.9023 142.669 29.917C142.606 29.9676 142.529 30.0507 142.467 30.1013C142.358 30.1697 142.233 30.2708 142.106 30.2918C141.774 30.417 141.424 30.4949 141.089 30.54C140.496 30.5472 139.864 30.3795 139.354 30.0306C138.216 29.2412 137.982 27.759 138.477 26.4888C138.692 25.8389 139.136 25.2924 139.717 24.965C139.844 24.944 139.986 24.8903 140.114 24.8693L140.045 24.7597C139.993 25.0504 139.875 25.3116 139.659 25.5285C138.75 26.4942 137.041 27.4911 135.72 26.9333C135.151 26.7151 134.746 26.2177 134.659 25.6278C134.644 25.2275 134.821 24.8357 135.114 24.5356C135.267 24.3692 135.421 24.2029 135.626 24.0986C135.735 24.0302 135.812 23.947 135.922 23.8786C135.969 23.8607 136.017 23.8428 136.031 23.8102C136.206 23.7713 136.188 23.7239 136.013 23.7628L135.619 23.5056C135.568 23.4434 135.565 23.3634 135.562 23.2833C135.559 23.2032 135.559 23.2032 135.529 23.2685L135.47 23.3991C135.378 23.515 135.254 23.6161 135.13 23.7171C134.848 23.9045 134.564 24.0119 134.262 24.0718C133.657 24.1917 133.025 24.0239 132.558 23.5771C132.255 23.2041 131.739 23.1281 131.348 23.3839C131.019 23.5892 130.991 24.0874 131.261 24.4457Z" fill="#0A0A0F"/>
<path d="M126.961 31.7016C127.964 32.3519 129.098 33.0612 130.365 33.0438C131.456 33.0653 132.475 32.4642 132.983 31.5142C133.112 31.1403 133.017 30.7431 132.735 30.4976C131.692 29.6724 130.629 30.3715 130.008 31.3098C129.417 32.1828 128.645 33.3676 128.656 34.4737C128.668 35.5797 129.787 36.3217 130.701 36.735C131.601 37.1809 132.603 37.3983 133.597 37.3755C134.543 37.3706 135.512 37.1402 136.33 36.7234C137.275 36.2855 138.248 35.3494 137.819 34.2116C137.425 33.1686 136.111 32.771 135.118 33.2268C134.126 33.6825 133.511 34.781 133 35.6509C132.368 36.7019 131.807 37.9426 132.192 39.1783C132.527 40.3519 133.679 41.1087 134.906 40.9164C135.303 40.8207 135.542 40.3783 135.399 39.9991C135.381 39.9517 135.381 39.9517 135.363 39.9043C135.202 39.4776 134.742 39.1909 134.265 39.2897C133.995 39.3644 133.805 39.003 133.745 38.7007C133.658 38.1108 133.985 37.4725 134.254 36.9649C134.582 36.3267 134.975 35.718 135.452 35.1862C135.588 34.9724 135.821 34.8029 136.026 34.6987C136.073 34.6808 136.153 34.6777 136.201 34.6598C136.296 34.624 136.302 34.7841 136.248 34.6419C136.194 34.4996 136.212 34.5471 136.165 34.5649C136.118 34.5828 135.967 34.8293 135.872 34.8651C135.638 35.0346 135.419 35.1714 135.135 35.2788C134.646 35.4903 134.106 35.6397 133.546 35.6616C132.458 35.7202 131.404 35.4406 130.499 34.8346L130.35 34.7282C130.318 34.7134 130.166 34.5269 130.184 34.5743C130.255 34.7639 130.246 34.5238 130.258 34.4111C130.387 34.0371 130.532 33.6306 130.727 33.2862C130.937 32.9092 131.132 32.5648 131.407 32.2173C131.498 32.1014 131.59 31.9856 131.667 31.9024C131.993 31.6171 131.925 31.9404 131.545 31.6506L131.297 30.634C130.98 31.1595 130.382 31.4395 129.801 31.3339C128.964 31.2704 128.204 30.6908 127.497 30.2534C127.135 30.0109 126.643 30.1424 126.401 30.5047L126.386 30.5374C126.339 30.9882 126.551 31.477 126.961 31.7016Z" fill="#0A0A0F"/>
<path d="M114.433 40.2731C115.9 41.2902 117.798 41.4405 119.389 40.7047C120.334 40.2669 120.699 38.9377 119.805 38.2189C119.143 37.6835 118.239 37.9434 117.599 38.4014C116.151 39.5164 115.553 41.4481 116.135 43.2053C116.428 44.124 117.114 44.8669 118.025 45.2001C118.984 45.5154 120.054 45.4094 121.008 45.2117C121.963 45.0141 122.932 44.7837 123.631 44.1951C124.329 43.6066 124.648 42.7282 124.468 41.8211C124.27 40.8667 123.308 40.0384 122.369 40.6363C121.558 41.2133 120.898 41.9767 120.387 42.8467C119.376 44.4738 118.867 46.6425 120.039 48.3125C120.566 49.0617 121.403 49.5581 122.334 49.5859C123.138 49.6346 124.353 49.555 125.023 49.0318C125.597 48.5443 125.66 47.7079 125.206 47.1484C124.953 46.8375 124.561 46.6604 124.128 46.6613C123.167 46.6989 122.481 47.6077 122.276 48.4977C122.073 49.4678 122.321 50.4844 122.928 51.2304C123.599 52.006 124.549 52.5141 125.582 52.6661C126.018 52.7453 126.301 52.205 126.303 51.8521C126.303 51.4192 125.981 50.9988 125.545 50.9196C124.866 50.7698 123.919 50.3418 123.731 49.6275C123.638 49.3104 123.882 48.1623 124.455 48.4606L124.125 48.233L124.057 48.1234L124.023 47.6757C124.061 47.4176 124.195 47.5567 124.02 47.5956C123.973 47.6135 123.878 47.6493 123.831 47.6672C123.656 47.7061 123.481 47.745 123.321 47.7513C122.938 47.8143 122.538 47.83 122.153 47.813C121.542 47.7727 121.06 47.3586 120.878 46.8044C120.472 45.4412 121.53 43.7962 122.424 42.8632C122.501 42.78 123.185 42.2241 123.167 42.1767C123.149 42.1293 122.971 42.0881 122.986 42.0555C123.001 42.0228 123.14 41.8891 123.004 42.1029C122.974 42.1682 122.948 42.3135 122.904 42.4115C122.59 43.0171 121.716 43.2116 121.111 43.3315C119.953 43.6334 117.869 44.0676 117.409 42.5622C117.239 41.8953 117.356 41.2012 117.719 40.6578C117.9 40.346 118.163 40.1112 118.459 39.8912C118.569 39.8228 118.678 39.7543 118.821 39.7007C118.868 39.6828 118.901 39.6975 118.948 39.6796L119.061 39.6913C119.147 39.8483 119.046 39.7239 118.772 39.2856L118.851 38.8495C118.766 39.1255 118.304 39.1917 118.081 39.2485C117.732 39.3263 117.382 39.4041 117.011 39.3545C116.305 39.35 115.623 39.1201 115.047 38.7417C114.108 38.1209 113.56 39.6818 114.368 40.2436L114.433 40.2731Z" fill="#0A0A0F"/>
<path d="M128.61 53.4464C128.548 53.497 128.471 53.5802 128.427 53.6781C128.412 53.7108 128.397 53.7434 128.397 53.7434C128.368 53.8087 128.371 53.8888 128.342 53.9541C128.304 54.2121 128.346 54.4671 128.388 54.722C128.423 54.8168 128.459 54.9116 128.495 55.0065C128.549 55.1487 128.602 55.2909 128.703 55.4152C128.754 55.4774 128.804 55.5396 128.87 55.5691L128.935 55.5986L129.048 55.6103L129.095 55.5924L129.175 55.5892C129.223 55.5713 129.303 55.5682 129.35 55.5503C129.492 55.4967 129.649 55.4103 129.774 55.3093C129.913 55.1755 130.019 55.027 130.093 54.8638C130.123 54.7985 130.134 54.6858 130.131 54.6057C130.143 54.493 130.14 54.413 130.119 54.2855C130.098 54.158 130.076 54.0306 130.041 53.9357C130.005 53.8409 129.984 53.7135 129.915 53.6039L129.829 53.4469C129.779 53.3847 129.695 53.3078 129.597 53.2635L129.485 53.2519C129.39 53.2877 129.36 53.353 129.331 53.4183C129.316 53.4509 129.301 53.4836 129.287 53.5162L129.346 53.3856C129.254 53.5015 129.148 53.6499 129.005 53.7036L129.1 53.6678C128.943 53.7542 128.768 53.7931 128.608 53.7993L128.92 53.9796L129.006 54.1366L128.988 54.0891L129.093 54.2935L129.075 54.2461L129.131 54.4684L129.114 54.421L129.17 54.6433L129.152 54.5959L129.177 54.8034L129.159 54.756L129.15 54.9488C129.165 54.9161 129.165 54.9161 129.147 54.8687L129.121 55.0141C129.135 54.9814 129.15 54.9488 129.165 54.9161L129.106 55.0467C129.121 55.0141 129.168 54.9962 129.183 54.9635C129.245 54.913 129.275 54.8477 129.271 54.7676C129.316 54.6697 129.313 54.5896 129.309 54.5096C129.321 54.3969 129.3 54.2694 129.264 54.1746C129.243 54.0471 129.207 53.9523 129.186 53.8248L129.082 53.6204C129.014 53.5108 128.978 53.416 128.862 53.3243L128.732 53.2653C128.72 53.378 128.64 53.3811 128.61 53.4464Z" fill="#0A0A0F"/>
<path d="M136.949 42.744C136.703 43.0262 136.574 43.4001 136.637 43.7825C136.64 43.8626 136.803 43.9364 136.868 43.9659C137.032 44.0397 137.195 44.1135 137.325 44.1725C137.489 44.2463 137.699 44.3022 137.863 44.376C138.008 44.4024 138.153 44.4288 138.266 44.4404C138.441 44.4015 138.613 44.2826 138.621 44.0898C138.633 43.9771 138.63 43.897 138.594 43.8022C138.54 43.66 138.392 43.5535 138.261 43.4945C138.065 43.4059 137.869 43.3174 137.673 43.2288C137.478 43.1403 137.267 43.0844 137.056 43.0285L136.911 43.0021C136.878 42.9873 136.798 42.9904 136.783 43.0231L136.801 43.0705C136.852 43.1327 136.917 43.1622 137.015 43.2065C137.08 43.236 136.867 43.1 136.917 43.1622L136.95 43.1769L136.867 43.1C136.899 43.1148 136.95 43.1769 136.968 43.2244L136.95 43.1769C137.021 43.3666 136.933 43.5625 136.761 43.6814L136.808 43.6636C136.761 43.6814 136.714 43.6993 136.681 43.6846L138.31 44.3425C138.28 43.9749 138.41 43.601 138.622 43.304C138.652 43.2387 138.391 43.1206 138.391 43.1206C138.21 42.9994 138.014 42.9108 137.803 42.8549C137.607 42.7664 137.397 42.7105 137.186 42.6546L137.041 42.6282C137.044 42.7082 136.978 42.6787 136.949 42.744Z" fill="#0A0A0F"/>
<path d="M182.687 39.1609C182.687 39.1609 172.362 43.734 161.118 39.5552C149.874 35.3765 155.122 29.3341 158.223 30.7363C161.325 32.1384 165.785 33.4073 167.767 29.5453" fill="white"/>
<path d="M182.148 38.5228C180.35 39.2827 178.462 39.8055 176.503 40.1387C172.157 40.9661 167.694 40.8359 163.416 39.6882C162.119 39.338 160.867 38.8898 159.659 38.3437C158.744 37.9305 157.875 37.4193 157.067 36.8575C156.886 36.7363 156.752 36.5972 156.571 36.476L156.372 36.3074C156.339 36.2926 156.122 36.0766 156.238 36.1683C155.988 35.9375 155.801 35.6562 155.599 35.4075C155.599 35.4075 155.462 35.1883 155.426 35.0935C155.373 34.9513 155.272 34.827 155.218 34.6847C155.218 34.6847 155.221 34.7648 155.215 34.6047L155.161 34.4624C155.14 34.335 155.086 34.1927 155.098 34.08L155.059 33.9052C155.08 34.0326 155.059 33.9052 155.056 33.8251C155.068 33.7124 155.047 33.5849 155.073 33.4396C155.099 33.2942 155.129 33.2289 155.126 33.1489C155.123 33.0688 155.17 33.0509 155.152 33.0035C155.134 32.9561 155.123 33.0688 155.182 32.9382C155.27 32.7423 155.377 32.5938 155.498 32.4127C155.542 32.3147 155.619 32.2315 155.681 32.181C155.743 32.1305 155.758 32.0978 155.696 32.1484L155.835 32.0146C155.974 31.8809 156.161 31.7293 156.332 31.6103C156.395 31.5598 156.489 31.524 156.584 31.4882C156.442 31.5419 156.726 31.4345 156.774 31.4167C156.821 31.3988 156.949 31.3777 157.044 31.342L157.171 31.3209C157.346 31.282 157.044 31.342 157.218 31.3031C157.393 31.2641 157.426 31.2789 157.506 31.2758L157.666 31.2695C157.488 31.2284 157.779 31.2811 157.666 31.2695L157.924 31.3075C157.924 31.3075 157.728 31.219 157.892 31.2928L158.055 31.3666C158.447 31.5437 158.838 31.7208 159.245 31.8653C160.207 32.2606 161.18 32.5433 162.197 32.728C164.102 33.0384 166.195 32.8444 167.597 31.3944C167.967 31.0111 168.301 30.533 168.555 30.058C168.913 29.3545 167.372 28.5006 166.997 29.1568C166.551 30.0562 165.841 30.7575 164.91 31.1627C164.104 31.4668 163.194 31.5665 162.307 31.4408C161.34 31.3183 160.4 31.0504 159.471 30.6698C158.803 30.4072 158.147 30.032 157.453 29.9148C155.501 29.6223 153.458 31.0973 153.409 33.1198C153.385 34.564 154.203 35.7988 155.187 36.7546C156.821 38.3585 158.994 39.38 161.109 40.1793C165.777 41.857 170.802 42.3982 175.714 41.709C178.237 41.4339 180.73 40.7913 183.082 39.8494L183.177 39.8136C184.075 39.3936 182.827 38.2397 182.148 38.5228Z" fill="#0A0A0F"/>
</svg>
