<svg width="110" height="76" viewBox="0 0 110 76" fill="none" xmlns="http://www.w3.org/2000/svg">
<g clip-path="url(#clip0_2032_2510)">
<path d="M93.1478 13.9353H26.9751V65.6358H93.1478V13.9353Z" fill="#196F3A"/>
<path d="M92.9202 65.258H29.44C28.5678 65.258 27.6956 65.2203 26.8614 65.258H26.7476L27.8852 65.749V16.1255C27.9232 15.4458 27.9232 14.766 27.8852 14.124C27.8852 14.0862 27.8852 14.0484 27.8852 14.0484L27.1647 14.3128H90.645C91.5171 14.3128 92.3893 14.3506 93.2236 14.3128H93.3374L92.1997 13.8219V63.4075C92.1997 64.0873 92.1618 64.7671 92.1997 65.4469C92.1997 65.4846 92.1997 65.5224 92.1997 65.5224C92.1997 66.0889 94.0958 66.2399 94.0958 65.749V16.1255C94.0958 15.4458 94.1337 14.766 94.0958 14.124V14.0484C94.0958 13.633 93.1857 13.5575 92.9582 13.5575H29.44C28.5678 13.5575 27.7336 13.5575 26.8614 13.5575H26.7476C26.5959 13.5575 26.0271 13.5953 26.0271 13.8596V63.4453C26.0271 64.1251 25.9892 64.8049 26.0271 65.4846V65.5602C26.0271 65.9756 26.9372 66.0511 27.1647 66.0511H90.645C91.5171 66.0511 92.3514 66.0511 93.2236 66.0511H93.3374C93.5649 66.0511 94.1716 66.0133 94.0579 65.6735C93.9441 65.3336 93.1857 65.258 92.9202 65.258Z" fill="#196F3A"/>
<path d="M34.787 26.6243C34.787 26.6243 34.4077 49.8876 35.5075 51.2849C36.6072 52.6822 57.4639 59.7066 58.4498 59.5177C59.4358 59.3289 57.6156 30.7784 57.6156 30.7784L34.787 26.6243Z" fill="white"/>
<path d="M33.8768 26.4732C33.8389 28.2859 33.8389 30.1364 33.8389 31.9492C33.8389 35.5746 33.8389 39.2379 33.9147 42.8633C33.9526 44.4872 33.9905 46.1111 34.1043 47.6973C34.1422 48.7169 34.256 49.7366 34.4456 50.7562C34.6352 51.5115 35.0523 51.8892 35.7349 52.2291C36.8726 52.7955 38.0102 53.3243 39.1858 53.7774C42.5608 55.137 46.0116 56.3455 49.5003 57.5162C52.1928 58.4226 54.9231 59.4045 57.6913 60.0465C58.3739 60.1975 59.284 60.3108 59.5495 59.48C59.7012 58.7625 59.7391 58.0071 59.7012 57.2896C59.7391 54.2306 59.6253 51.2094 59.5116 48.1504C59.3599 44.6383 59.2082 41.1261 58.9807 37.5762C58.8669 35.4236 58.7531 33.271 58.6015 31.1183C58.6015 31.005 58.6015 30.8917 58.6015 30.7785C58.5635 30.4386 58.0706 30.212 57.8051 30.1364L50.1071 28.7391L37.7827 26.511L34.9386 26.02C34.5214 25.9445 33.9526 26.02 33.8768 26.4732C33.8009 26.9642 34.3318 27.2285 34.6731 27.3041L42.3712 28.7014L54.6956 30.9295L57.5017 31.4582L56.7054 30.8162C56.7812 32.2891 56.895 33.7619 56.9708 35.2725C57.1604 38.5203 57.3121 41.7681 57.4638 45.0159C57.6155 48.3015 57.7672 51.5871 57.8051 54.8726C57.8051 55.8168 57.8051 56.9875 57.7672 58.0449C57.7672 58.347 57.7293 58.6869 57.6913 58.989C57.6913 59.0268 57.6534 59.1023 57.6534 59.1401C57.6534 59.2912 57.6155 59.2156 57.6913 59.1023C57.6913 59.1023 57.6913 59.1401 57.6534 59.1779C57.8051 58.989 58.0326 58.8757 58.2981 58.8757C58.1085 58.8757 58.4498 58.9135 58.4118 58.8757C58.3739 58.8757 58.2981 58.838 58.2222 58.838C58.0706 58.8002 57.9189 58.7625 57.7672 58.7247C57.5776 58.6869 57.3501 58.6114 57.1225 58.5736L56.895 58.4981C57.0467 58.5359 56.8192 58.4981 56.7812 58.4603L56.5537 58.3848C55.1506 57.9694 53.7855 57.554 52.3824 57.1008C48.8936 55.9678 45.4428 54.7593 42.0299 53.4753C40.6647 52.9466 39.2616 52.4179 37.9344 51.8137C37.6689 51.7004 37.4414 51.5871 37.1759 51.4738L37.0243 51.3982C36.8346 51.3227 37.0622 51.436 37.0243 51.3982L36.7209 51.2472C36.5692 51.1716 36.4175 51.0961 36.3038 50.9828C36.19 50.8695 36.2279 50.9073 36.3038 50.9828C36.2658 50.9451 36.19 50.8318 36.2658 50.9451C36.3417 51.0584 36.3037 50.9451 36.2658 50.9073C36.2279 50.8695 36.3037 51.0961 36.2658 50.9073C36.2279 50.7185 36.19 50.6052 36.1521 50.4541C36.0762 50.0009 36.0004 49.5477 35.9624 49.0946C35.8487 47.735 35.7729 46.3377 35.7349 44.9404C35.6212 41.3905 35.5832 37.8783 35.6212 34.3284C35.6212 31.9114 35.6212 29.4944 35.6591 27.0775C35.6591 26.9642 35.6591 26.8509 35.6591 26.6998C35.6212 26.2844 35.2799 25.9445 34.8627 25.9067C34.6352 25.9445 33.8768 26.02 33.8768 26.4732Z" fill="#000005"/>
<path d="M83.7433 25.2269L57.6156 30.7784L58.4498 59.5177C58.4498 59.5177 85.5635 52.1913 85.5256 50.0387C85.4877 47.886 83.7433 25.2269 83.7433 25.2269Z" fill="white"/>
<path d="M83.4399 25.1137L74.6042 27.002L60.5355 29.9854L57.3121 30.6652C57.1984 30.703 56.6675 30.7785 56.6675 30.9673L56.9329 40.7485L57.388 56.1945L57.5018 59.7066C57.5018 59.9332 58.829 59.6311 58.9428 59.5933C61.5593 58.8758 64.2138 58.1205 66.8304 57.3652C71.4947 56.0057 76.159 54.6083 80.7475 52.9089C82.3402 52.3802 83.895 51.7004 85.4118 50.9074C85.791 50.7185 86.1323 50.4542 86.3978 50.1143C86.5494 49.8122 86.4736 49.4345 86.4357 49.0946C86.2082 44.8649 85.8669 40.5975 85.5256 36.3678C85.2601 32.6668 84.9567 28.9658 84.6913 25.2648V25.076C84.6913 24.8494 82.7952 25.076 82.8332 25.4159C83.0607 28.5126 83.2882 31.6093 83.5157 34.6683C83.857 39.2379 84.1983 43.8075 84.5017 48.3771C84.5396 48.9058 84.5775 49.4723 84.6155 50.001C84.6155 50.3409 84.5775 50.4164 84.2742 50.643C83.857 50.9451 83.3641 51.2095 82.909 51.4361C82.5298 51.6249 82.3023 51.7004 81.923 51.8892C81.5438 52.0781 81.1267 52.2291 80.7096 52.3802C76.3486 54.0796 71.8739 55.4014 67.3992 56.761C64.3276 57.6673 61.256 58.4982 58.1843 59.4045L58.0326 59.4423L59.4737 59.329L59.1703 49.5478L58.7152 34.1018L58.6015 30.5897L57.9568 30.8918L66.7925 29.0035L80.8613 26.0201L84.0846 25.3403C84.1983 25.3026 84.843 25.1893 84.6913 25.0004C84.5396 24.8116 83.5916 25.076 83.4399 25.1137Z" fill="#000005"/>
<path d="M34.787 26.6243C34.787 26.6243 58.4498 19.7511 59.0186 19.9021C59.5875 20.0532 83.7054 25.227 83.7054 25.227L57.5776 30.7785L34.787 26.6243Z" fill="white"/>
<path d="M35.5833 27.1153C38.2378 26.3222 40.9302 25.5669 43.6226 24.8116C47.9456 23.5653 52.2686 22.3191 56.5917 21.1861C57.2743 20.9973 57.9568 20.8085 58.6394 20.6574C59.0186 20.5819 59.3599 20.5063 59.7012 20.4308C59.7012 20.4308 59.3978 20.3931 59.6254 20.4308C59.7771 20.4686 59.8908 20.5063 60.0425 20.5441L61.711 20.9218C65.9582 21.8281 70.1675 22.7345 74.3767 23.6409C77.6001 24.3206 80.8234 25.0759 84.0846 25.7179L84.2363 25.7557L82.947 24.8493L75.0972 26.511L61.5973 29.3812L57.4639 30.2498C57.3122 30.2875 57.1605 30.3253 57.0088 30.3253C56.7433 30.4008 56.933 30.2498 57.1226 30.3631C56.895 30.2875 56.6296 30.2498 56.3641 30.212L44.7223 28.0971C41.3094 27.4929 37.8965 26.8509 34.4836 26.2467L34.294 26.2089C33.9527 26.1334 33.8768 26.2844 34.1423 26.511C34.4836 26.8131 34.9007 27.0397 35.3178 27.1153L44.0777 28.7014L56.5917 30.9673C57.1605 31.0806 57.9189 31.345 58.5256 31.2317C59.6254 31.0428 60.6872 30.7785 61.749 30.5519L74.9456 27.7573L81.0888 26.4732C82.1885 26.2467 83.2882 26.0578 84.35 25.7935L84.5017 25.7557C84.7292 25.7179 84.2742 25.3403 84.2363 25.3025C83.9329 25.0759 83.5916 24.8871 83.2124 24.8116L74.9835 23.0366C70.5846 22.0925 66.1478 21.1484 61.749 20.1665C60.6872 19.9399 59.6633 19.7133 58.6015 19.4867C57.8431 19.3356 56.933 19.7133 56.2504 19.9021C52.079 20.9973 47.9456 22.168 43.8122 23.3765C41.7265 23.9807 39.6409 24.585 37.5552 25.1515C36.4176 25.4914 35.2799 25.7557 34.1802 26.1334C34.1423 26.1334 34.0664 26.1711 34.0285 26.1711C33.7631 26.2467 34.4456 26.6998 34.4836 26.7376C34.749 26.8887 35.242 27.1908 35.5833 27.1153Z" fill="#000005"/>
<path d="M43.7364 43.0145L43.5468 28.2105L68.5748 21.9792L75.5144 23.4899L50.2588 29.4568L49.9175 44.3362L43.7364 43.0145Z" fill="#000005"/>
<path d="M44.6465 43.2409L44.4569 30.3252L44.419 28.4747L44.2673 28.5503L52.7616 26.4354L66.1858 23.0743L69.2953 22.319L68.7265 22.2812L75.6661 23.7918L74.7181 23.2254L66.1858 25.2269L52.572 28.437L49.4625 29.1167C49.3866 29.1167 49.3487 29.1545 49.3108 29.1923L49.0074 42.259L48.9695 44.1095L49.69 44.0717L43.5089 42.75C43.3572 42.7122 42.7504 42.5989 42.7883 42.8255C42.8263 43.0521 43.7364 43.2409 43.8881 43.2787L50.0692 44.6005C50.1451 44.6005 50.7897 44.7515 50.7897 44.5627L51.0931 31.4959L51.131 29.6454L50.9793 29.721L59.5116 27.7194L73.1254 24.5094L76.2349 23.7918C76.4624 23.7541 76.3866 23.6408 76.2349 23.5275C75.9315 23.3764 75.6282 23.2631 75.2869 23.2254C73.0116 22.7344 70.7742 22.2435 68.499 21.7525C68.0439 21.6392 67.5889 21.677 67.1717 21.8281L64.7068 22.4323L56.4021 24.5094L47.5285 26.6998C45.9358 27.0774 44.3052 27.3795 42.7883 27.8705L42.7125 27.9082C42.6367 27.9082 42.5987 27.946 42.5608 27.9838L42.7504 40.9372L42.7883 42.7877C42.8263 43.2031 44.6465 43.4297 44.6465 43.2409Z" fill="#000005"/>
<path d="M69.4091 49.8878C69.3711 49.5479 71.0397 49.4346 71.0397 49.4346C71.0397 49.4346 71.2672 51.4739 70.5467 51.7005C69.8262 51.9271 69.447 50.9829 69.4091 49.8878Z" fill="#000005"/>
<path d="M70.2812 49.6611V49.6234L70.2433 49.7367C70.2433 49.7367 70.2433 49.7367 70.2433 49.6989C70.2812 49.6234 70.0916 49.85 70.1675 49.7744C70.2433 49.6989 69.9779 49.9255 70.0537 49.85C70.1296 49.7744 69.7883 50.001 69.902 49.9255C70.0158 49.85 69.5987 50.0388 69.7883 49.9632L69.8262 49.9255C69.902 49.8877 69.5228 50.001 69.6745 49.9632C69.8262 49.9255 70.0916 49.8877 69.7124 49.9255L69.9779 49.8877C70.1295 49.85 70.2812 49.85 70.4329 49.8122H70.5846C70.7363 49.8122 70.3571 49.8122 70.4708 49.8122L70.1295 49.6611C70.1295 49.8122 70.1675 49.9632 70.1675 50.1143V50.001C70.2054 50.492 70.1675 51.0207 69.9779 51.4739L70.0158 51.3606C69.9779 51.3983 69.9399 51.4739 69.9399 51.5116C69.8641 51.6249 70.0537 51.3983 69.9779 51.4739C69.902 51.5494 70.1675 51.3228 70.0537 51.3983C70.0158 51.4361 70.2812 51.2473 70.2054 51.3228C70.395 51.2473 70.4708 51.2095 70.395 51.2473C70.3192 51.285 70.395 51.2473 70.5846 51.1717C70.4708 51.2095 70.7742 51.134 70.7363 51.134C70.6984 51.134 70.6225 51.134 70.7742 51.134C70.9259 51.134 70.8501 51.134 70.8121 51.134C70.7363 51.134 70.9638 51.1717 70.888 51.134C70.8121 51.0962 70.8121 51.0962 70.7742 51.0962L70.888 51.134C70.7742 51.0962 70.6984 51.0207 70.6225 50.9451L70.6984 51.0207C70.395 50.5297 70.2433 50.001 70.2433 49.4345C70.2433 49.3212 69.9399 49.2835 69.902 49.2835C69.447 49.3212 68.9919 49.4723 68.6506 49.7744L68.5369 49.8877C68.4989 49.9632 68.461 50.0388 68.4989 50.1143C68.4989 50.643 68.6127 51.134 68.8782 51.5872C68.9919 51.776 69.1815 51.927 69.409 52.0026C69.8262 52.1159 70.2812 52.0403 70.6604 51.8515C71.0397 51.7382 71.343 51.4739 71.6085 51.1717C71.7222 51.0207 71.7981 50.8318 71.836 50.6808C71.9118 50.3409 71.9498 50.001 71.9498 49.6234C71.9498 49.3968 71.9498 49.1324 71.9119 48.9058C71.9119 48.7925 71.6085 48.7548 71.5706 48.7548C71.1914 48.7925 70.85 48.8303 70.4708 48.9058C70.1295 48.9814 69.7883 49.0569 69.4849 49.1702C69.2194 49.2835 68.954 49.4345 68.7644 49.5856C68.6885 49.6611 68.5369 49.8122 68.5369 49.9255C68.4989 49.9632 68.5369 50.0388 68.5748 50.0765C68.6127 50.1143 68.6506 50.1521 68.7265 50.1521C68.9161 50.1898 69.1436 50.1521 69.2953 50.1143C69.5228 50.0388 69.7503 49.9632 69.9779 49.8122L70.1295 49.6989C70.1675 49.85 70.2433 49.7744 70.2812 49.6611Z" fill="#000005"/>
<path d="M70.1296 53.7396C70.2054 53.7396 71.2293 53.513 71.1535 53.3997C71.0776 53.2865 70.6226 53.3242 70.6226 53.3242L70.5467 51.2471H70.3571L70.5088 53.3242C70.5088 53.2865 69.902 53.7774 70.1296 53.7396Z" fill="#000005"/>
<path d="M69.9778 54.4574C70.4708 54.3818 70.9259 54.2308 71.3809 54.0419C71.6464 53.9286 71.836 53.7398 71.9877 53.5132C72.1393 53.2489 72.0635 52.909 71.7981 52.7579C71.7601 52.7202 71.7222 52.7202 71.6843 52.7202C71.3809 52.6069 71.0776 52.6069 70.8121 52.6069L71.5326 53.0223L71.4568 50.9452C71.4568 50.7941 71.343 50.6808 71.2292 50.6053C71.0776 50.5298 70.9259 50.492 70.7363 50.5298H70.5467C70.0916 50.5298 69.4849 51.0207 69.5228 51.5117L69.6745 53.5888L70.0537 52.8712C69.8641 53.0223 69.7124 53.1733 69.5607 53.3244C69.409 53.4755 69.3332 53.6265 69.2573 53.8153C69.1057 54.2685 69.5986 54.4951 69.9778 54.4574C70.2054 54.4196 70.4329 54.3063 70.6604 54.1552C70.85 54.0419 70.9638 53.8531 71.0017 53.6265C71.0396 53.4377 71.0017 53.2489 70.85 53.1356C70.6983 53.0223 70.4708 52.9845 70.2812 53.0223C70.2054 53.0223 70.5087 53.0223 70.4708 53.0223L70.6604 53.06L70.8121 53.1356L70.9259 53.2866L70.9638 53.4377V53.6265L70.8879 53.8153C70.9259 53.702 70.7363 54.0042 70.8121 53.9286L70.85 53.8909C70.9259 53.8153 70.6604 54.0797 70.7363 54.0042L70.8121 53.9286L71.0017 53.7776C71.2292 53.5888 71.3809 53.3244 71.3809 53.0223V52.8334L71.3051 51.3984L71.2672 50.983L70.2433 51.9648H70.4329L69.7124 51.5494L69.7882 53.6265C69.7882 53.7776 69.902 53.8909 70.0158 53.9664C70.1675 54.0419 70.3191 54.0797 70.5087 54.0419C70.4329 54.0419 70.2433 54.0419 70.3571 54.0419H70.4708C70.5467 54.0419 70.6225 54.0419 70.6983 54.0797L70.5087 54.0419L70.5846 54.0797L70.4329 54.0042C70.4329 54.0042 70.4708 54.0042 70.4708 54.0419L70.3571 53.8909L70.3191 53.7398V53.551L70.395 53.3622C70.5087 53.1733 70.6604 53.0223 70.85 52.909L70.8121 52.9467C71.1155 52.7957 71.0776 52.8334 70.9638 52.8712L70.8879 52.909C70.7742 52.9467 70.6983 52.9845 70.5846 52.9845L70.2812 53.06L70.395 53.0223H70.3571C70.1295 53.06 69.8641 53.1733 69.6745 53.3244C69.4849 53.4755 69.3711 53.6265 69.3332 53.8531C69.2953 54.0419 69.3332 54.2308 69.4849 54.3441C69.5607 54.4196 69.7882 54.4574 69.9778 54.4574Z" fill="#000005"/>
<path d="M72.7462 50.5296L76.8417 49.3966C76.8417 49.3966 75.6282 48.377 74.6043 48.528C73.5804 48.6791 72.7462 50.5296 72.7462 50.5296Z" fill="#000005"/>
<path d="M72.8978 51.1716L76.4624 50.1897L76.9933 50.0386C77.2967 50.0008 77.5621 49.812 77.7517 49.5477C77.8655 49.3211 77.8276 49.0567 77.6001 48.9056C76.8796 48.2636 75.9694 47.886 75.0214 47.8105C73.77 47.7727 72.8599 48.6413 72.2532 49.661C72.1015 49.8875 71.9877 50.1141 71.8739 50.3407C71.4568 51.3226 73.277 51.4359 73.6183 50.6806C73.6942 50.5295 73.77 50.3785 73.8459 50.2274C73.9217 50.0764 74.0355 49.9253 74.1113 49.812C74.1492 49.7742 74.1492 49.7365 74.1871 49.6987C74.2251 49.6609 74.1492 49.7742 74.1492 49.7742L74.1871 49.7365C74.263 49.6609 74.3009 49.5854 74.3767 49.5099C74.4526 49.4344 74.4905 49.3588 74.5664 49.3211L74.6043 49.2833C74.6801 49.2078 74.5284 49.3588 74.5284 49.3588C74.5664 49.3211 74.6043 49.2833 74.6422 49.2833C74.6801 49.2833 74.6801 49.2455 74.718 49.2455C74.7939 49.2078 74.6043 49.3211 74.6043 49.3211L74.718 49.2833C74.8697 49.2078 74.4905 49.3588 74.6422 49.3211C74.6801 49.3211 74.6801 49.3211 74.718 49.3211C74.7939 49.2833 74.5284 49.3211 74.6043 49.3211H74.756C74.8318 49.3211 74.6422 49.3211 74.6422 49.3211C74.6801 49.3211 74.6801 49.3211 74.718 49.3211L74.8697 49.3588C75.0593 49.3966 74.756 49.3211 74.9076 49.3588C75.0973 49.4344 75.3248 49.5099 75.5144 49.6232L75.5902 49.661C75.6661 49.6987 75.5523 49.6609 75.5523 49.6232C75.5902 49.6609 75.6281 49.6987 75.6661 49.6987L75.8936 49.8498C75.9694 49.8875 76.0453 49.9631 76.0832 50.0008L76.6899 48.8679L73.1253 49.8498L72.5944 50.0008C72.3669 50.0386 72.1394 50.1519 71.9877 50.3407C71.836 50.4918 71.7981 50.6806 71.7981 50.8694C71.9498 51.1338 72.5186 51.2849 72.8978 51.1716Z" fill="#000005"/>
<path d="M74.7939 49.4724C74.7939 49.4724 75.1352 51.5494 75.0594 52.0404C74.9835 52.5313 74.2251 52.267 74.1113 51.8138L74.3009 51.7383C74.3009 51.7383 74.6043 52.0781 74.756 51.9649C74.9077 51.8516 74.5285 49.7367 74.5285 49.7367L74.7939 49.4724Z" fill="#000005"/>
<path d="M73.9217 49.2835C73.9976 49.6233 74.0355 50.001 74.0734 50.3409C74.1113 50.6052 74.1492 50.9074 74.1492 51.1717C74.1492 51.3983 74.1492 51.5871 74.1492 51.8137L74.1872 51.6249C74.1872 51.6627 74.1492 51.7382 74.1492 51.776L74.2251 51.6249C74.2251 51.6627 74.1872 51.7004 74.1492 51.7004L74.3009 51.5871C74.263 51.6249 74.2251 51.6249 74.2251 51.6249L74.4147 51.5494C74.3768 51.5494 74.3388 51.5871 74.3009 51.5871H74.4905C74.3768 51.5871 74.3768 51.5494 74.6043 51.6249H74.5285C74.4147 51.5871 74.7939 51.7382 74.6422 51.6627C74.4905 51.5871 74.8697 51.8137 74.756 51.7382C74.6422 51.6627 74.8318 51.8137 74.8697 51.8515L74.8318 51.8137C74.7939 51.7382 74.7939 51.776 74.9077 51.927L74.8697 51.8515C74.9835 52.0781 74.9456 52.0026 74.9077 51.927L74.5285 52.6823L74.7181 52.6068L73.6942 52.1914C73.8079 52.3047 73.9217 52.4557 74.0734 52.5313C74.4147 52.7579 74.9077 52.9845 75.3248 52.7579C75.5523 52.569 75.6661 52.2669 75.6282 51.9648C75.5902 51.4738 75.5144 50.9451 75.4386 50.4542L75.3248 49.8499L75.249 50.3787L75.5144 50.1521C75.6282 50.001 75.6661 49.7744 75.5902 49.6233C75.4386 49.1702 75.0214 48.8303 74.5285 48.7925L74.3388 48.8303C74.2251 48.868 74.1113 48.9436 74.0355 49.0191L73.8459 49.1702L73.77 49.2457C73.6563 49.3968 73.6183 49.6233 73.6942 49.8122C73.6942 49.8877 73.7321 49.9632 73.7321 50.0388L73.6942 49.8499C73.7321 50.1898 73.808 50.5297 73.8459 50.8696C73.8838 51.1717 73.9217 51.4738 73.9217 51.776L73.9596 51.5871C73.9596 51.6249 73.9596 51.6249 73.9596 51.6627L74.0355 51.5116L74.1872 51.3983H74.1492L74.3388 51.3228H74.3009L74.4905 51.285C74.4526 51.285 74.4526 51.285 74.5664 51.285C74.6422 51.285 74.6801 51.285 74.756 51.3228C74.9077 51.3983 74.8318 51.3605 74.7939 51.3228C74.756 51.285 75.0214 51.4738 74.9456 51.3983L74.9077 51.3605C74.756 51.2473 75.0973 51.5494 75.0214 51.4361L74.9835 51.3983C74.8318 51.2472 74.6801 51.134 74.4905 51.0584C74.3388 50.9829 74.1492 50.9451 73.9596 51.0207L73.77 51.0962C73.6183 51.134 73.5046 51.2473 73.4287 51.3605C73.3529 51.5116 73.3529 51.6627 73.3908 51.8137C73.5046 52.1914 73.7321 52.4935 74.0355 52.7201C74.3389 52.9467 74.6801 53.0977 75.0593 53.1355C75.3627 53.1733 75.6661 53.06 75.8557 52.8334C75.9695 52.6446 76.0453 52.418 76.0453 52.1914C76.0453 51.8893 76.0453 51.5871 76.0074 51.3228C75.9695 50.9829 75.9315 50.643 75.8557 50.3409C75.8178 50.1521 75.8178 49.9632 75.7798 49.7744C75.7419 49.5478 75.6661 49.359 75.5144 49.1702C75.3627 48.9813 75.1352 48.868 74.9077 48.7925C74.7181 48.717 74.4905 48.7547 74.3009 48.8303C74.0355 48.9058 73.9217 49.0946 73.9217 49.2835Z" fill="#000005"/>
<path d="M78.2068 51.5117L78.1689 50.6431L82.416 49.4724L82.454 50.1899L78.2068 51.5117Z" fill="#000005"/>
<path d="M79.1169 51.7004L79.079 50.8318L78.6618 51.2472L82.3781 50.2275L82.909 50.0765L81.5059 49.2834L81.5439 50.0387L81.7714 49.6611L78.0551 50.794L77.5621 50.9451C77.4104 51.0206 77.2967 51.1717 77.3346 51.3227C77.3725 51.5116 77.4863 51.6626 77.638 51.7759C77.9793 52.078 78.4722 52.1913 78.9273 52.0403L82.6436 50.9073L83.1745 50.7563C83.3262 50.6807 83.4399 50.5297 83.402 50.3786L83.3641 49.6233C83.3262 49.0946 82.4161 48.7169 81.961 48.8302L78.2447 49.8877L77.7138 50.0387C77.4863 50.1142 77.2967 50.1898 77.2967 50.4541L77.3346 51.3227C77.3346 51.7381 77.9034 52.0403 78.2826 52.1158C78.6618 52.1913 79.1169 52.1158 79.1169 51.7004Z" fill="#000005"/>
<path d="M78.7756 50.1899L78.7377 48.8681C78.7377 48.8681 78.2068 49.0192 78.2826 48.8681C78.3585 48.717 78.6618 47.924 78.9273 47.9995C79.1927 48.075 79.5719 48.6415 79.5719 48.6415H79.2306L79.3823 50.0388L78.7756 50.1899Z" fill="#000005"/>
<path d="M79.6478 50.2275L79.6099 48.9057C79.534 48.3392 79.041 47.9615 78.4722 48.0371C78.4343 48.0371 78.3964 48.0371 78.3964 48.0371C78.2826 48.0748 78.1688 48.1126 78.0551 48.1126L78.2826 48.0748H78.2068L78.4343 48.1126H78.3964L78.6239 48.1881L78.8135 48.3392L78.9652 48.528L79.079 48.7546L79.1169 48.9812V49.17L79.041 49.3966C79.1169 49.17 79.2306 48.9434 79.3444 48.7546L79.2306 48.9434C79.2686 48.8679 79.3065 48.8301 79.3823 48.7546L79.1927 48.9057C79.2306 48.9057 79.2306 48.8679 79.2686 48.8679L79.079 48.9434H79.1169L78.8894 48.9812H78.9273L78.6997 48.9434H78.7377L78.5101 48.8679C78.5481 48.8679 78.586 48.9057 78.6239 48.9434L78.4343 48.7924C78.5101 48.8679 78.586 48.9057 78.6618 48.9812L78.5101 48.7924C78.6239 48.9057 78.6998 49.019 78.7756 49.17L79.4202 47.8483H79.079C78.8514 47.8483 78.6239 47.9238 78.4722 48.1126C78.3205 48.3014 78.2447 48.528 78.2826 48.7546L78.4343 50.1519L79.0031 49.2833L78.4343 49.4344C78.0172 49.5477 77.7517 50.0009 77.8655 50.4163C77.8655 50.4541 77.8655 50.4918 77.9034 50.4918C78.093 50.945 78.586 51.2471 79.079 51.1338L79.6478 50.9828C80.027 50.8695 80.2545 50.5296 80.2166 50.1142L80.0649 48.7169L79.2686 49.5854H79.6099C79.9132 49.5854 80.2166 49.4344 80.3304 49.1323C80.4441 48.8301 80.4062 48.528 80.2166 48.2637C80.0649 48.0371 79.9132 47.8483 79.7236 47.6594C79.5719 47.5084 79.4203 47.3951 79.2686 47.3195C78.9273 47.1307 78.5481 47.1307 78.2068 47.3195C77.9034 47.5461 77.6759 47.8483 77.5242 48.1881C77.4863 48.2637 77.4483 48.377 77.4104 48.4525C77.3346 48.6036 77.2967 48.7924 77.3346 48.9434C77.3725 49.2833 77.6 49.5855 77.9034 49.7365C78.2447 49.8876 78.6618 49.9253 79.041 49.7743L77.8276 48.9057L77.8655 50.2275C77.9034 50.4541 78.0172 50.6806 78.2068 50.8695C78.3964 51.0205 78.6239 51.1338 78.8894 51.1338C79.1169 51.1338 79.3444 51.0583 79.4961 50.8695C79.6478 50.6806 79.6857 50.4541 79.6478 50.2275Z" fill="#000005"/>
<path d="M81.0888 49.5101L81.0509 48.1884C81.0509 48.1884 80.52 48.3394 80.5958 48.1884C80.6717 48.0373 80.9371 47.2442 81.2405 47.3198C81.5439 47.3953 81.8852 47.9618 81.8852 47.9618H81.5439L81.6956 49.3591L81.0888 49.5101Z" fill="#000005"/>
<path d="M82.0369 49.2833L81.9989 47.9615C81.9989 47.8482 81.5439 47.9238 81.506 47.9238C81.2026 47.9615 80.8613 48.037 80.5579 48.1503C80.4442 48.1881 80.8234 48.0748 80.7096 48.1126H80.6717C80.5959 48.1503 80.4821 48.1503 80.8613 48.0748H80.8234L81.013 48.037C80.8992 48.037 81.2784 47.9993 81.1647 47.9993C81.2405 47.9993 81.3543 47.9993 81.4301 47.9993C81.5818 47.9993 81.506 48.037 81.468 47.9993L81.506 48.037C81.468 47.9993 81.5439 47.9237 81.5439 47.886C81.5818 47.7727 81.6197 47.6972 81.6576 47.5839L81.6197 47.6216C81.6577 47.5083 81.7335 47.4328 81.7714 47.3573C81.8093 47.3195 81.8093 47.2817 81.8473 47.244L81.8852 47.2062C81.9231 47.1684 81.8852 47.1684 81.8473 47.244C81.8852 47.2062 81.8473 47.244 81.7714 47.2817L81.3922 47.4328L81.1647 47.4706L80.7096 47.5461L80.3683 47.5839C80.4062 47.5839 80.2925 47.5461 80.3304 47.5839L80.3683 47.6216C80.4062 47.6216 80.4442 47.6594 80.4821 47.6972L80.4442 47.6594C80.6338 47.8105 80.7855 47.9993 80.9371 48.2259L82.4919 47.7727H82.1506C81.8093 47.8105 81.468 47.8482 81.1267 47.9615C81.013 47.9993 80.8613 48.037 80.7475 48.1126C80.7096 48.1126 80.5579 48.1881 80.5579 48.2636L80.7096 49.661L81.6197 49.2833L81.0509 49.3966C80.8234 49.4344 80.6338 49.5099 80.4062 49.5854C80.4062 49.5854 80.1408 49.661 80.1787 49.7365C80.2166 49.812 80.4442 49.7742 80.4821 49.7742C80.7096 49.7742 80.9371 49.7365 81.1647 49.661L81.7335 49.5477C81.961 49.5099 82.1506 49.4344 82.3782 49.3588C82.4161 49.3211 82.6436 49.2833 82.6057 49.2078L82.454 47.8105L80.8992 48.2636H81.2405C81.5818 48.2259 81.9231 48.1881 82.2644 48.0748C82.3023 48.0748 82.8711 47.886 82.7953 47.8105C82.6815 47.6594 82.5678 47.5083 82.454 47.3573C82.3782 47.244 82.2644 47.1684 82.1506 47.1307C81.9989 47.0929 81.8093 47.0929 81.6197 47.1307C81.2026 47.1684 80.8234 47.2817 80.4442 47.4328C80.2925 47.5083 80.1408 47.5839 80.027 47.7349C79.9512 47.8482 79.8753 47.9993 79.8374 48.1126C79.7995 48.2259 79.7616 48.3014 79.6857 48.4147C79.6099 48.528 79.6478 48.528 79.7616 48.5658C79.9512 48.6035 80.1408 48.6035 80.2925 48.5658C80.4821 48.528 80.7096 48.4902 80.8992 48.4525C81.0888 48.4147 81.3543 48.3392 81.5818 48.2636L80.1408 48.4525L80.1787 49.7742C80.1787 49.8498 80.4821 49.812 80.4821 49.812C80.7096 49.812 80.9371 49.7742 81.1647 49.6987C81.3922 49.6609 81.5818 49.5854 81.8093 49.5099C81.8473 49.4344 82.0369 49.3966 82.0369 49.2833Z" fill="#000005"/>
<path d="M35.1662 27.2664C37.5931 27.8329 40.0959 28.1727 42.5608 28.5882C46.3529 29.2679 50.1071 29.9477 53.8993 30.5897L55.8712 30.9296L56.44 31.0429L56.6296 31.0807L56.4779 31.0429C56.8571 31.1184 57.4639 31.194 57.6914 30.7785C57.9189 30.3631 57.4259 30.0988 57.1226 30.0232C54.6956 29.4568 52.1928 29.1169 49.7279 28.7015L38.3895 26.6999L36.4175 26.36L35.8487 26.2467L35.6591 26.209C35.4695 26.1712 35.9625 26.2845 35.8108 26.2467C35.4695 26.1712 34.8249 26.1334 34.5973 26.5111C34.3698 26.8887 34.8628 27.1909 35.1662 27.2664Z" fill="#000005"/>
<path d="M62.3557 39.4644C63.1141 39.2001 63.8346 38.7469 64.4413 38.1804C64.9343 37.7272 65.579 36.9342 65.0481 36.2922C64.7068 35.9145 64.2896 35.6124 63.8346 35.3858C63.5312 35.197 63.152 35.0837 62.8107 35.1592C62.0144 35.3103 61.8248 36.1789 61.7489 36.8586C61.6731 37.5006 61.7868 38.1427 62.1281 38.7091C62.659 39.4267 63.4554 39.9176 64.2897 40.1064C65.9203 40.4463 67.2096 38.7847 67.5509 37.4251C67.7405 36.5943 67.7784 35.6879 67.6267 34.8193C67.475 33.9885 66.6408 33.422 65.9203 33.1199C65.6548 32.9688 65.3135 33.0066 65.0481 33.1954C64.7447 33.4975 64.8206 34.0262 64.8585 34.4039C64.8964 35.197 65.1239 35.99 65.5031 36.6698C66.034 37.3873 66.7166 37.9538 67.513 38.3315C68.1576 38.6714 68.954 38.898 69.6366 38.5581C70.7742 37.9916 71.343 35.9523 70.395 35.0081C70.0158 34.6305 68.461 33.3465 68.2714 34.4417C68.1576 35.197 68.461 35.99 69.0298 36.481C69.7124 37.1985 70.6225 37.7272 71.6085 37.9916C72.5186 38.1427 73.4287 37.9538 74.1871 37.4629C74.3009 37.3874 73.5424 36.8586 73.4666 36.8209C73.3149 36.7076 72.784 36.2922 72.5944 36.4432C72.1773 36.7076 71.6843 36.8964 71.1913 36.9719C70.9638 37.0097 70.7363 37.0097 70.5467 37.0097C70.4329 37.0097 70.2812 36.9719 70.1675 36.9719C70.1295 36.9719 70.0537 36.9342 70.0158 36.9342C69.7882 36.8586 69.902 36.9342 70.3571 37.1985C70.3571 37.0852 70.1295 36.8964 70.0537 36.7831C69.9778 36.632 69.902 36.4432 69.8641 36.2544C69.8262 36.0278 69.8262 35.8012 69.8641 35.5369C69.902 35.4236 70.0158 35.0837 70.0916 35.1214L69.2953 34.6683C69.1436 34.555 69.1436 34.4794 69.1815 34.6305C69.2194 34.706 69.2194 34.7815 69.2573 34.8571C69.2953 35.0459 69.2953 35.2347 69.2953 35.4236C69.2573 35.7634 69.1815 36.1033 69.0677 36.4055C68.8023 37.0852 68.2335 37.7272 67.4371 37.7272C67.3613 37.7272 67.2475 37.7272 67.1717 37.6895C67.02 37.6517 66.7925 37.5384 67.1337 37.765C67.475 37.9916 67.2475 37.8028 67.1717 37.6895C67.0958 37.6139 67.0579 37.5006 67.02 37.4251C66.8304 37.0852 66.6787 36.6698 66.6029 36.2922C66.4891 35.8767 66.4512 35.4236 66.4512 34.9704C66.4512 34.7816 66.4891 34.555 66.5649 34.3661C66.6029 34.2906 66.6787 34.2151 66.7166 34.1773C66.7925 34.1018 67.0579 34.1018 66.8683 33.9885L65.9203 33.3465C66.1099 33.4975 66.1099 33.9129 66.1099 34.1018C66.1478 34.5172 66.1478 34.9704 66.1478 35.3858C66.1099 36.1411 65.9203 36.8586 65.5411 37.5006C65.086 38.407 64.138 39.0113 63.1141 39.0868C62.697 39.049 62.8486 39.2001 63.6829 39.6155C63.645 39.5777 63.6071 39.54 63.5692 39.4644C63.5312 39.3511 63.4554 39.2378 63.4175 39.0868C63.2658 38.4825 63.2658 37.8405 63.4175 37.2363C63.4933 36.9342 63.645 36.632 63.9104 36.4055C64.0242 36.3299 64.138 36.2544 64.2897 36.2544C64.3655 36.2544 64.4413 36.2544 64.5172 36.2544C63.7208 35.4613 63.4175 35.2725 63.6071 35.7634C63.645 36.481 63.0382 37.0475 62.5073 37.4629C61.9765 37.9161 61.3697 38.2559 60.6871 38.4825C60.6113 38.5203 61.3318 39.0868 61.4076 39.1245C61.6731 39.2378 62.1281 39.5777 62.3557 39.4644Z" fill="#000005"/>
<path d="M90.4174 22.1301C95.1297 22.1301 98.9497 18.3258 98.9497 13.6329C98.9497 8.94005 95.1297 5.13574 90.4174 5.13574C85.7052 5.13574 81.8851 8.94005 81.8851 13.6329C81.8851 18.3258 85.7052 22.1301 90.4174 22.1301Z" fill="#000005"/>
<path d="M98.1154 13.5197C98.0775 16.7675 96.0298 19.6376 92.996 20.7706C89.0902 22.2434 84.7292 20.3174 83.2503 16.4276C82.416 14.2372 82.6435 11.7825 83.8949 9.7809C85.6014 6.98628 88.8247 5.5512 92.048 6.15544C95.5747 6.83522 98.1154 9.93196 98.1154 13.5197C98.1154 14.5771 99.8598 14.917 99.8598 13.7085C99.8219 9.70537 97.2812 6.15544 93.5269 4.79589C89.8486 3.47411 85.6772 4.5693 83.1365 7.55275C80.6337 10.6117 80.2924 14.917 82.3402 18.3158C84.4258 21.7525 88.4076 23.5652 92.3893 22.8099C96.7123 21.9035 99.8598 18.127 99.8598 13.7085C99.8598 12.6888 98.1154 12.3112 98.1154 13.5197Z" fill="#000005"/>
<path d="M87.0045 12.689C87.4216 13.7086 88.0284 14.6905 88.711 15.5591C89.0143 15.9746 89.3935 16.39 89.8107 16.7299C90.0761 17.032 90.5691 17.0698 90.8725 16.8054C90.9483 16.7676 90.9862 16.6921 91.0242 16.6166C92.541 15.106 93.9062 13.4821 95.1197 11.7449C95.423 11.2917 94.1716 10.0077 94.0199 10.1965C92.9961 11.6693 91.8964 13.0289 90.6449 14.3129C90.3416 14.615 90.0761 14.9549 89.7348 15.2193C89.6211 15.3326 89.3935 15.4459 89.3177 15.3703C89.2419 15.2948 89.0902 15.106 88.9764 15.0304C88.5214 14.5017 88.1421 13.8597 87.8767 13.2177C87.725 12.8023 87.4216 12.4624 87.0424 12.198C86.7391 12.047 86.9287 12.5379 87.0045 12.689Z" fill="white"/>
<path d="M-14.2073 48.2637C-15.1554 41.5793 -14.5866 33.9507 -10.529 28.3237C-8.36747 25.3025 -5.18209 23.2254 -1.54164 22.4324C2.21256 21.6771 6.11846 22.3191 9.15216 24.6227C10.5932 25.7179 11.8066 27.1152 12.7168 28.6636C13.2097 29.4567 13.5889 30.3253 13.9302 31.1939C14.2715 32.0247 14.4611 32.9311 14.4611 33.7997C14.4232 34.6305 14.0819 35.5369 13.2097 35.8012C12.4513 36.0656 12.0342 35.7257 11.655 35.1215C11.1999 34.2529 10.9345 33.3087 10.8586 32.3268C10.7449 31.3827 10.7069 30.4008 10.7069 29.4567C10.7449 14.1995 23.183 1.8881 38.5032 1.92586C39.6788 1.92586 40.8543 2.00139 42.0299 2.15245C42.9779 2.26575 43.926 2.45457 44.8361 2.68116C45.0636 2.71893 45.5187 2.75669 45.3291 2.41681C45.1394 2.07692 44.5327 1.8881 44.1914 1.81257C35.8487 -0.18899 27.051 1.54821 20.1493 6.57098C13.4752 11.556 9.30384 19.6 8.96255 27.9083C8.92463 28.928 8.92463 29.9099 9.00047 30.9295C9.03839 31.987 9.228 33.0444 9.60721 34.064C10.0243 35.0082 10.7449 35.8012 11.6929 36.2544C12.5651 36.7076 13.6648 37.0097 14.6507 36.7076C16.6985 36.1034 16.1676 33.4976 15.6746 31.987C15.0679 30.1365 14.0819 28.437 12.7926 26.9264C9.98643 23.6408 6.00469 21.6015 1.71959 21.1483C-2.45175 20.7329 -6.66101 22.0169 -9.8464 24.736C-15.4967 29.6455 -16.8618 37.765 -16.3689 44.8649C-16.293 45.7712 -16.2172 46.7154 -16.0655 47.6217C-15.9138 48.1505 -14.1694 48.6414 -14.2073 48.2637Z" fill="#196F3A"/>
</g>
<defs>
<clipPath id="clip0_2032_2510">
<rect width="110" height="75" fill="white" transform="translate(0 0.5)"/>
</clipPath>
</defs>
</svg>
