<svg width="156" height="167" viewBox="0 0 156 167" fill="none" xmlns="http://www.w3.org/2000/svg">
<rect x="15" y="0.940002" width="126" height="126" rx="63" fill="#23C072"/>
<path d="M71.8259 79.0603L57.4619 64.6963L61.0529 61.1053L71.8259 71.8783L94.9469 48.7573L98.5379 52.3483L71.8259 79.0603Z" fill="white"/>
<path d="M9.71591 150.151C9.63068 149.431 9.28504 148.872 8.67898 148.475C8.07292 148.077 7.32955 147.878 6.44886 147.878C5.80492 147.878 5.24148 147.982 4.75852 148.191C4.2803 148.399 3.90625 148.685 3.63636 149.05C3.37121 149.415 3.23864 149.829 3.23864 150.293C3.23864 150.681 3.33097 151.015 3.51562 151.294C3.70502 151.569 3.9465 151.799 4.24006 151.983C4.53362 152.163 4.84138 152.312 5.16335 152.431C5.48532 152.544 5.78125 152.637 6.05114 152.708L7.52841 153.105C7.9072 153.205 8.3286 153.342 8.79261 153.517C9.26136 153.693 9.70881 153.932 10.1349 154.235C10.5658 154.533 10.9209 154.917 11.2003 155.385C11.4796 155.854 11.6193 156.429 11.6193 157.111C11.6193 157.897 11.4134 158.607 11.0014 159.242C10.5942 159.876 9.99763 160.381 9.21165 160.755C8.4304 161.129 7.48106 161.316 6.36364 161.316C5.32197 161.316 4.41998 161.148 3.65767 160.811C2.90009 160.475 2.3035 160.006 1.8679 159.405C1.43703 158.804 1.19318 158.105 1.13636 157.31H2.95455C3.00189 157.859 3.18655 158.314 3.50852 158.674C3.83523 159.029 4.24716 159.294 4.74432 159.469C5.24621 159.64 5.78598 159.725 6.36364 159.725C7.03598 159.725 7.63968 159.616 8.17472 159.398C8.70975 159.176 9.13352 158.868 9.44602 158.475C9.75852 158.077 9.91477 157.613 9.91477 157.083C9.91477 156.6 9.77983 156.207 9.50994 155.904C9.24006 155.601 8.88494 155.355 8.4446 155.165C8.00426 154.976 7.52841 154.81 7.01705 154.668L5.22727 154.157C4.09091 153.83 3.19129 153.364 2.52841 152.757C1.86553 152.151 1.53409 151.358 1.53409 150.378C1.53409 149.564 1.75426 148.854 2.1946 148.247C2.63968 147.637 3.23627 147.163 3.98438 146.827C4.73722 146.486 5.57765 146.316 6.50568 146.316C7.44318 146.316 8.27652 146.484 9.00568 146.82C9.73485 147.151 10.3125 147.606 10.7386 148.184C11.1695 148.761 11.3968 149.417 11.4205 150.151H9.71591ZM18.7198 161.287C17.6971 161.287 16.8164 161.046 16.0778 160.563C15.3391 160.08 14.771 159.415 14.3732 158.567C13.9755 157.72 13.7766 156.751 13.7766 155.662C13.7766 154.554 13.9802 153.577 14.3874 152.729C14.7994 151.877 15.3723 151.212 16.1062 150.733C16.8448 150.25 17.7066 150.009 18.6914 150.009C19.4585 150.009 20.1497 150.151 20.7653 150.435C21.3808 150.719 21.8851 151.117 22.2781 151.628C22.671 152.14 22.9149 152.736 23.0096 153.418H21.3335C21.2056 152.921 20.9215 152.48 20.4812 152.097C20.0456 151.709 19.4585 151.515 18.7198 151.515C18.0664 151.515 17.4935 151.685 17.0011 152.026C16.5134 152.362 16.1322 152.838 15.8576 153.453C15.5877 154.064 15.4528 154.782 15.4528 155.605C15.4528 156.448 15.5853 157.182 15.8505 157.807C16.1204 158.432 16.4992 158.917 16.9869 159.263C17.4793 159.609 18.0569 159.782 18.7198 159.782C19.1554 159.782 19.5508 159.706 19.9059 159.554C20.261 159.403 20.5617 159.185 20.8079 158.901C21.0541 158.617 21.2293 158.276 21.3335 157.878H23.0096C22.9149 158.522 22.6805 159.102 22.3065 159.618C21.9371 160.13 21.4471 160.537 20.8363 160.84C20.2302 161.138 19.5247 161.287 18.7198 161.287ZM28.6701 161.316C27.9788 161.316 27.3514 161.185 26.788 160.925C26.2246 160.66 25.7771 160.279 25.4457 159.782C25.1142 159.28 24.9485 158.674 24.9485 157.963C24.9485 157.338 25.0716 156.832 25.3178 156.444C25.564 156.051 25.8931 155.743 26.305 155.52C26.717 155.298 27.1715 155.132 27.6687 155.023C28.1706 154.909 28.6748 154.819 29.1815 154.753C29.8443 154.668 30.3817 154.604 30.7937 154.561C31.2103 154.514 31.5134 154.436 31.7028 154.327C31.8969 154.218 31.994 154.029 31.994 153.759V153.702C31.994 153.001 31.8022 152.457 31.4187 152.069C31.0399 151.68 30.4646 151.486 29.6928 151.486C28.8926 151.486 28.2653 151.661 27.8107 152.012C27.3562 152.362 27.0366 152.736 26.8519 153.134L25.261 152.566C25.5451 151.903 25.9239 151.387 26.3974 151.017C26.8756 150.643 27.3964 150.383 27.9599 150.236C28.5281 150.085 29.0868 150.009 29.636 150.009C29.9864 150.009 30.3888 150.051 30.8434 150.137C31.3027 150.217 31.7454 150.385 32.1715 150.641C32.6024 150.897 32.9599 151.283 33.244 151.799C33.5281 152.315 33.6701 153.006 33.6701 153.872V161.06H31.994V159.583H31.9087C31.7951 159.819 31.6057 160.073 31.3406 160.343C31.0754 160.613 30.7227 160.842 30.2823 161.032C29.842 161.221 29.3046 161.316 28.6701 161.316ZM28.9258 159.81C29.5887 159.81 30.1474 159.68 30.6019 159.419C31.0612 159.159 31.4068 158.823 31.6388 158.411C31.8756 157.999 31.994 157.566 31.994 157.111V155.577C31.9229 155.662 31.7667 155.74 31.5252 155.811C31.2885 155.878 31.0138 155.937 30.7013 155.989C30.3936 156.036 30.0929 156.079 29.7994 156.117C29.5105 156.15 29.2762 156.178 29.0962 156.202C28.6606 156.259 28.2534 156.351 27.8746 156.479C27.5006 156.602 27.1976 156.789 26.9656 157.04C26.7383 157.286 26.6246 157.622 26.6246 158.049C26.6246 158.631 26.8401 159.071 27.271 159.37C27.7066 159.663 28.2582 159.81 28.9258 159.81ZM38.4055 154.497V161.06H36.7294V150.151H38.3487V151.855H38.4908C38.7464 151.301 39.1347 150.856 39.6555 150.52C40.1764 150.179 40.8487 150.009 41.6726 150.009C42.4112 150.009 43.0575 150.16 43.6115 150.463C44.1655 150.762 44.5964 151.216 44.9041 151.827C45.2119 152.433 45.3658 153.2 45.3658 154.128V161.06H43.6896V154.242C43.6896 153.385 43.4671 152.717 43.022 152.239C42.5769 151.756 41.9661 151.515 41.1896 151.515C40.6546 151.515 40.1764 151.631 39.755 151.863C39.3383 152.095 39.0092 152.433 38.7678 152.878C38.5263 153.323 38.4055 153.863 38.4055 154.497ZM62.2354 150.151C62.1502 149.431 61.8046 148.872 61.1985 148.475C60.5924 148.077 59.8491 147.878 58.9684 147.878C58.3245 147.878 57.761 147.982 57.2781 148.191C56.7998 148.399 56.4258 148.685 56.1559 149.05C55.8907 149.415 55.7582 149.829 55.7582 150.293C55.7582 150.681 55.8505 151.015 56.0352 151.294C56.2246 151.569 56.466 151.799 56.7596 151.983C57.0531 152.163 57.3609 152.312 57.6829 152.431C58.0049 152.544 58.3008 152.637 58.5707 152.708L60.0479 153.105C60.4267 153.205 60.8481 153.342 61.3121 153.517C61.7809 153.693 62.2283 153.932 62.6545 154.235C63.0853 154.533 63.4405 154.917 63.7198 155.385C63.9992 155.854 64.1388 156.429 64.1388 157.111C64.1388 157.897 63.9329 158.607 63.521 159.242C63.1138 159.876 62.5172 160.381 61.7312 160.755C60.9499 161.129 60.0006 161.316 58.8832 161.316C57.8415 161.316 56.9395 161.148 56.1772 160.811C55.4196 160.475 54.823 160.006 54.3874 159.405C53.9566 158.804 53.7127 158.105 53.6559 157.31H55.4741C55.5214 157.859 55.7061 158.314 56.0281 158.674C56.3548 159.029 56.7667 159.294 57.2638 159.469C57.7657 159.64 58.3055 159.725 58.8832 159.725C59.5555 159.725 60.1592 159.616 60.6942 159.398C61.2293 159.176 61.6531 158.868 61.9656 158.475C62.2781 158.077 62.4343 157.613 62.4343 157.083C62.4343 156.6 62.2994 156.207 62.0295 155.904C61.7596 155.601 61.4045 155.355 60.9641 155.165C60.5238 154.976 60.0479 154.81 59.5366 154.668L57.7468 154.157C56.6104 153.83 55.7108 153.364 55.0479 152.757C54.3851 152.151 54.0536 151.358 54.0536 150.378C54.0536 149.564 54.2738 148.854 54.7141 148.247C55.1592 147.637 55.7558 147.163 56.5039 146.827C57.2567 146.486 58.0972 146.316 59.0252 146.316C59.9627 146.316 60.796 146.484 61.5252 146.82C62.2544 147.151 62.832 147.606 63.2582 148.184C63.689 148.761 63.9163 149.417 63.94 150.151H62.2354ZM73.6825 156.6V150.151H75.3587V161.06H73.6825V159.213H73.5689C73.3132 159.767 72.9155 160.239 72.3757 160.627C71.8359 161.01 71.1541 161.202 70.3303 161.202C69.6484 161.202 69.0424 161.053 68.5121 160.755C67.9818 160.452 67.5651 159.997 67.2621 159.391C66.959 158.78 66.8075 158.011 66.8075 157.083V150.151H68.4837V156.969C68.4837 157.765 68.7062 158.399 69.1513 158.872C69.6011 159.346 70.174 159.583 70.87 159.583C71.2867 159.583 71.7105 159.476 72.1413 159.263C72.5769 159.05 72.9415 158.723 73.2351 158.283C73.5334 157.843 73.6825 157.282 73.6825 156.6ZM82.8604 161.287C81.8377 161.287 80.957 161.046 80.2184 160.563C79.4798 160.08 78.9116 159.415 78.5138 158.567C78.1161 157.72 77.9173 156.751 77.9173 155.662C77.9173 154.554 78.1209 153.577 78.5281 152.729C78.94 151.877 79.5129 151.212 80.2468 150.733C80.9854 150.25 81.8472 150.009 82.832 150.009C83.5991 150.009 84.2904 150.151 84.9059 150.435C85.5214 150.719 86.0257 151.117 86.4187 151.628C86.8117 152.14 87.0555 152.736 87.1502 153.418H85.4741C85.3462 152.921 85.0621 152.48 84.6218 152.097C84.1862 151.709 83.5991 151.515 82.8604 151.515C82.207 151.515 81.6341 151.685 81.1417 152.026C80.654 152.362 80.2728 152.838 79.9982 153.453C79.7283 154.064 79.5934 154.782 79.5934 155.605C79.5934 156.448 79.726 157.182 79.9911 157.807C80.261 158.432 80.6398 158.917 81.1275 159.263C81.6199 159.609 82.1976 159.782 82.8604 159.782C83.296 159.782 83.6914 159.706 84.0465 159.554C84.4016 159.403 84.7023 159.185 84.9485 158.901C85.1947 158.617 85.3699 158.276 85.4741 157.878H87.1502C87.0555 158.522 86.8211 159.102 86.4471 159.618C86.0778 160.13 85.5877 160.537 84.9769 160.84C84.3709 161.138 83.6654 161.287 82.8604 161.287ZM94.0323 161.287C93.0096 161.287 92.1289 161.046 91.3903 160.563C90.6516 160.08 90.0835 159.415 89.6857 158.567C89.288 157.72 89.0891 156.751 89.0891 155.662C89.0891 154.554 89.2927 153.577 89.6999 152.729C90.1119 151.877 90.6848 151.212 91.4187 150.733C92.1573 150.25 93.0191 150.009 94.0039 150.009C94.771 150.009 95.4622 150.151 96.0778 150.435C96.6933 150.719 97.1976 151.117 97.5906 151.628C97.9835 152.14 98.2274 152.736 98.3221 153.418H96.646C96.5181 152.921 96.234 152.48 95.7937 152.097C95.3581 151.709 94.771 151.515 94.0323 151.515C93.3789 151.515 92.806 151.685 92.3136 152.026C91.8259 152.362 91.4447 152.838 91.1701 153.453C90.9002 154.064 90.7653 154.782 90.7653 155.605C90.7653 156.448 90.8978 157.182 91.163 157.807C91.4329 158.432 91.8117 158.917 92.2994 159.263C92.7918 159.609 93.3694 159.782 94.0323 159.782C94.4679 159.782 94.8633 159.706 95.2184 159.554C95.5735 159.403 95.8742 159.185 96.1204 158.901C96.3666 158.617 96.5418 158.276 96.646 157.878H98.3221C98.2274 158.522 97.993 159.102 97.619 159.618C97.2496 160.13 96.7596 160.537 96.1488 160.84C95.5427 161.138 94.8372 161.287 94.0323 161.287ZM105.346 161.287C104.295 161.287 103.388 161.055 102.626 160.591C101.868 160.122 101.284 159.469 100.872 158.631C100.465 157.788 100.261 156.808 100.261 155.691C100.261 154.573 100.465 153.588 100.872 152.736C101.284 151.879 101.857 151.212 102.591 150.733C103.329 150.25 104.191 150.009 105.176 150.009C105.744 150.009 106.305 150.104 106.859 150.293C107.413 150.482 107.917 150.79 108.372 151.216C108.826 151.638 109.189 152.196 109.458 152.892C109.728 153.588 109.863 154.445 109.863 155.463V156.174H101.454V154.725H108.159C108.159 154.109 108.036 153.56 107.789 153.077C107.548 152.594 107.202 152.213 106.752 151.934C106.307 151.654 105.782 151.515 105.176 151.515C104.508 151.515 103.931 151.68 103.443 152.012C102.96 152.338 102.588 152.765 102.328 153.29C102.067 153.816 101.937 154.379 101.937 154.98V155.946C101.937 156.77 102.079 157.469 102.363 158.042C102.652 158.61 103.052 159.043 103.564 159.341C104.075 159.635 104.669 159.782 105.346 159.782C105.787 159.782 106.184 159.72 106.539 159.597C106.899 159.469 107.209 159.28 107.47 159.029C107.73 158.773 107.931 158.456 108.074 158.077L109.693 158.532C109.522 159.081 109.236 159.564 108.833 159.98C108.431 160.392 107.934 160.714 107.342 160.946C106.75 161.174 106.085 161.287 105.346 161.287ZM120.14 152.594L118.635 153.02C118.54 152.769 118.4 152.525 118.216 152.289C118.036 152.047 117.789 151.848 117.477 151.692C117.164 151.536 116.764 151.458 116.277 151.458C115.609 151.458 115.053 151.612 114.608 151.919C114.167 152.222 113.947 152.608 113.947 153.077C113.947 153.494 114.099 153.823 114.402 154.064C114.705 154.306 115.178 154.507 115.822 154.668L117.441 155.066C118.417 155.302 119.144 155.665 119.622 156.152C120.1 156.635 120.339 157.258 120.339 158.02C120.339 158.645 120.159 159.204 119.799 159.696C119.444 160.189 118.947 160.577 118.308 160.861C117.669 161.145 116.925 161.287 116.078 161.287C114.965 161.287 114.044 161.046 113.315 160.563C112.586 160.08 112.124 159.374 111.93 158.446L113.521 158.049C113.672 158.636 113.959 159.076 114.38 159.37C114.806 159.663 115.363 159.81 116.049 159.81C116.831 159.81 117.451 159.644 117.91 159.313C118.374 158.977 118.606 158.574 118.606 158.105C118.606 157.727 118.474 157.409 118.208 157.154C117.943 156.893 117.536 156.699 116.987 156.571L115.169 156.145C114.17 155.908 113.436 155.542 112.967 155.044C112.503 154.542 112.271 153.915 112.271 153.162C112.271 152.547 112.444 152.002 112.789 151.529C113.14 151.055 113.616 150.684 114.217 150.414C114.823 150.144 115.51 150.009 116.277 150.009C117.356 150.009 118.204 150.246 118.819 150.719C119.44 151.193 119.88 151.818 120.14 152.594ZM130.589 152.594L129.084 153.02C128.989 152.769 128.849 152.525 128.665 152.289C128.485 152.047 128.239 151.848 127.926 151.692C127.614 151.536 127.214 151.458 126.726 151.458C126.058 151.458 125.502 151.612 125.057 151.919C124.616 152.222 124.396 152.608 124.396 153.077C124.396 153.494 124.548 153.823 124.851 154.064C125.154 154.306 125.627 154.507 126.271 154.668L127.891 155.066C128.866 155.302 129.593 155.665 130.071 156.152C130.549 156.635 130.788 157.258 130.788 158.02C130.788 158.645 130.608 159.204 130.249 159.696C129.893 160.189 129.396 160.577 128.757 160.861C128.118 161.145 127.375 161.287 126.527 161.287C125.414 161.287 124.493 161.046 123.764 160.563C123.035 160.08 122.573 159.374 122.379 158.446L123.97 158.049C124.122 158.636 124.408 159.076 124.83 159.37C125.256 159.663 125.812 159.81 126.499 159.81C127.28 159.81 127.9 159.644 128.359 159.313C128.823 158.977 129.055 158.574 129.055 158.105C129.055 157.727 128.923 157.409 128.658 157.154C128.393 156.893 127.985 156.699 127.436 156.571L125.618 156.145C124.619 155.908 123.885 155.542 123.416 155.044C122.952 154.542 122.72 153.915 122.72 153.162C122.72 152.547 122.893 152.002 123.239 151.529C123.589 151.055 124.065 150.684 124.666 150.414C125.272 150.144 125.959 150.009 126.726 150.009C127.805 150.009 128.653 150.246 129.268 150.719C129.889 151.193 130.329 151.818 130.589 152.594ZM138.169 150.151V151.571H132.289V150.151H138.169ZM134.05 161.06V148.645C134.05 148.02 134.197 147.499 134.49 147.083C134.784 146.666 135.165 146.354 135.634 146.145C136.103 145.937 136.597 145.833 137.118 145.833C137.53 145.833 137.866 145.866 138.127 145.932C138.387 145.998 138.581 146.06 138.709 146.117L138.226 147.566C138.141 147.537 138.023 147.502 137.871 147.459C137.724 147.417 137.53 147.395 137.289 147.395C136.735 147.395 136.335 147.535 136.088 147.814C135.847 148.094 135.726 148.503 135.726 149.043V161.06H134.05ZM147.393 156.6V150.151H149.07V161.06H147.393V159.213H147.28C147.024 159.767 146.626 160.239 146.087 160.627C145.547 161.01 144.865 161.202 144.041 161.202C143.359 161.202 142.753 161.053 142.223 160.755C141.693 160.452 141.276 159.997 140.973 159.391C140.67 158.78 140.518 158.011 140.518 157.083V150.151H142.195V156.969C142.195 157.765 142.417 158.399 142.862 158.872C143.312 159.346 143.885 159.583 144.581 159.583C144.998 159.583 145.421 159.476 145.852 159.263C146.288 159.05 146.652 158.723 146.946 158.283C147.244 157.843 147.393 157.282 147.393 156.6ZM153.816 146.515V161.06H152.14V146.515H153.816Z" fill="white"/>
</svg>
