<svg width="56" height="56" viewBox="0 0 56 56" fill="none" xmlns="http://www.w3.org/2000/svg">
<path d="M0.677462 47.8966H35.1231V55.2643C35.1231 55.2643 0.795913 55.3827 0.677462 54.7668C0.559011 54.1508 0.677462 47.8966 0.677462 47.8966Z" fill="#196F3A"/>
<path d="M0.701308 48.2516H33.7492C34.1993 48.2516 34.6494 48.2753 35.0995 48.2516H35.1469L34.531 47.9437V55.335L35.0995 54.9323H30.5036C26.9975 54.9323 23.4913 54.9323 20.0088 54.9086H19.3692H18.6111H17.1423L14.2047 54.8849C12.3806 54.8612 10.5801 54.8612 8.75599 54.8138C6.33958 54.7665 3.8758 54.7902 1.45939 54.5532C1.34094 54.5532 1.1988 54.5296 1.08035 54.5059C0.9619 54.4822 1.24618 54.5532 1.08035 54.5059C1.05666 54.5059 1.00928 54.4822 0.98559 54.4822C0.98559 54.4348 1.1988 54.6243 1.22249 54.648C1.24618 54.6717 1.22249 54.7665 1.24618 54.6954C1.24618 54.648 1.24618 54.6006 1.22249 54.5532C1.1988 54.2453 1.1988 53.9373 1.1988 53.6293C1.17511 51.8289 1.1988 50.0284 1.24618 48.228V47.8489C1.24618 47.3751 0.0853615 47.4462 0.0616712 47.9437C0.037981 49.4599 0.0142906 50.976 0.0142906 52.4685C-0.00939965 53.2029 -0.00939947 53.961 0.0616712 54.6954C0.0853615 55.0271 0.322264 55.1218 0.606546 55.1929C1.36463 55.3113 2.14641 55.3824 2.92819 55.3824C4.27853 55.4298 5.65257 55.4772 7.00291 55.5009C8.77968 55.5245 10.5328 55.5719 12.3095 55.5719C14.2758 55.5956 16.2421 55.5956 18.2084 55.6193C20.1747 55.6193 22.1647 55.643 24.1546 55.643C25.884 55.643 27.6134 55.643 29.3191 55.643H33.1569C33.7729 55.643 34.4125 55.6667 35.0285 55.643H35.0995C35.3127 55.643 35.6681 55.5009 35.6681 55.2403V47.8489C35.6681 47.5646 35.2417 47.5409 35.0521 47.5409H4.87079C3.49675 47.5409 2.09903 47.4936 0.701308 47.5409H0.653927C0.440715 47.5409 0.0853615 47.6831 0.0853615 47.9437C0.0853615 48.2043 0.511786 48.2516 0.701308 48.2516Z" fill="#000005"/>
<path d="M54.6912 38.1835L35.1231 47.8965V55.2641C35.1231 55.2641 54.8097 45.788 54.6912 45.0536C54.5728 44.3192 54.6912 38.1835 54.6912 38.1835Z" fill="white"/>
<path d="M54.4781 37.8517L52.5355 38.823L47.8685 41.1446L42.2066 43.9637L37.3501 46.3565C36.5683 46.7355 35.7391 47.1145 34.9811 47.541L34.9574 47.5647C34.7442 47.6594 34.6257 47.8726 34.602 48.1095V55.4772C34.602 55.8562 35.1706 55.6904 35.3364 55.6193C36.3788 55.1218 37.4212 54.6007 38.4635 54.1032C40.7378 52.9897 43.0121 51.8763 45.2626 50.7392C47.5369 49.602 49.7875 48.4649 52.0143 47.233C52.725 46.8303 53.4594 46.4512 54.1465 46.0011C54.5255 45.7642 55.2362 45.3852 55.2125 44.864C55.1414 42.6371 55.1651 40.4102 55.2125 38.1833C55.2125 38.1123 55.2125 38.0412 55.2125 37.9701C55.2125 37.6858 54.7861 37.7095 54.6203 37.7569C54.336 37.828 54.1465 38.0649 54.1228 38.3492C54.0754 40.4813 54.0043 42.6371 54.0991 44.7929C54.0991 44.8877 54.0754 45.1483 54.1228 45.243C54.1228 45.1956 54.1465 45.1246 54.1701 45.0772C54.1465 45.1009 54.2886 44.935 54.1938 45.0298C54.1701 45.0772 54.336 44.9114 54.2175 45.0061C54.1938 45.0298 54.1465 45.0535 54.1228 45.0772C54.0991 45.1009 54.0517 45.1246 54.0043 45.1719C53.9096 45.243 54.1465 45.0772 54.0517 45.1483L53.9806 45.1956C53.3647 45.6221 52.7014 45.9774 52.0617 46.3328C49.9296 47.5173 47.7501 48.607 45.5706 49.7205C43.2963 50.8813 40.9984 52.0184 38.6767 53.1319L36.213 54.3401C35.8102 54.5296 35.3838 54.7191 35.0048 54.9323L34.9574 54.956L35.6918 55.0982V47.7305L35.3364 48.2517L37.279 47.2804L41.946 44.9587L47.608 42.1396L52.4881 39.7232C53.2699 39.3205 54.0991 38.9651 54.8572 38.5387L54.8809 38.515C55.0941 38.4202 55.331 38.1123 55.1888 37.8754C55.0467 37.6385 54.6913 37.7332 54.4781 37.8517Z" fill="#000005"/>
<path d="M0.677521 47.8965L19.7482 38.1835H54.6912L35.1231 47.8965H0.677521Z" fill="#000005"/>
<path d="M1.10409 48.2518L2.9993 47.2805L7.54783 44.9588L13.044 42.1397L17.8057 39.6996L19.3693 38.8941C19.6062 38.7757 19.8904 38.6572 20.1273 38.5151L20.151 38.4914L19.9141 38.5625H53.4121C53.8622 38.5625 54.336 38.5862 54.7861 38.5625H54.8335L54.2413 37.8044L52.2987 38.752L47.6317 41.0736L41.9697 43.8928L37.0895 46.3092L35.4786 47.1147C35.218 47.2331 34.9574 47.3516 34.7205 47.4937L34.6968 47.5174L34.9337 47.4463H4.72869C3.35466 47.4463 1.95693 47.3989 0.559211 47.4463H0.511831C0.322309 47.4226 0.132787 47.5648 0.132787 47.7543C0.132787 47.8017 0.132787 47.8491 0.156477 47.8964C0.251238 48.1807 0.606591 48.2992 0.867184 48.2992H35.1469C35.3602 48.2992 35.5734 48.2518 35.7629 48.1333L37.3028 47.3752L43.4622 44.3192L50.593 40.7894L54.952 38.6336L55.1652 38.5388C55.3073 38.444 55.3547 38.2545 55.2599 38.0887C55.2599 38.065 55.2363 38.065 55.2126 38.0413C55.0467 37.8518 54.8098 37.7333 54.5492 37.757H19.8667C19.6535 37.7333 19.4403 37.7807 19.2508 37.8755C18.8007 38.0887 18.3743 38.3256 17.9241 38.5388L11.9542 41.5711L4.84714 45.1957L0.46445 47.4226L0.251238 47.5411C-0.00935461 47.6595 0.109097 47.9912 0.274928 48.1333C0.511831 48.3229 0.819803 48.3702 1.10409 48.2518Z" fill="#000005"/>
<path d="M24.0124 51.1897C24.3914 51.0949 24.7942 51.0475 25.1969 51.0001C25.5996 50.9765 25.9787 50.9528 26.3814 50.9528C26.7841 50.9528 27.1632 50.9765 27.5659 51.0001C27.9687 51.0238 28.3714 51.0949 28.7504 51.1897C28.3714 51.2844 27.9687 51.3555 27.5659 51.3792C27.1632 51.4029 26.7841 51.4266 26.3814 51.4266C25.9787 51.4266 25.5996 51.4029 25.1969 51.3792C24.7942 51.3555 24.4151 51.2844 24.0124 51.1897Z" fill="white"/>
<path d="M24.4862 51.5445C25.2443 51.3787 26.0023 51.3076 26.7841 51.3076C27.5422 51.2839 28.324 51.3787 29.0584 51.5208L28.324 50.8575C27.5659 51.0233 26.8078 51.0944 26.026 51.0944C25.2679 51.1181 24.4862 51.0233 23.7518 50.8812C23.5386 50.8338 23.4675 50.9522 23.6096 51.1181C23.7991 51.3313 24.036 51.4734 24.3203 51.5445C25.1258 51.734 25.955 51.8051 26.8078 51.8051C27.637 51.8288 28.4661 51.734 29.2716 51.5682C29.4374 51.5208 29.2005 51.2602 29.1531 51.2365C28.9636 51.0707 28.7504 50.9522 28.5135 50.8812C27.708 50.6917 26.8789 50.5969 26.026 50.6206C25.1969 50.6206 24.3914 50.6917 23.5859 50.8812C23.3727 50.9286 23.7755 51.2602 23.8228 51.3076C23.965 51.4024 24.2493 51.5919 24.4862 51.5445Z" fill="white"/>
<path d="M5.5813 50.3604C5.5813 50.3604 3.89929 50.0051 3.89929 51.3791C3.89929 52.7531 5.15487 52.7531 6.00772 52.3504C6.86057 51.9476 6.5526 50.4789 5.5813 50.3604Z" fill="#000005"/>
<path d="M5.98408 50.171C5.48658 50.0762 4.98909 50.0762 4.49159 50.1946C4.13624 50.2657 3.80458 50.4552 3.54399 50.7158C3.35446 51.0001 3.28339 51.3318 3.33077 51.6871C3.35446 52.0425 3.54399 52.3505 3.82827 52.5637C4.15993 52.7769 4.56267 52.8716 4.9654 52.8479C5.4392 52.8479 5.91301 52.7295 6.33943 52.5637C6.6711 52.4452 6.93169 52.1846 7.05014 51.8766C7.1449 51.5213 7.09752 51.1423 6.93169 50.8343C6.69479 50.4789 6.31574 50.242 5.86563 50.1946C5.72349 50.171 5.55765 50.1946 5.41551 50.2183C5.29706 50.242 5.17861 50.2894 5.08385 50.3605C4.89433 50.5263 5.2023 50.6211 5.32075 50.6448C5.2023 50.6211 5.4392 50.6685 5.32075 50.6448H5.36813C5.4392 50.6685 5.34444 50.6448 5.34444 50.6448C5.39182 50.6921 5.46289 50.7158 5.53396 50.7395C5.46289 50.6921 5.53396 50.7395 5.55765 50.7632C5.58134 50.7869 5.60503 50.8106 5.62873 50.8343C5.67611 50.8817 5.72349 50.929 5.77087 51.0001C5.79456 51.0238 5.79456 51.0475 5.81825 51.0712L5.84194 51.1186C5.81825 51.0712 5.86563 51.1423 5.84194 51.1186C5.86563 51.1896 5.88932 51.237 5.91301 51.3081C5.9367 51.4265 5.96039 51.5687 5.96039 51.6871C5.96039 51.7108 5.96039 51.7582 5.96039 51.7819C5.96039 51.8056 5.9367 51.8767 5.96039 51.8293C5.9367 51.9003 5.91301 51.9477 5.88932 52.0188C5.86563 52.0662 5.81825 52.1136 5.79456 52.1609C5.77087 52.2083 5.79456 52.1609 5.81825 52.1609L5.77087 52.1846C5.74718 52.2083 5.72349 52.232 5.67611 52.2557C5.62873 52.2794 5.62873 52.2557 5.6998 52.232C5.67611 52.232 5.67611 52.2557 5.65242 52.2557L5.55765 52.3031L5.51027 52.3268C5.4392 52.3505 5.55765 52.3031 5.55765 52.3031L5.4392 52.3505L5.34444 52.3741L5.41551 52.3505C5.39182 52.3505 5.39182 52.3505 5.36813 52.3505L5.27337 52.3741C5.13123 52.3978 5.4392 52.3505 5.29706 52.3741C5.24968 52.3741 5.22599 52.3741 5.17861 52.3741C5.13123 52.3741 5.34444 52.3741 5.27337 52.3741H5.22599C5.17861 52.3741 5.06016 52.3505 5.24968 52.3741H5.15492C5.03647 52.3741 5.27337 52.3978 5.15492 52.3741L5.06016 52.3505C4.9654 52.3268 5.13123 52.3741 5.06016 52.3505C5.03647 52.3268 4.98909 52.3268 4.9654 52.3031C4.94171 52.2794 4.91802 52.2794 4.89433 52.2557C4.84695 52.2083 4.87064 52.2557 4.89433 52.2557L4.87064 52.232C4.82326 52.1846 4.77588 52.1372 4.7285 52.0899C4.68112 52.0425 4.65743 51.9951 4.63374 51.924C4.65743 51.9714 4.61005 51.9003 4.61005 51.8766C4.58636 51.8293 4.58636 51.7819 4.56266 51.7582C4.51528 51.5924 4.51528 51.4265 4.51528 51.2607C4.51528 51.1896 4.53898 51.1186 4.53898 51.0475C4.53898 51.0712 4.56267 50.9764 4.53898 51.0475C4.53898 51.0238 4.53897 51.0238 4.56266 51.0001C4.56266 50.9764 4.58636 50.929 4.61005 50.9054C4.63374 50.858 4.65743 50.8106 4.70481 50.7632C4.70481 50.7632 4.77588 50.6921 4.7285 50.7158C4.68112 50.7395 4.77588 50.6921 4.77588 50.6685L4.82326 50.6211L4.87064 50.5974C4.91802 50.5737 4.77588 50.6448 4.82326 50.6211L4.87064 50.5974C4.98909 50.55 4.77588 50.6211 4.84695 50.5974L4.94171 50.5737C4.98909 50.5737 5.03647 50.55 4.84695 50.5974H4.89433L4.9654 50.5737C4.7285 50.6211 4.84695 50.5974 4.91802 50.5737H5.01278C5.06016 50.5737 5.13123 50.5737 4.89433 50.5737H5.08385C5.17861 50.5737 4.89433 50.55 5.03647 50.5737H5.08385H5.17861H5.24968L5.15492 50.55C5.4392 50.6211 5.72349 50.5974 5.98408 50.4552C6.05515 50.4315 6.14991 50.3605 6.14991 50.2894C6.14991 50.2183 6.03146 50.171 5.98408 50.171Z" fill="#000005"/>
<path d="M10.3194 50.3601C9.98775 50.2891 9.65609 50.3128 9.34812 50.4312C9.20597 50.4786 9.06383 50.5733 8.96907 50.6918C8.87431 50.8102 8.82693 50.9524 8.80324 51.0945C8.77955 51.3788 8.82693 51.6868 8.94538 51.9237C9.08752 52.1369 9.30073 52.3027 9.56133 52.3264C9.84561 52.3738 10.1299 52.3501 10.4142 52.279C10.4852 52.2553 10.5563 52.2317 10.6274 52.208C10.6985 52.1843 10.7458 52.1606 10.8169 52.1132C10.9354 52.0421 11.0064 51.9237 11.0775 51.8052C11.196 51.5209 11.196 51.1893 11.0538 50.905C10.9827 50.7629 10.888 50.6207 10.7695 50.526C10.6274 50.4312 10.4852 50.3838 10.3194 50.3601ZM10.3194 50.3601C10.6511 50.4075 10.9354 50.597 11.1249 50.8813C11.3144 51.1656 11.3855 51.5446 11.3144 51.8763C11.267 52.0658 11.1723 52.2317 11.0301 52.3738C10.9591 52.4449 10.888 52.4923 10.7932 52.5396C10.7221 52.587 10.6274 52.6344 10.5563 52.6581C10.2247 52.8002 9.84561 52.8476 9.49026 52.8002C9.30074 52.7528 9.11121 52.6818 8.94538 52.5633C8.77955 52.4449 8.6611 52.279 8.59003 52.0895C8.47158 51.7342 8.47158 51.3551 8.59003 51.0235C8.63741 50.8576 8.75586 50.6918 8.898 50.5733C9.04014 50.4549 9.20598 50.3838 9.37181 50.3601C9.67978 50.2891 10.0114 50.2891 10.3194 50.3601Z" fill="white"/>
<path d="M10.0588 49.8156C9.56131 49.7208 8.87429 49.7919 8.6137 50.2894C8.51894 50.55 8.49525 50.8106 8.56632 51.0949C8.6137 51.2844 8.66108 51.4739 8.75584 51.6397C8.87429 51.924 9.01643 52.1846 9.18226 52.4452C9.49024 52.8953 10.0588 52.9427 10.5563 52.8243C10.8169 52.8006 11.0538 52.6821 11.2433 52.4926C11.3855 52.2794 11.4565 52.0425 11.4328 51.7819C11.4091 51.5924 11.3618 51.3792 11.267 51.2133C11.1486 50.8817 10.9827 50.5737 10.7932 50.2894C10.6274 50.0525 10.3668 49.8867 10.0588 49.8156C10.0351 49.8156 10.1062 50.0288 10.0825 50.0051C10.1299 50.1473 10.1773 50.2657 10.2483 50.3842C10.2957 50.5026 10.3668 50.6448 10.4378 50.7395C10.4615 50.7869 10.5089 50.858 10.5563 50.8817C10.7695 50.9054 10.959 51.0001 11.1012 51.1659C11.3144 51.4028 10.959 50.8817 10.888 50.6921C10.8406 50.5737 10.888 50.7158 10.888 50.7395C10.9116 50.8343 10.9116 50.9527 10.888 51.0475C10.8643 51.237 10.7458 51.4028 10.6037 51.5213C10.4378 51.6397 10.2483 51.7108 10.0351 51.7345C9.65607 51.8293 9.18226 51.8293 8.87429 51.5687C8.8506 51.545 8.82691 51.5213 8.80322 51.4976C8.89798 51.6634 8.99274 51.8293 9.06381 51.9951C9.06381 51.9951 9.0875 52.0425 9.0875 52.0662C9.0875 52.0188 9.06381 51.9951 9.06381 51.9477C9.06381 51.9003 9.04012 51.8293 9.04012 51.7819C9.01643 51.5687 9.0875 51.3555 9.20595 51.1896C9.51393 50.8106 10.1062 50.8106 10.5563 50.8817C10.58 50.8817 10.5089 50.6684 10.5326 50.6921C10.4852 50.55 10.4378 50.4315 10.3668 50.3131C10.3194 50.1946 10.2483 50.0525 10.1773 49.9341C10.1536 49.9104 10.1299 49.8393 10.0588 49.8156Z" fill="white"/>
<path d="M10.5801 50.905C10.7696 50.9287 10.9355 50.9998 11.0776 51.0945C11.1487 51.1419 11.196 51.213 11.2671 51.2604C11.196 51.1182 11.125 50.9761 11.0539 50.8103C11.0539 50.7629 11.0776 50.9287 11.0776 50.905C11.1487 51.3078 10.9828 51.6868 10.6512 51.9237C10.3195 52.1606 9.91678 52.2791 9.49035 52.2791C9.27714 52.2791 9.06393 52.2317 8.87441 52.1369C8.77964 52.0895 8.70857 52.0421 8.6375 51.9948C8.61381 51.9711 8.59012 51.9474 8.56643 51.9237C8.47167 51.8289 8.61381 52.0422 8.6375 52.0658L8.80334 52.4449C8.6375 51.9711 8.77964 51.4499 9.135 51.1182C9.51404 50.7866 10.1063 50.8103 10.5801 50.905C10.6038 50.905 10.5327 50.6918 10.5327 50.7155C10.4853 50.5734 10.438 50.4549 10.3669 50.3365C10.3195 50.218 10.2484 50.0759 10.1774 49.9574C10.1537 49.91 10.1063 49.839 10.0589 49.8153C9.46666 49.7205 8.6375 49.7205 8.35322 50.3838C8.23477 50.6918 8.18739 51.0472 8.25846 51.3788C8.30584 51.6394 8.4006 51.8763 8.51905 52.1132C8.6375 52.3738 8.75595 52.6107 8.92179 52.8239C9.32452 53.3688 10.0589 53.4399 10.6749 53.2504C10.9828 53.1793 11.2434 52.9898 11.433 52.7529C11.5988 52.4686 11.6462 52.1606 11.5751 51.8289C11.504 51.5683 11.4093 51.3078 11.2908 51.0472C11.1724 50.7866 11.0302 50.526 10.8644 50.3128C10.6749 50.0522 10.3906 49.8863 10.0589 49.839C10.0352 49.839 10.1063 50.0522 10.0826 50.0285C10.13 50.1706 10.1774 50.2891 10.2484 50.4075C10.2958 50.526 10.3669 50.6681 10.438 50.7629C10.4853 50.8103 10.5327 50.8813 10.5801 50.905Z" fill="white"/>
<path d="M0.701266 35.1749H35.1469V42.5663C35.1469 42.5663 0.819717 42.6847 0.701266 42.0688C0.582814 41.4528 0.701266 35.1749 0.701266 35.1749Z" fill="#196F3A"/>
<path d="M0.890781 35.6014H33.9387C34.3888 35.6014 34.8389 35.6251 35.289 35.6014H35.3364L34.5783 35.1039V42.4953L34.981 42.1399H30.3614C26.879 42.1399 23.3965 42.1399 19.914 42.1162C16.1236 42.0925 12.3095 42.0688 8.51903 42.0215C7.71357 42.0215 6.9081 41.9978 6.10263 41.9741H5.9368H5.67621L5.13133 41.9504L4.18372 41.9267C3.23611 41.903 2.2885 41.8793 1.3409 41.7845C1.22244 41.7845 1.0803 41.7609 0.961852 41.7372C0.914471 41.7135 0.867091 41.7135 0.843401 41.7135C1.00923 41.6898 0.985542 41.7609 0.890781 41.7135C1.00923 41.7609 1.12768 41.8319 1.19875 41.9267C1.17506 41.8793 1.26982 42.0688 1.24613 42.0215C1.3409 42.211 1.24613 42.1399 1.26983 42.0925C1.26983 42.0451 1.26982 41.9978 1.24613 41.9504C1.22244 41.6424 1.22244 41.3344 1.22244 41.0265C1.19875 39.226 1.22244 37.4255 1.26983 35.6251V35.246C1.26983 34.7249 0.132694 34.5116 0.109004 35.1039C0.0853137 36.6201 0.0616233 38.1363 0.0616233 39.6287C0.0379331 40.3631 0.0379333 41.1212 0.109004 41.8556C0.156384 42.3294 0.535428 42.4716 0.938162 42.5426C1.67256 42.6374 2.38327 42.7085 3.11766 42.7085C4.51539 42.7558 5.88942 42.8032 7.28714 42.8269C9.04022 42.8506 10.817 42.898 12.5938 42.898C14.56 42.9217 16.5263 42.9217 18.4926 42.9454C20.4589 42.9691 22.4252 42.9691 24.3678 42.9691C26.0972 42.9691 27.8266 42.9691 29.5323 42.9691H33.3701C33.986 42.9691 34.6257 42.9928 35.2416 42.9691H35.3364C35.5496 42.9691 35.7154 42.8269 35.7391 42.6137V35.2224C35.7391 34.867 35.2416 34.7249 34.981 34.7249H4.75229C3.37825 34.7249 1.95684 34.6538 0.582808 34.7249H0.535428C0.345906 34.7012 0.156384 34.8433 0.156384 35.0565C0.156384 35.1039 0.156384 35.1513 0.180074 35.1987C0.274835 35.5066 0.606499 35.6014 0.890781 35.6014Z" fill="#000005"/>
<path d="M54.715 25.4618L35.1469 35.1748V42.5661C35.1469 42.5661 54.8334 33.09 54.715 32.3556C54.5965 31.6212 54.715 25.4618 54.715 25.4618Z" fill="white"/>
<path d="M54.3596 25.2488L52.417 26.2201L47.75 28.5417L42.088 31.3608L37.2078 33.7772C36.4261 34.1563 35.5969 34.5353 34.8388 34.9618L34.8151 34.9854C34.673 35.0328 34.5782 35.175 34.5782 35.3171V42.6848C34.5782 42.8269 34.8151 42.898 34.9099 42.898C35.1231 42.9217 35.3126 42.8743 35.5021 42.7795C36.5445 42.282 37.5869 41.7845 38.6056 41.2634C40.8798 40.1499 43.1541 39.0365 45.4283 37.8993C47.6789 36.7622 49.9295 35.6251 52.1564 34.4169C52.8908 34.0141 53.6252 33.6114 54.3359 33.1613C54.6202 32.9718 55.3072 32.6401 55.3072 32.2374C55.2835 31.195 55.2598 30.129 55.2598 29.0866C55.2598 27.9021 55.2835 26.7412 55.3072 25.5567C55.3072 25.4857 55.3072 25.4146 55.3072 25.3435C55.3072 24.9408 54.1463 25.1066 54.1463 25.5804C54.099 27.7125 54.0279 29.8684 54.1227 32.0242C54.1227 32.1663 54.1463 32.3084 54.1463 32.4743C54.1463 32.5454 54.1463 32.3795 54.17 32.4032C54.17 32.4032 54.1937 32.3558 54.1463 32.4269C54.1463 32.4269 54.2411 32.3558 54.1463 32.4032L54.0516 32.498C54.0042 32.5217 53.9805 32.5454 53.9331 32.5927L53.8621 32.6401C53.7673 32.7112 53.8858 32.6164 53.8621 32.6401C53.2224 33.0428 52.5828 33.4219 51.9195 33.7772C49.7873 34.9381 47.6315 36.0515 45.452 37.1413C43.1541 38.3021 40.8561 39.4392 38.5582 40.5527C37.3263 41.1449 36.047 41.7135 34.8625 42.3531L34.8151 42.3768L35.739 42.4716V35.0802L35.5021 35.4119L37.4447 34.4406L42.1354 32.1189L47.7974 29.3235L52.6776 26.9071C53.4593 26.5043 54.2885 26.149 55.0466 25.7226L55.0703 25.6989C55.2598 25.6041 55.4019 25.3672 55.1887 25.2251C54.9755 25.0829 54.5728 25.1303 54.3596 25.2488Z" fill="#000005"/>
<path d="M0.701324 35.1748L19.772 25.4618H54.715L35.1469 35.1748H0.701324Z" fill="#000005"/>
<path d="M0.914382 35.5539L2.8096 34.5826L7.35812 32.261L12.8779 29.4419L17.6397 27.0255L19.2032 26.22C19.4401 26.1015 19.7244 25.9831 19.9613 25.8409L19.985 25.8173L19.7007 25.912H53.2224C53.6725 25.912 54.1463 25.9594 54.5964 25.912H54.6438L54.5254 25.0592L52.5828 26.0305L47.9158 28.3521L42.2538 31.1712L37.3736 33.5877C36.5919 33.9667 35.7627 34.3221 35.0046 34.7722L34.9809 34.7959L35.2652 34.7011H5.01279C3.63876 34.7011 2.24103 34.6537 0.843311 34.7011H0.795931C0.179985 34.7011 -0.151678 35.6487 0.606409 35.6487H34.8862C35.1231 35.6487 35.3363 35.5776 35.5495 35.4592L37.0894 34.7011L43.2488 31.6451L50.3796 28.1152L54.7149 25.9594L54.9281 25.8646C55.3782 25.6277 55.4019 25.0118 54.8097 25.0118H20.1508C19.9139 24.9881 19.7007 25.0355 19.4875 25.1302C19.0374 25.3435 18.611 25.5804 18.1609 25.7936L12.2146 28.8259L5.10755 32.4505L0.72486 34.6774L0.511648 34.7959C0.274746 34.9143 0.0615339 35.1986 0.179985 35.4592C0.298436 35.7198 0.70117 35.6724 0.914382 35.5539Z" fill="#000005"/>
<path d="M24.0597 38.468C24.4388 38.3732 24.8415 38.3258 25.2442 38.2785C25.647 38.2548 26.026 38.2311 26.4288 38.2311C26.8315 38.2311 27.2342 38.2548 27.6133 38.2785C28.016 38.3021 28.4187 38.3732 28.7978 38.468C28.4187 38.5627 28.016 38.6338 27.6133 38.6575C27.2105 38.6812 26.8315 38.7049 26.4288 38.7049C26.026 38.7049 25.647 38.6812 25.2442 38.6575C24.8415 38.6338 24.4388 38.5627 24.0597 38.468Z" fill="white"/>
<path d="M24.4861 38.8467C25.2442 38.6808 26.026 38.6098 26.8078 38.6098C27.5895 38.5861 28.395 38.6808 29.1531 38.8467L28.3476 38.1123C27.5895 38.2781 26.8078 38.3492 26.026 38.3492C25.2442 38.3729 24.4387 38.2781 23.6807 38.1123C23.4438 38.0649 23.6807 38.3255 23.728 38.3966C23.9176 38.6098 24.1545 38.7519 24.4151 38.8467C25.1968 39.0125 26.0023 39.0836 26.8078 39.0836C27.6132 39.1073 28.4424 39.0125 29.2242 38.8467C29.3663 38.7993 29.082 38.5387 29.0347 38.515C28.8688 38.3255 28.6556 38.207 28.4187 38.1123C27.6369 37.9464 26.8315 37.8517 26.026 37.8754C25.2205 37.8517 24.3914 37.9464 23.6096 38.1123C23.4438 38.1597 23.7991 38.4676 23.8465 38.4913C23.9649 38.5861 24.2966 38.894 24.4861 38.8467Z" fill="white"/>
<path d="M5.60507 37.6387C5.60507 37.6387 3.92307 37.2834 3.92307 38.6574C3.92307 40.0314 5.17865 40.0551 6.0315 39.6287C6.88434 39.2023 6.57637 37.7572 5.60507 37.6387Z" fill="#000005"/>
<path d="M5.39198 37.3543C5.01294 37.2832 4.6102 37.2832 4.23116 37.378C3.94688 37.4491 3.70997 37.5912 3.54414 37.8281C3.37831 38.1361 3.30724 38.4914 3.402 38.8231C3.56783 39.7233 4.6102 40.1734 5.43936 40.1497C5.79472 40.1497 6.15007 40.055 6.48173 39.9128C6.76601 39.7944 6.97923 39.5338 7.0503 39.2258C7.12137 38.8705 7.0503 38.4914 6.83708 38.1835C6.50542 37.7333 5.98424 37.4254 5.39198 37.3543C5.29722 37.3306 5.17877 37.3306 5.08401 37.378C5.03663 37.4254 5.03663 37.4964 5.08401 37.5438C5.27353 37.757 5.53412 37.8755 5.8184 37.9229H5.86579C5.93686 37.9229 5.72364 37.8755 5.79472 37.8992C5.91317 37.9466 5.67626 37.8518 5.74733 37.8755C5.81841 37.8992 5.60519 37.8044 5.67626 37.8518C5.69995 37.8518 5.69995 37.8755 5.72364 37.8755C5.72364 37.8755 5.60519 37.7807 5.65257 37.8281L5.69995 37.8755C5.5815 37.7807 5.65257 37.8281 5.69995 37.8755C5.74733 37.9229 5.72364 37.8992 5.74733 37.9229C5.77102 37.9465 5.67626 37.8518 5.72364 37.8992C5.77103 37.9466 5.81841 38.0176 5.8421 38.065L5.86579 38.0887C5.8421 38.0413 5.91317 38.1598 5.86579 38.0887C5.88948 38.1361 5.88948 38.1361 5.91317 38.1835C5.93686 38.2545 5.96055 38.3256 5.96055 38.3967C5.96055 38.4677 5.98424 38.5151 5.98424 38.5862C5.98424 38.6099 5.98424 38.6809 5.98424 38.6336C5.98424 38.6809 5.98424 38.7046 5.98424 38.752C5.96055 38.8705 5.91317 38.9889 5.86579 39.1074L5.8184 39.2021L5.79472 39.2258C5.74733 39.2732 5.67626 39.3206 5.62888 39.3443C5.5815 39.368 5.51043 39.4153 5.43936 39.439H5.41567C5.46305 39.4153 5.39198 39.439 5.39198 39.439L5.29722 39.4627C5.15508 39.5101 5.03663 39.5338 4.89449 39.5575C4.82342 39.5575 4.98925 39.5575 4.89449 39.5575H4.77604H4.65758C4.58651 39.5575 4.77603 39.5812 4.70496 39.5575H4.63389C4.56282 39.5575 4.51544 39.5101 4.65758 39.5575L4.56282 39.5338C4.49175 39.5101 4.72865 39.5812 4.63389 39.5575L4.58651 39.5338C4.75234 39.5812 4.72865 39.6049 4.68127 39.5812L4.63389 39.5575C4.77603 39.6286 4.75234 39.6286 4.70496 39.6049C4.68127 39.6049 4.68127 39.5812 4.65758 39.5812C4.77604 39.6522 4.70496 39.6286 4.68127 39.5812C4.65758 39.5338 4.65758 39.5575 4.63389 39.5575C4.6102 39.5575 4.70496 39.6286 4.65758 39.5812C4.6102 39.5338 4.6102 39.5338 4.58651 39.4864C4.56282 39.4627 4.53913 39.439 4.53913 39.3917C4.56282 39.439 4.53913 39.3917 4.53913 39.368C4.51544 39.2969 4.49175 39.2021 4.46806 39.1311C4.44437 39.06 4.44437 38.9652 4.44437 38.8942C4.44437 38.8231 4.44437 38.7283 4.44437 38.6573C4.46806 38.5388 4.49175 38.3967 4.56282 38.3019C4.58651 38.2782 4.58651 38.2545 4.6102 38.2308L4.63389 38.2071C4.58651 38.2545 4.65758 38.1835 4.63389 38.2071C4.68127 38.1598 4.70496 38.1361 4.75234 38.0887C4.79973 38.065 4.84711 38.0413 4.89449 38.0176L4.96556 37.9939C5.01294 37.9702 4.94187 38.0176 4.94187 37.9939C4.94187 37.9702 4.98925 37.9939 4.98925 37.9702C5.1077 37.9466 5.22615 37.9229 5.3446 37.8992C5.20246 37.9229 5.29722 37.8992 5.3446 37.8992H5.43936H5.5815H5.65257C5.69995 37.8992 5.74733 37.9229 5.55781 37.8992H5.62888L5.72364 37.9229L5.8184 37.9465C5.93686 37.9702 6.29221 37.9466 6.12638 37.7333C5.91317 37.4964 5.67626 37.378 5.39198 37.3543Z" fill="#000005"/>
<path d="M10.3432 37.6384C10.0116 37.5674 9.67989 37.5911 9.37192 37.7095C9.22978 37.7569 9.08764 37.8517 8.99288 37.9701C8.89812 38.0886 8.82704 38.2307 8.82704 38.3728C8.80335 38.6571 8.85073 38.9651 8.96919 39.2257C9.11133 39.4389 9.32454 39.6047 9.58513 39.6284C9.86941 39.6758 10.1537 39.6521 10.438 39.581C10.5091 39.5574 10.5801 39.5337 10.6512 39.51C10.7223 39.4863 10.7696 39.4626 10.8407 39.4152C10.9592 39.3441 11.0539 39.2257 11.1013 39.1072C11.2198 38.823 11.2198 38.4913 11.0776 38.207C11.0065 38.0649 10.9118 37.9464 10.7696 37.828C10.6749 37.7332 10.5091 37.6621 10.3432 37.6384ZM10.3432 37.6384C10.6749 37.6858 10.9592 37.8753 11.1487 38.1596C11.3382 38.4439 11.4093 38.823 11.3382 39.1546C11.2908 39.3441 11.1961 39.51 11.0539 39.6521C10.9829 39.7232 10.9118 39.7706 10.817 39.8179C10.746 39.8653 10.6512 39.9127 10.5801 39.9364C10.2485 40.0785 9.86942 40.1259 9.51406 40.0785C9.32454 40.0312 9.13502 39.9601 8.96919 39.8416C8.80335 39.7232 8.6849 39.5574 8.61383 39.3678C8.49538 39.0125 8.49538 38.6334 8.61383 38.3018C8.66121 38.1359 8.77966 37.9701 8.92181 37.8517C9.06395 37.7569 9.22978 37.6621 9.39561 37.6384C9.70358 37.5674 10.0352 37.5674 10.3432 37.6384Z" fill="white"/>
<path d="M10.1536 37.2125C9.60876 37.1177 8.85067 37.1414 8.49532 37.6389C8.32949 37.8995 8.28211 38.1838 8.32949 38.4917C8.35318 38.7997 8.49532 39.084 8.68484 39.3446C8.94543 39.6762 9.30079 39.8895 9.70352 40.0079C9.9878 40.079 10.2958 40.079 10.6037 40.0316C10.888 40.0079 11.1723 39.8895 11.4092 39.6999C11.5987 39.5104 11.6935 39.2498 11.6935 38.9892C11.6935 38.1127 10.9591 37.3783 10.1536 37.2125C10.0589 37.1888 9.94042 37.1888 9.89304 37.2598C9.84566 37.3546 9.84566 37.4494 9.89304 37.5204C10.0352 37.781 10.2721 37.9705 10.5564 38.0416C10.6037 38.0416 10.6511 38.0653 10.6985 38.0653C10.6037 38.0179 10.6511 38.0653 10.6748 38.0653C10.7459 38.089 10.6748 38.0653 10.6511 38.0416C10.6748 38.0653 10.7222 38.1127 10.6037 38.0179C10.6037 38.0179 10.509 37.9232 10.5564 37.9942C10.5801 38.0179 10.5801 38.0416 10.6037 38.0416C10.5564 38.0179 10.5327 37.9705 10.5801 38.0416C10.6274 38.1127 10.5327 37.9705 10.5801 38.0179L10.6037 38.089C10.6037 38.089 10.6274 38.1838 10.6274 38.1364C10.6274 38.089 10.6274 38.1601 10.6274 38.1838C10.6511 38.2785 10.6511 38.3496 10.6511 38.4444C10.6511 38.6102 10.5801 38.7997 10.4616 38.9182C10.4142 38.9655 10.3432 39.0129 10.2721 39.0366C10.1773 39.084 10.0826 39.1077 9.96411 39.1314C9.7509 39.1787 9.53769 39.2024 9.32448 39.1787C9.39555 39.1787 9.2771 39.1551 9.25341 39.1551C9.18234 39.1314 9.2771 39.1551 9.2771 39.1551L9.20602 39.1314C9.11126 39.1077 9.32448 39.2024 9.20602 39.1314C9.13495 39.1077 9.32448 39.2261 9.25341 39.1551C9.18234 39.084 9.34817 39.2735 9.30079 39.1787L9.34817 39.2498L9.32448 39.2261C9.30079 39.1314 9.32448 39.2498 9.32448 39.2498C9.32448 39.2498 9.2771 39.1551 9.2771 39.1314C9.30079 39.2024 9.2771 39.084 9.25341 39.0603C9.22972 39.0129 9.22971 38.9418 9.22971 38.8945C9.22971 38.8708 9.22971 38.8471 9.22971 38.8234C9.22971 38.7997 9.22971 38.8708 9.22971 38.7997C9.22971 38.7286 9.22971 38.7049 9.22971 38.6576C9.22971 38.5628 9.25341 38.4917 9.30079 38.397C9.41924 38.2074 9.60876 38.089 9.79828 38.0653C9.91673 38.0416 10.0115 38.0179 10.1299 38.0179H10.3195C10.3668 38.0179 10.3905 38.0179 10.4379 38.0416C10.509 38.0653 10.6274 38.0653 10.6985 37.9942C10.7459 37.9232 10.7459 37.8047 10.6985 37.7336C10.6511 37.4731 10.4142 37.2835 10.1536 37.2125Z" fill="white"/>
<path d="M10.5565 38.0653C10.6039 38.0653 10.6749 38.089 10.7223 38.089C10.6275 38.0653 10.6986 38.089 10.7223 38.089C10.8171 38.1127 10.6986 38.0653 10.6986 38.0653L10.746 38.089C10.8171 38.1364 10.6512 38.0179 10.7223 38.0653C10.7934 38.1127 10.6512 37.9705 10.6986 38.0416C10.746 38.1127 10.7934 38.089 10.6986 38.0416C10.7223 38.0653 10.7697 38.1601 10.7697 38.1364C10.7697 38.1127 10.7934 38.1601 10.7934 38.1838L10.8408 38.2548C10.8645 38.3259 10.8171 38.2074 10.8408 38.2785C10.8408 38.3022 10.8408 38.3259 10.8645 38.3496C10.8881 38.4207 10.8881 38.4917 10.9118 38.5628C10.9355 38.776 10.8645 38.9892 10.746 39.1787C10.6039 39.3446 10.3906 39.4867 10.1774 39.5341C9.94053 39.6289 9.70363 39.6762 9.44304 39.6525C9.39566 39.6525 9.34828 39.6525 9.3009 39.6289L9.22982 39.6052C9.15875 39.6052 9.2772 39.6289 9.22982 39.6052C9.18244 39.5815 9.08768 39.5341 9.18244 39.5815C9.08768 39.5341 9.18244 39.5815 9.18244 39.6052C9.06399 39.5104 9.25352 39.6762 9.18244 39.6052C9.11137 39.5341 9.22983 39.6762 9.18244 39.6289C9.15875 39.6052 9.15875 39.5815 9.13506 39.5578C9.08768 39.5104 9.15875 39.6289 9.13506 39.5578L9.11137 39.5104C9.13506 39.5578 9.11137 39.4867 9.11137 39.4867C9.11137 39.4867 9.08768 39.4156 9.08768 39.392C9.06399 39.3209 9.06399 39.2498 9.06399 39.1787C9.0403 38.9418 9.08768 38.7049 9.18244 38.4917C9.41935 37.9942 10.0353 37.9705 10.5565 38.0653C10.6275 38.0653 10.746 38.089 10.8171 38.0179C10.8645 37.9468 10.8645 37.8284 10.8171 37.7573C10.6749 37.4967 10.438 37.3072 10.1537 37.2361C9.49042 37.1414 8.63757 37.1177 8.23484 37.7336C8.04531 38.0416 7.97424 38.4207 8.04531 38.776C8.09269 39.1787 8.25853 39.5341 8.54281 39.8184C9.11137 40.4343 9.96422 40.6712 10.7697 40.4343C11.0777 40.3633 11.3619 40.1974 11.5988 39.9605C11.8121 39.6999 11.9068 39.3446 11.8594 38.9892C11.7173 38.089 11.0303 37.3783 10.1537 37.2124C10.0827 37.1888 9.96422 37.1888 9.89315 37.2598C9.84577 37.3546 9.84577 37.4494 9.89315 37.5204C10.0116 37.8047 10.2722 37.9942 10.5565 38.0653Z" fill="white"/>
<path d="M0.701266 22.9507H35.1469V30.3421C35.1469 30.3421 0.819717 30.4605 0.701266 29.8446C0.582814 29.2286 0.701266 22.9507 0.701266 22.9507Z" fill="#196F3A"/>
<path d="M0.464251 23.3058H33.5121C33.9622 23.3294 34.4123 23.3294 34.8625 23.3058H34.9098L34.5545 23.0215V30.4128L35.3363 30.0101C33.7964 30.0101 32.2565 30.0101 30.7404 30.0101C27.2342 30.0101 23.7517 30.0101 20.2456 29.9864C16.4552 29.9627 12.6647 29.939 8.85059 29.8916C6.43419 29.8443 3.9704 29.8679 1.554 29.6547L1.36448 29.631L1.26972 29.6074C1.15127 29.6074 1.41186 29.631 1.29341 29.6074L1.17496 29.5837C1.03282 29.5126 1.10389 29.56 1.17496 29.5837C1.10389 29.5363 1.19865 29.6074 1.19865 29.6074C1.29341 29.7021 1.22234 29.7021 1.22234 29.6547C1.22234 29.6074 1.22234 29.56 1.19865 29.5126C1.17496 29.2283 1.17496 28.944 1.17496 28.6597C1.15127 26.8593 1.17496 25.0588 1.22234 23.2584V22.8793C1.22234 22.3818 0.0852067 22.595 0.0615165 22.9978C0.0378262 24.514 0.0141358 26.0301 0.0141358 27.5226C0.0141358 28.2807 -0.00955422 29.0625 0.0615165 29.8206C0.0852067 30.1048 0.274729 30.1759 0.535321 30.2233C1.29341 30.3417 2.07519 30.3891 2.85696 30.4128C4.20731 30.4602 5.55765 30.5076 6.90799 30.5313C8.68476 30.555 10.4378 30.5787 12.2146 30.6023C14.1809 30.626 16.1472 30.6497 18.1135 30.6497C20.0798 30.6497 22.0224 30.6734 23.965 30.6734C25.6943 30.6734 27.4 30.6734 29.1294 30.6734C30.4087 30.6734 31.688 30.6734 32.9672 30.6734C33.5832 30.6734 34.1991 30.6734 34.8151 30.6734H34.8862C35.0757 30.6734 35.6679 30.5787 35.6679 30.2707V22.903C35.6679 22.7135 35.5021 22.6187 35.3126 22.6187H5.13123C3.7335 22.6187 2.35947 22.6187 0.961745 22.6187H0.914365C0.653772 22.6187 0.298419 22.6898 0.156277 22.9504C0.0141359 23.211 0.251038 23.3058 0.464251 23.3058Z" fill="#000005"/>
<path d="M54.6912 13.2376L35.1231 22.9506V30.342C35.1231 30.342 54.8097 20.8659 54.6912 20.1315C54.5728 19.3971 54.6912 13.2376 54.6912 13.2376Z" fill="white"/>
<path d="M54.2885 12.8587L52.3459 13.83L47.6789 16.1517L42.017 18.9708L37.1368 21.3872L35.5258 22.1927C35.2652 22.3111 35.0046 22.4296 34.7677 22.5717L34.744 22.5954C34.6493 22.6665 34.5782 22.7612 34.5782 22.8797V30.2711C34.5782 30.7449 35.2415 30.8633 35.5732 30.6975C36.6156 30.2 37.6343 29.7025 38.6766 29.205C40.9509 28.0916 43.2252 26.9781 45.4994 25.841C47.75 24.7038 50.0006 23.5667 52.2274 22.3585C52.9618 21.9558 53.6962 21.553 54.4069 21.1266C54.7149 20.9371 55.3309 20.6291 55.3309 20.2027C55.3309 19.8237 55.2835 19.4209 55.2835 19.0419C55.2835 18.3786 55.2835 17.7152 55.2835 17.0519C55.2835 15.8674 55.3072 14.7066 55.3309 13.5221C55.3309 13.451 55.3309 13.3799 55.3309 13.3088C55.3309 12.764 54.1937 12.5508 54.17 13.1667C54.1227 15.2988 54.0516 17.4546 54.1463 19.6104C54.1463 19.6815 54.1227 19.9895 54.17 20.0606C54.2174 20.1316 54.1937 19.9184 54.17 19.9895C54.2174 19.8473 54.2411 19.9421 54.1937 19.9421C54.17 19.9658 54.1463 19.9895 54.1227 20.0132C54.2174 19.8947 54.17 19.9658 54.099 20.0369C54.0279 20.1079 53.9331 20.1553 53.8384 20.2264C53.2224 20.6528 52.5591 21.0082 51.9195 21.3635C49.7873 22.548 47.6315 23.6378 45.452 24.7275C43.1541 25.8884 40.8561 27.0255 38.5345 28.1626L36.047 29.3708C35.6443 29.5603 35.2179 29.7499 34.8151 29.9631L34.7677 29.9868L35.7627 30.4132V23.0218L35.5969 23.3298L37.5395 22.3585L42.2065 20.0369L47.8921 17.2177L52.7723 14.8013L54.3832 13.9959C54.6438 13.8774 54.9044 13.759 55.1413 13.6168L55.165 13.5931C55.4256 13.451 55.3072 13.1193 55.1413 12.9772C54.8807 12.764 54.5491 12.7166 54.2885 12.8587Z" fill="#000005"/>
<path d="M0.701324 22.9506L19.772 13.2376H54.6914L35.1469 22.9506H0.701324Z" fill="#000005"/>
<path d="M0.938027 23.3297L2.83325 22.3584L7.38177 20.0368L12.9016 17.2177L17.6633 14.8013L19.2269 13.9958C19.4638 13.8773 19.7481 13.7589 19.9613 13.6167L19.985 13.5931L19.677 13.6641H53.1987C53.6488 13.6641 54.1226 13.7115 54.5727 13.6641H54.6201L54.4543 12.835L52.5117 13.8063L47.8447 16.1279L42.1827 18.947L37.3025 21.3635L35.6916 22.1689C35.431 22.2874 35.1704 22.4058 34.9335 22.548L34.9098 22.5717L35.2178 22.5006H4.98906C3.61502 22.5006 2.2173 22.4769 0.819575 22.5006H0.772195C0.511602 22.5006 0.156249 22.6664 0.108869 22.9507C0.0614881 23.235 0.369461 23.4008 0.630053 23.4008H34.9098C35.1467 23.4008 35.3599 23.3534 35.5731 23.235L37.113 22.4769L43.2725 19.4209L50.4032 15.891L54.7385 13.7352L54.9518 13.6404C55.1413 13.5457 55.3308 13.3798 55.2834 13.1429C55.2123 12.9297 54.9991 12.7876 54.7859 12.8113H20.1271C19.8902 12.7876 19.677 12.835 19.4638 12.906C19.0137 13.1193 18.5872 13.3562 18.1371 13.5694L12.1672 16.6017L5.06013 20.2263L0.677434 22.4532L0.464222 22.5717C0.25101 22.6901 0.0141074 22.927 0.156249 23.1876C0.29839 23.4482 0.701124 23.4482 0.938027 23.3297Z" fill="#000005"/>
<path d="M24.0362 26.2438C24.4152 26.149 24.818 26.078 25.2207 26.0543C25.6234 26.0306 26.0262 26.0069 26.4052 26.0069C26.7843 26.0069 27.187 26.0306 27.5897 26.0543C27.9925 26.078 28.3952 26.149 28.7742 26.2438C28.3952 26.3386 27.9925 26.3859 27.5897 26.4333C27.187 26.457 26.808 26.4807 26.4052 26.4807C26.0025 26.4807 25.5997 26.457 25.2207 26.4333C24.818 26.4096 24.4152 26.3386 24.0362 26.2438Z" fill="white"/>
<path d="M24.0361 26.6699C24.7705 26.5041 25.5049 26.433 26.263 26.4567C27.0211 26.4567 27.7792 26.5278 28.5136 26.6936L28.7979 25.8645C28.0635 26.0303 27.3291 26.1014 26.571 26.0777C25.8129 26.1014 25.0548 26.0066 24.3204 25.8645C24.0125 25.8171 23.7282 25.9355 23.5386 26.1724C23.4202 26.3146 23.4439 26.5041 23.586 26.6225C23.6334 26.6699 23.6808 26.6936 23.7519 26.6936C24.581 26.8594 25.4102 26.9542 26.263 26.9305C27.1159 26.9542 27.945 26.8594 28.7742 26.6699C29.0111 26.6225 29.2243 26.4804 29.3191 26.2435C29.3664 26.0777 29.2717 25.8881 29.1059 25.8408C29.0822 25.8408 29.0585 25.8408 29.0348 25.8171C28.2056 25.6276 27.3765 25.5565 26.5236 25.5565C25.6708 25.5328 24.8179 25.6276 23.9888 25.8171C23.7519 25.8645 23.4202 26.054 23.4202 26.3383C23.4202 26.6225 23.8229 26.7173 24.0361 26.6699Z" fill="white"/>
<path d="M5.5813 25.4145C5.5813 25.4145 3.89929 25.0592 3.89929 26.4332C3.89929 27.8073 5.15487 27.8309 6.03141 27.4045C6.90795 26.9781 6.5526 25.533 5.5813 25.4145Z" fill="#000005"/>
<path d="M5.86564 25.154C5.41552 25.0592 4.94172 25.0592 4.4916 25.1776C4.13625 25.2487 3.80459 25.4382 3.56768 25.7225C3.35447 26.0305 3.2834 26.3858 3.35447 26.7412C3.40185 27.0966 3.56768 27.4282 3.87566 27.6177C4.2547 27.8546 4.70481 27.9494 5.15493 27.9257C5.55766 27.902 5.93671 27.831 6.29206 27.6651C6.6711 27.5467 6.95539 27.2624 7.07384 26.8833C7.1686 26.528 7.12122 26.1253 6.9317 25.8173C6.6711 25.4146 6.22099 25.154 5.74718 25.1303C5.58135 25.1303 5.43921 25.1303 5.29707 25.2013C5.20231 25.225 5.10755 25.2961 5.03648 25.3909C4.94172 25.6278 5.34445 25.6751 5.4629 25.6988C5.24969 25.6751 5.41552 25.6988 5.4629 25.6988C5.4629 25.6988 5.34445 25.6515 5.41552 25.6751L5.4629 25.6988L5.51028 25.7225C5.55766 25.7462 5.55766 25.7699 5.48659 25.6988C5.51028 25.7225 5.55766 25.7225 5.58135 25.7462C5.60504 25.7699 5.62873 25.7936 5.65242 25.7936C5.72349 25.841 5.60504 25.7462 5.67611 25.8173C5.72349 25.8647 5.77087 25.9357 5.79456 25.9831C5.81825 26.0305 5.86563 26.1016 5.88933 26.1489C5.88933 26.1726 5.91302 26.2437 5.88933 26.1726C5.88933 26.22 5.91302 26.2437 5.91302 26.2911C5.93671 26.4095 5.9604 26.5517 5.93671 26.6701C5.93671 26.6938 5.93671 26.7412 5.91302 26.7649C5.91302 26.6938 5.91302 26.7649 5.91302 26.7886C5.88933 26.8597 5.86564 26.907 5.84195 26.9781C5.81826 27.0018 5.81825 27.0255 5.79456 27.0492C5.74718 27.1202 5.84194 27.0018 5.77087 27.0729L5.6998 27.1439L5.65242 27.1676C5.67611 27.1439 5.74718 27.1202 5.67611 27.1439L5.60504 27.1913C5.48659 27.2387 5.72349 27.1439 5.60504 27.1913C5.53397 27.215 5.48659 27.2387 5.41552 27.2624C5.36814 27.2861 5.24969 27.3098 5.43921 27.2624L5.34445 27.2861L5.24969 27.3098C5.10755 27.3335 5.41552 27.2861 5.27338 27.3098H5.15493H5.10755C5.03648 27.3098 5.20231 27.3098 5.20231 27.3098H5.08386H5.03648C4.94172 27.3098 5.17862 27.3335 5.10755 27.3098L5.01279 27.2861C4.9891 27.2861 4.96541 27.2861 4.96541 27.2861C4.96541 27.2861 5.10755 27.3335 5.03648 27.3098L4.96541 27.2861L4.91803 27.2624C4.84696 27.2387 5.01279 27.3098 4.94172 27.2861C4.87065 27.2624 4.84696 27.215 4.79957 27.1913C4.75219 27.1676 4.84696 27.2387 4.77589 27.1676C4.75219 27.1439 4.7285 27.1202 4.70481 27.0729C4.65743 27.0255 4.63374 26.9544 4.61005 26.907C4.61005 26.8833 4.56267 26.8123 4.58636 26.8833C4.56267 26.836 4.56267 26.7886 4.53898 26.7649C4.4916 26.5991 4.4916 26.4332 4.4916 26.2674C4.4916 26.22 4.4916 26.1963 4.51529 26.1489C4.51529 26.1016 4.53898 26.1016 4.51529 26.1489C4.51529 26.1253 4.51529 26.1253 4.51529 26.1016C4.53898 26.0305 4.56267 25.9831 4.58636 25.912L4.63374 25.841C4.63374 25.841 4.65743 25.8173 4.65743 25.7936C4.65743 25.7699 4.61005 25.8647 4.63374 25.8173C4.68112 25.7699 4.70481 25.7225 4.75219 25.6988C4.82326 25.6515 4.68112 25.7462 4.7285 25.7225C4.75219 25.6988 4.77588 25.6988 4.79957 25.6751L4.82326 25.6515C4.87065 25.6278 4.75219 25.6751 4.75219 25.6751C4.77588 25.6751 4.82327 25.6515 4.84696 25.6515C4.89434 25.6278 5.01279 25.6278 4.79957 25.6515L4.87065 25.6278L4.94172 25.6041C5.01279 25.5804 4.77588 25.6278 4.84696 25.6278H4.89434C4.94172 25.6278 5.01279 25.6278 5.06017 25.6278C5.10755 25.6278 4.91803 25.6278 4.94172 25.6278H5.06017H5.17862H5.226C5.29707 25.6278 5.03648 25.6041 5.13124 25.6278L5.226 25.6515C5.36814 25.6751 5.53397 25.6751 5.67611 25.6515C5.79456 25.6278 5.91302 25.5804 6.00778 25.4856C6.29206 25.3198 6.05516 25.1776 5.86564 25.154Z" fill="#000005"/>
<path d="M10.3432 25.4143C10.0116 25.3432 9.70358 25.3669 9.37192 25.4853C9.22978 25.5327 9.08764 25.6275 8.99288 25.7459C8.89812 25.8644 8.82704 26.0065 8.82704 26.1487C8.80335 26.4329 8.85073 26.7409 8.96919 27.0015C9.11133 27.2147 9.32454 27.3806 9.58513 27.4042C9.86941 27.4516 10.1537 27.4279 10.438 27.3569C10.5091 27.3332 10.5801 27.3095 10.6512 27.2858C10.7223 27.2621 10.7696 27.2384 10.8407 27.191C10.9592 27.12 11.0539 27.0015 11.1013 26.8831C11.2198 26.5988 11.2198 26.2908 11.0776 26.0065C11.0065 25.8644 10.9118 25.7222 10.7933 25.6275C10.6512 25.509 10.4854 25.438 10.3432 25.4143ZM10.3432 25.4143C10.6749 25.4616 10.9829 25.6512 11.1487 25.9354C11.3382 26.2197 11.4093 26.5988 11.3382 26.9304C11.2908 27.12 11.1961 27.2858 11.0539 27.4279C10.9829 27.499 10.9118 27.5464 10.817 27.5938C10.746 27.6411 10.6512 27.6648 10.5801 27.7122C10.2485 27.8544 9.86942 27.9017 9.51406 27.8544C9.32454 27.807 9.13502 27.7359 8.96919 27.6175C8.80335 27.499 8.6849 27.3332 8.61383 27.1436C8.49538 26.7883 8.49538 26.4093 8.61383 26.0776C8.66121 25.9118 8.77966 25.7459 8.92181 25.6275C9.06395 25.509 9.22978 25.438 9.39561 25.4143C9.70358 25.3432 10.0116 25.3432 10.3432 25.4143Z" fill="white"/>
<path d="M10.2722 24.8696C9.70362 24.7748 8.92184 24.8222 8.56649 25.3671C8.16375 25.9593 8.32959 26.8596 8.75601 27.4044C9.18243 27.9493 9.84576 28.0441 10.4617 27.9256C10.7697 27.8782 11.0777 27.7598 11.3146 27.5466C11.5278 27.3334 11.6462 27.0254 11.6462 26.7174C11.6699 26.2673 11.5278 25.8409 11.2435 25.4855C11.0303 25.1539 10.6749 24.9406 10.2722 24.8696C9.9879 24.8222 9.82207 25.1065 9.86945 25.3434C9.89314 25.6514 10.1064 25.8883 10.4143 25.9593C10.4617 25.9593 10.5091 25.983 10.5565 25.983C10.4143 25.9356 10.6038 26.0067 10.6038 26.0067C10.6038 26.0067 10.5091 25.9356 10.5802 25.983C10.6038 26.0067 10.6275 26.0067 10.6275 26.0304C10.6038 26.0304 10.5328 25.9356 10.6038 26.0067L10.6749 26.0778C10.7223 26.1252 10.6038 25.9593 10.6512 26.0304C10.6512 26.0541 10.6749 26.0778 10.6986 26.1015C10.746 26.1725 10.6512 25.983 10.6749 26.0541C10.6749 26.0778 10.6986 26.1015 10.6986 26.1252C10.6986 26.1489 10.6986 26.1725 10.7223 26.1725C10.6749 26.1252 10.6986 26.0778 10.7223 26.1488C10.7223 26.1725 10.7223 26.1962 10.7223 26.2199C10.7223 26.2436 10.7223 26.2673 10.7223 26.2673C10.7223 26.3147 10.7223 26.291 10.7223 26.2199C10.746 26.2436 10.7223 26.3384 10.7223 26.3621C10.7223 26.3858 10.746 26.3858 10.7223 26.3384C10.7223 26.3621 10.7223 26.3858 10.6986 26.4094C10.6986 26.4331 10.6986 26.4331 10.6749 26.4568C10.6749 26.4805 10.6275 26.5279 10.6749 26.4805C10.7223 26.4331 10.6749 26.4805 10.6512 26.5042C10.6275 26.5279 10.6038 26.5516 10.6038 26.5753C10.5328 26.6463 10.6038 26.5516 10.6275 26.5753L10.5802 26.6227L10.4617 26.67L10.3906 26.6937L10.2248 26.7411C10.1064 26.7648 10.0116 26.7885 9.89314 26.7885C9.84576 26.7885 9.79838 26.7885 9.751 26.7885C9.77469 26.7885 9.82207 26.7885 9.751 26.7885H9.63255C9.58517 26.7885 9.53779 26.7648 9.49041 26.7648C9.44303 26.7648 9.5141 26.7648 9.5141 26.7648C9.5141 26.7648 9.44303 26.7411 9.46672 26.7411C9.49041 26.7411 9.34827 26.67 9.41934 26.7174C9.49041 26.7648 9.37196 26.67 9.34826 26.67C9.44303 26.7174 9.41934 26.7411 9.39565 26.6937C9.37196 26.67 9.37196 26.67 9.34826 26.6463C9.41934 26.7174 9.41934 26.7411 9.39565 26.6937C9.34827 26.599 9.41934 26.7174 9.41934 26.7411C9.41934 26.6937 9.37196 26.6463 9.37196 26.599C9.37196 26.5753 9.37196 26.5516 9.34826 26.5279C9.37196 26.5753 9.37196 26.6227 9.34826 26.5279C9.32457 26.4331 9.34827 26.4331 9.32458 26.3621C9.30088 26.291 9.32458 26.4568 9.32458 26.3858C9.32458 26.3621 9.32458 26.3384 9.32458 26.3147C9.32458 26.291 9.32458 26.2673 9.32458 26.2436C9.32458 26.1962 9.32458 26.291 9.32458 26.2673C9.32458 26.2436 9.41934 26.0541 9.34826 26.1725C9.37196 26.1252 9.41934 26.0778 9.44303 26.0304C9.37196 26.0778 9.46672 25.983 9.44303 26.0304C9.5141 25.983 9.49041 26.0067 9.5141 25.983C9.53779 25.9593 9.60886 25.9356 9.65624 25.9119C9.58517 25.9356 9.70362 25.8883 9.65624 25.9119L9.751 25.8883C9.86945 25.8646 10.0116 25.8409 10.13 25.8409C10.1774 25.8409 10.13 25.8409 10.1064 25.8409H10.2248C10.2959 25.8409 10.3669 25.8646 10.4143 25.8646C10.6275 25.8883 10.8171 25.7224 10.8171 25.5092C10.8171 25.4618 10.8171 25.4145 10.8171 25.3908C10.7697 25.1776 10.5565 24.9406 10.2722 24.8696Z" fill="white"/>
<path d="M10.4142 25.9594C10.4379 25.9594 10.6037 26.0067 10.4853 25.9594C10.5327 25.983 10.58 26.0067 10.6274 26.0304C10.6274 26.0304 10.6985 26.0778 10.6511 26.0304C10.6037 25.983 10.6511 26.0304 10.6748 26.0541L10.7459 26.1015C10.6748 26.0067 10.7932 26.1489 10.7459 26.1015C10.7696 26.1252 10.7696 26.1489 10.7932 26.1726C10.7932 26.1726 10.7222 26.0778 10.7696 26.1252C10.8169 26.1726 10.8169 26.22 10.8643 26.2673C10.9117 26.3147 10.8169 26.1726 10.8643 26.2436L10.888 26.3147C10.9117 26.3384 10.9117 26.3621 10.9117 26.4095C10.9117 26.291 10.9117 26.3858 10.9117 26.4095C10.9117 26.4332 10.9117 26.4805 10.9117 26.5042C10.9117 26.4332 10.9117 26.5753 10.9117 26.5042C10.9117 26.5753 10.9117 26.6227 10.888 26.6701C10.888 26.6464 10.9117 26.599 10.888 26.6701C10.888 26.6938 10.8643 26.7174 10.8643 26.7411C10.8643 26.7648 10.8406 26.7885 10.8169 26.8122C10.8406 26.7648 10.8169 26.8122 10.7932 26.8359C10.7459 26.907 10.6748 26.978 10.58 27.0254C10.4853 27.0965 10.3668 27.1439 10.2484 27.1676C10.201 27.1913 10.1773 27.1913 10.1299 27.1913L9.9404 27.2386L9.77457 27.2623H9.65612C9.56136 27.2623 9.75088 27.2623 9.60874 27.2623C9.53767 27.2623 9.4666 27.2386 9.41922 27.2386L9.34814 27.2149C9.27707 27.1912 9.39552 27.2386 9.34814 27.2149C9.30076 27.1912 9.25338 27.1676 9.206 27.1439C9.11124 27.0965 9.18231 27.1439 9.206 27.1439C9.22969 27.1439 9.08755 27.0491 9.15862 27.1202C9.22969 27.1676 9.15862 27.1202 9.13493 27.0965L9.08755 27.0254C9.04017 26.9543 9.13493 27.1202 9.11124 27.0491C9.11124 27.0254 9.08755 27.0017 9.08755 27.0017C9.08755 26.978 9.06386 26.9543 9.04017 26.9307C9.04017 26.8833 9.04017 26.8596 9.01648 26.8122C8.99279 26.7648 9.01648 26.7411 9.01648 26.7174C9.01648 26.6938 9.01648 26.7174 9.01648 26.7411C9.01648 26.6701 9.01648 26.599 9.04017 26.5516C9.06386 26.5042 9.04017 26.4805 9.06386 26.4569C9.06386 26.4805 9.04017 26.5279 9.06386 26.4332C9.08755 26.3621 9.11124 26.3147 9.13493 26.2673C9.11124 26.3384 9.13493 26.2673 9.15862 26.2436C9.18231 26.22 9.206 26.1726 9.22969 26.1489L9.30076 26.0778C9.32445 26.0541 9.32445 26.0541 9.30076 26.0778L9.34814 26.0541C9.39552 26.0304 9.4666 25.983 9.51398 25.9594C9.4666 25.983 9.58505 25.9357 9.51398 25.9594C9.53767 25.9594 9.58505 25.9357 9.60874 25.9357C9.84564 25.8883 10.1299 25.8883 10.4142 25.9594C10.6511 25.9594 10.8406 25.7935 10.8406 25.5803C10.8406 25.5329 10.8406 25.4856 10.8406 25.4619C10.8169 25.1539 10.6037 24.917 10.2958 24.8459C9.60874 24.7275 8.75589 24.7512 8.32947 25.4145C8.11625 25.7698 8.02149 26.1963 8.06887 26.6227C8.09256 27.0491 8.25839 27.4518 8.51899 27.7835C9.04017 28.3758 9.86933 28.589 10.6037 28.3284C10.9591 28.2336 11.2671 28.0678 11.5276 27.8072C11.7645 27.4992 11.883 27.0965 11.8356 26.7174C11.7882 25.8646 11.1486 25.0117 10.2721 24.8933C10.0589 24.8696 9.86933 25.0354 9.86933 25.2487C9.86933 25.296 9.86933 25.3434 9.86933 25.3671C9.89302 25.6514 10.1062 25.8883 10.4142 25.9594Z" fill="white"/>
<path d="M0.725069 10.229H35.1707V17.6204C35.1707 17.6204 0.84352 17.7389 0.725069 17.1229C0.606618 16.507 0.725069 10.229 0.725069 10.229Z" fill="#196F3A"/>
<path d="M0.84336 10.6078H33.8912C34.3413 10.6078 34.7915 10.6315 35.2416 10.6078H35.289L34.5782 10.1814V17.5727L35.052 17.2647C33.5122 17.2647 31.9723 17.2647 30.4325 17.2647C26.95 17.2647 23.4675 17.2647 19.9851 17.241C16.1946 17.2174 12.3805 17.1937 8.59006 17.1463H8.28209H8.09257L7.45293 17.1226L6.29211 17.0989C5.62879 17.0752 4.94177 17.0752 4.25475 17.0515C3.30714 17.0278 2.35953 17.0041 1.41193 16.9094C1.29347 16.9094 1.15133 16.8857 1.03288 16.862C0.84336 16.8383 1.10395 16.8857 1.05657 16.862C1.03288 16.862 0.985501 16.8383 0.961811 16.8383C1.03288 16.8146 1.19871 16.9568 1.24609 17.0278C1.24609 17.0278 1.34085 17.1463 1.29347 17.0752C1.29347 17.0515 1.29347 17.0515 1.29347 17.0278C1.26978 17.0752 1.29347 17.1226 1.29347 17.0278C1.26978 16.7199 1.26978 16.4119 1.26978 16.1039C1.24609 14.3035 1.26978 12.503 1.31716 10.7025V10.3235C1.31716 9.80231 0.156343 9.70755 0.132653 10.205C0.108962 11.7212 0.0852725 13.2374 0.0852725 14.7299C0.0852725 15.4643 0.061582 16.2224 0.132653 16.9568C0.180033 17.4069 0.488006 17.5253 0.89074 17.5964C1.62514 17.6912 2.33584 17.7622 3.07024 17.7622C4.42058 17.8096 5.77093 17.857 7.14496 17.8807C8.94542 17.9281 10.7459 17.9518 12.5463 17.9518C14.5126 17.9754 16.4789 17.9754 18.4452 17.9991C20.4115 17.9991 22.3778 18.0228 24.3204 18.0228C26.0498 18.0228 27.7791 18.0228 29.4848 18.0228C30.7641 18.0228 32.0434 18.0228 33.3227 18.0228C33.9386 18.0228 34.5782 18.0465 35.1942 18.0228H35.289C35.4548 18.0228 35.7628 17.9044 35.7628 17.7149V10.3235C35.7628 9.96814 35.3126 9.87338 35.052 9.87338H4.82332C3.44928 9.87338 2.05156 9.826 0.653838 9.87338H0.606457C0.393245 9.87338 0.0852723 10.0392 0.156343 10.2998C0.227414 10.5604 0.606457 10.6078 0.84336 10.6078Z" fill="#000005"/>
<path d="M54.715 0.51593L35.1469 10.2289V17.6203C35.1469 17.6203 54.8334 8.14418 54.715 7.40979C54.5965 6.67539 54.715 0.51593 54.715 0.51593Z" fill="white"/>
<path d="M54.4306 0.0660706L52.488 1.03737L47.8211 3.35901L42.1591 6.17815L37.2789 8.59455C36.4971 8.99729 35.668 9.35264 34.9099 9.77906L34.8862 9.80275C34.7204 9.87383 34.6019 10.0633 34.5782 10.2529V17.6442C34.5782 18.0943 35.1231 18.2602 35.4784 18.0943C36.5208 17.5968 37.5632 17.0993 38.5819 16.5782C40.8561 15.4647 43.1304 14.3513 45.4046 13.2141C47.6552 12.077 49.9058 10.9399 52.1327 9.73168C52.8671 9.32895 53.6015 8.92622 54.3122 8.4761C54.6438 8.26289 55.3545 7.90754 55.3545 7.43373C55.3545 7.41004 55.3309 7.19683 55.3545 7.33897C55.3545 7.45742 55.3545 7.38635 55.3545 7.36266C55.3545 7.33897 55.3545 7.29159 55.3545 7.2679C55.3545 7.17314 55.3545 7.07838 55.3309 7.00731C55.3309 6.77041 55.3072 6.5335 55.3072 6.2966C55.3072 5.63328 55.3072 4.94626 55.3072 4.28293C55.3072 3.09842 55.3309 1.9376 55.3545 0.753088C55.3545 0.682017 55.3545 0.610946 55.3545 0.539875C55.3782 -0.123451 54.1937 -0.147141 54.17 0.539875C54.1227 2.672 54.0516 4.82781 54.1463 6.98362C54.1463 7.12576 54.1463 7.2679 54.17 7.41004C54.2174 7.7654 54.17 7.43373 54.17 7.43373C54.17 7.29159 54.1937 7.2679 54.1937 7.31528C54.1937 7.36266 54.2174 7.29159 54.2174 7.2679C54.2174 7.22052 54.2648 7.19683 54.2411 7.22052C54.2174 7.24421 54.2648 7.19683 54.2648 7.19683C54.2648 7.17314 54.3122 7.14945 54.2411 7.22052L54.1463 7.29159C54.0516 7.36266 53.9568 7.43373 53.8858 7.48111C53.7436 7.57587 54.0042 7.41004 53.8384 7.52849L53.6488 7.64694L53.1987 7.90754C52.8197 8.12075 52.4406 8.33396 52.0616 8.54717C49.9295 9.73168 47.7737 10.8214 45.5942 11.9112C43.2962 13.072 40.9983 14.2091 38.7003 15.3226C37.8712 15.7253 37.042 16.128 36.2128 16.5308C35.8101 16.7203 35.3837 16.9098 35.0046 17.123L34.9573 17.1467L35.8338 17.5968V10.1818L35.5495 10.6319L37.4921 9.66061L42.1591 7.33897L47.8211 4.51983L52.7012 2.10343C53.483 1.7007 54.3122 1.34534 55.0703 0.918919L55.094 0.895229C55.7099 0.610946 55.0466 -0.241902 54.4306 0.0660706Z" fill="#000005"/>
<path d="M0.724884 10.2289L19.7955 0.51593H54.7149L35.1705 10.2289H0.724884Z" fill="#000005"/>
<path d="M1.12754 10.5844L3.02276 9.63676L7.57128 7.31512L13.0911 4.49598L17.8528 2.07958L19.4164 1.27411C19.677 1.15566 19.9139 1.03721 20.1745 0.895066L20.1982 0.871376L19.9613 0.918756H53.4593C53.9094 0.918756 54.3832 0.942446 54.8333 0.918756C54.857 0.918756 54.8807 0.918756 54.8807 0.918756L54.3121 0.160669L52.3695 1.10828L47.7025 3.42992L42.0406 6.24906L37.1604 8.66546L35.5494 9.47093C35.2888 9.58938 35.0283 9.70783 34.7914 9.84997L34.7677 9.87366L35.0046 9.82628H4.77584C3.37811 9.82628 2.00408 9.7789 0.606357 9.82628H0.558977C0.322075 9.82628 0.0851722 9.99211 0.179933 10.2527C0.322074 10.5133 0.606357 10.6791 0.89064 10.6554H35.1704C35.3836 10.6554 35.5968 10.6081 35.7863 10.5133L37.3262 9.75521L43.4857 6.69917L50.6164 3.16933L54.9517 1.01352L55.1413 0.871376C55.2834 0.800305 55.3545 0.610784 55.2597 0.468643C55.236 0.444952 55.236 0.421261 55.2123 0.397571C55.0465 0.208049 54.8096 0.0895976 54.549 0.0895976H19.9139C19.7007 0.0659073 19.4875 0.113288 19.2979 0.184359C18.8478 0.397571 18.4214 0.634474 17.9713 0.871376L12.025 3.90373L4.91798 7.52833L0.535286 9.75521L0.322075 9.87366C0.0614821 9.99211 0.156243 10.3001 0.345765 10.4422C0.558977 10.6318 0.86695 10.6791 1.12754 10.5844Z" fill="#000005"/>
<path d="M24.0597 13.5221C24.4388 13.4274 24.8415 13.38 25.2442 13.3326C25.647 13.3089 26.026 13.2852 26.4288 13.2852C26.8315 13.2852 27.2105 13.3089 27.6133 13.3326C28.016 13.3563 28.4187 13.4274 28.7978 13.5221C28.4187 13.6169 28.016 13.688 27.6133 13.7116C27.2105 13.7353 26.8315 13.759 26.4288 13.759C26.026 13.759 25.647 13.7353 25.2442 13.7116C24.8415 13.688 24.4388 13.6169 24.0597 13.5221Z" fill="white"/>
<path d="M23.6571 13.8298C24.4389 13.664 25.2206 13.5692 26.0261 13.5929C26.8079 13.5929 27.5897 13.664 28.3478 13.8298L29.2243 13.2139C28.4425 13.3797 27.6607 13.4745 26.8553 13.4508C26.0735 13.4508 25.2917 13.3797 24.5336 13.2139C24.4626 13.1902 24.3204 13.2849 24.273 13.3086C24.1309 13.3797 24.0124 13.4508 23.8703 13.5218C23.8229 13.5455 23.4676 13.8061 23.586 13.8535C24.3915 14.0193 25.197 14.1141 26.0024 14.0904C26.8079 14.1141 27.6134 14.0193 28.3951 13.8535C28.632 13.7824 28.8452 13.664 29.0585 13.5218C29.1058 13.4982 29.4138 13.2612 29.2954 13.2376C28.4899 13.0717 27.6844 12.977 26.879 13.0007C26.0735 12.977 25.268 13.0717 24.4862 13.2376C24.2257 13.3086 23.9888 13.4508 23.7755 13.6166C23.7045 13.6403 23.4202 13.9009 23.6571 13.8298Z" fill="white"/>
<path d="M5.62887 12.6929C5.62887 12.6929 3.94687 12.3375 3.94687 13.7115C3.94687 15.0856 5.20245 15.1093 6.0553 14.6828C6.90815 14.2564 6.57648 12.8113 5.62887 12.6929Z" fill="#000005"/>
<path d="M6.03141 12.5746C5.48654 12.4798 4.94166 12.4798 4.42048 12.5982C4.08881 12.6456 3.80453 12.8115 3.59132 13.0484C3.4018 13.3326 3.33073 13.6643 3.37811 13.996C3.4018 14.3276 3.56763 14.6119 3.82822 14.8014C4.18357 15.0146 4.61 15.1094 5.01273 15.0857C5.51023 15.0857 6.00772 14.991 6.45784 14.8014C6.76581 14.683 7.00271 14.4461 7.09747 14.1381C7.19223 13.8064 7.14485 13.4748 6.97902 13.1668C6.88426 13.001 6.76581 12.8825 6.62367 12.7641C6.41045 12.6219 6.17355 12.5509 5.91296 12.5272C5.77082 12.5035 5.60499 12.5035 5.46285 12.5272C5.34439 12.5272 5.22594 12.5746 5.10749 12.6219C4.89428 12.7404 5.24963 12.8115 5.3207 12.8115C5.17856 12.7878 5.24963 12.8115 5.27332 12.8115C5.29701 12.8115 5.29701 12.8351 5.24963 12.8115C5.27332 12.8351 5.29701 12.8351 5.34439 12.8351L5.39177 12.8588C5.34439 12.8351 5.43916 12.8825 5.39177 12.8588C5.41547 12.8825 5.46285 12.9062 5.48654 12.9062C5.60499 12.9773 5.69975 13.072 5.77082 13.1905C5.91296 13.4037 5.96034 13.6643 5.96034 13.9249C5.96034 14.1855 5.84189 14.4224 5.65237 14.5882L5.60499 14.6119L5.51023 14.6593L5.43916 14.683H5.46285C5.43916 14.683 5.41547 14.7067 5.39177 14.7067L5.29701 14.7304H5.24963C5.17856 14.7541 5.34439 14.7067 5.29701 14.7304L5.20225 14.7541C5.0838 14.7777 5.34439 14.7304 5.20225 14.7541H5.15487C5.0838 14.7541 5.3207 14.7304 5.22594 14.7541C5.13118 14.7777 5.36808 14.7541 5.27332 14.7541H5.22594C5.15487 14.7541 5.39177 14.7777 5.29701 14.7541H5.24963C5.17856 14.7541 5.20225 14.7304 5.29701 14.7541C5.27332 14.7541 5.22594 14.7304 5.20225 14.7304C5.13118 14.7067 5.27332 14.7541 5.17856 14.7304L5.10749 14.7067L5.06011 14.683C5.01273 14.6593 5.10749 14.7067 5.06011 14.683C4.8469 14.5408 4.68107 14.3276 4.61 14.0907C4.51524 13.7828 4.53893 13.4748 4.65738 13.1668C4.70476 13.072 4.77583 13.001 4.8469 12.9062L4.89428 12.8588C4.94166 12.8115 4.8469 12.8825 4.91797 12.8351L4.96535 12.8115C4.98904 12.8115 5.0838 12.7641 5.01273 12.7878C4.94166 12.8115 5.03642 12.7878 5.06011 12.7641H5.0838C5.15487 12.7404 4.96535 12.7878 5.03642 12.7878L5.10749 12.7641C4.89428 12.8115 5.01273 12.7878 5.06011 12.7641C5.10749 12.7404 5.17856 12.7641 4.96535 12.7641H5.01273C5.06011 12.7641 5.17856 12.7641 4.94166 12.7641H5.01273C5.03642 12.7641 5.15487 12.7641 5.01273 12.7641C4.87059 12.7641 5.03642 12.7641 5.0838 12.7641H5.13118C5.22594 12.7641 5.01273 12.7404 5.06011 12.7641C5.10749 12.7878 5.13118 12.7641 5.15487 12.7878C5.43916 12.8351 5.72344 12.8351 5.98403 12.7404C6.03141 12.7167 6.14986 12.693 6.14986 12.6219C6.14986 12.5509 6.0551 12.5746 6.03141 12.5746Z" fill="#000005"/>
<path d="M10.3668 12.6926C10.0351 12.6215 9.72714 12.6452 9.39548 12.7637C9.25334 12.811 9.1112 12.9058 9.01644 13.0243C8.92167 13.1427 8.87429 13.2848 8.8506 13.427C8.82691 13.7113 8.87429 14.0192 8.99275 14.2798C9.13489 14.493 9.3481 14.6589 9.60869 14.6826C9.89297 14.7299 10.1773 14.7063 10.4615 14.6352L10.6748 14.5641C10.7458 14.5404 10.7932 14.5167 10.8643 14.4694C10.9827 14.3983 11.0775 14.2798 11.1249 14.1614C11.3144 13.7113 11.1722 13.1901 10.8169 12.8821C10.6748 12.7873 10.5326 12.7163 10.3668 12.6926ZM10.3668 12.6926C10.6984 12.74 10.9827 12.9295 11.1722 13.2138C11.3618 13.4981 11.4328 13.8771 11.3618 14.2088C11.3144 14.3983 11.2196 14.5641 11.0775 14.7063C11.0064 14.7773 10.9353 14.8247 10.8406 14.8721C10.7695 14.9195 10.6748 14.9432 10.6037 14.9905C10.272 15.1327 9.89297 15.1801 9.53762 15.1327C9.3481 15.0853 9.15858 15.0142 8.99275 14.8958C8.82691 14.7773 8.70846 14.6115 8.63739 14.422C8.51894 14.0666 8.51894 13.6876 8.63739 13.3559C8.68477 13.1901 8.80322 13.0243 8.94536 12.9058C9.08751 12.811 9.25334 12.7163 9.41917 12.6926C9.72714 12.6215 10.0588 12.6215 10.3668 12.6926Z" fill="white"/>
<path d="M10.2484 12.4561C9.91671 12.385 9.56136 12.385 9.20601 12.4561C8.92172 12.5035 8.63744 12.622 8.44792 12.8589C8.28209 13.0721 8.21102 13.3564 8.2584 13.6169C8.28209 13.9012 8.37685 14.1618 8.56637 14.375C8.82696 14.6119 9.13494 14.7778 9.49029 14.8488C9.86933 14.9436 10.2484 14.9436 10.6274 14.8962C10.9354 14.8725 11.2197 14.7541 11.4566 14.6119C11.6461 14.4461 11.7646 14.2092 11.7882 13.9486C11.8119 13.6406 11.7172 13.3327 11.504 13.0958C11.2197 12.7641 10.8406 12.5509 10.3905 12.5035C10.2484 12.4798 10.1062 12.4561 9.9641 12.4798C9.91671 12.4798 9.77457 12.5035 9.75088 12.5746C9.7035 12.7641 10.1773 12.9062 10.2721 12.9062L10.3431 12.9299C10.4379 12.9536 10.3194 12.9299 10.2958 12.9062C10.3905 12.9299 10.2721 12.9062 10.2721 12.8825H10.2484C10.2721 12.9062 10.2958 12.9062 10.2484 12.8825C10.2721 12.9062 10.2958 12.9062 10.2958 12.9299C10.3194 12.9536 10.3668 13.001 10.3905 13.0484C10.4853 13.2142 10.5564 13.4037 10.5564 13.5933C10.5564 13.7828 10.509 13.9723 10.3905 14.1144C10.2721 14.2566 10.1062 14.3276 9.9404 14.3513L9.86933 14.375C9.86933 14.375 9.79826 14.3987 9.84564 14.375C9.79826 14.3987 9.72719 14.3987 9.67981 14.3987C9.63243 14.3987 9.49029 14.3987 9.60874 14.3987H9.53767C9.51398 14.3987 9.39553 14.375 9.49029 14.3987C9.58505 14.4224 9.39553 14.375 9.51398 14.3987C9.67981 14.4461 9.60874 14.4224 9.56136 14.4224C9.4666 14.3987 9.60874 14.4461 9.60874 14.4461C9.53767 14.4224 9.63243 14.4461 9.63243 14.4698C9.60874 14.4461 9.60874 14.4461 9.58505 14.4461C9.60874 14.4698 9.63243 14.4698 9.58505 14.4461L9.51398 14.375C9.51398 14.375 9.4666 14.3276 9.51398 14.3513L9.4666 14.304C9.44291 14.2566 9.41922 14.2092 9.41922 14.1855C9.39553 14.1144 9.37184 14.0197 9.34815 13.9249C9.30077 13.7117 9.32446 13.4985 9.41922 13.309C9.51398 13.1431 9.67981 13.001 9.86933 12.9773L9.9404 12.9536C9.86933 12.9773 9.98778 12.9536 9.98778 12.9536C10.0352 12.9536 10.1062 12.9299 10.1536 12.9299C10.0115 12.9299 10.2721 12.9299 10.2721 12.9299C10.2721 12.9299 10.1299 12.9062 10.2484 12.9299L10.3668 12.9536C10.4616 12.9773 10.9117 13.001 10.8169 12.7878C10.7933 12.693 10.6511 12.6456 10.58 12.5983C10.5564 12.5272 10.4142 12.4798 10.2484 12.4561Z" fill="white"/>
<path d="M10.4616 12.9296C10.3195 12.9059 10.3905 12.9059 10.4142 12.9296C10.3905 12.9296 10.2721 12.8822 10.3905 12.9296H10.3669C10.3195 12.9059 10.3195 12.9059 10.3669 12.9296C10.2721 12.8822 10.4379 12.9532 10.3669 12.9296L10.3905 12.9532C10.3669 12.9296 10.4142 12.9769 10.4379 12.9769C10.4853 13.0243 10.5327 13.0717 10.5564 13.1191C10.6748 13.2849 10.7696 13.4981 10.7933 13.7113C10.817 13.9482 10.7696 14.1851 10.6511 14.3984C10.509 14.5642 10.3432 14.7063 10.13 14.7774C10.0352 14.8248 9.91674 14.8485 9.82198 14.8722C9.7746 14.8722 9.70353 14.8958 9.65615 14.8958C9.65615 14.8958 9.5377 14.8958 9.58508 14.8958C9.56139 14.8958 9.5377 14.8958 9.49032 14.8958C9.51401 14.8958 9.56139 14.9195 9.49032 14.8958C9.51401 14.8958 9.60877 14.9195 9.51401 14.8958C9.51401 14.8958 9.63246 14.9195 9.56139 14.8958C9.49032 14.8722 9.63246 14.9432 9.56139 14.8958C9.56139 14.8958 9.46663 14.8485 9.51401 14.8722C9.56139 14.8958 9.49032 14.8485 9.49032 14.8485C9.44294 14.8248 9.41925 14.7774 9.39556 14.7537C9.08759 14.3984 9.0639 13.8061 9.25342 13.3797C9.34818 13.1428 9.56139 12.9769 9.79829 12.9059C9.84567 12.8822 9.89305 12.8822 9.94043 12.8822H10.0352C10.201 12.8585 9.98782 12.8822 10.0826 12.8822H10.1773C10.2247 12.8822 10.2958 12.8822 10.2247 12.8822C10.3195 12.8822 10.3906 12.9059 10.4616 12.9296C10.5801 12.9296 11.0065 12.9532 10.9354 12.7637C10.8644 12.5742 10.4379 12.4794 10.2721 12.4558C9.60877 12.3373 8.66116 12.3136 8.21105 12.9296C7.83201 13.4981 7.90308 14.2562 8.35319 14.7774C8.66116 15.0617 9.04021 15.2512 9.46663 15.3223C9.91674 15.417 10.3669 15.417 10.817 15.2986C11.1249 15.2275 11.4329 15.0854 11.6698 14.8485C11.9067 14.6116 12.0015 14.2799 11.9778 13.9719C11.9541 13.6166 11.7883 13.2849 11.5514 13.0243C11.196 12.6927 10.7459 12.5031 10.2721 12.4558C10.1773 12.4321 9.72722 12.4084 9.79829 12.6216C9.86936 12.8348 10.2958 12.9059 10.4616 12.9296Z" fill="white"/>
</svg>
