<svg width="156" height="156" viewBox="0 0 156 156" fill="none" xmlns="http://www.w3.org/2000/svg">
<rect width="156" height="156" rx="12" fill="#82A77C"/>
<path d="M72.6167 106.5H55.8333C54.1536 106.5 52.5427 105.833 51.355 104.645C50.1673 103.457 49.5 101.846 49.5 100.167V55.8333C49.5 54.1536 50.1673 52.5427 51.355 51.355C52.5427 50.1673 54.1536 49.5 55.8333 49.5H100.167C101.846 49.5 103.457 50.1673 104.645 51.355C105.833 52.5427 106.5 54.1536 106.5 55.8333V87.5L96.6833 77.6833C95.4917 76.5154 93.8873 75.8649 92.2187 75.8732C90.5502 75.8815 88.9523 76.5479 87.7723 77.7277L59 106.5" stroke="#97C290" stroke-width="6.33333" stroke-linecap="round" stroke-linejoin="round"/>
<path d="M84.334 101.75L93.834 92.25L103.334 101.75" stroke="#97C290" stroke-width="6.33333" stroke-linecap="round" stroke-linejoin="round"/>
<path d="M93.834 109.667V92.25" stroke="#97C290" stroke-width="6.33333" stroke-linecap="round" stroke-linejoin="round"/>
<path d="M68.4993 74.8327C71.9972 74.8327 74.8327 71.9972 74.8327 68.4993C74.8327 65.0015 71.9972 62.166 68.4993 62.166C65.0015 62.166 62.166 65.0015 62.166 68.4993C62.166 71.9972 65.0015 74.8327 68.4993 74.8327Z" stroke="#97C290" stroke-width="6.33333" stroke-linecap="round" stroke-linejoin="round"/>
</svg>
