<svg width="110" height="110" viewBox="0 0 110 110" fill="none" xmlns="http://www.w3.org/2000/svg">
<path d="M35.948 64.174C35.948 64.174 50.138 73.282 51.26 73.282C52.382 73.282 68.2 64.306 67.738 63.602C67.276 62.898 52.624 55.286 51.26 55.286C49.896 55.286 36.124 63.118 35.948 64.174Z" fill="#196F3A"/>
<path d="M35.948 64.174C35.948 64.174 35.486 79.64 35.948 81.18C36.41 82.72 51.854 91.564 51.854 91.564L51.26 73.26L35.948 64.174Z" fill="#196F3A"/>
<mask id="mask0_2032_2327" style="mask-type:luminance" maskUnits="userSpaceOnUse" x="35" y="64" width="17" height="28">
<path d="M35.97 64.174C35.97 64.174 35.508 79.64 35.97 81.18C36.432 82.72 51.876 91.564 51.876 91.564L51.282 73.26L35.97 64.174Z" fill="white"/>
</mask>
<g mask="url(#mask0_2032_2327)">
<path d="M54.78 115.06C54.758 115.06 54.736 115.06 54.714 115.038L-1.01204 79.1559C-1.05604 79.1339 -1.07804 79.0679 -1.05604 79.0019C-1.03404 78.9579 -0.946036 78.9359 -0.902036 78.9799L54.824 114.884C54.868 114.906 54.89 114.994 54.846 115.038C54.846 115.038 54.824 115.06 54.78 115.06Z" fill="white"/>
<path d="M57.2 111.078C57.178 111.078 57.156 111.078 57.134 111.056L0.879993 76.2519C0.835993 76.2299 0.813993 76.1419 0.835993 76.0979C0.857993 76.0539 0.923993 76.0319 0.989993 76.0539L57.244 110.88C57.288 110.902 57.31 110.99 57.288 111.034C57.266 111.056 57.244 111.078 57.2 111.078Z" fill="white"/>
<path d="M59.444 107.382C59.422 107.382 59.4 107.382 59.378 107.36L2.85997 73.0179C2.81597 72.9959 2.79397 72.9299 2.81597 72.8639C2.83797 72.7979 2.90397 72.7979 2.96997 72.8199C2.96997 72.8199 2.96997 72.8199 2.99197 72.8199L59.488 107.184C59.532 107.206 59.554 107.294 59.532 107.338C59.51 107.36 59.466 107.382 59.444 107.382Z" fill="white"/>
<path d="M61.578 103.884C61.556 103.884 61.534 103.884 61.512 103.862L4.75197 69.8499C4.70797 69.8279 4.68597 69.7399 4.70797 69.6959C4.72997 69.6519 4.79597 69.6299 4.86197 69.6519L61.622 103.664C61.666 103.686 61.688 103.752 61.666 103.818C61.644 103.862 61.6 103.884 61.578 103.884Z" fill="white"/>
<path d="M63.866 100.1C63.844 100.1 63.822 100.1 63.822 100.078L6.40197 67.2099C6.35797 67.1879 6.33597 67.1219 6.35797 67.0559C6.37997 67.0119 6.44597 66.9899 6.51197 67.0119L63.932 99.8799C63.976 99.9019 63.998 99.9679 63.976 100.034C63.954 100.078 63.91 100.1 63.866 100.1Z" fill="white"/>
<path d="M65.846 96.8879C65.824 96.8879 65.802 96.8879 65.802 96.8659L8.16198 64.3499C8.11798 64.3279 8.09598 64.2619 8.11798 64.1959C8.13998 64.1519 8.20598 64.1299 8.27198 64.1519L65.912 96.6679C65.956 96.6899 65.978 96.7559 65.956 96.8219C65.912 96.8659 65.868 96.8879 65.846 96.8879Z" fill="white"/>
<path d="M67.078 94.8639C67.056 94.8639 67.034 94.8639 67.034 94.8419L9.26198 62.5239C9.21798 62.5019 9.19598 62.4359 9.21798 62.3699C9.23998 62.3259 9.30598 62.3039 9.37198 62.3259L67.144 94.6439C67.188 94.6659 67.21 94.7319 67.188 94.7979C67.144 94.8419 67.1 94.8639 67.078 94.8639Z" fill="white"/>
<path d="M68.134 93.1039C68.112 93.1039 68.09 93.1039 68.09 93.0819L10.648 60.2139C10.604 60.1919 10.582 60.1259 10.604 60.0599C10.626 59.9939 10.692 59.9939 10.758 60.0159L68.178 92.8839C68.222 92.9059 68.244 92.9719 68.222 93.0379C68.2 93.0819 68.178 93.1039 68.134 93.1039Z" fill="white"/>
<path d="M15.928 110.198C15.906 110.198 15.884 110.198 15.862 110.176C15.818 110.154 15.796 110.088 15.818 110.022L53.68 50.9739C53.702 50.9299 53.768 50.8859 53.834 50.9299C53.9 50.9739 53.922 51.0179 53.878 51.0839C53.878 51.0839 53.878 51.1059 53.856 51.1059L16.016 110.154C15.994 110.176 15.972 110.198 15.928 110.198Z" fill="white"/>
<path d="M13.09 108.328C13.068 108.328 13.046 108.328 13.024 108.306C12.98 108.284 12.958 108.218 12.98 108.152L49.808 48.6199C49.83 48.5759 49.896 48.5539 49.962 48.5759C50.006 48.5979 50.028 48.6639 50.006 48.7299L13.2 108.262C13.178 108.306 13.134 108.328 13.09 108.328Z" fill="white"/>
<path d="M9.94398 106.392C9.92198 106.392 9.89998 106.392 9.87798 106.37C9.83398 106.348 9.81198 106.282 9.83398 106.216L46.178 46.4199C46.2 46.3759 46.288 46.3539 46.332 46.3759C46.376 46.3979 46.398 46.4859 46.376 46.5299L10.032 106.348C10.01 106.392 9.96598 106.392 9.94398 106.392Z" fill="white"/>
<path d="M6.81999 104.544C6.79799 104.544 6.77599 104.544 6.75399 104.522C6.70999 104.5 6.68799 104.434 6.70999 104.368L42.724 44.3079C42.746 44.2639 42.812 44.2419 42.878 44.2639C42.922 44.2859 42.944 44.3739 42.922 44.4179L6.90799 104.5C6.88599 104.522 6.86399 104.544 6.81999 104.544Z" fill="white"/>
<path d="M4.24598 102.938C4.22398 102.938 4.20198 102.938 4.20198 102.916C4.15798 102.894 4.13598 102.828 4.15798 102.762L39.05 42.0639C39.072 42.0199 39.138 41.9979 39.204 42.0199C39.248 42.0419 39.27 42.1079 39.248 42.1739L4.33398 102.894C4.31198 102.916 4.26798 102.938 4.24598 102.938Z" fill="white"/>
<path d="M1.45198 101.222C1.42998 101.222 1.40798 101.222 1.40798 101.2C1.36398 101.178 1.34198 101.112 1.36398 101.046L35.904 40.1279C35.926 40.0839 35.992 40.0619 36.058 40.0839C36.102 40.1059 36.124 40.1719 36.102 40.2379L1.56198 101.156C1.51798 101.2 1.49598 101.222 1.45198 101.222Z" fill="white"/>
<path d="M60.434 87.3619C60.412 87.3619 60.39 87.3619 60.368 87.3399L14.608 57.5079C14.564 57.4639 14.542 57.3979 14.586 57.3539C14.63 57.3099 14.696 57.2879 14.74 57.3319L60.5 87.1639C60.544 87.2079 60.566 87.2739 60.522 87.3179C60.5 87.3399 60.478 87.3619 60.434 87.3619Z" fill="white"/>
<path d="M62.854 83.3799C62.832 83.3799 62.81 83.3799 62.788 83.3799L16.5 54.6039C16.456 54.5819 16.412 54.5159 16.456 54.4499C16.5 54.3839 16.544 54.3619 16.61 54.4059C16.61 54.4059 16.632 54.4059 16.632 54.4279L62.92 83.1819C62.964 83.2039 62.986 83.2699 62.964 83.3359C62.92 83.3579 62.876 83.3799 62.854 83.3799Z" fill="white"/>
<path d="M65.098 79.6839C65.076 79.6839 65.054 79.6839 65.032 79.6619L18.458 51.3699C18.414 51.3259 18.392 51.2599 18.436 51.2159C18.458 51.1719 18.524 51.1499 18.568 51.1719L65.142 79.4639C65.186 79.4859 65.208 79.5519 65.186 79.6179C65.164 79.6619 65.142 79.6839 65.098 79.6839Z" fill="white"/>
<path d="M67.232 76.1859C67.21 76.1859 67.188 76.1859 67.188 76.1639L20.372 48.2019C20.328 48.1799 20.306 48.0919 20.328 48.0479C20.35 48.0039 20.438 47.9819 20.482 48.0039L67.276 75.9659C67.32 75.9879 67.342 76.0539 67.32 76.1199C67.298 76.1639 67.254 76.1859 67.232 76.1859Z" fill="white"/>
<path d="M69.52 72.4019C69.498 72.4019 69.476 72.4019 69.476 72.3799L22 45.5619C21.956 45.5399 21.934 45.4739 21.956 45.4079C21.978 45.3639 22.044 45.3419 22.11 45.3639L69.586 72.1819C69.63 72.2039 69.652 72.2699 69.63 72.3359C69.608 72.3799 69.564 72.4019 69.52 72.4019Z" fill="white"/>
<path d="M71.478 69.1899C71.456 69.1899 71.434 69.1899 71.434 69.1679L23.76 42.7019C23.716 42.6799 23.694 42.6139 23.716 42.5479C23.738 42.5039 23.804 42.4819 23.87 42.5039L71.566 68.9699C71.61 68.9919 71.632 69.0579 71.61 69.1239C71.566 69.1679 71.522 69.1899 71.478 69.1899Z" fill="white"/>
<path d="M72.732 67.1659C72.71 67.1659 72.688 67.1659 72.688 67.1439L24.86 40.8759C24.816 40.8539 24.794 40.7879 24.816 40.7219C24.838 40.6779 24.904 40.6559 24.97 40.6779L72.776 66.9459C72.82 66.9679 72.842 67.0339 72.82 67.0999C72.798 67.1439 72.754 67.1659 72.732 67.1659Z" fill="white"/>
<path d="M73.788 65.4059C73.766 65.4059 73.744 65.4059 73.744 65.3839L26.268 38.5659C26.224 38.5439 26.202 38.4779 26.224 38.4119C26.246 38.3679 26.312 38.3459 26.378 38.3679L73.854 65.1859C73.898 65.2079 73.92 65.2739 73.898 65.3399C73.876 65.3839 73.832 65.4059 73.788 65.4059Z" fill="white"/>
<path d="M38.126 125.246C38.104 125.246 38.082 125.246 38.06 125.224C38.016 125.202 37.994 125.114 38.016 125.07L75.878 66.0219C75.9 65.9779 75.966 65.9559 76.032 65.9779C76.076 65.9999 76.098 66.0659 76.076 66.1319L38.214 125.18C38.192 125.224 38.148 125.246 38.126 125.246Z" fill="white"/>
<path d="M35.288 123.376C35.266 123.376 35.244 123.376 35.222 123.354C35.178 123.332 35.156 123.266 35.178 123.2L71.984 63.6679C72.006 63.6239 72.072 63.6019 72.138 63.6239C72.182 63.6459 72.204 63.7119 72.182 63.7779C72.182 63.7779 72.182 63.7779 72.182 63.7999L35.398 123.31C35.376 123.354 35.332 123.376 35.288 123.376Z" fill="white"/>
<path d="M32.12 121.44C32.098 121.44 32.076 121.44 32.076 121.418C32.032 121.396 32.01 121.33 32.032 121.264L68.376 61.4459C68.398 61.4019 68.464 61.3799 68.53 61.4019C68.574 61.4239 68.596 61.4899 68.574 61.5559L32.23 121.396C32.208 121.418 32.164 121.44 32.12 121.44Z" fill="white"/>
<path d="M29.018 119.592C28.996 119.592 28.974 119.592 28.952 119.57C28.908 119.548 28.886 119.482 28.908 119.416L64.922 59.3559C64.944 59.3119 65.032 59.2899 65.076 59.3119C65.12 59.3339 65.142 59.4219 65.12 59.4659L29.106 119.526C29.084 119.57 29.062 119.592 29.018 119.592Z" fill="white"/>
<path d="M26.444 117.986C26.422 117.986 26.4 117.986 26.4 117.964C26.356 117.942 26.334 117.876 26.356 117.81L61.248 57.1119C61.27 57.0679 61.336 57.0459 61.402 57.0679C61.468 57.0899 61.468 57.1559 61.446 57.2219L26.532 117.92C26.51 117.964 26.466 117.986 26.444 117.986Z" fill="white"/>
<path d="M23.65 116.27C23.628 116.27 23.606 116.27 23.606 116.248C23.562 116.226 23.54 116.16 23.562 116.094L58.102 55.1759C58.124 55.1319 58.19 55.1099 58.256 55.1319C58.322 55.1539 58.322 55.2199 58.3 55.2859L23.76 116.182C23.716 116.248 23.694 116.27 23.65 116.27Z" fill="white"/>
<path d="M21.846 115.17C21.824 115.17 21.802 115.17 21.802 115.148C21.758 115.126 21.736 115.06 21.758 114.994L56.122 53.9659C56.144 53.9219 56.21 53.8999 56.276 53.9219C56.32 53.9439 56.342 54.0099 56.32 54.0759L21.934 115.126C21.934 115.148 21.89 115.17 21.846 115.17Z" fill="white"/>
<path d="M19.58 113.806C19.558 113.806 19.536 113.806 19.536 113.784C19.492 113.762 19.47 113.696 19.492 113.63L54.384 52.9319C54.406 52.8879 54.472 52.8659 54.538 52.8879C54.604 52.9099 54.604 52.9759 54.582 53.0419L19.69 113.74C19.668 113.784 19.624 113.806 19.58 113.806Z" fill="white"/>
</g>
<path d="M58.014 63.668C56.892 61.82 52.316 63.096 52.316 63.096C52.316 63.096 54.142 59.246 51.018 59.972C49.742 60.302 48.51 60.808 47.366 61.468L46.068 60.302L45.452 60.94L46.53 61.93C46.024 62.216 45.584 62.502 45.188 62.766L43.868 61.952L42.9 62.48L44.198 63.448L43.868 63.69L51.304 68.068L54.34 70.004L55.418 69.102L54.076 68.266C54.428 68.046 54.846 67.782 55.242 67.474L56.628 68.266L57.288 67.584L56.1 66.814C57.42 65.78 58.542 64.548 58.014 63.668ZM54.934 64.922C54.934 65.824 52.976 67.452 52.976 67.452L50.314 65.692C52.58 63.558 54.934 64.02 54.934 64.922ZM51.282 62.7C51.282 63.602 49.324 65.23 49.324 65.23L46.662 63.47C48.928 61.336 51.282 61.798 51.282 62.7Z" fill="#000005"/>
<path d="M51.854 91.586L67.76 81.818V63.602L51.282 73.282L51.854 91.586Z" fill="#196F3A"/>
<path d="M51.194 34.078L65.538 25.652L51.194 18.414L37.202 26.202L51.194 34.078Z" fill="#196F3A"/>
<path d="M51.48 34.43L56.32 31.592L64.042 27.06L65.824 26.004C66.154 25.806 66.154 25.454 65.802 25.278L60.896 22.814L53.196 18.92C52.624 18.634 52.074 18.304 51.48 18.062C51.216 17.974 50.93 17.996 50.71 18.172L49.852 18.656L42.68 22.638C40.788 23.694 38.896 24.728 37.004 25.784L36.916 25.828C36.564 26.026 36.608 26.378 36.938 26.554L41.668 29.216L49.192 33.462L50.908 34.43C51.414 34.716 52.074 34.034 51.436 33.682L46.728 31.042L39.204 26.796L37.488 25.828L37.51 26.554L42.262 23.914L49.764 19.734L51.502 18.766L50.952 18.788L55.792 21.252L63.514 25.146L65.274 26.026L65.252 25.3L60.412 28.138L52.69 32.692L50.908 33.748C50.292 34.078 50.974 34.738 51.48 34.43Z" fill="#196F3A"/>
<path d="M51.7 50.006L51.194 34.078L65.538 25.652V41.492L51.7 50.006Z" fill="white"/>
<path d="M52.25 50.028L52.074 44.638L51.788 36.08L51.722 34.122L51.458 34.54L56.298 31.702L64.02 27.17L65.802 26.114L64.988 25.63V30.998V39.534V41.492L65.252 41.074L60.588 43.934L53.13 48.51L51.436 49.566C51.194 49.676 51.106 49.94 51.216 50.182C51.216 50.204 51.238 50.204 51.238 50.226C51.392 50.468 51.722 50.556 51.986 50.446L56.628 47.586L64.064 43.01L65.802 41.954C66.022 41.844 66.132 41.602 66.11 41.36V40.458V32.318C66.11 30.14 66.132 27.962 66.11 25.784C66.11 25.74 66.11 25.718 66.11 25.674C66.088 25.366 65.802 25.124 65.494 25.146C65.428 25.146 65.362 25.168 65.296 25.19L60.456 28.028L52.734 32.56L50.952 33.616C50.798 33.682 50.688 33.858 50.688 34.034L50.864 39.424L51.128 47.982L51.194 49.94C51.172 50.6 52.272 50.688 52.25 50.028Z" fill="#196F3A"/>
<path d="M37.488 40.964L37.202 26.202L51.194 34.078L51.7 50.006L37.488 40.964Z" fill="white"/>
<path d="M38.016 41.0522L37.928 36.0362L37.774 28.1162L37.752 26.2902L36.938 26.5322L41.668 29.1942L49.192 33.4402L50.908 34.4082L50.666 33.9902L50.842 39.3802L51.106 47.9602L51.172 49.9182L51.986 49.6762L47.168 46.5962L39.534 41.7342L37.774 40.6122C37.554 40.4802 37.224 40.4362 37.026 40.6342C36.828 40.8322 36.982 41.1402 37.202 41.2722L42.02 44.3522L49.654 49.1922L51.414 50.3142C51.656 50.4682 52.25 50.4902 52.228 50.0722L52.052 44.5942L51.766 35.9702C51.744 35.3542 51.744 34.7602 51.7 34.1442C51.678 33.8362 51.458 33.7262 51.238 33.5942L50.358 33.1102L43.208 29.0842C41.338 28.0282 39.468 26.9722 37.598 25.9162L37.51 25.8722C37.268 25.7402 36.674 25.6742 36.696 26.1142L36.784 31.1302L36.938 39.0502L36.96 40.8982C36.96 41.4262 38.038 41.6462 38.016 41.0522Z" fill="#196F3A"/>
<path d="M29.59 48.246L29.436 47.828C29.458 47.828 30.932 47.212 31.46 45.936C31.724 45.254 31.702 44.484 31.394 43.824C31.218 43.296 30.8 42.878 30.272 42.724C28.666 42.262 26.268 43.912 26.246 43.912L26.004 43.56C26.114 43.494 28.6 41.778 30.404 42.306C31.064 42.504 31.592 43.01 31.812 43.648C32.164 44.418 32.186 45.32 31.878 46.112C31.262 47.564 29.656 48.224 29.59 48.246Z" fill="#000005"/>
<path d="M29.832 48.202L29.656 47.784L29.568 48.048C30.998 47.454 32.186 46.046 31.834 44.418C31.636 43.45 31.064 42.614 30.052 42.438C29.216 42.284 28.336 42.57 27.566 42.9C27.016 43.12 26.51 43.406 26.026 43.736L26.444 43.824L26.202 43.472L26.18 43.758C26.268 43.692 26.4 43.604 26.532 43.538C26.818 43.362 27.104 43.23 27.39 43.076C28.138 42.724 28.974 42.416 29.788 42.46C30.822 42.504 31.438 43.208 31.702 44.176C31.988 45.21 31.68 46.332 30.888 47.058C30.47 47.476 29.964 47.806 29.414 48.048C29.106 48.18 29.458 48.576 29.722 48.488C31.306 47.85 32.604 46.266 32.274 44.506C32.076 43.428 31.46 42.394 30.338 42.086C29.414 41.844 28.446 42.086 27.588 42.416C26.95 42.68 26.312 43.01 25.74 43.384C25.674 43.472 25.652 43.582 25.718 43.67L25.96 44.022C26.048 44.154 26.246 44.198 26.378 44.11C26.4 44.088 26.4 44.088 26.422 44.088L26.642 43.956C26.884 43.802 27.126 43.67 27.39 43.538C28.028 43.186 28.754 42.966 29.48 42.9C29.832 42.878 30.184 42.944 30.492 43.12C30.844 43.384 31.108 43.758 31.196 44.198C31.482 45.122 31.218 46.134 30.514 46.772C30.14 47.146 29.7 47.454 29.216 47.652C29.128 47.696 29.084 47.806 29.128 47.916L29.304 48.334C29.458 48.554 29.964 48.532 29.832 48.202Z" fill="#000005"/>
<path d="M33.066 46.244C31.548 46.244 30.316 45.54 29.766 44.33C29.502 43.78 29.48 43.142 29.722 42.592C30.47 40.898 33.286 39.952 33.55 39.864C34.342 39.446 35.332 39.622 35.948 40.26C36.916 41.228 37.202 43.01 36.586 44.33C36.058 45.474 34.65 46.244 33.066 46.244ZM34.474 40.084C34.21 40.084 33.946 40.15 33.704 40.282H33.682C33.66 40.282 30.8 41.228 30.118 42.768C29.92 43.208 29.942 43.714 30.14 44.132C30.624 45.166 31.702 45.804 33.044 45.804H33.066C34.474 45.804 35.706 45.144 36.168 44.154C36.762 42.856 36.366 41.316 35.618 40.59C35.31 40.26 34.914 40.106 34.474 40.084Z" fill="#000005"/>
<path d="M32.978 46.09C32.252 46.112 31.548 45.892 30.954 45.496C30.316 45.056 29.898 44.374 29.81 43.626C29.722 42.262 31.064 41.316 32.12 40.744C32.538 40.524 32.956 40.326 33.396 40.172C33.836 39.996 34.276 39.798 34.738 39.842C35.53 39.908 36.058 40.59 36.344 41.272C36.63 41.954 36.718 42.702 36.586 43.428C36.454 44.198 36.036 44.88 35.42 45.32C34.694 45.826 33.836 46.09 32.978 46.09C32.626 46.09 32.912 46.442 33.154 46.442C34.738 46.442 36.498 45.672 37.004 44.044C37.466 42.526 36.982 40.524 35.486 39.754C35.112 39.556 34.694 39.468 34.276 39.49C33.924 39.512 33.594 39.6 33.286 39.754C32.89 39.908 32.494 40.062 32.098 40.238C30.91 40.81 29.436 41.734 29.282 43.186C29.194 44.132 29.788 45.056 30.536 45.606C31.284 46.156 32.208 46.442 33.154 46.442C33.506 46.442 33.198 46.09 32.978 46.09Z" fill="#000005"/>
<path d="M34.408 39.908C33.99 39.952 33.572 40.062 33.198 40.216C32.758 40.392 32.318 40.59 31.9 40.81C30.888 41.36 29.458 42.35 29.766 43.692C30.096 45.166 31.724 45.936 33.11 45.958C34.562 45.98 36.168 45.298 36.608 43.802C37.048 42.284 36.278 39.974 34.408 39.908C34.298 39.908 34.21 39.952 34.232 40.062C34.254 40.172 34.452 40.238 34.562 40.238C35.266 40.26 35.728 40.898 35.97 41.492C36.234 42.152 36.256 42.878 36.08 43.56C35.706 44.924 34.32 45.606 32.978 45.606C31.768 45.606 30.316 44.902 30.228 43.516C30.162 42.394 31.372 41.58 32.252 41.118C32.67 40.898 33.088 40.7 33.528 40.546C33.858 40.392 34.21 40.282 34.584 40.238C34.936 40.26 34.628 39.908 34.408 39.908Z" fill="#000005"/>
<path d="M37.202 43.494C36.872 43.494 36.542 43.428 36.256 43.274C35.508 42.922 34.98 42.086 34.54 40.656C34.276 39.754 34.43 38.522 36.674 37.752C37.598 37.444 38.632 37.554 39.446 38.082C40.238 38.588 40.744 39.402 40.854 40.326C40.986 41.602 40.282 42.548 38.742 43.12C38.258 43.362 37.73 43.472 37.202 43.494ZM37.708 38.038C37.4 38.038 37.092 38.082 36.806 38.192C35.266 38.72 34.628 39.512 34.958 40.546C35.354 41.844 35.816 42.592 36.432 42.9C36.96 43.164 37.642 43.12 38.588 42.746C39.93 42.24 40.524 41.47 40.414 40.392C40.326 39.6 39.886 38.896 39.204 38.456C38.764 38.192 38.236 38.038 37.708 38.038Z" fill="#000005"/>
<path d="M37.136 43.252C35.794 43.23 35.2 41.954 34.848 40.832C34.606 40.062 34.672 39.358 35.31 38.786C36.322 37.884 37.906 37.532 39.138 38.17C40.194 38.742 40.898 40.062 40.502 41.25C40.304 41.8 39.908 42.24 39.38 42.526C38.72 42.966 37.928 43.208 37.136 43.252C36.784 43.23 36.938 43.736 37.246 43.736C38.06 43.692 38.83 43.472 39.534 43.076C40.128 42.79 40.59 42.306 40.898 41.734C41.514 40.458 40.876 38.852 39.798 38.038C38.434 37.004 36.652 37.202 35.288 38.126C34.452 38.698 34.012 39.578 34.276 40.568C34.452 41.36 34.804 42.108 35.288 42.768C35.772 43.384 36.498 43.736 37.268 43.736C37.598 43.758 37.444 43.252 37.136 43.252Z" fill="#000005"/>
<path d="M37.664 37.774C36.938 37.818 36.234 38.038 35.64 38.434C35.222 38.676 34.892 39.05 34.716 39.512C34.54 40.04 34.716 40.568 34.892 41.074C35.068 41.646 35.354 42.174 35.75 42.614C36.63 43.56 37.906 43.34 38.984 42.856C39.974 42.416 40.788 41.646 40.722 40.48C40.59 38.94 39.204 37.818 37.664 37.774C37.312 37.774 37.488 38.28 37.774 38.28C38.962 38.28 39.974 39.16 40.15 40.348C40.282 41.294 39.666 41.954 38.874 42.35C38.082 42.746 36.916 43.142 36.19 42.438C35.882 42.108 35.64 41.712 35.486 41.272C35.31 40.854 35.112 40.37 35.178 39.93C35.266 39.512 35.53 39.16 35.904 38.94C36.454 38.566 37.114 38.346 37.796 38.302C38.126 38.28 37.95 37.774 37.664 37.774Z" fill="#000005"/>
<path d="M41.9654 37.3801L40.0887 38.9081L40.3665 39.2493L42.2432 37.7213L41.9654 37.3801Z" fill="#000005"/>
<path d="M40.59 39.116L40.304 38.764L40.26 38.852L41.888 37.51L42.108 37.334L41.668 37.51L41.954 37.862L41.998 37.774L40.37 39.116L40.15 39.314C40.15 39.314 40.084 39.358 40.106 39.402C40.128 39.446 40.194 39.402 40.194 39.402C40.326 39.358 40.436 39.314 40.546 39.226L42.196 37.884L42.416 37.686C42.416 37.686 42.482 37.62 42.46 37.598L42.174 37.246C42.152 37.202 42.02 37.268 41.998 37.268C41.91 37.312 41.822 37.356 41.734 37.422L40.128 38.764L39.908 38.962C39.908 38.962 39.842 39.028 39.864 39.05L40.15 39.402C40.194 39.468 40.634 39.16 40.59 39.116Z" fill="#000005"/>
<path d="M74.14 49.874C73.986 49.83 70.51 48.818 69.52 46.728C69.168 46.024 69.168 45.188 69.498 44.462C69.806 43.714 70.29 43.274 70.928 43.142C72.534 42.812 74.536 44.66 74.624 44.748L74.316 45.078C74.294 45.056 72.402 43.296 71.016 43.582C70.532 43.692 70.158 44.022 69.894 44.638C69.608 45.232 69.608 45.936 69.894 46.53C70.796 48.444 74.206 49.434 74.25 49.434L74.14 49.874Z" fill="#000005"/>
<path d="M74.03 49.61C72.688 49.214 71.302 48.554 70.29 47.608C69.85 47.19 69.498 46.728 69.41 46.112C69.344 45.408 69.542 44.682 69.96 44.11C70.642 43.164 71.786 43.208 72.776 43.648C73.502 43.978 74.184 44.418 74.756 44.968L74.536 44.484C74.492 44.528 74.294 44.792 74.25 44.814C74.206 44.836 74.096 44.682 74.074 44.66C73.744 44.374 73.414 44.132 73.04 43.912C72.248 43.428 71.038 42.922 70.246 43.714C69.762 44.242 69.542 44.946 69.63 45.65C69.718 46.2 69.96 46.728 70.29 47.168C70.862 47.96 71.72 48.51 72.578 48.95C73.172 49.258 73.788 49.5 74.404 49.676L74.162 49.192L74.03 49.61C74.008 49.698 74.118 49.852 74.162 49.94C74.184 49.962 74.272 50.138 74.294 50.094L74.404 49.676C74.382 49.5 74.294 49.324 74.162 49.192C72.93 48.862 71.786 48.268 70.796 47.476C70.466 47.19 70.07 46.838 69.938 46.42C69.74 45.738 69.872 45.012 70.29 44.44C70.862 43.582 71.874 43.714 72.71 44.11C73.348 44.418 73.942 44.814 74.47 45.32H74.492L74.8 44.99C74.866 44.924 74.624 44.55 74.58 44.506C73.348 43.362 70.818 41.844 69.63 43.824C69.256 44.44 69.124 45.166 69.234 45.87C69.366 46.442 69.608 46.97 69.96 47.432C70.576 48.268 71.478 48.862 72.38 49.324C72.996 49.632 73.634 49.896 74.316 50.094C74.316 50.094 74.228 49.852 74.228 49.83C74.162 49.786 74.096 49.632 74.03 49.61Z" fill="#000005"/>
<path d="M69.432 46.728H69.344C67.496 46.662 65.582 44.396 65.406 44.176C64.724 43.582 64.526 42.614 64.9 41.8C65.428 40.546 66.99 39.622 68.442 39.71C69.696 39.776 70.928 40.81 71.522 42.262C72.094 43.67 71.874 45.1 70.972 46.046C70.576 46.486 70.004 46.728 69.432 46.728ZM68.244 40.15C66.88 40.15 65.692 41.052 65.296 41.976C64.988 42.636 65.164 43.406 65.714 43.868L65.736 43.89C65.758 43.912 67.672 46.222 69.366 46.288C69.85 46.31 70.312 46.112 70.62 45.76C71.412 44.924 71.588 43.67 71.082 42.438C70.554 41.14 69.476 40.216 68.398 40.172C68.354 40.15 68.31 40.15 68.244 40.15Z" fill="#000005"/>
<path d="M69.498 46.662C68.288 46.64 67.166 45.672 66.352 44.88C66.11 44.66 65.912 44.418 65.692 44.176C65.186 43.626 64.9 43.032 65.032 42.262C65.296 40.876 66.858 39.776 68.244 39.776C69.718 39.798 70.884 41.228 71.324 42.504C71.61 43.318 71.61 44.22 71.324 45.034C71.016 45.826 70.334 46.662 69.432 46.662C69.41 46.662 69.146 46.662 69.168 46.728C69.19 46.794 69.41 46.772 69.454 46.772C70.246 46.772 71.016 46.398 71.478 45.738C71.984 45.034 72.204 44.176 72.072 43.318C71.874 41.734 70.73 40.106 69.124 39.71C67.584 39.38 65.978 39.93 64.988 41.162C64.504 41.8 64.262 42.636 64.592 43.406C64.79 43.868 65.164 44.242 65.516 44.594C66.528 45.65 67.826 46.75 69.366 46.772C69.41 46.772 69.696 46.794 69.696 46.728C69.696 46.662 69.542 46.662 69.498 46.662Z" fill="#000005"/>
<path d="M68.244 40.084C66.88 40.106 65.208 40.898 64.9 42.372C64.702 43.34 65.582 44.11 66.22 44.704C67.078 45.518 68.156 46.354 69.388 46.354C70.114 46.376 70.796 46.024 71.192 45.408C71.61 44.748 71.742 43.956 71.588 43.186C71.302 41.58 70.004 40.106 68.31 40.084C68.266 40.084 67.98 40.062 67.98 40.128C67.98 40.194 68.134 40.194 68.178 40.194C69.52 40.216 70.554 41.514 70.928 42.68C71.148 43.318 71.17 44 70.972 44.66C70.774 45.276 70.312 45.98 69.652 46.156C69.124 46.288 68.464 45.914 68.024 45.65C67.584 45.364 67.188 45.056 66.814 44.704C66.55 44.462 66.308 44.22 66.088 43.956C65.824 43.714 65.604 43.406 65.472 43.054C65.01 41.536 66.902 40.194 68.222 40.172C68.244 40.172 68.508 40.15 68.486 40.106C68.464 40.062 68.288 40.084 68.244 40.084Z" fill="#000005"/>
<path d="M64.57 43.406C63.932 43.406 63.162 43.054 62.282 42.042C61.644 41.294 61.38 40.304 61.578 39.336C61.754 38.412 62.326 37.62 63.162 37.202C64.306 36.608 65.428 36.916 66.55 38.126C67.32 38.962 67.65 39.688 67.606 40.414C67.54 41.228 66.968 42.042 65.802 42.966C65.428 43.252 65.01 43.406 64.57 43.406ZM63.36 37.598C62.656 37.972 62.15 38.654 62.018 39.424C61.864 40.26 62.084 41.118 62.634 41.756C63.69 42.988 64.658 43.296 65.516 42.614C66.572 41.778 67.1 41.052 67.166 40.37C67.21 39.776 66.924 39.16 66.242 38.412C65.23 37.356 64.306 37.092 63.36 37.598Z" fill="#000005"/>
<path d="M64.482 43.164C64.042 43.142 63.602 42.988 63.25 42.724C62.7 42.35 62.26 41.844 61.952 41.25C61.468 40.084 61.754 38.764 62.656 37.906C63.074 37.51 63.602 37.268 64.174 37.202C64.724 37.158 65.296 37.334 65.736 37.664C66.308 38.06 66.792 38.588 67.122 39.204C67.386 39.622 67.452 40.15 67.342 40.634C67.166 41.184 66.858 41.668 66.44 42.064C65.89 42.592 65.274 43.142 64.482 43.164C64.262 43.186 64.46 43.692 64.658 43.692C65.45 43.67 66.044 43.164 66.594 42.636C67.078 42.218 67.452 41.69 67.672 41.074C68.112 39.754 67.166 38.434 66.242 37.598C65.758 37.114 65.12 36.806 64.46 36.696C63.8 36.652 63.162 36.828 62.634 37.246C61.512 38.126 61.072 39.622 61.534 40.964C61.82 41.756 62.348 42.46 63.008 42.988C63.47 43.406 64.064 43.648 64.68 43.692C64.878 43.67 64.68 43.164 64.482 43.164Z" fill="#000005"/>
<path d="M63.228 37.356C62.172 37.95 61.6 39.16 61.82 40.37C61.93 41.03 62.238 41.624 62.7 42.108C63.096 42.548 63.602 42.988 64.174 43.164C64.636 43.296 65.12 43.208 65.516 42.944C66.044 42.57 66.506 42.13 66.88 41.602C67.166 41.228 67.32 40.788 67.32 40.326C67.276 39.776 67.056 39.226 66.704 38.808C66.264 38.17 65.67 37.642 64.988 37.29C64.438 37.026 63.778 37.048 63.228 37.356C63.03 37.444 63.294 37.928 63.492 37.84C63.91 37.62 64.394 37.554 64.856 37.686C65.406 37.884 65.89 38.236 66.242 38.698C66.55 39.05 66.88 39.468 66.946 39.952C66.99 40.326 66.88 40.7 66.682 41.008C66.396 41.448 66.044 41.844 65.648 42.174C65.296 42.46 64.944 42.746 64.482 42.746C64.02 42.702 63.602 42.526 63.272 42.196C62.81 41.844 62.48 41.382 62.282 40.832C61.93 39.688 62.436 38.434 63.492 37.862C63.668 37.73 63.404 37.246 63.228 37.356Z" fill="#000005"/>
<path d="M60.203 36.9047L59.9882 37.2887L62.1004 38.4702L62.3152 38.0861L60.203 36.9047Z" fill="#000005"/>
<path d="M62.326 38.434L60.478 37.4L60.214 37.246L60.236 37.312L60.456 36.916H59.95L61.798 37.95L62.062 38.104L62.04 38.038L61.82 38.412C61.776 38.5 61.952 38.5 62.018 38.522C62.084 38.544 62.326 38.566 62.348 38.478L62.568 38.104C62.59 38.082 62.568 38.06 62.546 38.038L60.698 37.004L60.434 36.85C60.346 36.806 60.258 36.784 60.17 36.806C60.126 36.806 59.972 36.806 59.95 36.85L59.73 37.224C59.708 37.246 59.73 37.268 59.752 37.29L61.6 38.324L61.864 38.478C61.974 38.522 62.106 38.544 62.238 38.522C62.26 38.522 62.436 38.478 62.326 38.434Z" fill="#000005"/>
<path d="M14.498 54.076L28.842 45.65L14.498 38.412L0.528015 46.178L14.498 54.076Z" fill="#196F3A"/>
<path d="M14.674 54.384L19.514 51.546L27.236 47.014L29.018 45.958C29.26 45.804 29.546 45.452 29.194 45.254L24.288 42.79L16.588 38.896L15.422 38.302C15.246 38.192 15.07 38.104 14.872 38.038C14.608 37.95 14.388 38.082 14.168 38.214L13.288 38.698L6.13802 42.68C4.24602 43.736 2.35402 44.77 0.462021 45.848L0.37402 45.892C0.24202 45.98 -0.175979 46.376 0.110021 46.53L4.84002 49.192L12.364 53.438L14.08 54.406C14.322 54.516 14.608 54.472 14.784 54.296C14.916 54.208 15.158 53.856 14.916 53.724L10.208 51.062L2.66202 46.816L0.94602 45.848L0.70402 46.486L5.45602 43.846L12.958 39.666L14.674 38.698L14.168 38.764L19.008 41.206L26.73 45.1L28.49 45.98L28.666 45.276L23.826 48.114L16.126 52.668L14.344 53.724C14.168 53.834 13.904 54.054 14.036 54.296C14.168 54.538 14.498 54.494 14.674 54.384Z" fill="#196F3A"/>
<path d="M15.004 70.004L14.498 54.076L28.842 45.65L28.864 61.49L15.004 70.004Z" fill="white"/>
<path d="M15.554 70.092L15.378 64.702L15.114 56.144L15.048 54.186L14.938 54.34L19.778 51.502L27.5 46.97L29.282 45.914L28.292 45.584V50.952V59.488V61.446L28.402 61.292L23.716 64.174L16.258 68.75L14.564 69.784C14.344 69.916 14.52 70.18 14.674 70.268C14.916 70.4 15.202 70.4 15.444 70.268L20.086 67.408L27.478 62.854C28.05 62.502 28.688 62.172 29.238 61.776C29.37 61.666 29.37 61.578 29.37 61.424V60.5V52.316C29.37 50.16 29.37 48.004 29.37 45.848V45.738C29.37 45.298 28.688 45.232 28.38 45.408L23.54 48.246L15.818 52.778L14.036 53.834C13.992 53.878 13.948 53.922 13.926 53.988L14.102 59.378L14.366 67.936L14.432 69.894C14.432 70.136 14.696 70.268 14.916 70.312C15.114 70.356 15.554 70.334 15.554 70.092Z" fill="#196F3A"/>
<path d="M0.792015 60.962L0.528015 46.178L14.498 54.076L15.004 70.004L0.792015 60.962Z" fill="white"/>
<path d="M1.34203 61.006L1.25403 55.99L1.10003 48.07L1.05603 46.244L0.0220306 46.222L4.75203 48.884L12.276 53.13L13.992 54.098L13.926 54.032L14.102 59.422L14.366 67.958L14.432 69.916L15.488 69.96L10.67 66.902L3.03603 62.04L1.27603 60.918C1.03403 60.808 0.79203 60.786 0.52803 60.808C0.44003 60.808 0.13203 60.83 0.30803 60.962L5.14803 64.02L12.782 68.882L14.542 70.004C14.652 70.07 15.576 70.202 15.576 70.026L15.4 64.57L15.136 55.968L15.092 54.692C15.114 54.494 15.114 54.296 15.07 54.12C15.026 54.032 14.85 53.966 14.784 53.9L13.904 53.416L6.73203 49.368C4.86203 48.312 3.01403 47.234 1.12203 46.2L1.03403 46.156C0.92403 46.09 3.05176e-05 45.936 3.05176e-05 46.134L0.0880304 51.15L0.242031 59.07L0.28603 60.896C0.26403 61.138 1.34203 61.16 1.34203 61.006Z" fill="#196F3A"/>
<path d="M87.824 53.922L102.168 45.496L87.824 38.258L73.832 46.046L87.824 53.922Z" fill="#196F3A"/>
<path d="M88.33 54.032L93.17 51.194L100.892 46.662L102.674 45.606C102.696 45.606 102.696 45.584 102.674 45.562L97.724 43.076L89.98 39.16C89.43 38.896 88.902 38.588 88.352 38.346C88.088 38.214 87.582 38.082 87.296 38.192C87.252 38.214 87.186 38.236 87.142 38.28L86.328 38.72L79.134 42.724C77.22 43.78 75.306 44.836 73.414 45.914L73.326 45.958C73.304 45.958 73.304 45.98 73.326 46.002L78.056 48.664L85.58 52.91L87.296 53.878C87.494 53.966 87.736 54.032 87.956 54.032C88.066 54.054 88.176 54.076 88.286 54.054C88.286 54.054 88.418 54.054 88.352 54.01L83.622 51.348L76.12 47.124C75.548 46.794 74.954 46.486 74.382 46.156C74.338 46.134 74.338 46.2 74.382 46.156C74.426 46.112 74.514 46.09 74.58 46.046L75.46 45.562L82.632 41.558C84.502 40.524 86.394 39.534 88.242 38.434L88.33 38.39L87.274 38.236L92.268 40.744L100.056 44.66L101.178 45.232C101.332 45.276 101.486 45.364 101.618 45.452C101.596 45.408 101.64 45.43 101.552 45.474C101.464 45.518 101.376 45.562 101.288 45.628L100.298 46.2L92.95 50.512C91.08 51.612 89.232 52.69 87.384 53.79L87.296 53.834C87.208 53.878 87.626 53.966 87.67 53.988C87.824 53.988 88.198 54.12 88.33 54.032Z" fill="#196F3A"/>
<path d="M88.33 69.85L87.824 53.922L102.168 45.496V61.358L88.33 69.85Z" fill="white"/>
<path d="M88.858 69.982L88.682 64.372L88.396 55.748L88.352 54.538C88.33 54.384 88.33 54.23 88.33 54.054C88.33 54.12 88.286 54.098 88.374 54.054C88.462 54.01 88.55 53.944 88.638 53.9L89.628 53.328L96.976 49.016L100.562 46.904C101.222 46.53 101.882 46.156 102.52 45.76L102.608 45.716L101.574 45.386V50.82V59.4C101.574 59.994 101.596 60.61 101.574 61.204C101.574 61.16 101.64 61.16 101.552 61.204C101.464 61.248 101.398 61.292 101.332 61.336L100.408 61.908L93.368 66.264L89.826 68.442C89.188 68.838 88.528 69.19 87.912 69.608C87.89 69.63 87.846 69.652 87.824 69.652C87.626 69.762 88.066 69.982 88.132 70.004C88.352 70.114 88.594 70.114 88.814 70.026L93.434 67.188L100.87 62.634L102.014 61.93C102.212 61.82 102.432 61.688 102.608 61.556C102.696 61.468 102.696 61.424 102.696 61.292V60.368V52.206C102.696 50.05 102.718 47.894 102.696 45.738V45.628C102.696 45.254 101.904 45.166 101.662 45.298L96.822 48.136L89.1 52.668L87.318 53.724L87.296 53.768L87.472 59.158L87.736 67.738L87.802 69.696C87.802 70.07 88.88 70.224 88.858 69.982Z" fill="#196F3A"/>
<path d="M74.118 60.808L73.832 46.046L87.824 53.922L88.33 69.85L74.118 60.808Z" fill="white"/>
<path d="M74.624 61.028L74.536 56.012L74.382 48.092L74.36 46.266L73.678 46.354L78.408 49.016L85.932 53.262L87.67 54.23L87.362 53.746L87.538 59.136L87.802 67.694L87.868 69.652L88.55 69.564L83.71 66.506L76.076 61.666L74.316 60.544C74.14 60.434 73.81 60.324 73.678 60.544C73.546 60.764 73.81 61.028 73.964 61.116L78.782 64.196L86.416 69.036L88.176 70.158C88.286 70.246 88.858 70.422 88.858 70.07L88.682 64.57L88.418 55.968C88.396 55.352 88.418 54.736 88.352 54.142C88.33 53.79 88.088 53.658 87.824 53.526L86.966 53.042L79.728 48.972C77.858 47.916 75.988 46.86 74.118 45.804L74.03 45.76C73.898 45.694 73.348 45.496 73.348 45.848L73.436 50.864L73.59 58.784L73.612 60.61C73.634 60.874 73.81 61.094 74.052 61.16C74.206 61.226 74.624 61.292 74.624 61.028Z" fill="#196F3A"/>
<path d="M34.078 72.314C33.968 72.248 31.46 70.554 31.284 68.684C31.218 68.002 31.504 67.32 32.01 66.858C32.604 66.242 33.418 65.89 34.276 65.89C35.838 65.912 37.048 67.166 37.092 67.232L36.784 67.54C36.762 67.54 35.662 66.374 34.276 66.352C33.528 66.352 32.824 66.66 32.318 67.188C31.9 67.54 31.68 68.09 31.724 68.64C31.878 70.312 34.298 71.94 34.32 71.94L34.078 72.314Z" fill="#000005"/>
<path d="M34.298 72.138C33.286 71.478 32.296 70.554 31.79 69.432C31.592 69.036 31.526 68.596 31.57 68.156C31.658 67.628 31.944 67.166 32.362 66.836C33.154 66.132 34.254 65.934 35.244 66.33C35.86 66.572 36.432 66.946 36.894 67.408L36.938 67.1L36.63 67.408L36.982 67.364C36.564 66.946 36.058 66.594 35.486 66.374C34.562 65.978 33.484 66.088 32.648 66.638C31.834 67.188 31.24 68.046 31.504 69.058C31.702 69.828 32.252 70.51 32.824 71.06C33.22 71.456 33.638 71.808 34.1 72.116V71.852L33.858 72.226C33.66 72.534 34.1 72.622 34.254 72.402L34.496 72.028C34.54 71.962 34.584 71.83 34.496 71.764C33.638 71.192 32.78 70.4 32.274 69.498C31.856 68.75 31.812 67.936 32.45 67.298C33.11 66.594 34.122 66.352 35.024 66.704C35.596 66.924 36.102 67.254 36.542 67.694C36.63 67.782 36.828 67.716 36.894 67.65L37.224 67.342C37.312 67.254 37.378 67.144 37.268 67.034C36.058 65.758 34.056 65.186 32.516 66.176C31.57 66.77 30.822 67.738 31.02 68.904C31.174 69.806 31.768 70.598 32.384 71.236C32.824 71.698 33.308 72.116 33.836 72.468C34.078 72.622 34.518 72.292 34.298 72.138Z" fill="#000005"/>
<path d="M31.9 69.212H31.812C29.964 69.146 28.05 66.88 27.874 66.66C27.192 66.066 26.994 65.098 27.368 64.284C27.896 63.03 29.458 62.106 30.91 62.194C32.164 62.26 33.396 63.294 33.99 64.746C34.562 66.154 34.342 67.584 33.44 68.53C33.044 68.97 32.472 69.212 31.9 69.212ZM30.712 62.634C29.348 62.634 28.16 63.536 27.764 64.46C27.456 65.12 27.632 65.89 28.182 66.352L28.204 66.374C28.226 66.396 30.14 68.706 31.834 68.772C32.318 68.794 32.78 68.596 33.11 68.244C33.902 67.408 34.078 66.154 33.572 64.922C33.044 63.624 31.966 62.7 30.888 62.656C30.822 62.634 30.778 62.634 30.712 62.634Z" fill="#000005"/>
<path d="M31.702 69.036C30.47 69.014 29.414 68.178 28.578 67.342C28.314 67.078 28.094 66.836 27.874 66.572C27.368 65.978 27.258 65.12 27.588 64.416C28.138 63.162 29.59 62.348 30.932 62.348C32.516 62.348 33.594 63.712 33.946 65.164C34.166 66.022 34.078 66.924 33.682 67.694C33.264 68.464 32.582 69.014 31.702 69.036C31.658 69.036 31.812 69.168 31.812 69.19C31.878 69.234 32.01 69.388 32.098 69.388C32.978 69.366 33.66 68.838 34.078 68.09C34.496 67.32 34.606 66.44 34.408 65.582C34.078 64.086 32.868 62.612 31.372 62.128C29.876 61.644 28.028 62.502 27.28 63.844C26.862 64.548 26.884 65.406 27.302 66.088C27.566 66.44 27.852 66.77 28.182 67.078C28.688 67.606 29.26 68.09 29.876 68.508C30.536 68.948 31.284 69.344 32.098 69.366C32.142 69.366 31.988 69.212 31.988 69.212C31.922 69.168 31.79 69.036 31.702 69.036Z" fill="#000005"/>
<path d="M30.514 62.458C29.722 62.48 28.974 62.744 28.358 63.25C27.808 63.69 27.346 64.372 27.39 65.12C27.434 65.45 27.566 65.78 27.786 66.044C27.918 66.198 27.962 66.242 28.072 66.352C28.336 66.66 28.622 66.946 28.908 67.232C29.744 68.002 30.866 68.97 32.054 68.97C32.846 68.97 33.44 68.42 33.748 67.76C34.078 67.034 34.122 66.22 33.88 65.472C33.484 63.998 32.098 62.48 30.514 62.458C30.448 62.458 30.624 62.612 30.624 62.634C30.69 62.678 30.822 62.832 30.91 62.832C31.57 62.832 32.186 63.096 32.626 63.602C33.11 64.152 33.418 64.812 33.55 65.516C33.792 66.726 33.242 68.552 31.79 68.64C30.756 68.706 29.766 67.958 29.062 67.276C28.82 67.056 28.6 66.836 28.402 66.594C28.38 66.572 28.358 66.55 28.38 66.572C28.314 66.506 28.27 66.462 28.204 66.396C27.94 66.11 27.808 65.736 27.808 65.362C27.83 63.888 29.568 62.898 30.888 62.876C30.932 62.876 30.778 62.722 30.778 62.722C30.734 62.59 30.602 62.458 30.514 62.458Z" fill="#000005"/>
<path d="M27.038 65.89C26.4 65.89 25.63 65.538 24.772 64.526C24.134 63.778 23.87 62.788 24.068 61.82C24.244 60.896 24.816 60.126 25.652 59.686C26.796 59.092 27.918 59.4 29.04 60.61C29.81 61.446 30.14 62.172 30.096 62.898C30.03 63.712 29.458 64.526 28.292 65.45C27.896 65.714 27.478 65.89 27.038 65.89ZM25.828 60.06C25.124 60.434 24.618 61.116 24.486 61.886C24.31 62.722 24.552 63.58 25.102 64.24C26.158 65.472 27.126 65.758 27.984 65.098C29.04 64.262 29.568 63.536 29.612 62.854C29.656 62.26 29.37 61.644 28.688 60.896C27.72 59.84 26.774 59.576 25.828 60.06Z" fill="#000005"/>
<path d="M27.038 65.78C26.576 65.758 26.158 65.582 25.806 65.274C25.278 64.878 24.838 64.372 24.53 63.778C24.002 62.634 24.2 61.314 25.036 60.368C25.432 59.928 25.96 59.62 26.554 59.532C27.148 59.444 27.72 59.752 28.16 60.104C29.018 60.786 29.964 61.93 29.722 63.118C29.59 63.668 29.304 64.152 28.886 64.548C28.38 65.098 27.72 65.758 26.95 65.78C26.884 65.78 26.708 65.802 26.752 65.912C26.796 66.022 27.016 66.022 27.082 66.022C27.874 66 28.446 65.582 28.996 65.076C29.502 64.658 29.898 64.13 30.162 63.514C30.668 62.194 29.678 60.896 28.71 60.082C27.676 59.224 26.29 59.004 25.124 59.752C23.958 60.544 23.43 61.996 23.826 63.36C24.09 64.174 24.618 64.878 25.322 65.362C25.806 65.758 26.4 66 27.016 66.022C27.082 66.022 27.28 66.022 27.302 65.912C27.324 65.802 27.104 65.78 27.038 65.78Z" fill="#000005"/>
<path d="M25.586 59.994C24.508 60.588 23.936 61.842 24.222 63.052C24.398 63.69 24.75 64.262 25.234 64.702C25.63 65.12 26.136 65.406 26.708 65.538C27.192 65.626 27.698 65.538 28.094 65.252C28.622 64.878 29.084 64.438 29.458 63.91C29.744 63.536 29.876 63.096 29.876 62.634C29.832 62.062 29.502 61.534 29.128 61.116C28.666 60.566 28.094 60.038 27.39 59.818C26.796 59.642 26.136 59.708 25.586 59.994C25.476 60.06 25.608 60.148 25.674 60.17C25.806 60.214 25.938 60.214 26.048 60.148C26.466 59.906 26.972 59.906 27.412 60.126C27.94 60.434 28.424 60.852 28.776 61.358C29.084 61.71 29.282 62.15 29.348 62.612C29.37 62.986 29.26 63.36 29.062 63.668C28.776 64.108 28.424 64.504 28.006 64.812C27.698 65.076 27.324 65.406 26.884 65.318C26.444 65.23 26.004 64.878 25.674 64.548C25.256 64.174 24.948 63.668 24.794 63.118C24.486 61.952 25.014 60.72 26.07 60.148C26.18 60.082 26.048 59.994 25.982 59.972C25.85 59.928 25.718 59.928 25.586 59.994Z" fill="#000005"/>
<path d="M22.6746 59.3835L22.4598 59.7675L24.572 60.9489L24.7868 60.5649L22.6746 59.3835Z" fill="#000005"/>
<path d="M24.794 60.94L22.946 59.906L22.682 59.752L22.726 59.774L22.946 59.378L22.44 59.312L24.288 60.346L24.552 60.5H24.508L24.288 60.896C24.266 60.918 24.53 60.984 24.552 60.984C24.574 60.984 24.794 61.028 24.838 60.984L25.058 60.61C25.058 60.588 25.036 60.588 25.014 60.588L23.166 59.554L22.902 59.4C22.814 59.356 22.704 59.334 22.594 59.334C22.55 59.334 22.418 59.312 22.396 59.334L22.176 59.73C22.176 59.752 22.198 59.752 22.22 59.752L24.068 60.786L24.332 60.94C24.442 60.984 24.574 61.006 24.706 61.006C24.728 60.984 24.882 61.006 24.794 60.94Z" fill="#000005"/>
<path d="M68.046 68.684L67.892 68.266C67.914 68.266 69.388 67.65 69.916 66.374C70.18 65.692 70.158 64.922 69.85 64.262C69.674 63.734 69.256 63.316 68.706 63.162C67.1 62.7 64.702 64.35 64.68 64.35L64.438 63.998C64.548 63.932 67.034 62.216 68.838 62.744C69.498 62.942 70.026 63.448 70.246 64.086C70.598 64.856 70.62 65.758 70.312 66.55C69.718 68.002 68.112 68.662 68.046 68.684Z" fill="#000005"/>
<path d="M68.266 68.684L68.09 68.266L68.024 68.464C69.454 67.87 70.62 66.506 70.268 64.9C70.048 63.954 69.476 63.118 68.464 62.92C67.628 62.766 66.77 63.03 66 63.338C65.45 63.558 64.944 63.844 64.46 64.174L64.856 64.306L64.614 63.954V64.174C65.648 63.47 66.968 62.81 68.244 62.854C68.684 62.854 69.102 62.986 69.432 63.272C69.806 63.624 70.07 64.108 70.18 64.614C70.444 65.67 70.114 66.77 69.344 67.518C68.926 67.936 68.42 68.266 67.87 68.508C67.606 68.618 68.002 68.97 68.2 68.904C69.762 68.266 71.06 66.748 70.73 64.966C70.532 63.866 69.894 62.898 68.794 62.568C67.892 62.304 66.924 62.546 66.066 62.876C65.428 63.118 64.812 63.448 64.24 63.844C64.152 63.91 64.218 63.998 64.262 64.064L64.504 64.416C64.57 64.526 64.79 64.614 64.9 64.548C65.802 63.932 66.902 63.382 68.002 63.294C68.354 63.25 68.728 63.316 69.036 63.492C69.432 63.734 69.63 64.196 69.762 64.614C70.026 65.538 69.762 66.55 69.036 67.21C68.772 67.474 68.464 67.694 68.156 67.87C68.046 67.936 67.936 67.98 67.826 68.046L67.716 68.09C67.628 68.134 67.606 68.2 67.65 68.288L67.826 68.706C67.892 68.882 68.376 68.992 68.266 68.684Z" fill="#000005"/>
<path d="M71.5 66.682C69.982 66.682 68.75 65.978 68.2 64.768C67.936 64.218 67.914 63.58 68.156 63.03C68.904 61.336 71.72 60.39 71.984 60.302C72.776 59.906 73.744 60.06 74.382 60.72C75.35 61.688 75.636 63.47 75.02 64.79C74.492 65.934 73.084 66.704 71.5 66.682ZM72.93 60.522C72.666 60.522 72.402 60.588 72.16 60.72H72.138C72.116 60.72 69.256 61.666 68.574 63.206C68.376 63.646 68.398 64.152 68.596 64.57C69.08 65.604 70.158 66.22 71.5 66.22C72.908 66.22 74.14 65.56 74.602 64.57C75.196 63.272 74.8 61.732 74.052 61.006C73.766 60.698 73.348 60.522 72.93 60.522Z" fill="#000005"/>
<path d="M71.368 66.462C69.938 66.44 68.024 65.626 68.156 63.91C68.244 62.634 69.542 61.754 70.576 61.204C70.972 60.984 71.39 60.808 71.83 60.654C72.292 60.478 72.732 60.28 73.238 60.324C74.932 60.456 75.416 62.524 75.086 63.91C74.69 65.582 73.018 66.462 71.368 66.462C71.28 66.462 71.5 66.924 71.632 66.924C73.26 66.924 74.932 66.088 75.372 64.438C75.768 62.942 75.218 61.006 73.832 60.17C73.48 59.95 73.062 59.84 72.644 59.862C72.336 59.906 72.028 59.994 71.742 60.104C71.324 60.258 70.928 60.412 70.532 60.61C69.344 61.204 67.782 62.194 67.826 63.69C67.848 64.592 68.442 65.472 69.124 66.044C69.85 66.616 70.73 66.924 71.654 66.902C71.72 66.924 71.5 66.462 71.368 66.462Z" fill="#000005"/>
<path d="M72.798 60.302C72.402 60.346 72.006 60.456 71.654 60.632C71.192 60.808 70.752 61.006 70.334 61.248C69.278 61.82 67.936 62.832 68.354 64.196C68.772 65.626 70.18 66.484 71.61 66.506C73.106 66.528 74.646 65.78 74.998 64.218C75.174 63.36 75.064 62.48 74.646 61.71C74.272 60.984 73.656 60.324 72.798 60.302C72.71 60.302 72.93 60.764 73.062 60.764C74.668 60.808 74.976 62.898 74.558 64.086C74.118 65.406 72.666 66.022 71.368 66.022C70.202 66.022 68.398 65.362 68.596 63.866C68.728 62.81 69.85 62.084 70.708 61.622C71.104 61.402 71.522 61.226 71.94 61.05C72.292 60.896 72.666 60.786 73.04 60.742C73.15 60.742 72.93 60.302 72.798 60.302Z" fill="#000005"/>
<path d="M75.636 63.932C75.306 63.932 74.976 63.866 74.69 63.712C73.942 63.36 73.414 62.524 72.974 61.094C72.71 60.192 72.864 58.96 75.108 58.19C76.032 57.882 77.066 57.992 77.88 58.52C78.672 59.026 79.178 59.862 79.288 60.786C79.42 62.062 78.716 63.008 77.176 63.58C76.692 63.8 76.164 63.91 75.636 63.932ZM76.164 58.476C75.856 58.476 75.548 58.52 75.262 58.63C73.722 59.158 73.084 59.95 73.392 60.984C73.788 62.282 74.25 63.03 74.866 63.338C75.394 63.602 76.076 63.558 77.022 63.184C78.364 62.678 78.958 61.908 78.848 60.83C78.76 60.038 78.32 59.334 77.638 58.894C77.198 58.63 76.692 58.476 76.164 58.476Z" fill="#000005"/>
<path d="M75.878 63.844C74.536 63.822 73.854 62.744 73.436 61.622C73.128 60.808 72.952 59.994 73.546 59.268C73.92 58.828 74.404 58.498 74.954 58.322C75.746 58.014 76.648 58.08 77.396 58.498C78.496 59.07 79.222 60.302 79.024 61.556C78.804 62.964 77.176 63.866 75.856 63.888C75.724 63.888 75.614 63.932 75.482 63.976C75.46 63.976 75.284 64.042 75.394 64.042C76.164 63.998 76.912 63.822 77.616 63.492C78.232 63.25 78.76 62.854 79.156 62.348C79.948 61.182 79.464 59.554 78.43 58.718C77.132 57.662 75.46 57.904 74.052 58.63C73.172 59.092 72.424 59.862 72.622 60.94C72.754 61.71 73.062 62.414 73.502 63.052C73.92 63.668 74.602 64.064 75.35 64.064C75.46 64.064 75.57 64.042 75.68 63.998C75.768 63.91 75.834 63.888 75.878 63.844Z" fill="#000005"/>
<path d="M76.384 58.388C75.812 58.41 75.24 58.542 74.734 58.784C74.316 58.938 73.92 59.158 73.59 59.466C73.326 59.686 73.15 60.016 73.084 60.346C72.996 60.808 73.194 61.27 73.348 61.71C73.634 62.458 74.074 63.294 74.888 63.536C75.328 63.624 75.79 63.624 76.23 63.492C76.758 63.382 77.264 63.184 77.748 62.964C78.628 62.524 79.222 61.82 79.134 60.786C79.2 60.786 78.914 59.928 78.87 59.862C78.716 59.598 78.54 59.334 78.298 59.136C77.748 58.652 77.088 58.41 76.384 58.388C76.296 58.41 76.186 58.432 76.076 58.476C76.01 58.498 75.966 58.542 75.9 58.564C77.264 58.564 78.408 59.576 78.584 60.918C78.65 60.918 78.496 61.754 78.474 61.82C78.342 62.128 78.166 62.392 77.902 62.59C77.264 63.14 76.23 63.558 75.372 63.338C74.734 63.162 74.338 62.59 74.052 62.018C73.766 61.446 73.392 60.632 73.612 59.95C73.898 59.092 75.042 58.542 75.878 58.542C76.01 58.542 76.12 58.498 76.252 58.454C76.318 58.454 76.472 58.388 76.384 58.388Z" fill="#000005"/>
<path d="M80.3888 57.8055L78.5116 59.3328L78.7893 59.6741L80.6664 58.1468L80.3888 57.8055Z" fill="#000005"/>
<path d="M78.958 59.62L78.672 59.29L78.716 59.532L80.366 58.19L80.586 57.992L80.234 57.882L80.52 58.212L80.476 57.97L78.826 59.312L78.606 59.51C78.518 59.598 78.65 59.752 78.694 59.818C78.738 59.884 78.914 59.972 79.002 59.884L80.652 58.542L80.872 58.344C80.938 58.278 80.872 58.146 80.828 58.102L80.542 57.772C80.476 57.684 80.3 57.552 80.19 57.662L78.562 58.982L78.342 59.18C78.276 59.246 78.342 59.378 78.386 59.422L78.672 59.752C78.738 59.84 78.892 59.95 79.002 59.906C79.112 59.862 79.024 59.686 78.958 59.62Z" fill="#000005"/>
<path d="M51.304 73.106L67.76 63.448L51.304 55.154L35.266 64.064L51.304 73.106Z" fill="#196F3A"/>
<path d="M51.546 73.612L53.174 72.644L57.112 70.334L61.864 67.54L65.956 65.12L67.32 64.328L67.738 64.086C67.826 64.042 67.892 63.998 67.958 63.954L67.98 63.932C68.09 63.866 67.628 63.008 67.518 62.942L61.93 60.126L53.108 55.682L51.744 55C51.546 54.868 51.326 54.758 51.106 54.67C50.996 54.648 50.908 54.714 50.82 54.78L49.83 55.33L41.58 59.928L35.134 63.514L35.024 63.58C34.914 63.646 35.376 64.504 35.486 64.57L40.942 67.65L49.566 72.512L51.524 73.612C51.612 73.656 51.436 73.26 51.436 73.238C51.37 73.084 51.26 72.754 51.084 72.644L45.628 69.564L37.026 64.68L35.068 63.58L35.53 64.57L40.964 61.534L49.61 56.716L50.93 55.99C51.128 55.858 51.326 55.748 51.546 55.638C51.59 55.616 51.502 55.616 51.59 55.638C51.678 55.66 51.766 55.704 51.832 55.77L52.888 56.298L61.314 60.544L67.892 63.866L68.002 63.91L67.54 62.92L65.912 63.888L61.952 66.22L57.2 69.014L53.086 71.434L51.722 72.226L51.304 72.468C51.216 72.512 51.15 72.556 51.084 72.6L51.062 72.622C50.952 72.688 51.48 73.656 51.546 73.612Z" fill="#196F3A"/>
<path d="M51.876 91.388L51.304 73.106L67.76 63.448V81.62L51.876 91.388Z" fill="white"/>
<path d="M52.36 91.63L52.162 85.448L51.854 75.592L51.788 73.348L51.7 73.458L53.328 72.49L57.266 70.18L62.018 67.386L66.11 64.966L67.474 64.174C67.694 64.042 67.914 63.932 68.112 63.8L68.134 63.778L67.276 63.162V69.322V79.09V81.334L67.364 81.224L61.974 84.524L53.438 89.76L51.48 90.97C51.128 91.19 51.964 91.894 52.25 91.696L57.552 88.44L66.044 83.226C66.726 82.808 67.43 82.412 68.09 81.972C68.222 81.884 68.222 81.796 68.222 81.642V80.586V71.258V63.778V63.646C68.222 63.36 67.65 62.854 67.364 63.03L65.736 63.998L61.798 66.308L57.046 69.102L52.954 71.522L51.59 72.314C51.37 72.424 51.15 72.556 50.952 72.688L50.93 72.71C50.886 72.732 50.842 72.776 50.842 72.82L51.04 79.002L51.37 88.858L51.436 91.102C51.436 91.344 51.678 91.542 51.876 91.652C51.942 91.718 52.36 91.872 52.36 91.63Z" fill="#196F3A"/>
<path d="M35.574 81.026L35.266 64.064L51.304 73.106L51.876 91.388L35.574 81.026Z" fill="white"/>
<path d="M36.124 80.916L36.014 75.174L35.838 66.066L35.794 63.954L34.738 64.196L40.15 67.254L48.752 72.094L50.094 72.842C50.336 72.952 50.556 73.062 50.754 73.216C50.82 73.26 50.754 73.194 50.776 73.238C50.776 73.326 50.776 73.392 50.776 73.48L50.82 74.58L51.128 83.996L51.37 91.344V91.476L52.426 91.234L50.798 90.2L46.926 87.736L42.218 84.744L38.148 82.148L36.806 81.29C36.564 81.158 36.344 81.026 36.124 80.916C36.124 80.916 36.102 80.916 36.102 80.894C35.948 80.806 35.574 80.938 35.42 80.982C35.376 81.004 34.98 81.114 35.068 81.158L36.696 82.192L40.568 84.656L45.276 87.648L49.368 90.244L50.71 91.102C50.908 91.256 51.128 91.388 51.348 91.498L51.37 91.52C51.48 91.586 52.426 91.432 52.426 91.278L52.228 85.03L51.92 75.152L51.876 73.678L51.854 73.238C51.854 73.172 51.854 73.084 51.854 73.018C51.81 72.93 51.634 72.864 51.546 72.82L50.512 72.248L42.284 67.606L35.882 63.976L35.772 63.91C35.662 63.844 34.716 63.998 34.716 64.152L34.826 69.894L35.002 79.002L35.046 81.114C35.046 81.18 36.124 81.092 36.124 80.916Z" fill="#196F3A"/>
</svg>
