<svg width="24" height="24" viewBox="0 0 24 24" fill="none" xmlns="http://www.w3.org/2000/svg">
<path d="M10 11L21 11.9C21.2475 11.9487 21.4675 12.0891 21.6158 12.293C21.7642 12.497 21.83 12.7496 21.8 13L21.135 17.158C21.0974 17.3929 20.9773 17.6068 20.7962 17.7611C20.6151 17.9154 20.3849 18.0001 20.147 18H20" stroke="white" stroke-width="1.5" stroke-linecap="round" stroke-linejoin="round"/>
<path d="M16 18H11" stroke="white" stroke-width="1.5" stroke-linecap="round" stroke-linejoin="round"/>
<path d="M18 5C17.7348 5 17.4804 5.10536 17.2929 5.29289C17.1054 5.48043 17 5.73478 17 6V11.573" stroke="white" stroke-width="1.5" stroke-linecap="round" stroke-linejoin="round"/>
<path d="M3 4H11.129C11.3704 4.00014 11.6036 4.08758 11.7855 4.2462C11.9675 4.40481 12.0859 4.62389 12.119 4.863L13 11.246" stroke="white" stroke-width="1.5" stroke-linecap="round" stroke-linejoin="round"/>
<path d="M4 11V4" stroke="white" stroke-width="1.5" stroke-linecap="round" stroke-linejoin="round"/>
<path d="M7 15H7.01" stroke="white" stroke-width="1.5" stroke-linecap="round" stroke-linejoin="round"/>
<path d="M8 10.1V4" stroke="white" stroke-width="1.5" stroke-linecap="round" stroke-linejoin="round"/>
<path d="M18 20C19.1046 20 20 19.1046 20 18C20 16.8954 19.1046 16 18 16C16.8954 16 16 16.8954 16 18C16 19.1046 16.8954 20 18 20Z" stroke="white" stroke-width="1.5" stroke-linecap="round" stroke-linejoin="round"/>
<path d="M7 20C9.76142 20 12 17.7614 12 15C12 12.2386 9.76142 10 7 10C4.23858 10 2 12.2386 2 15C2 17.7614 4.23858 20 7 20Z" stroke="white" stroke-width="1.5" stroke-linecap="round" stroke-linejoin="round"/>
</svg>
