<svg width="21" height="20" viewBox="0 0 21 20" fill="none" xmlns="http://www.w3.org/2000/svg">
<path d="M6.33337 16.6667H14.6667" stroke="white" stroke-width="2" stroke-linecap="round" stroke-linejoin="round"/>
<path d="M8.83337 16.6666C13.4167 14.5833 9.50004 11.3333 11.3334 8.33325" stroke="white" stroke-width="2" stroke-linecap="round" stroke-linejoin="round"/>
<path d="M8.41671 7.833C9.33337 8.49967 9.91671 9.66634 10.3334 10.9163C8.66671 11.2497 7.41671 11.2497 6.33337 10.6663C5.33337 10.1663 4.41671 9.083 3.83337 7.16634C6.16671 6.74967 7.50004 7.16634 8.41671 7.833Z" stroke="white" stroke-width="2" stroke-linecap="round" stroke-linejoin="round"/>
<path d="M12.2499 4.99992C11.6146 5.99288 11.295 7.15504 11.3333 8.33325C12.9166 8.24992 14.0833 7.83325 14.9166 7.16659C15.7499 6.33325 16.2499 5.24992 16.3333 3.33325C14.0833 3.41659 12.9999 4.16659 12.2499 4.99992Z" stroke="white" stroke-width="2" stroke-linecap="round" stroke-linejoin="round"/>
</svg>
