<svg width="20" height="22" viewBox="0 0 20 22" fill="none" xmlns="http://www.w3.org/2000/svg">
<path d="M1.99999 12.9997C1.81076 13.0003 1.62522 12.9473 1.46495 12.8467C1.30467 12.746 1.17623 12.602 1.09454 12.4313C1.01286 12.2606 0.981285 12.0703 1.00349 11.8823C1.0257 11.6944 1.10077 11.5166 1.21999 11.3697L11.12 1.16967C11.1943 1.08396 11.2955 1.02603 11.407 1.00541C11.5185 0.984784 11.6337 1.00269 11.7337 1.05618C11.8337 1.10967 11.9126 1.19557 11.9573 1.29978C12.0021 1.40399 12.0101 1.52032 11.98 1.62967L10.06 7.64967C10.0034 7.8012 9.98436 7.96419 10.0046 8.12468C10.0248 8.28517 10.0837 8.43836 10.1761 8.5711C10.2685 8.70385 10.3918 8.81219 10.5353 8.88684C10.6788 8.96148 10.8382 9.0002 11 8.99967H18C18.1892 8.99903 18.3748 9.05209 18.535 9.1527C18.6953 9.2533 18.8238 9.39732 18.9054 9.56802C18.9871 9.73872 19.0187 9.92909 18.9965 10.117C18.9743 10.3049 18.8992 10.4827 18.78 10.6297L8.87999 20.8297C8.80573 20.9154 8.70453 20.9733 8.59301 20.9939C8.48149 21.0146 8.36627 20.9967 8.26626 20.9432C8.16626 20.8897 8.08741 20.8038 8.04266 20.6996C7.99791 20.5954 7.98991 20.479 8.01999 20.3697L9.93999 14.3497C9.99661 14.1982 10.0156 14.0352 9.9954 13.8747C9.97518 13.7142 9.91633 13.561 9.8239 13.4282C9.73147 13.2955 9.60822 13.1872 9.46472 13.1125C9.32121 13.0379 9.16175 12.9991 8.99999 12.9997H1.99999Z" stroke="#4A4459" stroke-width="2" stroke-linecap="round" stroke-linejoin="round"/>
</svg>
