<svg width="20" height="20" viewBox="0 0 20 20" fill="none" xmlns="http://www.w3.org/2000/svg">
<path d="M2.5 5.83333V4.16667C2.5 3.72464 2.67559 3.30072 2.98816 2.98816C3.30072 2.67559 3.72464 2.5 4.16667 2.5H5.83333" stroke="#668760" stroke-width="2" stroke-linecap="round" stroke-linejoin="round"/>
<path d="M14.167 2.5H15.8337C16.2757 2.5 16.6996 2.67559 17.0122 2.98816C17.3247 3.30072 17.5003 3.72464 17.5003 4.16667V5.83333" stroke="#668760" stroke-width="2" stroke-linecap="round" stroke-linejoin="round"/>
<path d="M17.5003 14.1667V15.8333C17.5003 16.2754 17.3247 16.6993 17.0122 17.0118C16.6996 17.3244 16.2757 17.5 15.8337 17.5H14.167" stroke="#668760" stroke-width="2" stroke-linecap="round" stroke-linejoin="round"/>
<path d="M5.83333 17.5H4.16667C3.72464 17.5 3.30072 17.3244 2.98816 17.0118C2.67559 16.6993 2.5 16.2754 2.5 15.8333V14.1667" stroke="#668760" stroke-width="2" stroke-linecap="round" stroke-linejoin="round"/>
<path d="M5.83301 10H14.1663" stroke="#668760" stroke-width="2" stroke-linecap="round" stroke-linejoin="round"/>
</svg>
