<svg width="24" height="25" viewBox="0 0 24 25" fill="none" xmlns="http://www.w3.org/2000/svg">
<path d="M7 20.6667H17" stroke="#4A4459" stroke-width="2" stroke-linecap="round" stroke-linejoin="round"/>
<path d="M10 20.6667C15.5 18.1667 10.8 14.2667 13 10.6667" stroke="#4A4459" stroke-width="2" stroke-linecap="round" stroke-linejoin="round"/>
<path d="M9.5 10.0663C10.6 10.8663 11.3 12.2663 11.8 13.7663C9.8 14.1663 8.3 14.1663 7 13.4663C5.8 12.8663 4.7 11.5663 4 9.26629C6.8 8.76629 8.4 9.26629 9.5 10.0663Z" stroke="#4A4459" stroke-width="2" stroke-linecap="round" stroke-linejoin="round"/>
<path d="M14.0998 6.66669C13.3374 7.85824 12.9539 9.25284 12.9998 10.6667C14.8998 10.5667 16.2998 10.0667 17.2998 9.26669C18.2998 8.26669 18.8998 6.96669 18.9998 4.66669C16.2998 4.76669 14.9998 5.66669 14.0998 6.66669Z" stroke="#4A4459" stroke-width="2" stroke-linecap="round" stroke-linejoin="round"/>
</svg>
