<svg width="21" height="21" viewBox="0 0 21 21" fill="none" xmlns="http://www.w3.org/2000/svg">
<path d="M9.39809 7.1382C9.27147 7.66627 9.08305 8.19553 8.699 8.57958C8.31495 8.96363 7.78628 9.15206 7.25761 9.27867C6.39984 9.4841 5.64731 9.99724 5.14281 10.7207C4.63831 11.4442 4.41694 12.3278 4.52071 13.2037C4.62447 14.0796 5.04614 14.8869 5.70572 15.4725C6.3653 16.0581 7.21689 16.3813 8.09892 16.3806C12.7387 16.3806 16.5 12.6193 16.5 7.97951C16.5007 7.09748 16.1776 6.24588 15.5919 5.5863C15.0063 4.92673 14.199 4.50505 13.3231 4.40129C12.4472 4.29753 11.5637 4.5189 10.8402 5.0234C10.1167 5.5279 9.60351 6.28042 9.39809 7.1382Z" stroke="white" stroke-width="1.44018" stroke-linecap="round" stroke-linejoin="round"/>
<path d="M6.50339 9.55165C6.66159 9.90766 6.90407 10.2198 7.2099 10.4612C7.51572 10.7025 7.87569 10.8658 8.25872 10.9369C8.64176 11.008 9.03635 10.9848 9.40841 10.8693C9.78048 10.7538 10.1189 10.5495 10.3943 10.274C10.6697 9.99852 10.874 9.66011 10.9894 9.28802C11.1048 8.91593 11.1279 8.52133 11.0568 8.13831C10.9856 7.75529 10.8222 7.39535 10.5808 7.08958C10.3394 6.7838 10.0272 6.54138 9.67119 6.38324" stroke="white" stroke-width="1.44018" stroke-linecap="round" stroke-linejoin="round"/>
</svg>
