<svg width="20" height="19" viewBox="0 0 20 19" fill="none" xmlns="http://www.w3.org/2000/svg">
<path d="M14.9992 6V6.8C16.1617 7.46723 17.0673 8.5045 17.5716 9.74641C18.0759 10.9883 18.1498 12.3633 17.7816 13.6521C17.4134 14.9409 16.6242 16.0693 15.5399 16.8574C14.4556 17.6454 13.1387 18.0476 11.7992 18H7.99917C6.62811 17.9069 5.32184 17.3817 4.26796 16.4998C3.21408 15.6178 2.46682 14.4246 2.13353 13.0914C1.80023 11.7582 1.89805 10.3537 2.41292 9.0796C2.92779 7.80549 3.83322 6.72734 4.99917 6C4.99917 4.67392 5.52595 3.40215 6.46364 2.46447C7.40132 1.52678 8.67309 1 9.99917 1C11.3253 1 12.597 1.52678 13.5347 2.46447C14.4724 3.40215 14.9992 4.67392 14.9992 6Z" stroke="black" stroke-width="2" stroke-linecap="round" stroke-linejoin="round"/>
</svg>
