<svg width="24" height="25" viewBox="0 0 24 25" fill="none" xmlns="http://www.w3.org/2000/svg">
<path d="M10.9997 20.3334C9.24379 20.3387 7.54999 19.6839 6.25425 18.4988C4.95852 17.3137 4.1555 15.6849 4.00447 13.9355C3.85344 12.186 4.36543 10.4437 5.43888 9.05412C6.51234 7.6645 8.06886 6.72907 9.79974 6.43337C15.4997 5.33337 16.9997 4.81337 18.9997 2.33337C19.9997 4.33337 20.9997 6.51337 20.9997 10.3334C20.9997 15.8334 16.2197 20.3334 10.9997 20.3334Z" stroke="#4A4459" stroke-width="2" stroke-linecap="round" stroke-linejoin="round"/>
<path d="M2 21.3334C2 18.3334 3.85 15.9734 7.08 15.3334C9.5 14.8534 12 13.3334 13 12.3334" stroke="#4A4459" stroke-width="2" stroke-linecap="round" stroke-linejoin="round"/>
</svg>
