<svg width="24" height="24" viewBox="0 0 24 24" fill="none" xmlns="http://www.w3.org/2000/svg">
<path d="M10.165 6.598C9.95397 7.478 9.63997 8.36 8.99997 9C8.35997 9.64 7.47897 9.954 6.59797 10.165C5.16853 10.5073 3.91447 11.3625 3.07375 12.5681C2.23303 13.7738 1.86412 15.2462 2.03704 16.7058C2.20995 18.1655 2.91265 19.5109 4.01181 20.4868C5.11097 21.4627 6.53011 22.0011 7.99997 22C15.732 22 22 15.732 22 8C22.0011 6.53014 21.4626 5.111 20.4867 4.01184C19.5109 2.91268 18.1655 2.20998 16.7058 2.03707C15.2461 1.86415 13.7738 2.23306 12.5681 3.07378C11.3624 3.9145 10.5073 5.16856 10.165 6.598Z" stroke="#4A4459" stroke-width="2" stroke-linecap="round" stroke-linejoin="round"/>
<path d="M5.34106 10.62C5.60471 11.2133 6.00879 11.7335 6.51843 12.1356C7.02807 12.5378 7.62794 12.8099 8.26625 12.9284C8.90456 13.0469 9.56212 13.0083 10.1822 12.8158C10.8022 12.6234 11.3661 12.2829 11.8251 11.8238C12.2841 11.3647 12.6245 10.8007 12.8168 10.1807C13.0092 9.5606 13.0477 8.90303 12.9291 8.26474C12.8104 7.62646 12.5382 7.02663 12.1359 6.51707C11.7337 6.00751 11.2134 5.60352 10.6201 5.34" stroke="#4A4459" stroke-width="2" stroke-linecap="round" stroke-linejoin="round"/>
</svg>
