<svg width="24" height="24" viewBox="0 0 24 24" fill="none" xmlns="http://www.w3.org/2000/svg">
<path d="M7 20H17" stroke="#4A4459" stroke-width="2" stroke-linecap="round" stroke-linejoin="round"/>
<path d="M10 20C15.5 17.5 10.8 13.6 13 10" stroke="#4A4459" stroke-width="2" stroke-linecap="round" stroke-linejoin="round"/>
<path d="M9.5 9.4C10.6 10.2 11.3 11.6 11.8 13.1C9.8 13.5 8.3 13.5 7 12.8C5.8 12.2 4.7 10.9 4 8.6C6.8 8.1 8.4 8.6 9.5 9.4Z" stroke="#4A4459" stroke-width="2" stroke-linecap="round" stroke-linejoin="round"/>
<path d="M14.1 6C13.3376 7.19156 12.9541 8.58615 13 10C14.9 9.9 16.3 9.4 17.3 8.6C18.3 7.6 18.9 6.3 19 4C16.3 4.1 15 5 14.1 6Z" stroke="#4A4459" stroke-width="2" stroke-linecap="round" stroke-linejoin="round"/>
</svg>
