<svg width="24" height="24" viewBox="0 0 24 24" fill="none" xmlns="http://www.w3.org/2000/svg">
<path d="M7 16.3C9.2 16.3 11 14.47 11 12.25C11 11.09 10.43 9.98999 9.29 9.05999C8.15 8.12999 7.29 6.74999 7 5.29999C6.71 6.74999 5.86 8.13999 4.71 9.05999C3.56 9.97999 3 11.1 3 12.25C3 14.47 4.8 16.3 7 16.3Z" stroke="#4A4459" stroke-width="2" stroke-linecap="round" stroke-linejoin="round"/>
<path d="M12.5601 6.59999C13.2478 5.50111 13.7354 4.28903 14.0001 3.01999C14.5001 5.51999 16.0001 7.91999 18.0001 9.51999C20.0001 11.12 21.0001 13.02 21.0001 15.02C21.0058 16.4023 20.601 17.7551 19.8369 18.9071C19.0728 20.059 17.9839 20.9581 16.7082 21.4905C15.4325 22.0228 14.0275 22.1644 12.6713 21.8973C11.315 21.6301 10.0686 20.9663 9.09009 19.99" stroke="#4A4459" stroke-width="2" stroke-linecap="round" stroke-linejoin="round"/>
</svg>
