<svg width="21" height="20" viewBox="0 0 21 20" fill="none" xmlns="http://www.w3.org/2000/svg">
<path d="M16.3402 13.6005L11.5374 5.19549C11.4326 5.0107 11.2808 4.857 11.0973 4.75007C10.9137 4.64313 10.7051 4.58679 10.4927 4.58679C10.2803 4.58679 10.0717 4.64313 9.88823 4.75007C9.70471 4.857 9.55284 5.0107 9.44812 5.19549L4.64527 13.6005C4.53941 13.7838 4.48391 13.9919 4.48438 14.2035C4.48485 14.4152 4.54127 14.623 4.64794 14.8059C4.7546 14.9887 4.90771 15.1401 5.09175 15.2448C5.27579 15.3494 5.48421 15.4035 5.69589 15.4016H15.3016C15.5123 15.4013 15.7192 15.3457 15.9015 15.2402C16.0839 15.1348 16.2353 14.9832 16.3405 14.8007C16.4458 14.6182 16.5011 14.4112 16.5011 14.2005C16.501 13.9899 16.4455 13.7829 16.3402 13.6005Z" stroke="#49454F" stroke-width="1.44086" stroke-linecap="round" stroke-linejoin="round"/>
<path d="M10.4961 8.19727V10.5987" stroke="#49454F" stroke-width="1.44086" stroke-linecap="round" stroke-linejoin="round"/>
<path d="M10.4961 13.0001H10.5027" stroke="#49454F" stroke-width="1.44086" stroke-linecap="round" stroke-linejoin="round"/>
</svg>
