<svg width="24" height="24" viewBox="0 0 24 24" fill="none" xmlns="http://www.w3.org/2000/svg">
<path d="M14 12L5.619 20.38C5.42202 20.577 5.18815 20.7334 4.93076 20.84C4.67336 20.9467 4.39748 21.0016 4.11885 21.0017C3.55615 21.0018 3.01646 20.7783 2.6185 20.3805C2.22054 19.9827 1.99692 19.4431 1.99683 18.8804C1.99673 18.3177 2.22018 17.778 2.618 17.38L11 9" stroke="#4A4459" stroke-width="2" stroke-linecap="round" stroke-linejoin="round"/>
<path d="M14.9999 15.5C14.9999 15.6326 15.0526 15.7598 15.1463 15.8535C15.2401 15.9473 15.3673 16 15.4999 16C16.3535 16 17.1987 15.8319 17.9873 15.5052C18.776 15.1785 19.4925 14.6998 20.0961 14.0962C20.6997 13.4926 21.1785 12.776 21.5051 11.9874C21.8318 11.1988 21.9999 10.3536 21.9999 9.49999C21.9999 9.36738 21.9472 9.2402 21.8534 9.14643C21.7597 9.05267 21.6325 8.99999 21.4999 8.99999H19.8279C19.2975 8.99987 18.7889 8.78909 18.4139 8.41399L13.3519 3.35199C13.1259 3.12605 12.8195 2.99911 12.4999 2.99911C12.1803 2.99911 11.8739 3.12605 11.6479 3.35199L9.3519 5.64799C9.12595 5.87396 8.99902 6.18043 8.99902 6.49999C8.99902 6.81954 9.12595 7.12601 9.3519 7.35199L14.4139 12.414C14.789 12.789 14.9998 13.2976 14.9999 13.828V15.5Z" stroke="#4A4459" stroke-width="2" stroke-linecap="round" stroke-linejoin="round"/>
</svg>
