<svg width="20" height="20" viewBox="0 0 20 20" fill="none" xmlns="http://www.w3.org/2000/svg">
<path d="M15.8392 13.6005L11.0364 5.19555C10.9317 5.01077 10.7798 4.85706 10.5963 4.75013C10.4128 4.64319 10.2042 4.58685 9.99176 4.58685C9.77936 4.58685 9.57077 4.64319 9.38725 4.75013C9.20373 4.85706 9.05187 5.01077 8.94714 5.19555L4.14429 13.6005C4.03844 13.7839 3.98293 13.9919 3.9834 14.2036C3.98387 14.4153 4.0403 14.6231 4.14696 14.806C4.25363 14.9888 4.40674 15.1402 4.59077 15.2448C4.77481 15.3494 4.98323 15.4035 5.19492 15.4016H14.8006C15.0113 15.4014 15.2182 15.3458 15.4005 15.2403C15.5829 15.1348 15.7343 14.9832 15.8395 14.8007C15.9448 14.6182 16.0002 14.4113 16.0001 14.2006C16 13.9899 15.9446 13.783 15.8392 13.6005Z" stroke="#49454F" stroke-width="1.44086" stroke-linecap="round" stroke-linejoin="round"/>
<path d="M9.99756 8.19733V10.5988" stroke="#49454F" stroke-width="1.44086" stroke-linecap="round" stroke-linejoin="round"/>
<path d="M9.99756 13.0001H10.0042" stroke="#49454F" stroke-width="1.44086" stroke-linecap="round" stroke-linejoin="round"/>
</svg>
