<svg width="23" height="22" viewBox="0 0 23 22" fill="none" xmlns="http://www.w3.org/2000/svg">
<path d="M21.5 11H19.02C18.583 10.9991 18.1577 11.1413 17.8091 11.405C17.4606 11.6686 17.208 12.0392 17.09 12.46L14.74 20.82C14.7249 20.8719 14.6933 20.9175 14.65 20.95C14.6067 20.9825 14.5541 21 14.5 21C14.4459 21 14.3933 20.9825 14.35 20.95C14.3067 20.9175 14.2751 20.8719 14.26 20.82L8.74 1.18C8.72485 1.12807 8.69327 1.08246 8.65 1.05C8.60673 1.01754 8.55409 1 8.5 1C8.44591 1 8.39327 1.01754 8.35 1.05C8.30673 1.08246 8.27515 1.12807 8.26 1.18L5.91 9.54C5.79246 9.95915 5.54138 10.3285 5.19486 10.592C4.84835 10.8555 4.42532 10.9988 3.99 11H1.5" stroke="white" stroke-width="2" stroke-linecap="round" stroke-linejoin="round"/>
</svg>
