<svg width="57" height="33" viewBox="0 0 57 33" fill="none" xmlns="http://www.w3.org/2000/svg">
<path d="M28.3333 26.3804C33.8562 26.3804 38.3333 21.9032 38.3333 16.3804C38.3333 10.8575 33.8562 6.38037 28.3333 6.38037C22.8105 6.38037 18.3333 10.8575 18.3333 16.3804C18.3333 21.9032 22.8105 26.3804 28.3333 26.3804Z" stroke="#4A4459" stroke-width="2" stroke-linecap="round" stroke-linejoin="round"/>
<path d="M21.2633 9.31042L25.5033 13.5504" stroke="#4A4459" stroke-width="2" stroke-linecap="round" stroke-linejoin="round"/>
<path d="M31.1633 13.5504L35.4033 9.31042" stroke="#4A4459" stroke-width="2" stroke-linecap="round" stroke-linejoin="round"/>
<path d="M31.1633 19.2103L35.4033 23.4503" stroke="#4A4459" stroke-width="2" stroke-linecap="round" stroke-linejoin="round"/>
<path d="M25.5033 19.2103L21.2633 23.4503" stroke="#4A4459" stroke-width="2" stroke-linecap="round" stroke-linejoin="round"/>
<path d="M28.3333 20.3804C30.5425 20.3804 32.3333 18.5895 32.3333 16.3804C32.3333 14.1712 30.5425 12.3804 28.3333 12.3804C26.1242 12.3804 24.3333 14.1712 24.3333 16.3804C24.3333 18.5895 26.1242 20.3804 28.3333 20.3804Z" stroke="#4A4459" stroke-width="2" stroke-linecap="round" stroke-linejoin="round"/>
</svg>
