<svg width="57" height="33" viewBox="0 0 57 33" fill="none" xmlns="http://www.w3.org/2000/svg">
<path d="M31.6667 25.3804V17.3804C31.6667 17.1152 31.5613 16.8608 31.3738 16.6733C31.1863 16.4857 30.9319 16.3804 30.6667 16.3804H26.6667C26.4015 16.3804 26.1471 16.4857 25.9596 16.6733C25.772 16.8608 25.6667 17.1152 25.6667 17.3804V25.3804" stroke="#4A4459" stroke-width="2" stroke-linecap="round" stroke-linejoin="round"/>
<path d="M19.6667 14.3803C19.6666 14.0894 19.73 13.802 19.8525 13.5381C19.9749 13.2741 20.1535 13.0401 20.3757 12.8523L27.3757 6.85334C27.7367 6.54825 28.194 6.38086 28.6667 6.38086C29.1393 6.38086 29.5967 6.54825 29.9577 6.85334L36.9577 12.8523C37.1799 13.0401 37.3584 13.2741 37.4809 13.5381C37.6034 13.802 37.6668 14.0894 37.6667 14.3803V23.3803C37.6667 23.9108 37.456 24.4195 37.0809 24.7946C36.7058 25.1696 36.1971 25.3803 35.6667 25.3803H21.6667C21.1363 25.3803 20.6275 25.1696 20.2525 24.7946C19.8774 24.4195 19.6667 23.9108 19.6667 23.3803V14.3803Z" stroke="#4A4459" stroke-width="2" stroke-linecap="round" stroke-linejoin="round"/>
</svg>
